<svg width="44" height="44" viewBox="0 0 44 44" xmlns="http://www.w3.org/2000/svg">
    <path d="M18.1597 19.6035H15.2344V28.9321H18.1597V19.6035Z" />
    <path
        d="M26.0729 19.4014C25.9651 19.3879 25.8505 19.3812 25.7359 19.3744C24.098 19.307 23.1746 20.2776 22.8511 20.6955C22.7634 20.8101 22.723 20.8775 22.723 20.8775V19.6306H19.9258V28.9592H22.723H22.8511C22.8511 28.0088 22.8511 27.0651 22.8511 26.1147C22.8511 25.6025 22.8511 25.0902 22.8511 24.578C22.8511 23.9444 22.8039 23.2703 23.1207 22.6907C23.3903 22.2054 23.8756 21.9627 24.4215 21.9627C26.0392 21.9627 26.0729 23.4254 26.0729 23.5602C26.0729 23.5669 26.0729 23.5736 26.0729 23.5736V28.9996H28.9982V22.9131C28.9982 20.8303 27.94 19.6036 26.0729 19.4014Z" />
    <path
        d="M16.6985 18.3971C17.6366 18.3971 18.3971 17.6366 18.3971 16.6986C18.3971 15.7605 17.6366 15 16.6985 15C15.7605 15 15 15.7605 15 16.6986C15 17.6366 15.7605 18.3971 16.6985 18.3971Z" />
</svg>