<svg width="44" height="44" viewBox="0 0 44 44" xmlns="http://www.w3.org/2000/svg">
    <path fill-rule="evenodd" clip-rule="evenodd"
        d="M14.9624 21.9947C18.7205 20.3573 21.2265 19.2779 22.4804 18.7564C26.0604 17.2673 26.8043 17.0086 27.2892 17.0001C27.3958 16.9982 27.6343 17.0246 27.7887 17.15C27.9192 17.2558 27.955 17.3987 27.9722 17.4991C27.9894 17.5994 28.0108 17.828 27.9938 18.0066C27.7998 20.045 26.9603 24.9917 26.5332 27.2748C26.3525 28.2408 25.9967 28.5648 25.6522 28.5965C24.9036 28.6653 24.3351 28.1017 23.6101 27.6264C22.4755 26.8827 21.8345 26.4197 20.7332 25.6939C19.4604 24.8552 20.2855 24.3942 21.0108 23.6408C21.2006 23.4436 24.4991 20.4434 24.5629 20.1713C24.5709 20.1372 24.5783 20.0104 24.503 19.9434C24.4276 19.8764 24.3163 19.8993 24.236 19.9175C24.1223 19.9433 22.3097 21.1414 18.7984 23.5116C18.2839 23.8649 17.8179 24.037 17.4004 24.028C16.9401 24.018 16.0547 23.7677 15.3965 23.5538C14.5892 23.2913 13.9475 23.1526 14.0034 22.7069C14.0325 22.4748 14.3522 22.2374 14.9624 21.9947Z" />
</svg>