<svg width="44" height="44" viewBox="0 0 44 44" xmlns="http://www.w3.org/2000/svg">
    <path
        d="M15 26.5967C15.7107 26.9898 20.8546 29.9548 24.5126 27.6695C28.1703 25.3842 27.9684 21.4469 27.9684 19.6423C28.3 18.9482 29 18.5953 29 16.7163C28.3125 17.3515 27.6291 17.5674 26.9497 17.3648C26.2844 16.3501 25.3688 15.901 24.2028 16.0182C22.4543 16.1939 21.8147 17.9093 22.0029 20.129C19.3068 21.4922 17.1928 19.1405 16.1031 17.3648C15.7391 18.7633 15.3883 20.4425 16.1031 22.2998C16.5798 23.5384 17.7259 24.5851 19.5408 25.4409C17.7013 26.4375 16.1878 26.8232 15 26.5967Z" />
</svg>