<svg width="120" height="38" viewBox="0 0 120 38" fill="none" xmlns="http://www.w3.org/2000/svg">
<g clip-path="url(#clip0_2002_24072)">
<path d="M44.6445 18.7005V8.37793H51.2684C52.2414 8.37793 53.0452 8.4988 53.6798 8.7345C54.3144 8.97021 54.7798 9.28448 55.0759 9.67731C55.372 10.0702 55.5171 10.5234 55.5171 11.0371C55.5171 11.7866 55.2391 12.3788 54.6891 12.82C54.1391 13.2612 53.3232 13.4848 52.2414 13.4848V13.6178C53.2024 13.6178 53.9397 13.8293 54.4534 14.2584C54.9671 14.6875 55.2209 15.2556 55.2209 15.9627C55.2209 16.4946 55.0819 16.966 54.7979 17.3769C54.5138 17.7879 54.0787 18.1143 53.4804 18.35C52.882 18.5857 52.1266 18.7066 51.2261 18.7066H44.6506L44.6445 18.7005ZM50.6338 16.4462C51.0085 16.4462 51.3107 16.4039 51.5404 16.3133C51.77 16.2226 51.9392 16.1017 52.048 15.9506C52.1568 15.7996 52.2112 15.6122 52.2112 15.3946C52.2112 15.177 52.1568 15.0078 52.048 14.8567C51.9392 14.7056 51.77 14.5848 51.5343 14.4941C51.2986 14.4035 50.9964 14.3612 50.6338 14.3612H47.2735V12.7838H50.9299C51.4678 12.7838 51.8667 12.6871 52.1266 12.4876C52.3804 12.2882 52.5073 12.0223 52.5073 11.6778C52.5073 11.3635 52.3744 11.1097 52.1145 10.9163C51.8546 10.7229 51.4557 10.6262 50.9299 10.6262H47.5092V16.4402H50.6338V16.4462Z" fill="white"/>
<path d="M54.8945 18.7005L59.8926 8.37793H63.6095L68.6076 18.7005H65.4226L61.7964 11.0311H61.6755L58.0795 18.7005H54.8945ZM58.3032 16.4885V14.893H65.1929V16.4885H58.3032Z" fill="white"/>
<path d="M68.9092 18.7005V8.37793H73.4963L77.5516 16.0353H77.6725V8.37793H80.4465V18.7005H75.8594L71.8041 11.0432H71.6832V18.7005H68.9092Z" fill="white"/>
<path d="M80.7373 18.7005L85.7354 8.37793H89.4523L94.4504 18.7005H91.2654L87.6392 11.0311H87.5183L83.9223 18.7005H80.7373ZM84.1459 16.4885V14.893H91.0357V16.4885H84.1459Z" fill="white"/>
<path d="M94.752 18.7005V8.37793H99.3391L103.394 16.0353H103.515V8.37793H106.289V18.7005H101.702L97.6469 11.0432H97.526V18.7005H94.752Z" fill="white"/>
<path d="M106.58 18.7005L111.578 8.37793H115.295L120.293 18.7005H117.108L113.482 11.0311H113.361L109.765 18.7005H106.58ZM109.989 16.4885V14.893H116.878V16.4885H109.989Z" fill="white"/>
<path d="M48.9291 29.7606C47.9561 29.7606 47.116 29.5914 46.415 29.2469C45.7079 28.9024 45.17 28.431 44.7953 27.8266C44.4206 27.2223 44.2393 26.5454 44.2393 25.7839C44.2393 25.0224 44.4266 24.3334 44.8074 23.7351C45.1881 23.1367 45.7441 22.6653 46.4875 22.3208C47.2248 21.9764 48.1133 21.8071 49.1528 21.8071C49.7994 21.8071 50.4098 21.8917 50.9779 22.061C51.5461 22.2302 51.9872 22.4236 52.2955 22.6351V23.7955C51.9993 23.5477 51.5702 23.318 50.9961 23.1126C50.428 22.9071 49.8115 22.8043 49.1467 22.8043C48.361 22.8043 47.6842 22.9373 47.1221 23.1972C46.56 23.4571 46.1309 23.8136 45.8348 24.2669C45.5386 24.7202 45.3936 25.2278 45.3936 25.7839C45.3936 26.3399 45.5326 26.8415 45.8167 27.2948C46.1007 27.7481 46.5117 28.1107 47.0496 28.3706C47.5875 28.6304 48.2099 28.7634 48.9291 28.7634C49.5456 28.7634 50.1318 28.6848 50.6758 28.5277C51.2257 28.3706 51.6548 28.1953 51.9631 28.0019V29.126C51.6609 29.2892 51.2318 29.4342 50.6818 29.5612C50.1318 29.6881 49.5456 29.7546 48.9291 29.7546V29.7606Z" fill="white"/>
<path d="M52.791 29.6517L56.7677 21.9219H58.0913L62.068 29.6517H60.9077L57.4628 22.9191H57.3963L53.9514 29.6517H52.791ZM54.7794 27.6634V26.6118H60.0797V27.6634H54.7794Z" fill="white"/>
<path d="M63.8872 29.6517H62.7812V21.9219H67.1387C67.8096 21.9219 68.3716 22.0246 68.8249 22.2241C69.2782 22.4295 69.6166 22.7136 69.8403 23.0883C70.0639 23.463 70.1787 23.9042 70.1787 24.3998C70.1787 24.8954 70.0639 25.3365 69.8403 25.7113C69.6166 26.086 69.2782 26.3761 68.8249 26.5755C68.3716 26.781 67.8096 26.8777 67.1387 26.8777H63.7059V25.8321H67.1387C67.7491 25.8321 68.2145 25.6992 68.5348 25.4393C68.8551 25.1794 69.0123 24.8289 69.0123 24.3937C69.0123 23.9586 68.8551 23.6141 68.5348 23.3482C68.2145 23.0883 67.7491 22.9553 67.1387 22.9553H63.8812V29.6336L63.8872 29.6517Z" fill="white"/>
<path d="M71.9248 21.9219V29.6457H73.0308V21.9219H71.9248Z" fill="white"/>
<path d="M74.4512 22.9733V21.9277H81.7398V22.9733H74.4512ZM77.5395 29.6515V22.798H78.6455V29.6515H77.5395Z" fill="white"/>
<path d="M80.8516 29.6517L84.8283 21.9219H86.1519L90.1286 29.6517H88.9682L85.5233 22.9191H85.4568L82.0119 29.6517H80.8516ZM82.8399 27.6634V26.6118H88.1402V27.6634H82.8399Z" fill="white"/>
<path d="M90.8418 29.6517V21.9219H91.9478V28.6001H97.3569V29.6517H90.8418Z" fill="white"/>
<path d="M13.979 0.860122L1.17247 8.25152C0.447231 8.66854 0 9.44213 0 10.2822V27.7121C0 28.5522 0.447231 29.3258 1.17247 29.7428L13.979 37.1403C15.1515 37.8171 16.614 36.971 16.614 35.6173V24.231C16.614 22.9739 15.9432 21.8135 14.8553 21.185L11.078 19.0032L14.8614 16.8214C15.9492 16.1929 16.6201 15.0325 16.6201 13.7754V2.38917C16.6201 1.03539 15.1575 0.189272 13.985 0.866163L13.979 0.860122ZM11.078 29.6461L5.54204 26.449V19.4625L11.078 22.6596V29.6461ZM11.078 15.3347L5.54204 18.5318V11.5453L11.078 8.34822V15.3347Z" fill="url(#paint0_linear_2002_24072)"/>
<path d="M33.7052 8.25122L20.8987 0.859816C19.7262 0.182926 18.2637 1.02903 18.2637 2.38281V35.6169C18.2637 36.9707 19.7262 37.8168 20.8987 37.1399L33.7052 29.7425C34.4305 29.3255 34.8777 28.5519 34.8777 27.7118V18.9969L29.3417 22.194V26.4487L23.7997 29.6458V8.34792L29.3417 11.545V15.7998L34.8777 18.9969V10.2819C34.8777 9.44182 34.4305 8.66823 33.7052 8.25122Z" fill="url(#paint1_linear_2002_24072)"/>
</g>
<defs>
<linearGradient id="paint0_linear_2002_24072" x1="-4.99552" y1="30.716" x2="42.8066" y2="2.21581" gradientUnits="userSpaceOnUse">
<stop stop-color="#E0843D"/>
<stop offset="1" stop-color="#FFD275"/>
</linearGradient>
<linearGradient id="paint1_linear_2002_24072" x1="13.27" y1="30.7146" x2="61.0679" y2="2.23193" gradientUnits="userSpaceOnUse">
<stop stop-color="#E0843D"/>
<stop offset="1" stop-color="#FFD275"/>
</linearGradient>
<clipPath id="clip0_2002_24072">
<rect width="120" height="37.8378" fill="white" transform="translate(0 0.0810547)"/>
</clipPath>
</defs>
</svg>
