<svg width="89" height="25" viewBox="0 0 89 25" fill="none" xmlns="http://www.w3.org/2000/svg">
<path fill-rule="evenodd" clip-rule="evenodd" d="M48.3122 8.33091C48.5239 8.55234 50.4288 13.8277 50.628 14.4789C50.8264 15.1767 51.1066 15.8461 51.4622 16.4718C52.1221 16.6281 52.1843 15.9378 52.3836 15.3907C53.4667 12.4339 55.1102 8.1225 55.9319 5.21783C56.5047 3.81108 56.5545 3.43334 55.5211 3.43334C54.4877 3.43334 54.5997 4.13671 54.1889 5.04849C53.8278 6.78088 52.4334 10.441 51.9229 12.1213C51.9229 12.3428 51.9229 12.3428 51.6614 12.3428C50.8023 9.84186 49.8063 6.78088 48.8352 4.30604C48.5737 3.8241 48.113 3.7199 47.8018 4.80101C47.2789 6.52037 46.5567 8.56537 45.9965 10.2326C45.9965 10.2326 45.3241 12.3428 45.2743 12.447C44.9183 11.848 44.6576 11.1926 44.5024 10.5062C43.7305 8.51327 43.0581 6.36407 42.3983 4.37117C42.2364 3.99343 42.2364 3.772 41.8754 3.55057C41.5134 3.41026 41.1221 3.37427 40.7424 3.44636C39.7214 3.61569 40.3813 4.47537 40.5929 5.11362C41.838 8.61747 43.22 12.8247 44.602 16.1592C44.6344 16.2418 44.6869 16.3141 44.7545 16.3687C44.822 16.4233 44.9021 16.4583 44.9867 16.4701C45.0713 16.482 45.1574 16.4704 45.2363 16.4364C45.3152 16.4024 45.3841 16.3472 45.4362 16.2764C45.6354 15.8727 48.1628 8.33091 48.3122 8.33091Z" fill="white"/>
<path fill-rule="evenodd" clip-rule="evenodd" d="M1.20296 3.65291C1.1515 3.8699 1.16898 4.09852 1.25276 4.30419C1.46442 5.21597 0.841898 15.6103 1.00375 16.0271C1.50772 16.2642 2.07275 16.3192 2.60987 16.1834C2.85888 15.9099 2.75927 15.6494 2.75927 15.2195C2.75927 13.3829 2.90868 11.6115 2.90868 9.72278C2.97093 9.0194 3.02073 8.53746 3.02073 8.10762C3.02073 7.67778 3.02073 7.72988 3.12034 7.62568C3.21994 7.52147 4.85095 10.4913 5.01281 10.8169C5.32407 11.4552 5.93415 12.4321 6.34501 13.1875C6.96754 14.3729 7.2788 13.5653 7.4282 13.2918C7.78927 12.8098 10.5782 7.69081 10.7774 7.5866C10.9641 7.79501 10.9641 12.914 10.9641 13.2918C10.9641 16.0922 10.6529 16.3658 12.3461 16.2485C12.8691 16.2485 12.9189 15.8187 12.8691 15.3367C12.8691 14.425 12.8691 13.396 12.8691 12.4842C12.7321 10.1656 12.6325 7.52147 12.6325 5.21597C12.6325 4.94243 12.7321 3.91342 12.7321 3.75712C12.5797 3.57742 12.3732 3.45753 12.1468 3.41727C11.9204 3.377 11.6877 3.41878 11.4871 3.53568C11.126 3.75712 11.0264 4.23906 10.7649 4.5647C9.71909 6.50549 8.31219 8.70679 7.3286 10.5434C6.96754 11.1947 6.96754 10.9732 6.65627 10.5434C5.98395 9.51437 5.11241 7.74291 4.50234 6.7139L3.25729 4.5647C3.08423 4.19121 2.86212 3.84485 2.59742 3.53568C2.2488 3.27517 1.56403 3.48358 1.20296 3.65291Z" fill="white"/>
<path fill-rule="evenodd" clip-rule="evenodd" d="M66.9061 9.68432C67.3468 9.30816 67.8695 9.05185 68.4278 8.93822C68.9861 8.82459 69.5626 8.85717 70.1059 9.03305C71.7494 9.78853 71.961 12.3285 71.2389 13.5659C70.9313 14.0482 70.4883 14.4187 69.9709 14.6263C69.4535 14.834 68.8873 14.8685 68.3504 14.7252C67.8302 14.6178 67.3379 14.3958 66.9061 14.0739V9.68432ZM66.9061 7.84773C66.8285 6.42912 66.8285 5.00702 66.9061 3.58841C66.9061 3.00226 66.7069 2.89806 66.184 3.10647C64.9389 3.65354 64.9389 3.4321 65.1133 4.61742C65.2129 5.21659 65.1133 12.1592 65.1133 13.1361C65.1133 15.0638 64.8518 15.5067 67.5286 16.3143C68.2909 16.4815 69.0775 16.4858 69.8414 16.3269C70.6052 16.168 71.3304 15.8491 71.9735 15.3895C74.6005 13.1361 73.8784 6.77965 69.085 7.26159C68.6671 7.28524 68.2512 7.33746 67.8399 7.41789C67.6781 7.47 67.068 7.84773 66.9933 7.84773H66.9061Z" fill="white"/>
<path fill-rule="evenodd" clip-rule="evenodd" d="M30.5957 16.1454C30.7904 15.4662 30.8455 14.7515 30.7575 14.0483C30.7066 13.3112 30.7066 12.5712 30.7575 11.834C30.9069 11.834 31.0688 12.1076 31.38 12.4332C31.6913 12.7588 34.2561 15.5593 34.667 15.8719C34.8103 16.0115 34.9831 16.1137 35.1713 16.1703C35.3595 16.2269 35.5579 16.2362 35.7502 16.1975C36.1112 16.1975 36.684 16.1975 36.8832 15.937C36.8832 15.5593 36.161 14.9601 35.8498 14.6345C35.5385 14.3089 35.1401 13.892 34.779 13.4492C33.9871 12.72 33.2465 11.9321 32.5628 11.0916C32.5628 10.9743 35.3891 8.48648 35.912 8.01756C36.1112 7.79613 36.3229 7.74402 36.2731 7.41839C35.6323 7.21158 34.9467 7.21158 34.3059 7.41839C34.0569 7.53562 32.3512 9.15077 31.8905 9.58062C31.7411 9.73692 30.8571 10.7138 30.7575 10.6617C30.6081 10.1668 30.7575 3.4326 30.6579 3.05486C30.5583 2.67712 28.8028 3.27629 28.8526 3.92757C28.9502 4.38516 29.0003 4.85244 29.002 5.32129V14.6345C29.002 14.9601 28.9024 15.937 29.1141 16.0933C29.5985 16.2229 30.104 16.2406 30.5957 16.1454V16.1454Z" fill="white"/>
<path fill-rule="evenodd" clip-rule="evenodd" d="M17.186 11.7307C17.7587 11.5744 19.6761 12.0564 19.7632 12.5904C19.813 13.1667 19.813 13.7465 19.7632 14.3228C19.4021 14.8047 16.9245 15.7686 16.1028 14.0493C15.992 13.805 15.9346 13.5381 15.9346 13.2677C15.9346 12.9974 15.992 12.7304 16.1028 12.4862C16.2223 12.2876 16.3806 12.1177 16.5673 11.9875C16.7539 11.8573 16.9648 11.7698 17.186 11.7307ZM19.813 11.0794C19.3292 10.7441 18.7881 10.5097 18.2193 10.3891C17.5106 10.307 16.7935 10.36 16.1028 10.5454C15.5212 10.7197 15.0084 11.0846 14.6398 11.5864C14.2713 12.0883 14.0663 12.7006 14.0552 13.3334C14.044 13.9662 14.2272 14.586 14.5779 15.1017C14.9285 15.6175 15.4281 16.0019 16.0032 16.1985C16.988 16.5498 18.0563 16.5498 19.0411 16.1985C19.2527 16.0943 19.6636 15.8207 19.813 15.7686C19.9624 15.7165 20.0247 16.1464 20.2239 16.2506C20.4231 16.3548 21.3569 16.2506 21.6183 15.99C21.8798 15.7295 21.9296 15.7686 21.7677 15.3909C21.5268 14.8925 21.4398 14.3281 21.5187 13.7757V9.89413C21.5839 9.34453 21.4555 8.78891 21.1577 8.33108C20.1741 6.28608 14.2476 7.09366 14.7208 8.82604C15.1939 10.5584 15.9658 8.22687 18.5804 8.55251C19.9873 8.70882 19.8379 10.1156 19.8379 11.0794H19.813Z" fill="white"/>
<path fill-rule="evenodd" clip-rule="evenodd" d="M80.7562 10.8193H76.4857C76.543 10.2845 76.7762 9.78713 77.1456 9.41255C77.5488 9.04265 78.0553 8.81881 78.5899 8.7743C78.8683 8.75024 79.1485 8.78513 79.4138 8.87688C79.679 8.96864 79.9239 9.11538 80.1337 9.30834C80.345 9.49016 80.5116 9.72212 80.6199 9.98493C80.7282 10.2477 80.7749 10.5338 80.7562 10.8193V10.8193ZM76.3737 12.213C76.6849 12.0567 81.3539 12.213 82.2005 12.213C83.0471 12.213 82.6612 9.30834 81.1173 8.12303C80.4866 7.63109 79.7357 7.3358 78.9514 7.27125C78.1671 7.20671 77.3814 7.37554 76.6849 7.75826C75.9884 8.14097 75.4096 8.72196 75.0152 9.43415C74.6209 10.1463 74.4271 10.9607 74.4563 11.7832C74.4267 12.582 74.6044 13.3743 74.9705 14.0761C75.3365 14.7778 75.8774 15.3628 76.5355 15.769C77.9175 16.7459 81.6278 16.6938 82.0884 15.1828C82.6612 13.242 81.3165 14.3231 80.8434 14.5316C80.4455 14.7022 80.0262 14.8119 79.5983 14.8572C76.8468 15.1828 76.1745 12.6429 76.3737 12.213Z" fill="white"/>
<path fill-rule="evenodd" clip-rule="evenodd" d="M57.6887 10.8181C57.7324 10.2618 57.9742 9.74288 58.3661 9.36416C58.7581 8.98544 59.2717 8.7745 59.8053 8.77311C60.876 8.65588 62.1211 9.63279 61.9094 10.8181H57.6887ZM57.4771 12.1207C57.7385 12.1207 62.5818 12.1207 63.2541 12.1207C63.9264 12.1207 63.8144 11.6908 63.7646 11.1568C63.7282 10.4335 63.5129 9.73259 63.1397 9.12259C62.7665 8.51259 62.2483 8.01446 61.6358 7.67698C61.0232 7.33951 60.3374 7.17427 59.6455 7.19746C58.9536 7.22064 58.2793 7.43145 57.6887 7.80923C57.0246 8.2197 56.4815 8.81375 56.1191 9.5261C55.7566 10.2385 55.5889 11.0415 55.6344 11.8471C55.5815 12.6423 55.7527 13.4363 56.1267 14.1308C56.5007 14.8254 57.061 15.3899 57.7385 15.7548C59.494 16.888 62.9428 16.406 63.2541 15.1165C63.2541 14.7388 63.5031 13.814 62.9428 14.0354C62.266 14.4357 61.5293 14.7131 60.764 14.856C60.356 14.913 59.9412 14.8848 59.5437 14.773C59.1462 14.6613 58.7739 14.4681 58.4482 14.2047C58 13.827 57.2778 12.6938 57.4771 12.1207Z" fill="white"/>
<path fill-rule="evenodd" clip-rule="evenodd" d="M85.4407 16.1972C85.752 15.8715 85.7022 15.7152 85.7022 15.2333V13.9308C85.7022 12.2114 85.3909 9.35882 87.2959 8.92898C87.7067 8.82477 87.8063 9.18949 88.3292 9.08528C88.6376 8.79584 88.8692 8.42791 89.0016 8.0172C89.0016 7.19659 87.7565 7.04029 86.6235 7.57433C86.2625 7.74366 85.9637 8.32981 85.7022 8.38191C85.7022 7.89997 85.8018 7.69156 85.4905 7.26172C85.0915 7.30175 84.7052 7.43054 84.3575 7.63946C83.8471 7.89997 83.7475 7.89997 83.8471 8.55124C83.9467 9.20251 83.8471 13.6702 83.8471 14.7383C83.8969 16.3665 83.8969 16.3144 85.4407 16.1972Z" fill="white"/>
<path fill-rule="evenodd" clip-rule="evenodd" d="M24.7348 16.1451V16.0409C24.8793 14.7179 24.9168 13.3846 24.8468 12.0551C24.8468 11.026 25.0958 9.35879 26.179 9.03315C27.0506 8.70752 27.1004 9.5672 27.6731 9.03315C29.0053 7.5743 27.2124 6.98816 26.1292 7.4701C25.046 7.95204 25.1954 8.32978 24.8842 8.43398C24.8592 8.22204 24.8592 8.00768 24.8842 7.79574C24.8842 7.5222 24.7721 7.5222 24.6725 7.3659C24.2733 7.3625 23.8811 7.47524 23.5395 7.69153C23.0291 7.89994 22.8672 7.95204 23.0291 8.60331C23.1386 9.60192 23.1719 10.6081 23.1287 11.6122V14.582C23.2407 16.1972 23.0291 16.3144 24.7348 16.1451Z" fill="white"/>
<path fill-rule="evenodd" clip-rule="evenodd" d="M47.959 17.8795C45.9037 18.1448 43.8827 18.6472 41.933 19.3774C41.3229 19.651 40.688 19.8073 40.0779 20.0808C38.8328 20.5628 37.6625 20.9926 36.4299 21.4876C36.019 21.6439 33.0807 22.5557 32.5702 22.6729C30.0802 23.3111 26.345 24.0666 23.967 22.9334C22.834 22.3472 22.7219 24.1708 25.2992 24.8221C26.8063 25.0982 28.3529 25.0271 29.8311 24.6137C31.0762 24.3401 32.5702 23.8582 33.753 23.4805C34.9358 23.1027 36.3303 22.6729 37.6127 22.2951C37.924 22.1779 38.173 22.0737 38.534 21.9695L40.439 21.3703C40.8 21.2661 41.0615 21.1098 41.3727 20.9926L43.3399 20.5107C43.701 20.4065 43.9624 20.3023 44.2737 20.185C46.8805 19.6032 49.5393 19.315 52.2047 19.3253C52.8645 19.3253 53.8481 19.4947 54.5204 19.5989C55.7655 19.7552 55.4916 19.0648 54.6698 18.622C52.5333 17.7655 50.2196 17.5095 47.959 17.8795V17.8795Z" fill="white"/>
</svg>
