<svg width="15" height="15" viewBox="0 0 15 15" fill="none" xmlns="http://www.w3.org/2000/svg">
<mask id="path-1-inside-1_3019_177" fill="white">
<path fill-rule="evenodd" clip-rule="evenodd" d="M14.1421 7.75L10.6066 11.2855L7.07102 14.8211L3.53549 11.2855L7.07102 7.75L3.53549 4.21447L7.07102 0.678932L10.6066 4.21447L14.1421 7.75Z"/>
</mask>
<path d="M14.1421 7.75L14.8492 8.45711L15.5563 7.75L14.8492 7.04289L14.1421 7.75ZM7.07102 14.8211L6.36392 15.5282L7.07102 16.2353L7.77813 15.5282L7.07102 14.8211ZM3.53549 11.2855L2.82838 10.5784L2.12127 11.2855L2.82838 11.9926L3.53549 11.2855ZM7.07102 7.75L7.77813 8.45711L8.48524 7.75L7.77813 7.04289L7.07102 7.75ZM3.53549 4.21447L2.82838 3.50736L2.12127 4.21447L2.82838 4.92157L3.53549 4.21447ZM7.07102 0.678932L7.77813 -0.0281745L7.07102 -0.735281L6.36392 -0.0281745L7.07102 0.678932ZM11.3137 11.9926L14.8492 8.45711L13.435 7.04289L9.89945 10.5784L11.3137 11.9926ZM7.77813 15.5282L11.3137 11.9926L9.89945 10.5784L6.36392 14.114L7.77813 15.5282ZM2.82838 11.9926L6.36392 15.5282L7.77813 14.114L4.2426 10.5784L2.82838 11.9926ZM6.36392 7.04289L2.82838 10.5784L4.2426 11.9926L7.77813 8.45711L6.36392 7.04289ZM7.77813 7.04289L4.2426 3.50736L2.82838 4.92157L6.36392 8.45711L7.77813 7.04289ZM4.2426 4.92157L7.77813 1.38604L6.36392 -0.0281745L2.82838 3.50736L4.2426 4.92157ZM6.36392 1.38604L9.89945 4.92157L11.3137 3.50736L7.77813 -0.0281745L6.36392 1.38604ZM14.8492 7.04289L11.3137 3.50736L9.89945 4.92157L13.435 8.45711L14.8492 7.04289Z" fill="#F1AE5B" mask="url(#path-1-inside-1_3019_177)"/>
</svg>
