<svg width="150" height="150" viewBox="0 0 150 150" fill="none" xmlns="http://www.w3.org/2000/svg">
<g opacity="0.8" clip-path="url(#clip0_3004_27710)">
<path d="M61.4487 89.6169C60.7203 89.6169 60.0971 89.4298 59.6375 89.0438C58.8 88.3421 58.6637 87.0868 59.2635 85.6016L65.7685 69.513C66.6605 67.3105 69.0094 65.0533 71.4828 64.0241C72.889 63.4394 74.1666 63.3341 75.0898 63.724L86.5339 68.5579C87.3169 68.8893 87.7687 69.5247 87.8388 70.4019C88.0024 72.4524 86.047 75.306 83.2853 77.0369L65.3401 88.2914C63.9495 89.1647 62.5745 89.6169 61.4526 89.6169H61.4487ZM73.8433 63.9072C73.1928 63.9072 72.4449 64.0748 71.6464 64.4062C69.2664 65.3964 67.0111 67.5561 66.1581 69.6651L59.653 85.7536C59.1155 87.079 59.209 88.1316 59.9062 88.7203C60.9346 89.5818 62.9796 89.2777 65.118 87.9367L83.0633 76.6821C86.0704 74.7953 87.5545 72.0548 87.4221 70.433C87.3636 69.7119 87.0092 69.209 86.3703 68.94L74.9262 64.106C74.6107 63.9735 74.2445 63.9072 73.8394 63.9072H73.8433Z" fill="url(#paint0_linear_3004_27710)"/>
<path d="M61.0504 91.5816C60.3648 91.5816 59.765 91.414 59.2975 91.071C58.3627 90.3888 58.129 89.1413 58.6392 87.5624L64.2834 70.0939C65.5883 66.0552 70.952 62.2426 74.0098 63.1782L87.1445 67.1974C88.0481 67.4742 88.609 68.1135 88.761 69.0413C89.1115 71.1737 87.2185 74.3236 84.3594 76.3741L65.5844 89.8235C63.9757 90.9774 62.3592 91.5855 61.0543 91.5855L61.0504 91.5816ZM72.9853 63.4511C70.0795 63.4511 65.7792 66.8154 64.6768 70.2225L59.0366 87.6911C58.5847 89.0867 58.7639 90.1704 59.5429 90.7396C60.7388 91.6167 63.072 91.11 65.339 89.4843L84.114 76.035C87.234 73.8012 88.6207 70.7995 88.3442 69.1076C88.2195 68.3318 87.7716 67.825 87.0159 67.595L73.8812 63.5758C73.6008 63.4901 73.3008 63.4511 72.9814 63.4511H72.9853Z" fill="url(#paint1_linear_3004_27710)"/>
<path d="M60.7669 93.6673C60.132 93.6673 59.5633 93.527 59.1037 93.2346C58.0792 92.5875 57.7365 91.3244 58.1338 89.6754L62.6873 70.8424C63.739 66.4958 69.2897 62.0087 72.7525 62.7065L87.679 65.7161C88.7229 65.9266 89.4007 66.562 89.6461 67.5522C90.1953 69.7899 88.4425 73.1658 85.4743 75.5789L65.9943 91.4063C64.1908 92.872 62.2822 93.6712 60.7669 93.6712V93.6673ZM72.0008 63.0496C68.756 63.0496 64.0156 67.1273 63.0924 70.9399L58.5389 89.7729C58.1844 91.2347 58.4649 92.338 59.3257 92.8837C60.4982 93.6244 62.9327 93.3515 65.7295 91.0788L85.2094 75.2515C88.4035 72.6552 89.6695 69.3961 89.241 67.6497C89.0384 66.8271 88.4697 66.2969 87.5972 66.1215L72.6707 63.112C72.4565 63.0691 72.2306 63.0496 72.0008 63.0496Z" fill="url(#paint2_linear_3004_27710)"/>
<path d="M60.681 95.8933C60.0928 95.8933 59.5552 95.7763 59.0995 95.5268C57.9777 94.9226 57.5103 93.6478 57.7829 91.9403L61.0043 71.7702C61.7482 67.1195 67.4392 61.9113 71.3305 62.3245L88.1422 64.106C89.3381 64.2347 90.1561 64.8623 90.5027 65.9227C91.2584 68.2227 89.6341 71.8872 86.6348 74.6394L66.6017 93.0241C64.5957 94.8641 62.4065 95.8933 60.6771 95.8933H60.681ZM70.8864 62.7182C67.2561 62.7182 62.0871 67.6107 61.4133 71.8365L58.1919 92.0066C57.9504 93.527 58.3399 94.6497 59.2943 95.1643C60.6654 95.9011 63.3687 95.4332 66.3251 92.72L86.3582 74.3353C89.5913 71.3687 90.7053 67.8563 90.1132 66.0552C89.8172 65.1625 89.1238 64.6323 88.1033 64.5232L71.2915 62.7416C71.163 62.726 71.0267 62.7221 70.8942 62.7221L70.8864 62.7182Z" fill="url(#paint3_linear_3004_27710)"/>
<path d="M60.7902 98.2361C60.2527 98.2361 59.7541 98.1387 59.31 97.9398C58.083 97.3863 57.4793 96.1115 57.6117 94.3456L59.2243 72.9007C59.5944 67.9615 65.371 61.9697 69.718 62.0593L88.5008 62.3868C89.868 62.4102 90.8418 63.0222 91.3092 64.1606C92.2791 66.5113 90.8184 70.4603 87.8308 73.5517L67.4354 94.6691C65.2463 96.938 62.7612 98.2322 60.7902 98.2322V98.2361ZM69.6362 62.4765C65.5696 62.4765 59.9839 68.2967 59.6372 72.9319L58.0246 94.3767C57.9077 95.9556 58.4219 97.0861 59.4814 97.5578C61.3667 98.4037 64.514 97.0978 67.1394 94.3806L87.5348 73.2632C90.7951 69.8873 91.7104 66.2072 90.9275 64.3204C90.5263 63.3497 89.6849 62.8234 88.493 62.8039L69.7102 62.4765C69.6869 62.4765 69.6596 62.4765 69.6362 62.4765Z" fill="url(#paint4_linear_3004_27710)"/>
<path d="M61.1227 100.685C60.6436 100.685 60.1917 100.611 59.7711 100.459C58.4233 99.9712 57.6715 98.7003 57.6482 96.8876L57.356 74.2537C57.2898 69.0455 63.1054 62.2507 67.9004 61.9349L88.7203 60.551C90.255 60.4496 91.4353 61.0539 92.0391 62.2585C93.2544 64.6872 92.0196 68.8194 89.0397 72.3084L68.508 96.3262C66.1592 99.0746 63.3586 100.685 61.1188 100.685H61.1227ZM89.0592 60.9564C88.9579 60.9564 88.8567 60.9564 88.7515 60.9681L67.9315 62.352C63.4053 62.6522 57.7105 69.3262 57.7728 74.2537L58.065 96.8876C58.0844 98.5405 58.7271 99.6398 59.9152 100.073C62.0965 100.864 65.5009 99.211 68.1964 96.0573L88.7281 72.0395C91.9339 68.2853 92.6389 64.3753 91.6729 62.4456C91.1821 61.4671 90.2823 60.9564 89.0631 60.9564H89.0592Z" fill="url(#paint5_linear_3004_27710)"/>
<path d="M61.6668 103.214C61.2734 103.214 60.8956 103.168 60.5372 103.066C59.057 102.657 58.1338 101.405 57.9391 99.5498L55.4267 75.84C54.8502 70.3862 60.619 62.7337 65.8892 61.9619L88.8009 58.6015C90.546 58.3442 91.9249 58.9172 92.6922 60.2076C94.149 62.6636 93.148 67.057 90.2616 70.8852L69.8623 97.9554C67.4162 101.203 64.2143 103.21 61.6668 103.21V103.214ZM88.8632 59.0147L65.9515 62.3751C60.9618 63.108 55.2942 70.6318 55.8396 75.7971L58.352 99.507C58.5312 101.207 59.3258 102.302 60.6502 102.669C63.1548 103.362 66.8085 101.324 69.5351 97.7098L89.9344 70.6396C92.7234 66.9401 93.7089 62.7415 92.3378 60.422C91.6522 59.2681 90.4525 58.7808 88.8632 59.0147Z" fill="url(#paint6_linear_3004_27710)"/>
<path d="M62.5385 105.818C62.2346 105.818 61.9386 105.791 61.6504 105.737C60.0222 105.425 58.9081 104.204 58.5186 102.31L53.4431 77.6761C52.2785 72.0157 57.9148 63.4666 63.6681 62.1724L88.7027 56.5431C90.6736 56.0987 92.2824 56.6211 93.2406 58.0089C94.9467 60.4844 94.2261 65.1195 91.4799 69.2791L71.517 99.5381C68.9929 103.362 65.4287 105.811 62.5346 105.811L62.5385 105.818ZM88.7494 56.7498L88.7961 56.9525L63.7616 62.5817C58.3044 63.8097 52.7498 72.2262 53.8521 77.5943L58.9276 102.228C59.286 103.974 60.2559 105.047 61.7322 105.331C64.5951 105.881 68.4787 103.409 71.1781 99.3198L91.1411 69.0608C93.7937 65.0377 94.5221 60.5935 92.9056 58.2545C92.037 56.9992 90.6191 56.5509 88.8 56.9564L88.7533 56.7537L88.7494 56.7498Z" fill="url(#paint7_linear_3004_27710)"/>
<path d="M63.7235 108.473C63.5326 108.473 63.3457 108.465 63.1626 108.442C61.363 108.251 60.0386 107.082 59.431 105.152L51.4302 79.7891C50.6122 77.2006 51.1887 73.7427 53.0078 70.2927C55.0255 66.4723 58.1767 63.5251 61.2306 62.6012L88.3997 54.3991C90.6122 53.7325 92.4819 54.1808 93.6661 55.6699C95.6721 58.1922 95.2748 62.9404 92.6767 67.4898L73.5083 101.055C70.9647 105.51 67.0189 108.469 63.7235 108.469V108.473ZM90.2889 54.5199C89.7358 54.5199 89.1437 54.6135 88.5205 54.8006L61.3513 63.0028C58.3988 63.8955 55.341 66.7647 53.3739 70.4915C51.6328 73.7895 51.0524 77.2201 51.8236 79.6682L59.8244 105.031C60.3892 106.816 61.5578 107.857 63.2055 108.033C66.4463 108.38 70.5324 105.429 73.146 100.856L92.3144 67.291C94.7879 62.956 95.2125 58.2857 93.3389 55.935C92.5949 55.0033 91.5432 54.5238 90.2889 54.5238V54.5199Z" fill="url(#paint8_linear_3004_27710)"/>
<path d="M65.2473 111.151C65.2084 111.151 65.1694 111.151 65.1266 111.151C63.1322 111.112 61.5625 110.013 60.7094 108.056L49.3977 82.1944C48.2876 79.6605 48.533 76.113 50.0638 72.468C51.9023 68.0941 55.1626 64.5739 58.5748 63.2835L87.8513 52.1888C90.3209 51.2532 92.4788 51.6118 93.9278 53.1985C96.2182 55.7129 96.1754 60.6599 93.8149 65.5134L75.8462 102.47C73.3494 107.604 69.0062 111.155 65.2435 111.155L65.2473 111.151ZM87.9292 52.3798L88.0032 52.5747L58.7268 63.6694C55.4197 64.9247 52.249 68.3553 50.4533 72.6279C48.9653 76.1715 48.7199 79.5942 49.7833 82.0268L61.095 107.889C61.8936 109.713 63.2919 110.699 65.1422 110.738C68.7803 110.805 73.0261 107.339 75.4801 102.29L93.4487 65.334C95.7352 60.6326 95.8053 55.8688 93.6279 53.4791C92.3035 52.025 90.3053 51.7054 88.0071 52.5786L87.9331 52.3837L87.9292 52.3798Z" fill="url(#paint9_linear_3004_27710)"/>
<path d="M67.1751 113.818C65.1535 113.818 63.4747 112.82 62.4113 110.972L47.3913 84.8921C45.9656 82.4166 45.8527 78.7989 47.0797 74.959C48.6494 70.0549 51.9565 65.9421 55.7076 64.2269L87.0407 49.9043C89.783 48.6529 92.2603 48.8907 94.021 50.5748C96.658 53.101 97.0008 58.1025 94.8935 63.3224L78.5803 103.725C76.3016 109.366 71.7909 113.51 67.6114 113.802C67.4634 113.814 67.3153 113.818 67.1712 113.818H67.1751ZM90.3361 49.5301C89.3662 49.5301 88.3145 49.7795 87.216 50.2824L55.8829 64.605C52.2331 66.2735 49.0117 70.2888 47.477 75.0877C46.2851 78.8145 46.3863 82.3114 47.7535 84.6855L62.7735 110.765C63.8447 112.625 65.508 113.529 67.588 113.389C71.6157 113.108 75.9783 109.07 78.1986 103.573L94.5118 63.1704C96.5217 58.1883 96.2101 53.2491 93.7366 50.8789C92.8018 49.9862 91.6449 49.534 90.34 49.534L90.3361 49.5301Z" fill="url(#paint10_linear_3004_27710)"/>
<path d="M69.5241 116.438C67.5376 116.438 65.8081 115.553 64.5733 113.876L45.4244 87.9056C43.6521 85.5003 43.1535 81.8125 44.0611 77.7776C45.2569 72.4603 48.6185 67.6341 52.6267 65.4783L85.923 47.5849C88.8989 45.9865 91.8048 46.0723 93.9004 47.8227C96.8686 50.302 97.6437 55.4439 95.8753 60.9289L81.7278 104.793C79.7763 110.847 75.2306 115.596 70.681 116.34C70.2876 116.403 69.902 116.438 69.5241 116.438ZM86.0204 47.7681L86.1178 47.9513L52.8214 65.8448C48.9145 67.946 45.6347 72.663 44.4662 77.8673C43.5859 81.7813 44.0572 85.3483 45.7594 87.6561L64.9083 113.627C66.2989 115.514 68.2738 116.309 70.6148 115.927C75.0164 115.206 79.4258 110.575 81.3344 104.661L95.4819 60.7964C97.1997 55.4751 96.4713 50.5047 93.6355 48.1384C91.649 46.4816 88.9807 46.4114 86.1217 47.9513L86.0243 47.7681H86.0204Z" fill="url(#paint11_linear_3004_27710)"/>
<path d="M72.3212 118.976C70.3813 118.976 68.6246 118.208 67.2457 116.726L43.5355 91.2504C41.3736 88.9309 40.4622 85.165 41.027 80.9275C41.7943 75.1774 45.0546 69.7431 49.3355 67.0844L84.4587 45.2614C87.7073 43.2421 91.0104 43.129 93.5267 44.9496C96.8532 47.3548 98.1075 52.6098 96.7286 58.3326L85.3156 105.631C83.7692 112.044 79.278 117.42 74.3973 118.699C73.6884 118.886 72.995 118.976 72.325 118.976H72.3212ZM84.6768 45.6162L49.5536 67.4392C45.374 70.0355 42.1877 75.3529 41.4399 80.986C40.8906 85.1027 41.7671 88.7398 43.8432 90.9736L67.5534 116.449C69.3024 118.328 71.694 118.983 74.2921 118.301C79.0326 117.058 83.3992 111.81 84.9105 105.538L96.3235 58.2391C97.6634 52.68 96.4715 47.5965 93.2852 45.2887C90.913 43.5734 87.7774 43.6943 84.6807 45.6162H84.6768Z" fill="url(#paint12_linear_3004_27710)"/>
<path d="M75.596 121.381C73.7185 121.381 71.9656 120.734 70.4777 119.463L41.7699 94.9265C39.1679 92.7044 37.7929 88.8645 37.9916 84.3931C38.2642 78.2727 41.3492 72.2536 45.8443 69.0609L82.6113 42.9536C86.1248 40.4586 89.8603 40.0961 92.8596 41.9595C96.6263 44.3024 98.3713 49.4989 97.4131 55.5258L89.3539 106.169C88.271 112.98 84.033 118.847 78.8096 120.773C77.715 121.178 76.6321 121.377 75.5921 121.377L75.596 121.381ZM88.7385 41.2032C86.8298 41.2032 84.8082 41.9049 82.8528 43.2966L46.0858 69.4C41.6881 72.5226 38.6771 78.413 38.4044 84.4126C38.2097 88.7554 39.5341 92.4705 42.0348 94.6107L70.7426 119.147C72.9356 121.022 75.7518 121.463 78.6654 120.387C83.7526 118.512 87.8815 112.773 88.941 106.107L97.0002 55.4634C97.9312 49.6042 96.2601 44.5636 92.6376 42.3142C91.4417 41.5696 90.1174 41.2032 88.7346 41.2032H88.7385Z" fill="url(#paint13_linear_3004_27710)"/>
<path d="M79.3762 123.611C77.5883 123.611 75.8705 123.084 74.3241 122.039L40.1709 98.9456C37.0664 96.8444 35.1733 92.9266 34.9746 88.1978C34.7059 81.7734 37.5338 75.2046 42.1847 71.4622L80.35 40.7041C84.1128 37.6712 88.3119 37.0046 91.8643 38.8758C96.0556 41.0784 98.3693 46.31 97.9058 52.5279L93.8859 106.376C93.364 113.397 89.3869 119.868 83.996 122.484C82.4457 123.236 80.8837 123.611 79.3723 123.611H79.3762ZM80.4825 40.8679L80.611 41.0316L42.4418 71.7858C37.8921 75.4502 35.1265 81.8864 35.3875 88.1822C35.5784 92.7823 37.4091 96.5793 40.4007 98.6026L74.5539 121.696C77.2767 123.54 80.5682 123.685 83.8207 122.11C89.0831 119.556 92.9666 113.221 93.4808 106.345L97.5007 52.4967C97.9525 46.4464 95.7206 41.3708 91.6812 39.2462C88.2807 37.4568 84.2491 38.1078 80.6188 41.0316L80.4903 40.8679H80.4825Z" fill="url(#paint14_linear_3004_27710)"/>
<path d="M83.6852 125.603C82.0141 125.603 80.3703 125.197 78.8239 124.382L38.785 103.3C35.1001 101.359 32.6188 97.3629 31.9761 92.334C31.127 85.6834 33.6316 78.604 38.3565 74.3041L77.632 38.5522C81.6129 34.9268 86.295 33.8937 90.4823 35.7103C95.1371 37.7336 98.0819 42.9535 98.1676 49.3312L98.931 106.165C99.0284 113.424 95.5188 120.305 89.9876 123.696C87.9232 124.963 85.7808 125.599 83.6852 125.599V125.603ZM77.7722 38.7043L77.9124 38.8563L38.637 74.612C34.0094 78.8223 31.5593 85.7614 32.389 92.2794C33.0123 97.1719 35.4156 101.055 38.9797 102.93L79.0187 124.012C82.3725 125.778 86.1937 125.54 89.7734 123.342C95.1799 120.024 98.6116 113.284 98.5181 106.169L97.7547 49.3351C97.6729 43.1211 94.8216 38.0454 90.3187 36.0885C86.2911 34.3381 81.7687 35.3478 77.9163 38.8563L77.7761 38.7043H77.7722Z" fill="url(#paint15_linear_3004_27710)"/>
<path d="M88.4829 127.287C86.9715 127.287 85.468 127.002 84.0229 126.429L37.6659 107.998C33.311 106.267 30.1559 102.197 29.0146 96.8288C27.5422 89.917 29.6028 82.5647 34.3978 77.6411L74.4095 36.5445C78.5033 32.3421 83.8203 30.8257 88.6348 32.4942C93.8817 34.3108 97.4341 39.3436 98.1391 45.963L104.484 105.491C105.263 112.789 102.245 120.18 96.7953 124.32C94.2167 126.281 91.3342 127.287 88.4829 127.287ZM74.5575 36.6888L74.7055 36.833L34.6938 77.9334C29.9962 82.7596 27.9746 89.9638 29.4197 96.743C30.5337 101.971 33.5954 105.931 37.8178 107.612L84.1748 126.043C88.2063 127.645 92.7131 126.897 96.5421 123.989C101.879 119.934 104.831 112.691 104.068 105.534L97.7224 46.0059C97.0329 39.5541 93.5856 34.6499 88.4946 32.8879C83.8359 31.274 78.6825 32.7514 74.7055 36.8369L74.5575 36.6927V36.6888Z" fill="url(#paint16_linear_3004_27710)"/>
<path d="M93.8459 128.636C92.5566 128.636 91.2595 128.456 89.978 128.094L36.8862 113.023C31.76 111.569 27.8298 107.44 26.112 101.698C24.0163 94.7004 25.6368 86.9622 30.3422 81.5045L70.6499 34.732C74.8528 29.8551 80.6879 27.8085 86.2541 29.2548C92.0814 30.7673 96.3895 35.691 97.7801 42.4234L110.56 104.263C112.083 111.631 109.731 119.28 104.418 124.223C101.313 127.111 97.6009 128.632 93.8381 128.632L93.8459 128.636ZM70.9654 35.0048L30.6538 81.7735C26.0419 87.1259 24.4526 94.7121 26.5093 101.577C28.1881 107.179 32.0132 111.206 36.9991 112.621L90.0948 127.692C94.9639 129.076 100.086 127.7 104.145 123.923C109.349 119.077 111.655 111.576 110.163 104.353L97.3789 42.5092C96.0195 35.9366 91.8243 31.1299 86.1529 29.6602C80.7385 28.2529 75.0632 30.2527 70.9654 35.0048Z" fill="url(#paint17_linear_3004_27710)"/>
<path d="M99.7327 129.563C98.7394 129.563 97.7345 129.474 96.7295 129.291L36.5016 118.363C30.4913 117.272 25.6729 113.116 23.2852 106.965C20.5624 99.9515 21.6881 91.8896 26.2222 85.9252L66.3195 33.1804C70.5536 27.6096 76.8873 24.9431 83.2637 26.0503C89.7376 27.1769 94.8949 31.9251 97.0528 38.7511L117.183 102.427C119.478 109.682 117.818 117.689 112.86 123.326C109.295 127.376 104.633 129.563 99.7327 129.563ZM80.4202 26.2179C75.1773 26.2179 70.1719 28.7947 66.6506 33.4299L26.5532 86.1785C22.1049 92.03 21.0026 99.9359 23.6708 106.813C26.004 112.828 30.7094 116.89 36.5756 117.954L96.8035 128.881C102.623 129.938 108.361 127.813 112.548 123.053C117.413 117.521 119.037 109.666 116.786 102.552L96.6555 38.8798C94.5443 32.2019 89.5117 27.5589 83.1936 26.4635C82.2666 26.3037 81.3395 26.2218 80.4202 26.2218V26.2179Z" fill="url(#paint18_linear_3004_27710)"/>
<path d="M106.003 130C105.442 130 104.881 129.977 104.312 129.926L36.5899 123.997C29.6798 123.392 23.6889 119.151 20.5689 112.653C17.1761 105.585 17.7448 97.4684 22.0919 90.9387L61.3713 31.9448C65.5469 25.6723 72.3402 22.3042 79.5464 22.9357C86.7525 23.5672 92.8563 28.0659 95.8829 34.9699L124.33 99.8932C127.477 107.078 126.628 115.171 122.063 121.541C118.206 126.921 112.297 130.004 106.007 130.004L106.003 130ZM77.8325 23.2748C71.4131 23.2748 65.4807 26.5183 61.714 32.1748L22.4386 91.1687C18.1733 97.5737 17.6163 105.538 20.9428 112.469C23.9966 118.835 29.8628 122.987 36.6249 123.58L104.347 129.509C111.109 130.102 117.607 127.03 121.72 121.291C126.199 115.042 127.033 107.101 123.944 100.053L95.5012 35.1337C92.5369 28.37 86.5616 23.9649 79.5113 23.3489C78.9504 23.2982 78.3895 23.2748 77.8364 23.2748H77.8325Z" fill="url(#paint19_linear_3004_27710)"/>
<path d="M112.764 129.899H37.232C29.2078 129.899 22.0211 125.747 18.0091 118.792C13.997 111.838 13.997 103.534 18.0091 96.5755L55.7732 31.1064C59.7853 24.1518 66.972 20 74.9961 20C83.0203 20 90.2069 24.1518 94.219 31.1064L131.987 96.5755C135.999 103.53 135.999 111.834 131.987 118.792C127.975 125.747 120.788 129.899 112.764 129.899ZM56.1316 31.3169L18.3674 96.7821C14.4294 103.608 14.4294 111.756 18.3674 118.582C22.3055 125.408 29.3558 129.482 37.232 129.482H112.764C120.64 129.482 127.691 125.408 131.629 118.582C135.567 111.756 135.567 103.608 131.629 96.7821L93.8607 31.3169C89.9226 24.4909 82.8722 20.4171 74.9961 20.4171C67.12 20.4171 60.0696 24.4909 56.1316 31.3169Z" fill="url(#paint20_linear_3004_27710)"/>
</g>
<defs>
<linearGradient id="paint0_linear_3004_27710" x1="73.3715" y1="63.4928" x2="73.3715" y2="89.6169" gradientUnits="userSpaceOnUse">
<stop stop-color="white" stop-opacity="0.73"/>
<stop offset="1" stop-color="white" stop-opacity="0.11"/>
</linearGradient>
<linearGradient id="paint1_linear_3004_27710" x1="73.5888" y1="63.0353" x2="73.5888" y2="91.5856" gradientUnits="userSpaceOnUse">
<stop stop-color="white" stop-opacity="0.73"/>
<stop offset="1" stop-color="white" stop-opacity="0.11"/>
</linearGradient>
<linearGradient id="paint2_linear_3004_27710" x1="73.8595" y1="62.6344" x2="73.8595" y2="93.6712" gradientUnits="userSpaceOnUse">
<stop stop-color="white" stop-opacity="0.73"/>
<stop offset="1" stop-color="white" stop-opacity="0.11"/>
</linearGradient>
<linearGradient id="paint3_linear_3004_27710" x1="74.197" y1="62.3014" x2="74.197" y2="95.8933" gradientUnits="userSpaceOnUse">
<stop stop-color="white" stop-opacity="0.73"/>
<stop offset="1" stop-color="white" stop-opacity="0.11"/>
</linearGradient>
<linearGradient id="paint4_linear_3004_27710" x1="74.6004" y1="62.0583" x2="74.6004" y2="98.2361" gradientUnits="userSpaceOnUse">
<stop stop-color="white" stop-opacity="0.73"/>
<stop offset="1" stop-color="white" stop-opacity="0.11"/>
</linearGradient>
<linearGradient id="paint5_linear_3004_27710" x1="74.929" y1="60.54" x2="74.929" y2="100.685" gradientUnits="userSpaceOnUse">
<stop stop-color="white" stop-opacity="0.73"/>
<stop offset="1" stop-color="white" stop-opacity="0.11"/>
</linearGradient>
<linearGradient id="paint6_linear_3004_27710" x1="74.3711" y1="58.5413" x2="74.3711" y2="103.214" gradientUnits="userSpaceOnUse">
<stop stop-color="white" stop-opacity="0.73"/>
<stop offset="1" stop-color="white" stop-opacity="0.11"/>
</linearGradient>
<linearGradient id="paint7_linear_3004_27710" x1="73.7237" y1="56.3887" x2="73.7237" y2="105.818" gradientUnits="userSpaceOnUse">
<stop stop-color="white" stop-opacity="0.73"/>
<stop offset="1" stop-color="white" stop-opacity="0.11"/>
</linearGradient>
<linearGradient id="paint8_linear_3004_27710" x1="73.0017" y1="54.0981" x2="73.0017" y2="108.473" gradientUnits="userSpaceOnUse">
<stop stop-color="white" stop-opacity="0.73"/>
<stop offset="1" stop-color="white" stop-opacity="0.11"/>
</linearGradient>
<linearGradient id="paint9_linear_3004_27710" x1="72.1634" y1="51.6783" x2="72.1634" y2="111.155" gradientUnits="userSpaceOnUse">
<stop stop-color="white" stop-opacity="0.73"/>
<stop offset="1" stop-color="white" stop-opacity="0.11"/>
</linearGradient>
<linearGradient id="paint10_linear_3004_27710" x1="71.2499" y1="49.1124" x2="71.2499" y2="113.818" gradientUnits="userSpaceOnUse">
<stop stop-color="white" stop-opacity="0.73"/>
<stop offset="1" stop-color="white" stop-opacity="0.11"/>
</linearGradient>
<linearGradient id="paint11_linear_3004_27710" x1="70.2149" y1="46.4451" x2="70.2149" y2="116.438" gradientUnits="userSpaceOnUse">
<stop stop-color="white" stop-opacity="0.73"/>
<stop offset="1" stop-color="white" stop-opacity="0.11"/>
</linearGradient>
<linearGradient id="paint12_linear_3004_27710" x1="69.072" y1="43.6611" x2="69.072" y2="118.976" gradientUnits="userSpaceOnUse">
<stop stop-color="white" stop-opacity="0.73"/>
<stop offset="1" stop-color="white" stop-opacity="0.11"/>
</linearGradient>
<linearGradient id="paint13_linear_3004_27710" x1="67.8222" y1="40.7826" x2="67.8222" y2="121.381" gradientUnits="userSpaceOnUse">
<stop stop-color="white" stop-opacity="0.73"/>
<stop offset="1" stop-color="white" stop-opacity="0.11"/>
</linearGradient>
<linearGradient id="paint14_linear_3004_27710" x1="66.4607" y1="37.8323" x2="66.4607" y2="123.611" gradientUnits="userSpaceOnUse">
<stop stop-color="white" stop-opacity="0.73"/>
<stop offset="1" stop-color="white" stop-opacity="0.11"/>
</linearGradient>
<linearGradient id="paint15_linear_3004_27710" x1="65.3728" y1="34.8333" x2="65.3728" y2="125.603" gradientUnits="userSpaceOnUse">
<stop stop-color="white" stop-opacity="0.73"/>
<stop offset="1" stop-color="white" stop-opacity="0.11"/>
</linearGradient>
<linearGradient id="paint16_linear_3004_27710" x1="66.5763" y1="31.8293" x2="66.5763" y2="127.287" gradientUnits="userSpaceOnUse">
<stop stop-color="white" stop-opacity="0.73"/>
<stop offset="1" stop-color="white" stop-opacity="0.11"/>
</linearGradient>
<linearGradient id="paint17_linear_3004_27710" x1="68.1137" y1="28.7996" x2="68.1137" y2="128.636" gradientUnits="userSpaceOnUse">
<stop stop-color="white" stop-opacity="0.73"/>
<stop offset="1" stop-color="white" stop-opacity="0.11"/>
</linearGradient>
<linearGradient id="paint18_linear_3004_27710" x1="70.0094" y1="25.8038" x2="70.0094" y2="129.563" gradientUnits="userSpaceOnUse">
<stop stop-color="white" stop-opacity="0.73"/>
<stop offset="1" stop-color="white" stop-opacity="0.11"/>
</linearGradient>
<linearGradient id="paint19_linear_3004_27710" x1="72.2906" y1="22.8604" x2="72.2906" y2="130.004" gradientUnits="userSpaceOnUse">
<stop stop-color="white" stop-opacity="0.73"/>
<stop offset="1" stop-color="white" stop-opacity="0.11"/>
</linearGradient>
<linearGradient id="paint20_linear_3004_27710" x1="74.9981" y1="20" x2="74.9981" y2="129.899" gradientUnits="userSpaceOnUse">
<stop stop-color="white" stop-opacity="0.73"/>
<stop offset="1" stop-color="white" stop-opacity="0.11"/>
</linearGradient>
<clipPath id="clip0_3004_27710">
<rect width="120" height="110" fill="white" transform="translate(15 20)"/>
</clipPath>
</defs>
</svg>
