<svg width="150" height="150" viewBox="0 0 150 150" fill="none" xmlns="http://www.w3.org/2000/svg">
<g opacity="0.8">
<path d="M62.5875 120.807C62.5411 120.807 62.49 120.784 62.4622 120.747L30.2872 81.6236C30.2408 81.5632 30.2362 81.4843 30.2826 81.4194L61.6499 38.5875C61.6917 38.5318 61.7567 38.5086 61.8217 38.5225L113.38 51.1706C113.454 51.1892 113.505 51.2542 113.505 51.3284L114.006 101.977C114.006 102.046 113.964 102.111 113.899 102.134L62.6478 120.789C62.6478 120.789 62.6107 120.798 62.5921 120.798L62.5875 120.807ZM30.6214 81.5168L62.6386 120.45L113.672 101.874L113.175 51.4677L61.8495 38.8753L30.6261 81.5168H30.6214Z" fill="url(#paint0_linear_3004_27710)"/>
<path d="M60.576 121.74C60.525 121.74 60.4786 121.717 60.4461 121.675L28.7028 80.2125C28.6564 80.1522 28.6564 80.0686 28.7028 80.0083L62.558 37.0047C62.5997 36.9536 62.6694 36.9304 62.7343 36.949L115.402 51.8389C115.476 51.8575 115.522 51.9271 115.522 52.0014L114.213 104.204C114.213 104.274 114.167 104.334 114.097 104.358L60.6225 121.731C60.6225 121.731 60.59 121.74 60.5714 121.74H60.576ZM29.0416 80.1104L60.6364 121.383L113.888 104.079L115.188 52.1221L62.7483 37.2971L29.037 80.1104H29.0416Z" fill="url(#paint1_linear_3004_27710)"/>
<path d="M58.4572 122.636C58.4061 122.636 58.355 122.613 58.3225 122.566L27.1084 78.704C27.0666 78.6436 27.0666 78.5601 27.1177 78.4997L63.5489 35.4126C63.5907 35.3615 63.6603 35.343 63.7253 35.3615L117.451 52.5955C117.52 52.6187 117.571 52.6883 117.567 52.7626L114.341 106.502C114.341 106.572 114.29 106.632 114.22 106.651L58.4989 122.627C58.4989 122.627 58.4664 122.631 58.4525 122.631L58.4572 122.636ZM27.4518 78.6158L58.5221 122.278L114.016 106.367L117.228 52.874L63.7299 35.7143L27.4518 78.6204V78.6158Z" fill="url(#paint2_linear_3004_27710)"/>
<path d="M56.2496 123.476C56.1939 123.476 56.1429 123.448 56.1104 123.402L25.5321 77.0888C25.4903 77.0238 25.495 76.9449 25.546 76.8892L64.6322 33.8065C64.6786 33.7555 64.7482 33.7369 64.8086 33.7601L119.541 53.4495C119.611 53.4727 119.657 53.547 119.648 53.6212L114.389 108.869C114.385 108.939 114.334 108.995 114.264 109.013L56.2821 123.472C56.2821 123.472 56.2543 123.476 56.2404 123.476H56.2496ZM25.8802 77.0099L56.3239 123.119L114.078 108.716L119.309 53.7094L64.7993 34.099L25.8756 77.0053L25.8802 77.0099Z" fill="url(#paint3_linear_3004_27710)"/>
<path d="M53.9474 124.265C53.8917 124.265 53.836 124.238 53.8082 124.186L23.9679 75.3669C23.9308 75.3019 23.94 75.2183 23.9911 75.1673L65.8111 32.1867C65.8576 32.1403 65.9272 32.1217 65.9922 32.1496L121.676 54.4057C121.746 54.4336 121.788 54.5032 121.779 54.5821L114.375 111.316C114.366 111.385 114.315 111.441 114.245 111.455L53.9846 124.265C53.9846 124.265 53.9614 124.265 53.9521 124.265H53.9474ZM24.316 75.3065L54.0263 123.917L114.06 111.158L121.43 54.6656L65.9689 32.4977L24.316 75.3065Z" fill="url(#paint4_linear_3004_27710)"/>
<path d="M51.5417 124.998C51.4814 124.998 51.4257 124.966 51.3979 124.915L22.4116 73.5426C22.3745 73.4776 22.3884 73.394 22.4395 73.343L67.0722 30.5668C67.1187 30.5204 67.1929 30.5065 67.2532 30.5343L123.824 55.4685C123.894 55.501 123.931 55.5706 123.921 55.6449L114.253 113.831C114.244 113.9 114.188 113.956 114.119 113.965L51.5696 124.994C51.5696 124.994 51.551 124.994 51.5417 124.994V124.998ZM22.7597 73.4915L51.6253 124.65L113.942 113.664L123.573 55.7191L67.2208 30.8824L22.7597 73.4961V73.4915Z" fill="url(#paint5_linear_3004_27710)"/>
<path d="M49.0374 125.662C48.9771 125.662 48.9214 125.629 48.8889 125.574L20.8727 71.6022C20.8402 71.5372 20.8542 71.4537 20.9099 71.4026L68.4343 28.9328C68.4854 28.8864 68.555 28.8771 68.6153 28.9049L126.003 56.6287C126.073 56.6612 126.11 56.7355 126.091 56.8097L114.037 116.411C114.023 116.481 113.968 116.532 113.898 116.541L49.0606 125.653C49.0606 125.653 49.0467 125.653 49.0374 125.653V125.662ZM21.2255 71.5651L49.1303 125.318L113.74 116.24L125.748 56.8747L68.5736 29.2531L21.2301 71.5604L21.2255 71.5651Z" fill="url(#paint6_linear_3004_27710)"/>
<path d="M46.4337 126.256C46.3687 126.256 46.313 126.219 46.2851 126.164L19.3597 69.551C19.3272 69.4814 19.3458 69.4025 19.4015 69.3514L69.8919 27.304C69.9429 27.2622 70.0172 27.2529 70.0729 27.2854L128.203 57.9147C128.268 57.9519 128.305 58.0261 128.287 58.1004L113.722 119.076C113.708 119.146 113.647 119.197 113.578 119.201L46.4476 126.256C46.4476 126.256 46.4337 126.256 46.429 126.256H46.4337ZM19.7125 69.5232L46.5311 125.918L113.429 118.886L127.939 58.1468L70.0218 27.6289L19.7125 69.5232Z" fill="url(#paint7_linear_3004_27710)"/>
<path d="M43.7299 126.781C43.6649 126.781 43.6046 126.744 43.5767 126.684L17.872 67.3834C17.8442 67.3138 17.8627 67.2349 17.9231 67.1885L71.4583 25.6839C71.5094 25.6422 71.5836 25.6375 71.6393 25.67L130.429 59.3164C130.494 59.3535 130.526 59.4325 130.508 59.5021L113.306 121.801C113.288 121.87 113.227 121.917 113.158 121.921L43.7392 126.776H43.7299V126.781ZM18.2294 67.3695L43.8367 126.442L113.023 121.606L130.16 59.5439L71.579 26.0135L18.2341 67.3695H18.2294Z" fill="url(#paint8_linear_3004_27710)"/>
<path d="M40.9197 127.217C40.8501 127.217 40.7898 127.175 40.7665 127.11L16.4172 65.0904C16.3893 65.0208 16.4172 64.9419 16.4729 64.8954L73.1225 24.0596C73.1782 24.0224 73.2479 24.0178 73.3082 24.0549L132.668 60.8388C132.733 60.8806 132.761 60.9548 132.738 61.0291L112.775 124.594C112.752 124.659 112.691 124.706 112.622 124.71L40.9244 127.212C40.9244 127.212 40.9244 127.212 40.9197 127.212V127.217ZM16.7699 65.0904L41.0311 126.883L112.497 124.385L132.385 61.0523L73.2293 24.3938L16.7746 65.0904H16.7699Z" fill="url(#paint9_linear_3004_27710)"/>
<path d="M111.979 127.57H38.0214C37.9518 127.57 37.8868 127.523 37.8636 127.458L15.0088 62.6815C14.9856 62.6119 15.0088 62.533 15.0738 62.4912L74.9075 22.4581C74.9632 22.421 75.0375 22.421 75.0932 22.4581L134.927 62.4912C134.987 62.533 135.015 62.6119 134.992 62.6815L112.137 127.458C112.114 127.523 112.054 127.57 111.979 127.57ZM38.1374 127.24H111.863L134.634 62.6954L74.9957 22.797L15.3615 62.6954L38.1328 127.24H38.1374Z" fill="url(#paint10_linear_3004_27710)"/>
</g>
<defs>
<linearGradient id="paint0_linear_3004_27710" x1="72.1281" y1="38.5186" x2="72.1281" y2="120.807" gradientUnits="userSpaceOnUse">
<stop stop-color="white" stop-opacity="0.73"/>
<stop offset="1" stop-color="white" stop-opacity="0.11"/>
</linearGradient>
<linearGradient id="paint1_linear_3004_27710" x1="72.0951" y1="36.9426" x2="72.0951" y2="121.74" gradientUnits="userSpaceOnUse">
<stop stop-color="white" stop-opacity="0.73"/>
<stop offset="1" stop-color="white" stop-opacity="0.11"/>
</linearGradient>
<linearGradient id="paint2_linear_3004_27710" x1="72.3226" y1="35.3545" x2="72.3226" y2="122.636" gradientUnits="userSpaceOnUse">
<stop stop-color="white" stop-opacity="0.73"/>
<stop offset="1" stop-color="white" stop-opacity="0.11"/>
</linearGradient>
<linearGradient id="paint3_linear_3004_27710" x1="72.5766" y1="33.7502" x2="72.5766" y2="123.476" gradientUnits="userSpaceOnUse">
<stop stop-color="white" stop-opacity="0.73"/>
<stop offset="1" stop-color="white" stop-opacity="0.11"/>
</linearGradient>
<linearGradient id="paint4_linear_3004_27710" x1="72.8625" y1="32.1365" x2="72.8625" y2="124.265" gradientUnits="userSpaceOnUse">
<stop stop-color="white" stop-opacity="0.73"/>
<stop offset="1" stop-color="white" stop-opacity="0.11"/>
</linearGradient>
<linearGradient id="paint5_linear_3004_27710" x1="73.1568" y1="30.52" x2="73.1568" y2="124.998" gradientUnits="userSpaceOnUse">
<stop stop-color="white" stop-opacity="0.73"/>
<stop offset="1" stop-color="white" stop-opacity="0.11"/>
</linearGradient>
<linearGradient id="paint6_linear_3004_27710" x1="73.4757" y1="28.8893" x2="73.4757" y2="125.662" gradientUnits="userSpaceOnUse">
<stop stop-color="white" stop-opacity="0.73"/>
<stop offset="1" stop-color="white" stop-opacity="0.11"/>
</linearGradient>
<linearGradient id="paint7_linear_3004_27710" x1="73.8176" y1="27.2659" x2="73.8176" y2="126.256" gradientUnits="userSpaceOnUse">
<stop stop-color="white" stop-opacity="0.73"/>
<stop offset="1" stop-color="white" stop-opacity="0.11"/>
</linearGradient>
<linearGradient id="paint8_linear_3004_27710" x1="74.1861" y1="25.6487" x2="74.1861" y2="126.781" gradientUnits="userSpaceOnUse">
<stop stop-color="white" stop-opacity="0.73"/>
<stop offset="1" stop-color="white" stop-opacity="0.11"/>
</linearGradient>
<linearGradient id="paint9_linear_3004_27710" x1="74.5762" y1="24.0293" x2="74.5762" y2="127.217" gradientUnits="userSpaceOnUse">
<stop stop-color="white" stop-opacity="0.73"/>
<stop offset="1" stop-color="white" stop-opacity="0.11"/>
</linearGradient>
<linearGradient id="paint10_linear_3004_27710" x1="75" y1="22.4303" x2="75" y2="127.57" gradientUnits="userSpaceOnUse">
<stop stop-color="white" stop-opacity="0.73"/>
<stop offset="1" stop-color="white" stop-opacity="0.11"/>
</linearGradient>
</defs>
</svg>
