<svg width="150" height="150" viewBox="0 0 150 150" fill="none" xmlns="http://www.w3.org/2000/svg">
<g opacity="0.8">
<path d="M101.297 105.104C103.259 105.104 104.882 104.628 106.086 103.669C108.349 101.871 109.036 98.4981 108.076 93.9203L108.058 93.8215L80.3933 74.3765C78.422 72.9933 76.3895 71.0032 74.8087 68.919L59.3581 48.533C56.2953 44.4916 51.868 41.1794 49.2804 40.9912C48.6123 40.9442 48.0807 41.0994 47.7137 41.4617C44.5991 44.5292 45.2108 51.196 49.3933 59.7587C57.4621 76.282 76.3989 95.454 91.6048 102.497C95.3452 104.229 98.6338 105.104 101.292 105.104H101.297ZM107.606 94.1179C108.495 98.451 107.86 101.617 105.776 103.273C103.094 105.405 98.1398 104.967 91.8213 102.041C76.7047 95.04 57.8761 75.9762 49.8497 59.5376C45.7706 51.1818 45.1213 44.7221 48.0713 41.8193C48.33 41.5652 48.7252 41.4523 49.2475 41.4899C51.7081 41.6687 55.9753 44.8962 58.9629 48.8341L74.4135 69.2201C76.0225 71.3466 78.102 73.3744 80.111 74.7858L107.611 94.1132L107.606 94.1179Z" fill="url(#paint0_linear_3004_27710)"/>
<path d="M102.658 105.405C104.997 105.405 106.883 104.808 108.201 103.617C110.534 101.509 111.024 97.7126 109.607 92.6361L109.579 92.542L80.3294 74.1132C78.2451 72.8006 76.0433 70.8386 74.2884 68.7309L57.1206 48.119C53.719 44.0352 49.0471 40.8595 46.4219 40.9065C45.7444 40.9159 45.2268 41.1371 44.8928 41.5652C42.0652 45.1691 43.2602 52.3157 48.1626 61.1796C57.6428 78.3052 78.1746 97.2704 93.9357 103.453C97.2573 104.756 100.202 105.405 102.649 105.405H102.658ZM109.151 92.862C110.478 97.6985 110.035 101.288 107.867 103.246C105.312 105.551 100.433 105.457 94.1286 102.982C78.4616 96.8328 58.038 77.9712 48.6096 60.9303C43.806 52.2546 42.6015 45.3055 45.2927 41.871C45.5279 41.5699 45.9137 41.4099 46.436 41.4052C48.8872 41.3817 53.4273 44.4587 56.7395 48.439L73.9073 69.0508C75.6951 71.1962 77.9393 73.1958 80.0659 74.5366L109.151 92.862Z" fill="url(#paint1_linear_3004_27710)"/>
<path d="M103.923 105.631C106.694 105.631 108.854 104.883 110.312 103.391C112.712 100.94 112.957 96.6915 111.032 91.0975L110.999 91.0081L80.2582 73.8214C78.0705 72.5982 75.7039 70.6833 73.7703 68.5661L54.8711 47.8744C51.1496 43.8001 46.2048 40.8125 43.6078 41.076C42.9114 41.1465 42.408 41.4335 42.1069 41.937C39.6134 46.0913 41.4247 53.7037 47.0752 62.8216C58.0092 80.4646 80.117 99.0533 96.358 104.257C99.2233 105.174 101.759 105.631 103.923 105.631ZM110.585 91.3515C112.411 96.7056 112.194 100.747 109.95 103.038C107.527 105.513 102.757 105.776 96.5086 103.777C80.3664 98.6063 58.3761 80.1117 47.4986 62.5534C41.9517 53.6002 40.1403 46.176 42.5351 42.191C42.7515 41.8334 43.1279 41.6264 43.6548 41.57C46.1013 41.3253 50.872 44.2423 54.4994 48.2085L73.3986 68.9002C75.3652 71.055 77.7788 73.0075 80.0135 74.259L110.585 91.3515Z" fill="url(#paint2_linear_3004_27710)"/>
<path d="M104.984 105.743C108.301 105.743 110.818 104.816 112.399 102.981C114.846 100.144 114.817 95.4162 112.31 89.3047L112.272 89.2153L80.1523 73.5202C77.8658 72.4004 75.344 70.5514 73.2315 68.4437L52.601 47.8274C48.5172 43.7483 43.4548 41.0337 40.8343 41.5183C40.1238 41.65 39.6157 42.0217 39.357 42.6004C37.2398 47.324 39.7098 55.3833 46.1225 64.7081C58.5526 82.7792 82.1989 100.808 98.8304 104.906C101.103 105.466 103.164 105.743 104.98 105.743H104.984ZM111.886 89.5823C114.281 95.4632 114.328 99.9798 112.023 102.652C109.703 105.339 105.187 105.95 98.9574 104.416C82.4247 100.347 58.9101 82.4028 46.5412 64.4211C40.2273 55.2421 37.7761 47.3616 39.818 42.8027C40.0062 42.3793 40.3826 42.1111 40.9284 42.0123C43.3655 41.5653 48.3384 44.2753 52.2481 48.1849L72.8787 68.8013C75.0288 70.9467 77.5976 72.8333 79.9359 73.9765L111.881 89.587L111.886 89.5823Z" fill="url(#paint3_linear_3004_27710)"/>
<path d="M105.797 105.776C109.791 105.776 112.746 104.624 114.454 102.365C116.929 99.0954 116.571 93.8637 113.428 87.2441L113.386 87.1594L80.0195 73.2097C77.6435 72.217 74.9712 70.4527 72.6847 68.3685L50.3368 48.0015C45.9802 44.0307 40.739 41.5606 38.1326 42.2617C37.3939 42.4593 36.8905 42.9156 36.6741 43.5837C34.9804 48.886 38.142 57.364 45.3356 66.8489C59.2901 85.2351 84.4184 102.521 101.351 105.381C102.946 105.649 104.433 105.786 105.792 105.786L105.797 105.776ZM113.014 87.5452C115.992 93.8543 116.359 99.0108 114.054 102.064C111.885 104.934 107.524 105.903 101.44 104.878C84.6161 102.036 59.6335 84.8352 45.7403 66.5336C38.6454 57.1852 35.512 48.8719 37.154 43.7248C37.314 43.2214 37.6856 42.8874 38.2643 42.7321C40.6732 42.0876 45.8296 44.5576 49.9981 48.3591L72.3459 68.7261C74.6748 70.8479 77.3989 72.6451 79.8266 73.6614L113.014 87.5405V87.5452Z" fill="url(#paint4_linear_3004_27710)"/>
<path d="M106.317 105.748C111.158 105.748 114.64 104.309 116.465 101.533C118.898 97.8347 118.15 91.9302 114.362 84.9106L114.315 84.8259L79.8621 72.8804C77.4109 72.0288 74.5927 70.3727 72.1321 68.3309L48.0952 48.3919C43.5034 44.581 38.0975 42.3886 35.5287 43.2919C34.7477 43.5648 34.2537 44.1152 34.0937 44.8868C32.8752 50.7772 36.7567 59.6458 44.7454 69.2248C60.2525 87.8135 86.7923 104.149 103.913 105.645C104.746 105.715 105.55 105.753 106.317 105.753V105.748ZM113.967 85.2305C117.623 92.0431 118.361 97.7312 116.047 101.255C114.038 104.309 109.855 105.654 103.955 105.141C86.9522 103.659 60.563 87.3994 45.1312 68.9001C37.2412 59.4388 33.3974 50.7255 34.583 44.9856C34.7054 44.3881 35.0817 43.9741 35.6934 43.7624C38.1116 42.9155 43.3058 45.0703 47.7753 48.7777L71.8122 68.7167C74.3151 70.7915 77.1898 72.4852 79.6974 73.3509L113.967 85.2352V85.2305Z" fill="url(#paint5_linear_3004_27710)"/>
<path d="M106.471 105.687H106.48C112.366 105.687 116.492 103.876 118.421 100.451C120.802 96.2209 119.621 89.7706 115.09 82.2853L115.038 82.2006L79.6723 72.5275C77.1552 71.8406 74.2053 70.3115 71.58 68.3355L45.8965 49.0223C41.027 45.362 35.6212 43.513 33.043 44.6327C32.2197 44.9903 31.7303 45.649 31.6362 46.5335C30.9352 53.012 35.5742 62.2428 44.3628 71.85C61.4271 90.5046 89.2889 105.682 106.476 105.682L106.471 105.687ZM114.714 82.6334C119.103 89.9165 120.265 96.155 117.984 100.206C116.149 103.462 112.173 105.184 106.48 105.184H106.471C89.4065 105.184 61.7094 90.0811 44.7297 71.516C36.0399 62.0123 31.448 52.9273 32.1349 46.5946C32.2102 45.8889 32.5866 45.3855 33.2453 45.0985C35.6306 44.0634 40.9376 45.9265 45.6001 49.4316L71.2836 68.7448C73.9607 70.7585 76.9717 72.3158 79.5453 73.0168L114.718 82.6381L114.714 82.6334Z" fill="url(#paint6_linear_3004_27710)"/>
<path d="M106.178 105.626C107.17 105.626 108.125 105.584 109.052 105.494C114.698 104.958 118.594 102.747 120.316 99.1051C122.593 94.2921 120.913 87.2866 115.597 79.3872L115.54 79.3025L79.4637 72.1795C76.8996 71.6713 73.8274 70.2975 71.0421 68.4109L43.7731 49.9305C38.7389 46.5195 33.2484 44.9998 30.7125 46.3125C29.8327 46.7688 29.3575 47.5451 29.3387 48.5614C29.207 55.6327 34.6269 65.1787 44.2153 74.7436C61.8395 92.3301 88.8263 105.621 106.187 105.626H106.178ZM115.234 79.7542C120.405 87.4654 122.047 94.2591 119.859 98.8933C118.217 102.365 114.463 104.478 109.005 105C92.0161 106.623 63.1004 92.89 44.5635 74.3954C35.0739 64.9247 29.7057 55.5151 29.8327 48.5755C29.8468 47.7427 30.2185 47.1311 30.9336 46.7594C33.2766 45.5456 38.6731 47.084 43.4814 50.3445L70.7504 68.8249C73.5921 70.7492 76.7302 72.1512 79.3555 72.6735L115.23 79.7589L115.234 79.7542Z" fill="url(#paint7_linear_3004_27710)"/>
<path d="M105.394 105.607C107.605 105.607 109.68 105.424 111.59 105.043C116.982 103.96 120.619 101.34 122.11 97.4537C124.204 92.0008 121.974 84.4496 115.834 76.1927L115.768 76.108L79.2026 71.8125C76.6055 71.5067 73.4298 70.3117 70.4893 68.5286L41.71 51.102C36.4783 47.9309 31.0583 46.7877 28.5271 48.3214C27.5909 48.8907 27.1298 49.8034 27.2051 50.9655C27.6897 58.6296 33.9188 68.4392 44.2976 77.8864C62.2041 94.1792 87.9864 105.607 105.39 105.607H105.394ZM115.495 76.5785C121.48 84.6566 123.663 92.0055 121.64 97.2702C120.214 100.987 116.705 103.499 111.492 104.544C94.7049 107.908 64.7165 95.7835 44.6411 77.51C34.3564 68.1522 28.1837 58.4603 27.7085 50.9279C27.6473 49.954 28.0096 49.2153 28.7906 48.7449C31.1289 47.3287 36.4547 48.5002 41.4512 51.5254L70.2305 68.952C73.2322 70.768 76.4785 71.9913 79.1461 72.3018L115.495 76.5738V76.5785Z" fill="url(#paint8_linear_3004_27710)"/>
<path d="M104.049 105.692C107.766 105.692 111.153 105.245 114.084 104.313C119.208 102.681 122.567 99.6226 123.8 95.4682C125.621 89.3332 122.779 81.255 115.802 72.7205L115.731 72.6311L78.9255 71.4408C76.3143 71.3561 73.0492 70.3634 69.9675 68.712L39.7815 52.5698C34.4745 49.7328 29.0404 48.9518 26.5657 50.6785C25.5589 51.3795 25.126 52.4475 25.3095 53.7648C26.4575 62.0076 33.5147 72.0383 44.6792 81.2785C62.5433 96.0704 86.7919 105.687 104.054 105.687L104.049 105.692ZM115.487 73.1251C122.304 81.4902 125.089 89.3708 123.32 95.3224C122.139 99.312 118.893 102.253 113.934 103.833C97.5094 109.065 66.5848 98.7757 44.9944 80.8927C33.9287 71.7278 26.9327 61.8148 25.8035 53.6943C25.6436 52.5557 25.9964 51.6806 26.848 51.0878C29.1345 49.4929 34.4698 50.3021 39.5369 53.0121L69.7229 69.1542C72.8704 70.8386 76.2155 71.8548 78.902 71.9395L115.482 73.1204L115.487 73.1251Z" fill="url(#paint9_linear_3004_27710)"/>
<path d="M102.072 105.936C107.609 105.936 112.545 105.085 116.511 103.283C121.362 101.081 124.415 97.5571 125.351 93.0923C126.786 86.2374 123.276 77.6652 115.462 68.9566L115.382 68.8672L78.6043 71.0691C75.9978 71.2243 72.6621 70.4575 69.4487 68.966L37.9689 54.3482C32.6289 51.8688 27.2184 51.4736 24.8142 53.3884C23.7368 54.2447 23.3369 55.4868 23.6522 56.9782C25.5106 65.7903 33.4146 75.9715 45.3366 84.92C62.7961 98.0276 85.2098 105.936 102.067 105.936H102.072ZM115.175 69.3801C122.82 77.9334 126.264 86.3174 124.862 92.9841C123.959 97.289 120.999 100.691 116.304 102.822C100.406 110.039 68.7054 101.829 45.6424 84.5154C33.8192 75.6374 25.981 65.5598 24.1462 56.87C23.8686 55.5573 24.1979 54.5176 25.1295 53.7742C27.3925 51.9723 32.5866 52.391 37.7619 54.7952L69.2417 69.413C72.5257 70.9374 75.9555 71.7231 78.6372 71.5631L115.175 69.3754V69.3801Z" fill="url(#paint10_linear_3004_27710)"/>
<path d="M99.4289 106.421C107.126 106.421 113.877 104.977 118.836 101.937C123.405 99.1379 126.133 95.1059 126.726 90.2788C127.658 82.69 123.423 73.685 114.804 64.9152L114.715 64.8211L78.262 70.688C75.6838 71.102 72.2963 70.5892 68.97 69.2813L36.3375 56.4324C30.9317 54.3012 25.7047 54.3106 23.3334 56.4513C22.1855 57.491 21.8232 58.926 22.2937 60.6056C24.9142 69.9635 33.6699 80.2387 46.3258 88.7968C62.9996 100.074 83.3009 106.421 99.4337 106.421H99.4289ZM114.536 65.3574C122.986 73.9861 127.136 82.8076 126.228 90.2176C125.654 94.8848 123.009 98.7898 118.573 101.509C103.367 110.829 71.0825 104.939 46.5987 88.3781C34.0416 79.8859 25.3565 69.7094 22.7689 60.4645C22.3548 58.9777 22.6607 57.7168 23.6628 56.8182C25.8929 54.8046 30.9129 54.8328 36.1446 56.8935L68.7771 69.7423C72.1881 71.0832 75.6697 71.6101 78.3326 71.182L114.531 65.3574H114.536Z" fill="url(#paint11_linear_3004_27710)"/>
<path d="M96.1665 107.23C106.348 107.23 115.193 104.963 121.036 100.262C125.322 96.8138 127.684 92.2219 127.872 86.976C128.164 78.6674 123.167 69.3001 113.795 60.6009L113.692 60.5068L77.8789 70.3163C75.3478 71.0079 71.9368 70.7727 68.507 69.6718L34.877 58.8507C29.443 57.1005 24.4371 57.5051 22.1176 59.8764C20.8943 61.1278 20.5885 62.7839 21.2425 64.6659C24.6676 74.5459 34.2842 84.8401 47.6364 92.9041C63.1388 102.276 81.1159 107.23 96.1665 107.23ZM113.551 61.0667C122.749 69.6341 127.656 78.8273 127.369 86.9619C127.19 92.0572 124.889 96.5221 120.721 99.8766C106.39 111.408 73.7199 108.087 47.8952 92.4807C34.6465 84.4731 25.1052 74.2778 21.7177 64.5059C21.1343 62.8169 21.3978 61.3396 22.4799 60.2339C24.63 58.0321 29.5512 57.6745 34.7265 59.3353L68.3564 70.1564C71.8709 71.2902 75.3948 71.5255 78.0154 70.8056L113.56 61.0714L113.551 61.0667Z" fill="url(#paint12_linear_3004_27710)"/>
<path d="M92.4188 108.444C105.343 108.444 116.55 105.057 123.085 98.244C127.074 94.085 129.022 88.8579 128.721 83.1322C128.251 74.146 122.459 64.52 112.409 56.0325L112.292 55.9337L77.4622 69.954C75.0063 70.942 71.5859 71.0126 68.0808 70.1422L33.6369 61.6124C28.3064 60.2904 23.4322 61.0996 21.2163 63.6637C19.9413 65.1457 19.7013 67.0982 20.5529 69.1589C24.8201 79.5283 35.3024 89.7613 49.2992 97.2325C63.2819 104.694 78.8031 108.449 92.4141 108.449L92.4188 108.444ZM112.202 56.5124C122.073 64.887 127.757 74.3436 128.222 83.1557C128.514 88.7403 126.613 93.8356 122.722 97.8959C109.455 111.737 76.6247 111.239 49.5439 96.7855C35.6459 89.3708 25.2483 79.2272 21.0233 68.966C20.2376 67.0606 20.44 65.3433 21.6021 63.993C23.691 61.5654 28.3722 60.822 33.5193 62.097L67.9632 70.6268C71.5718 71.5207 75.1004 71.4455 77.6504 70.4151L112.202 56.5077V56.5124Z" fill="url(#paint13_linear_3004_27710)"/>
<path d="M88.4033 110.133C104.235 110.133 117.997 105.249 124.941 95.8587C134.449 83.0051 128.7 65.061 110.629 51.2054L110.497 51.1066L77.013 69.5917C74.6559 70.895 71.259 71.2902 67.6975 70.6833L32.642 64.7082C27.3726 63.8095 22.7807 64.9952 20.6541 67.8086C19.318 69.5776 19.1768 71.803 20.2589 74.0801C25.4154 84.9012 36.7445 94.9836 51.3389 101.749C63.5196 107.39 76.5425 110.133 88.3986 110.133H88.4033ZM110.455 51.7088C128.182 65.3668 133.847 82.9769 124.536 95.5623C118.768 103.363 107.975 108.261 94.1385 109.357C80.2734 110.458 65.1475 107.592 51.5506 101.293C37.0551 94.579 25.8153 84.5813 20.7106 73.8637C19.6944 71.7371 19.812 69.747 21.0493 68.1097C23.03 65.4892 27.5467 64.3506 32.5526 65.2022L67.6081 71.1773C71.2825 71.803 74.797 71.3843 77.2529 70.0293L110.45 51.7041L110.455 51.7088Z" fill="url(#paint14_linear_3004_27710)"/>
<path d="M84.4025 112.349C103.184 112.349 119.599 105.503 126.581 93.1063C134.923 78.305 127.63 59.4341 108.439 46.1572L108.293 46.0537L76.5408 69.2483C74.306 70.8809 70.9656 71.6289 67.3664 71.309L31.9251 68.1615C26.8298 67.7098 22.4355 69.3 20.4501 72.3205C19.0669 74.4236 19.0527 76.95 20.3983 79.4436C26.4769 90.6692 38.6389 100.512 53.7695 106.454C63.946 110.448 74.5036 112.354 84.4072 112.354L84.4025 112.349ZM108.298 46.67C127.16 59.787 134.33 78.3332 126.144 92.8616C121.076 101.857 110.749 108.185 97.0631 110.683C83.3486 113.186 68.0345 111.521 53.9483 105.988C38.9258 100.088 26.8533 90.3304 20.8359 79.2083C19.5797 76.8842 19.5891 74.5412 20.8641 72.5981C22.746 69.7376 26.9662 68.2274 31.8733 68.6649L67.3146 71.8124C71.0314 72.1417 74.5036 71.356 76.8325 69.6576L108.298 46.6747V46.67Z" fill="url(#paint15_linear_3004_27710)"/>
<path d="M80.5485 115.106C87.3469 115.106 94.0042 114.179 100.243 112.316C113.807 108.27 123.654 100.338 127.982 89.9732C134.992 73.1724 126.086 53.4451 105.823 40.8927L105.658 40.7892L76.0413 68.9192C73.9618 70.8952 70.7013 72.0009 67.088 72.0197L31.5056 71.9679H31.4774C26.5985 71.9679 22.4394 73.9675 20.6234 77.1903C19.2261 79.6697 19.3578 82.5255 21.0045 85.2308C28.0335 96.8093 41.0093 106.313 56.6057 111.314C64.4816 113.841 72.6115 115.106 80.5579 115.106H80.5485ZM105.719 41.4196C125.653 53.845 134.414 73.257 127.517 89.7803C123.249 100.004 113.515 107.837 100.097 111.836C86.6553 115.845 71.2612 115.492 56.7469 110.834C41.2681 105.871 28.391 96.4423 21.4232 84.9673C19.88 82.4267 19.7483 79.7497 21.0515 77.4349C22.7782 74.3674 26.7726 72.4666 31.468 72.4666H31.4915L67.0739 72.5184H67.0974C70.8236 72.5184 74.2017 71.3375 76.3706 69.2815L105.71 41.4196H105.719Z" fill="url(#paint16_linear_3004_27710)"/>
<path d="M77.3993 118.466C86.5125 118.466 95.3999 116.715 103.417 113.267C116.572 107.602 125.694 98.0796 129.096 86.454C134.61 67.6111 124.024 47.1122 102.749 35.4443L102.565 35.3455L75.508 68.6133C73.6073 70.9516 70.4551 72.4853 66.8653 72.8194L31.4146 76.1316C26.6721 76.5738 22.8518 78.9309 21.1957 82.436C19.8408 85.3013 20.1701 88.5852 22.1038 91.4458C30.1161 103.316 43.8729 112.378 59.841 116.315C65.675 117.755 71.5842 118.466 77.404 118.466H77.3993ZM102.688 35.9853C123.629 47.5545 134.045 67.757 128.611 86.3128C125.252 97.7926 116.233 107.202 103.215 112.806C90.1776 118.419 74.8117 119.491 59.9539 115.826C44.1034 111.921 30.4548 102.93 22.5131 91.1635C20.6547 88.4112 20.3442 85.3907 21.6427 82.6478C23.2235 79.3026 26.8933 77.0537 31.4569 76.6256L66.9076 73.3134C70.6338 72.9652 73.9084 71.3656 75.8938 68.9238L102.688 35.9806V35.9853Z" fill="url(#paint17_linear_3004_27710)"/>
<path d="M74.9024 122.384C86.2316 122.384 97.2173 119.519 106.665 113.991C119.273 106.614 127.526 95.4447 129.902 82.5394C133.75 61.6312 121.419 40.4502 99.2121 29.8315L99.0098 29.7327L74.9542 68.3215C73.2651 71.0314 70.2588 72.9933 66.7113 73.6944L31.6841 80.6434C27.1816 81.5373 23.6342 84.3084 22.1898 88.0534C20.9101 91.3797 21.4747 95.026 23.7377 98.0606C32.7521 110.152 47.2476 118.663 63.5027 121.415C67.3088 122.06 71.1245 122.38 74.9024 122.38V122.384ZM99.198 30.3819C121.071 40.9301 133.204 61.8288 129.408 82.45C127.06 95.2094 118.892 106.256 106.41 113.558C93.9145 120.869 78.7086 123.485 63.5874 120.926C47.4593 118.197 33.0814 109.757 24.1423 97.7688C21.9828 94.8754 21.4417 91.3985 22.6603 88.2416C24.0388 84.6566 27.4497 82.003 31.7829 81.1421L66.8101 74.1931C70.494 73.4638 73.618 71.4219 75.3823 68.5897L99.2027 30.3819H99.198Z" fill="url(#paint18_linear_3004_27710)"/>
<path d="M73.1338 126.845C86.5754 126.845 99.4807 122.54 109.958 114.466C121.871 105.287 129.116 92.4196 130.358 78.2299C132.372 55.2375 118.239 33.4825 95.1993 24.0917L94.9782 24.0023L94.8747 24.2187L74.3759 68.0628C72.9268 71.1633 70.1039 73.5721 66.6318 74.6684L32.3431 85.5082C28.0853 86.8538 24.8296 90.0578 23.6346 94.071C22.5007 97.8913 23.3429 101.9 25.9493 105.08C35.9847 117.317 51.1671 125.165 67.6009 126.6C69.4499 126.76 71.2989 126.84 73.1338 126.84V126.845ZM95.2323 24.6469C117.938 34.0047 131.845 55.4916 129.86 78.1876C128.632 92.2314 121.452 104.977 109.652 114.071C97.8434 123.17 82.9245 127.442 67.6433 126.106C51.3411 124.68 36.2858 116.903 26.3351 104.765C23.8369 101.721 23.0276 97.8772 24.1144 94.2168C25.2624 90.3589 28.3911 87.2866 32.4937 85.9881L66.7823 75.1482C70.3909 74.0097 73.322 71.502 74.8322 68.2745L95.2323 24.6469Z" fill="url(#paint19_linear_3004_27710)"/>
<path d="M72.1401 131.827C87.6095 131.827 102.223 125.734 113.288 114.669C124.354 103.603 130.447 88.9897 130.447 73.5203C130.447 48.4484 114.479 26.237 90.71 18.253L90.4701 18.173L73.7868 67.8322C72.6106 71.3326 70.0042 74.2119 66.6402 75.7269L33.4243 90.7164C29.3499 92.5559 26.48 96.1222 25.5626 100.507C24.6498 104.835 25.8166 109.197 28.7618 112.467C39.8275 124.77 55.6357 131.827 72.1401 131.827ZM90.7853 18.8128C114.22 26.7969 129.943 48.7495 129.943 73.525C129.943 88.8627 123.902 103.349 112.931 114.316C101.959 125.283 87.4731 131.328 72.1401 131.328C55.7815 131.328 40.1051 124.332 29.1335 112.137C26.2965 108.985 25.1768 104.784 26.0519 100.615C26.9411 96.3904 29.7028 92.9511 33.6313 91.1774L66.8472 76.1879C70.3382 74.6118 73.0435 71.6243 74.262 67.9922L90.7853 18.8128Z" fill="url(#paint20_linear_3004_27710)"/>
</g>
<defs>
<linearGradient id="paint0_linear_3004_27710" x1="77.1237" y1="40.983" x2="77.1237" y2="105.104" gradientUnits="userSpaceOnUse">
<stop stop-color="white" stop-opacity="0.73"/>
<stop offset="1" stop-color="white" stop-opacity="0.11"/>
</linearGradient>
<linearGradient id="paint1_linear_3004_27710" x1="76.894" y1="40.906" x2="76.894" y2="105.405" gradientUnits="userSpaceOnUse">
<stop stop-color="white" stop-opacity="0.73"/>
<stop offset="1" stop-color="white" stop-opacity="0.11"/>
</linearGradient>
<linearGradient id="paint2_linear_3004_27710" x1="76.663" y1="41.0598" x2="76.663" y2="105.631" gradientUnits="userSpaceOnUse">
<stop stop-color="white" stop-opacity="0.73"/>
<stop offset="1" stop-color="white" stop-opacity="0.11"/>
</linearGradient>
<linearGradient id="paint3_linear_3004_27710" x1="76.4142" y1="41.4624" x2="76.4142" y2="105.743" gradientUnits="userSpaceOnUse">
<stop stop-color="white" stop-opacity="0.73"/>
<stop offset="1" stop-color="white" stop-opacity="0.11"/>
</linearGradient>
<linearGradient id="paint4_linear_3004_27710" x1="76.153" y1="42.1431" x2="76.153" y2="105.786" gradientUnits="userSpaceOnUse">
<stop stop-color="white" stop-opacity="0.73"/>
<stop offset="1" stop-color="white" stop-opacity="0.11"/>
</linearGradient>
<linearGradient id="paint5_linear_3004_27710" x1="75.8712" y1="43.0894" x2="75.8712" y2="105.753" gradientUnits="userSpaceOnUse">
<stop stop-color="white" stop-opacity="0.73"/>
<stop offset="1" stop-color="white" stop-opacity="0.11"/>
</linearGradient>
<linearGradient id="paint6_linear_3004_27710" x1="75.5947" y1="44.3077" x2="75.5947" y2="105.687" gradientUnits="userSpaceOnUse">
<stop stop-color="white" stop-opacity="0.73"/>
<stop offset="1" stop-color="white" stop-opacity="0.11"/>
</linearGradient>
<linearGradient id="paint7_linear_3004_27710" x1="75.3213" y1="45.8437" x2="75.3213" y2="105.626" gradientUnits="userSpaceOnUse">
<stop stop-color="white" stop-opacity="0.73"/>
<stop offset="1" stop-color="white" stop-opacity="0.11"/>
</linearGradient>
<linearGradient id="paint8_linear_3004_27710" x1="75.0369" y1="47.6462" x2="75.0369" y2="105.607" gradientUnits="userSpaceOnUse">
<stop stop-color="white" stop-opacity="0.73"/>
<stop offset="1" stop-color="white" stop-opacity="0.11"/>
</linearGradient>
<linearGradient id="paint9_linear_3004_27710" x1="74.8028" y1="49.7675" x2="74.8028" y2="105.692" gradientUnits="userSpaceOnUse">
<stop stop-color="white" stop-opacity="0.73"/>
<stop offset="1" stop-color="white" stop-opacity="0.11"/>
</linearGradient>
<linearGradient id="paint10_linear_3004_27710" x1="74.6065" y1="52.1814" x2="74.6065" y2="105.936" gradientUnits="userSpaceOnUse">
<stop stop-color="white" stop-opacity="0.73"/>
<stop offset="1" stop-color="white" stop-opacity="0.11"/>
</linearGradient>
<linearGradient id="paint11_linear_3004_27710" x1="74.473" y1="54.8398" x2="74.473" y2="106.421" gradientUnits="userSpaceOnUse">
<stop stop-color="white" stop-opacity="0.73"/>
<stop offset="1" stop-color="white" stop-opacity="0.11"/>
</linearGradient>
<linearGradient id="paint12_linear_3004_27710" x1="74.3954" y1="57.7716" x2="74.3954" y2="107.23" gradientUnits="userSpaceOnUse">
<stop stop-color="white" stop-opacity="0.73"/>
<stop offset="1" stop-color="white" stop-opacity="0.11"/>
</linearGradient>
<linearGradient id="paint13_linear_3004_27710" x1="74.4013" y1="55.9337" x2="74.4013" y2="108.449" gradientUnits="userSpaceOnUse">
<stop stop-color="white" stop-opacity="0.73"/>
<stop offset="1" stop-color="white" stop-opacity="0.11"/>
</linearGradient>
<linearGradient id="paint14_linear_3004_27710" x1="74.5083" y1="51.1066" x2="74.5083" y2="110.133" gradientUnits="userSpaceOnUse">
<stop stop-color="white" stop-opacity="0.73"/>
<stop offset="1" stop-color="white" stop-opacity="0.11"/>
</linearGradient>
<linearGradient id="paint15_linear_3004_27710" x1="74.6972" y1="46.0537" x2="74.6972" y2="112.354" gradientUnits="userSpaceOnUse">
<stop stop-color="white" stop-opacity="0.73"/>
<stop offset="1" stop-color="white" stop-opacity="0.11"/>
</linearGradient>
<linearGradient id="paint16_linear_3004_27710" x1="75.0067" y1="40.7892" x2="75.0067" y2="115.106" gradientUnits="userSpaceOnUse">
<stop stop-color="white" stop-opacity="0.73"/>
<stop offset="1" stop-color="white" stop-opacity="0.11"/>
</linearGradient>
<linearGradient id="paint17_linear_3004_27710" x1="75.4567" y1="35.3455" x2="75.4567" y2="118.466" gradientUnits="userSpaceOnUse">
<stop stop-color="white" stop-opacity="0.73"/>
<stop offset="1" stop-color="white" stop-opacity="0.11"/>
</linearGradient>
<linearGradient id="paint18_linear_3004_27710" x1="76.0584" y1="29.7327" x2="76.0584" y2="122.384" gradientUnits="userSpaceOnUse">
<stop stop-color="white" stop-opacity="0.73"/>
<stop offset="1" stop-color="white" stop-opacity="0.11"/>
</linearGradient>
<linearGradient id="paint19_linear_3004_27710" x1="76.845" y1="24.0023" x2="76.845" y2="126.845" gradientUnits="userSpaceOnUse">
<stop stop-color="white" stop-opacity="0.73"/>
<stop offset="1" stop-color="white" stop-opacity="0.11"/>
</linearGradient>
<linearGradient id="paint20_linear_3004_27710" x1="77.8528" y1="18.173" x2="77.8528" y2="131.827" gradientUnits="userSpaceOnUse">
<stop stop-color="white" stop-opacity="0.73"/>
<stop offset="1" stop-color="white" stop-opacity="0.11"/>
</linearGradient>
</defs>
</svg>
