<svg width="150" height="150" viewBox="0 0 150 150" fill="none" xmlns="http://www.w3.org/2000/svg">
<g opacity="0.8">
<path d="M30.0126 100.489L73.682 6.83789L73.8337 7.0545L132.948 91.4778L132.683 91.4994L30.0126 100.48V100.489ZM73.734 7.45308L30.5151 100.134L132.389 91.2222L73.734 7.45308Z" fill="url(#paint0_linear_3004_27710)"/>
<path d="M131.244 97.1965H27.915L79.5776 7.70874L131.244 97.1965ZM28.4479 96.8889H130.712L79.5776 8.32392L28.4479 96.8845V96.8889Z" fill="url(#paint1_linear_3004_27710)"/>
<path d="M129.049 102.737L128.785 102.716L26.1143 93.7348L85.3799 9.09058L129.049 102.742V102.737ZM26.6688 93.4705L128.543 102.382L85.3279 9.70143L26.6731 93.4705H26.6688Z" fill="url(#paint2_linear_3004_27710)"/>
<path d="M126.379 108.07L24.6183 90.1262L24.7916 89.9225L91.0366 10.9709L91.1276 11.2222L126.379 108.07ZM25.1988 89.9182L125.907 107.676L90.9283 11.5775L25.1945 89.9139L25.1988 89.9182Z" fill="url(#paint3_linear_3004_27710)"/>
<path d="M123.258 113.148L23.4463 86.4046L96.5103 13.3363L123.254 113.148H123.258ZM24.0441 86.2443L122.825 112.71L96.3587 13.9298L24.0485 86.24L24.0441 86.2443Z" fill="url(#paint4_linear_3004_27710)"/>
<path d="M119.698 117.935L119.447 117.844L22.5986 82.5924L101.754 16.1741L119.698 117.935ZM23.2051 82.4884L119.3 117.463L101.542 16.7546L23.2051 82.4884Z" fill="url(#paint5_linear_3004_27710)"/>
<path d="M115.738 122.393L22.0869 78.7235L106.731 19.4535L106.753 19.7178L115.734 122.389L115.738 122.393ZM22.7021 78.6715L115.383 121.89L106.471 20.0167L22.7021 78.6715Z" fill="url(#paint6_linear_3004_27710)"/>
<path d="M111.411 126.487L21.9229 74.8202L111.411 23.1533V126.483V126.487ZM22.538 74.8202L111.099 125.95V23.6905L22.538 74.8202Z" fill="url(#paint7_linear_3004_27710)"/>
<path d="M106.731 130.191L22.0869 70.9212L115.738 27.2517L115.716 27.516L106.735 130.187L106.731 130.191ZM22.7021 70.9775L106.471 129.632L115.383 27.7586L22.7021 70.9775Z" fill="url(#paint8_linear_3004_27710)"/>
<path d="M101.754 133.475L101.55 133.302L22.5986 67.0523L119.698 31.7095L101.754 133.471V133.475ZM23.2051 67.1606L101.542 132.894L119.3 32.186L23.2051 67.1606Z" fill="url(#paint9_linear_3004_27710)"/>
<path d="M96.5103 136.308L23.4463 63.2442L123.258 36.501L96.5146 136.313L96.5103 136.308ZM24.0398 63.4001L96.35 135.71L122.816 36.9299L24.0355 63.3958L24.0398 63.4001Z" fill="url(#paint10_linear_3004_27710)"/>
<path d="M91.0366 138.678L24.6183 59.5228L126.379 41.5785L91.0366 138.678ZM25.1945 59.7351L90.9283 138.072L125.903 41.9771L25.1945 59.7351Z" fill="url(#paint11_linear_3004_27710)"/>
<path d="M85.3799 140.558L85.2283 140.342L26.1143 55.9184L129.054 46.9116L128.941 47.1542L85.3843 140.563L85.3799 140.558ZM26.6688 56.174L85.3236 139.943L128.543 47.2625L26.6688 56.174Z" fill="url(#paint12_linear_3004_27710)"/>
<path d="M79.578 141.94L27.9111 52.4526H131.24L79.5737 141.94H79.578ZM28.4483 52.7602L79.578 141.321L130.708 52.7602H28.444H28.4483Z" fill="url(#paint13_linear_3004_27710)"/>
<path d="M73.682 142.807L30.0126 49.1556L132.952 58.1625L73.682 142.807ZM30.5194 49.5109L73.7383 142.191L132.393 58.4224L30.5194 49.5109Z" fill="url(#paint14_linear_3004_27710)"/>
<path d="M67.7305 143.162L67.6395 142.911L32.3877 46.0625L134.149 64.0068L67.7305 143.162ZM32.8599 46.4611L67.8345 142.556L133.568 64.2191L32.8599 46.4611Z" fill="url(#paint15_linear_3004_27710)"/>
<path d="M61.7676 142.993L35.0244 43.1814L134.836 69.9246L61.7719 142.989L61.7676 142.993ZM35.4576 43.619L61.9236 142.399L134.234 70.0892L35.4533 43.6233L35.4576 43.619Z" fill="url(#paint16_linear_3004_27710)"/>
<path d="M55.8437 142.308L37.8994 40.5474L134.999 75.8902L55.8437 142.308ZM38.298 41.0196L56.056 141.728L134.392 75.9941L38.298 41.0196Z" fill="url(#paint17_linear_3004_27710)"/>
<path d="M50.0074 141.108L49.9857 140.844L41.0049 38.1733L134.656 81.8428L50.0117 141.113L50.0074 141.108ZM41.3558 38.6759L50.2673 140.55L134.036 81.8948L41.3558 38.6759Z" fill="url(#paint18_linear_3004_27710)"/>
<path d="M44.29 139.406V36.0764L133.778 87.7433L44.29 139.41V139.406ZM44.5976 36.6093V138.873L133.163 87.7433L44.5976 36.6136V36.6093Z" fill="url(#paint19_linear_3004_27710)"/>
<path d="M38.7475 137.209L38.7692 136.945L47.75 34.2742L132.394 93.5442L38.7432 137.214L38.7475 137.209ZM48.0142 34.8287L39.1027 136.702L131.783 93.4835L48.0142 34.8287Z" fill="url(#paint20_linear_3004_27710)"/>
<path d="M33.415 134.54L51.3594 32.7795L51.563 32.9528L130.515 99.202L130.263 99.293L33.415 134.545V134.54ZM51.5673 33.3601L33.8093 134.068L129.904 99.0937L51.5673 33.3557V33.3601Z" fill="url(#paint21_linear_3004_27710)"/>
<path d="M28.3413 131.413L55.0844 31.6013L128.148 104.665L28.3369 131.409L28.3413 131.413ZM55.2447 32.1992L28.7788 130.98L127.559 104.514L55.2447 32.1992Z" fill="url(#paint22_linear_3004_27710)"/>
<path d="M23.5557 127.86L23.6467 127.609L58.8985 30.7607L125.317 109.916L23.5557 127.86ZM59.0024 31.3673L24.0279 127.462L124.736 109.704L59.0024 31.3673Z" fill="url(#paint23_linear_3004_27710)"/>
<path d="M19.0946 123.901L62.764 30.2496L62.9157 30.4662L122.03 114.89L121.765 114.911L19.0946 123.892V123.901ZM62.816 30.8648L19.5972 123.545L121.471 114.634L62.816 30.8648Z" fill="url(#paint24_linear_3004_27710)"/>
<path d="M118.33 119.568H15.001L66.6678 30.0806L118.335 119.568H118.33ZM15.5339 119.261H117.797L66.6678 30.7001L15.5382 119.261H15.5339Z" fill="url(#paint25_linear_3004_27710)"/>
</g>
<defs>
<linearGradient id="paint0_linear_3004_27710" x1="81.4801" y1="6.83789" x2="81.4801" y2="100.489" gradientUnits="userSpaceOnUse">
<stop stop-color="white" stop-opacity="0.73"/>
<stop offset="1" stop-color="white" stop-opacity="0.11"/>
</linearGradient>
<linearGradient id="paint1_linear_3004_27710" x1="79.5797" y1="7.70874" x2="79.5797" y2="97.1965" gradientUnits="userSpaceOnUse">
<stop stop-color="white" stop-opacity="0.73"/>
<stop offset="1" stop-color="white" stop-opacity="0.11"/>
</linearGradient>
<linearGradient id="paint2_linear_3004_27710" x1="77.5818" y1="9.09058" x2="77.5818" y2="102.742" gradientUnits="userSpaceOnUse">
<stop stop-color="white" stop-opacity="0.73"/>
<stop offset="1" stop-color="white" stop-opacity="0.11"/>
</linearGradient>
<linearGradient id="paint3_linear_3004_27710" x1="75.4988" y1="10.9709" x2="75.4988" y2="108.07" gradientUnits="userSpaceOnUse">
<stop stop-color="white" stop-opacity="0.73"/>
<stop offset="1" stop-color="white" stop-opacity="0.11"/>
</linearGradient>
<linearGradient id="paint4_linear_3004_27710" x1="73.3521" y1="13.3363" x2="73.3521" y2="113.148" gradientUnits="userSpaceOnUse">
<stop stop-color="white" stop-opacity="0.73"/>
<stop offset="1" stop-color="white" stop-opacity="0.11"/>
</linearGradient>
<linearGradient id="paint5_linear_3004_27710" x1="71.1484" y1="16.1741" x2="71.1484" y2="117.935" gradientUnits="userSpaceOnUse">
<stop stop-color="white" stop-opacity="0.73"/>
<stop offset="1" stop-color="white" stop-opacity="0.11"/>
</linearGradient>
<linearGradient id="paint6_linear_3004_27710" x1="68.9124" y1="19.4535" x2="68.9124" y2="122.393" gradientUnits="userSpaceOnUse">
<stop stop-color="white" stop-opacity="0.73"/>
<stop offset="1" stop-color="white" stop-opacity="0.11"/>
</linearGradient>
<linearGradient id="paint7_linear_3004_27710" x1="66.6667" y1="23.1533" x2="66.6667" y2="126.487" gradientUnits="userSpaceOnUse">
<stop stop-color="white" stop-opacity="0.73"/>
<stop offset="1" stop-color="white" stop-opacity="0.11"/>
</linearGradient>
<linearGradient id="paint8_linear_3004_27710" x1="68.9124" y1="27.2517" x2="68.9124" y2="130.191" gradientUnits="userSpaceOnUse">
<stop stop-color="white" stop-opacity="0.73"/>
<stop offset="1" stop-color="white" stop-opacity="0.11"/>
</linearGradient>
<linearGradient id="paint9_linear_3004_27710" x1="71.1484" y1="31.7095" x2="71.1484" y2="133.475" gradientUnits="userSpaceOnUse">
<stop stop-color="white" stop-opacity="0.73"/>
<stop offset="1" stop-color="white" stop-opacity="0.11"/>
</linearGradient>
<linearGradient id="paint10_linear_3004_27710" x1="73.3521" y1="36.501" x2="73.3521" y2="136.313" gradientUnits="userSpaceOnUse">
<stop stop-color="white" stop-opacity="0.73"/>
<stop offset="1" stop-color="white" stop-opacity="0.11"/>
</linearGradient>
<linearGradient id="paint11_linear_3004_27710" x1="75.4988" y1="41.5785" x2="75.4988" y2="138.678" gradientUnits="userSpaceOnUse">
<stop stop-color="white" stop-opacity="0.73"/>
<stop offset="1" stop-color="white" stop-opacity="0.11"/>
</linearGradient>
<linearGradient id="paint12_linear_3004_27710" x1="77.584" y1="46.9116" x2="77.584" y2="140.563" gradientUnits="userSpaceOnUse">
<stop stop-color="white" stop-opacity="0.73"/>
<stop offset="1" stop-color="white" stop-opacity="0.11"/>
</linearGradient>
<linearGradient id="paint13_linear_3004_27710" x1="79.5758" y1="52.4526" x2="79.5758" y2="141.94" gradientUnits="userSpaceOnUse">
<stop stop-color="white" stop-opacity="0.73"/>
<stop offset="1" stop-color="white" stop-opacity="0.11"/>
</linearGradient>
<linearGradient id="paint14_linear_3004_27710" x1="81.4823" y1="49.1556" x2="81.4823" y2="142.807" gradientUnits="userSpaceOnUse">
<stop stop-color="white" stop-opacity="0.73"/>
<stop offset="1" stop-color="white" stop-opacity="0.11"/>
</linearGradient>
<linearGradient id="paint15_linear_3004_27710" x1="83.2682" y1="46.0625" x2="83.2682" y2="143.162" gradientUnits="userSpaceOnUse">
<stop stop-color="white" stop-opacity="0.73"/>
<stop offset="1" stop-color="white" stop-opacity="0.11"/>
</linearGradient>
<linearGradient id="paint16_linear_3004_27710" x1="84.9302" y1="43.1814" x2="84.9302" y2="142.993" gradientUnits="userSpaceOnUse">
<stop stop-color="white" stop-opacity="0.73"/>
<stop offset="1" stop-color="white" stop-opacity="0.11"/>
</linearGradient>
<linearGradient id="paint17_linear_3004_27710" x1="86.4492" y1="40.5474" x2="86.4492" y2="142.308" gradientUnits="userSpaceOnUse">
<stop stop-color="white" stop-opacity="0.73"/>
<stop offset="1" stop-color="white" stop-opacity="0.11"/>
</linearGradient>
<linearGradient id="paint18_linear_3004_27710" x1="87.8304" y1="38.1733" x2="87.8304" y2="141.113" gradientUnits="userSpaceOnUse">
<stop stop-color="white" stop-opacity="0.73"/>
<stop offset="1" stop-color="white" stop-opacity="0.11"/>
</linearGradient>
<linearGradient id="paint19_linear_3004_27710" x1="89.0339" y1="36.0764" x2="89.0339" y2="139.41" gradientUnits="userSpaceOnUse">
<stop stop-color="white" stop-opacity="0.73"/>
<stop offset="1" stop-color="white" stop-opacity="0.11"/>
</linearGradient>
<linearGradient id="paint20_linear_3004_27710" x1="85.5687" y1="34.2742" x2="85.5687" y2="137.214" gradientUnits="userSpaceOnUse">
<stop stop-color="white" stop-opacity="0.73"/>
<stop offset="1" stop-color="white" stop-opacity="0.11"/>
</linearGradient>
<linearGradient id="paint21_linear_3004_27710" x1="81.9648" y1="32.7795" x2="81.9648" y2="134.545" gradientUnits="userSpaceOnUse">
<stop stop-color="white" stop-opacity="0.73"/>
<stop offset="1" stop-color="white" stop-opacity="0.11"/>
</linearGradient>
<linearGradient id="paint22_linear_3004_27710" x1="78.2427" y1="31.6013" x2="78.2427" y2="131.413" gradientUnits="userSpaceOnUse">
<stop stop-color="white" stop-opacity="0.73"/>
<stop offset="1" stop-color="white" stop-opacity="0.11"/>
</linearGradient>
<linearGradient id="paint23_linear_3004_27710" x1="74.4362" y1="30.7607" x2="74.4362" y2="127.86" gradientUnits="userSpaceOnUse">
<stop stop-color="white" stop-opacity="0.73"/>
<stop offset="1" stop-color="white" stop-opacity="0.11"/>
</linearGradient>
<linearGradient id="paint24_linear_3004_27710" x1="70.5622" y1="30.2496" x2="70.5622" y2="123.901" gradientUnits="userSpaceOnUse">
<stop stop-color="white" stop-opacity="0.73"/>
<stop offset="1" stop-color="white" stop-opacity="0.11"/>
</linearGradient>
<linearGradient id="paint25_linear_3004_27710" x1="66.6678" y1="30.0806" x2="66.6678" y2="119.568" gradientUnits="userSpaceOnUse">
<stop stop-color="white" stop-opacity="0.73"/>
<stop offset="1" stop-color="white" stop-opacity="0.11"/>
</linearGradient>
</defs>
</svg>
