<svg width="150" height="150" viewBox="0 0 150 150" fill="none" xmlns="http://www.w3.org/2000/svg">
<g opacity="0.8">
<path d="M43.3455 119.613C42.6792 119.613 42.0754 119.426 41.579 119.054C40.7964 118.469 40.3805 117.494 40.4118 116.313L42.0531 55.6082C42.1202 53.1664 44.0968 50.5547 46.4626 49.7855L105.347 30.609C106.523 30.2244 107.615 30.3451 108.42 30.9488C109.202 31.5347 109.618 32.5096 109.587 33.6903L107.946 94.395C107.878 96.8368 105.902 99.4485 103.536 100.218L44.6514 119.394C44.1997 119.542 43.7614 119.613 43.3455 119.613ZM106.653 30.6C106.26 30.6 105.844 30.6716 105.414 30.8102L46.5297 49.9823C44.24 50.7291 42.3259 53.2514 42.2633 55.6127L40.622 116.317C40.5907 117.427 40.9753 118.339 41.7043 118.884C42.4556 119.443 43.4752 119.555 44.5888 119.193L103.473 100.017C105.763 99.2697 107.677 96.7474 107.74 94.3861L109.381 33.6813C109.412 32.5722 109.028 31.6599 108.299 31.1143C107.838 30.77 107.275 30.5955 106.653 30.5955V30.6Z" fill="url(#paint0_linear_3004_27710)"/>
<path d="M39.9049 117.985C39.1268 117.985 38.4381 117.744 37.9059 117.274C37.1456 116.604 36.8057 115.557 36.9444 114.323L43.8717 52.1243C44.149 49.6244 46.3493 47.12 48.7732 46.5431L109.102 32.1383C110.283 31.8566 111.347 32.0668 112.099 32.7287C112.859 33.3995 113.199 34.446 113.06 35.6803L106.133 97.8787C105.855 100.379 103.655 102.883 101.231 103.46L40.9022 117.865C40.5579 117.945 40.2269 117.985 39.9049 117.985ZM110.1 32.2323C109.8 32.2323 109.482 32.2725 109.156 32.3485L48.8224 46.7488C46.479 47.3078 44.3502 49.7317 44.0819 52.1467L37.1546 114.345C37.0249 115.508 37.3424 116.492 38.049 117.113C38.7466 117.726 39.7395 117.918 40.853 117.655L101.187 103.254C103.53 102.695 105.659 100.271 105.927 97.8564L112.854 35.6579C112.984 34.4952 112.667 33.5113 111.96 32.8897C111.468 32.4559 110.829 32.2323 110.1 32.2323Z" fill="url(#paint1_linear_3004_27710)"/>
<path d="M36.6371 116.004C35.7337 116.004 34.9556 115.7 34.3966 115.119C33.6721 114.363 33.4082 113.241 33.6587 111.962L45.9794 48.7077C46.4758 46.1675 48.8818 43.7928 51.3504 43.4172L112.708 34.0481C113.889 33.8692 114.917 34.1643 115.606 34.8799C116.331 35.6357 116.594 36.7582 116.344 38.0372L104.023 101.291C103.527 103.831 101.121 106.206 98.6522 106.582L37.2945 115.951C37.0709 115.987 36.8473 116.004 36.6371 116.004ZM113.361 34.2135C113.16 34.2135 112.95 34.2314 112.735 34.2627L51.3773 43.6319C48.9936 43.9941 46.6636 46.2928 46.1851 48.7524L33.8644 112.006C33.6274 113.214 33.8733 114.269 34.5486 114.971C35.1881 115.638 36.1496 115.91 37.2587 115.741L98.6164 106.371C101 106.009 103.33 103.711 103.809 101.251L116.129 37.997C116.366 36.7895 116.12 35.7385 115.445 35.0319C114.931 34.4953 114.202 34.2135 113.361 34.2135Z" fill="url(#paint2_linear_3004_27710)"/>
<path d="M33.5774 113.679C32.5398 113.679 31.6633 113.299 31.0909 112.597C30.4156 111.765 30.2367 110.544 30.5945 109.251L48.3801 45.3938C49.0957 42.8268 51.7029 40.6086 54.1939 40.4432L116.133 36.3333C117.3 36.2572 118.289 36.6374 118.915 37.4066C119.59 38.2384 119.773 39.4593 119.411 40.7517L101.625 104.609C100.91 107.176 98.3026 109.395 95.8116 109.56L33.8725 113.67C33.7742 113.674 33.6758 113.679 33.5774 113.679ZM116.428 36.5435C116.339 36.5435 116.245 36.5435 116.151 36.5524L54.2118 40.6623C51.8058 40.8233 49.288 42.9699 48.5948 45.452L30.8047 109.31C30.4648 110.535 30.6302 111.684 31.2608 112.458C31.8422 113.173 32.7679 113.522 33.8591 113.451L95.7982 109.341C98.2042 109.18 100.722 107.033 101.415 104.551L119.201 40.6936C119.541 39.4682 119.375 38.3189 118.745 37.5452C118.213 36.8923 117.399 36.5435 116.424 36.5435H116.428Z" fill="url(#paint3_linear_3004_27710)"/>
<path d="M92.8146 112.364C92.7833 112.364 92.752 112.364 92.7162 112.364L30.652 111.018C29.5026 110.991 28.5635 110.526 28 109.707C27.3739 108.79 27.2889 107.507 27.7674 106.183L51.0583 42.2051C51.9796 39.6694 54.712 37.6436 57.1851 37.6436C57.2164 37.6436 57.2477 37.6436 57.2835 37.6436L119.348 38.9897C120.497 39.0165 121.436 39.4816 122 40.3C122.626 41.2168 122.711 42.5003 122.232 43.824L98.9459 107.807C98.0247 110.342 95.2922 112.368 92.8191 112.368L92.8146 112.364ZM57.1807 37.8627C54.797 37.8627 52.1585 39.8259 51.264 42.2811L27.9821 106.264C27.5259 107.516 27.602 108.728 28.1878 109.582C28.7066 110.342 29.5831 110.772 30.6609 110.794L92.7252 112.14C95.1401 112.194 97.8279 110.213 98.7357 107.722L122.022 43.739C122.478 42.4869 122.402 41.2749 121.816 40.4207C121.298 39.6605 120.421 39.2312 119.343 39.2088L57.2791 37.8627C57.2477 37.8627 57.2164 37.8627 57.1851 37.8627H57.1807Z" fill="url(#paint4_linear_3004_27710)"/>
<path d="M89.9011 114.989C89.7311 114.989 89.5612 114.98 89.3957 114.962L27.6847 108.004C26.5622 107.879 25.6723 107.333 25.1803 106.465C24.6079 105.464 24.6302 104.122 25.234 102.789L54.0077 39.1687C55.1615 36.6151 58.1221 34.7636 60.6086 35.0409L122.32 41.9996C123.442 42.1248 124.332 42.6749 124.824 43.538C125.396 44.5397 125.374 45.8814 124.77 47.2141L95.9966 110.83C94.9188 113.214 92.2713 114.985 89.9011 114.985V114.989ZM60.0943 35.2377C57.8135 35.2377 55.2554 36.9505 54.2089 39.2581L25.4397 102.879C24.8673 104.144 24.8449 105.414 25.3771 106.354C25.8332 107.154 26.6606 107.659 27.7071 107.78L89.4181 114.739C91.8107 115.007 94.6683 113.218 95.7864 110.745L124.56 47.1246C125.133 45.859 125.155 44.5934 124.623 43.6498C124.167 42.8493 123.339 42.3394 122.293 42.2232L60.5817 35.2645C60.4207 35.2466 60.2597 35.2377 60.0943 35.2377Z" fill="url(#paint5_linear_3004_27710)"/>
<path d="M86.794 117.427C86.4765 117.427 86.1635 117.395 85.8594 117.333L24.9891 104.641C23.8979 104.413 23.0706 103.787 22.6457 102.879C22.1448 101.792 22.2701 100.401 22.999 99.0684L57.2064 36.3154C58.5793 33.7931 61.6919 32.1608 64.1471 32.6706L125.017 45.3625C126.104 45.5906 126.936 46.2167 127.361 47.1246C127.862 48.2113 127.736 49.6021 127.007 50.9348L92.8001 113.688C91.5971 115.897 89.0569 117.427 86.794 117.427ZM63.2035 32.8048C61.0256 32.8048 58.5749 34.2851 57.4076 36.4272L23.2003 99.1757C22.5071 100.446 22.3819 101.761 22.8559 102.78C23.245 103.621 24.0187 104.202 25.0383 104.417L85.9085 117.109C88.2698 117.601 91.2706 116.018 92.5989 113.58L126.802 50.8275C127.495 49.5574 127.62 48.2426 127.146 47.223C126.757 46.3822 125.983 45.8008 124.968 45.5861L64.0979 32.8942C63.8073 32.8316 63.5076 32.8048 63.2035 32.8048Z" fill="url(#paint6_linear_3004_27710)"/>
<path d="M83.5055 119.649C83.027 119.649 82.5619 119.586 82.1237 119.448L22.5951 100.947C21.5441 100.62 20.7749 99.9136 20.4306 98.961C20.0057 97.7938 20.2517 96.3671 21.1014 95.0479L60.644 33.6768C62.2316 31.2081 65.4784 29.8084 67.8754 30.5552L127.408 49.0564C128.459 49.3829 129.229 50.0895 129.573 51.0421C129.998 52.2093 129.752 53.6359 128.902 54.9552L89.3551 116.326C88.0537 118.343 85.6477 119.649 83.5011 119.649H83.5055ZM66.4891 30.5865C64.4229 30.5865 62.0974 31.8521 60.8408 33.802L21.2937 95.1731C20.4842 96.4298 20.2472 97.7848 20.6452 98.8805C20.9672 99.7615 21.6827 100.419 22.6621 100.723L82.1952 119.224C84.5028 119.94 87.6289 118.585 89.1628 116.201L128.71 54.83C129.519 53.5733 129.756 52.2182 129.358 51.1226C129.036 50.2415 128.321 49.5841 127.341 49.28L67.8083 30.7788C67.3924 30.6491 66.9452 30.5865 66.4891 30.5865Z" fill="url(#paint7_linear_3004_27710)"/>
<path d="M80.061 121.639C79.4125 121.639 78.7864 121.527 78.2185 121.286L20.5279 96.9352C19.5217 96.5104 18.8196 95.7278 18.5512 94.7349C18.2158 93.4917 18.5825 92.0382 19.553 90.7458L64.2967 31.2709C66.0945 28.8783 69.4531 27.7334 71.7786 28.7173L129.469 53.0681C130.475 53.4929 131.177 54.2755 131.446 55.2684C131.781 56.5116 131.415 57.965 130.444 59.2575L85.7003 118.732C84.3363 120.544 82.0824 121.639 80.061 121.639ZM69.9316 28.601C67.9817 28.601 65.8038 29.6654 64.489 31.4185L19.7408 90.8889C18.8151 92.1187 18.4618 93.5006 18.7793 94.6723C19.0298 95.5936 19.6827 96.3226 20.6218 96.7161L78.3124 121.067C80.544 122.01 83.7773 120.897 85.5125 118.589L130.256 59.1144C131.182 57.8846 131.535 56.5027 131.218 55.331C130.967 54.4097 130.314 53.6807 129.375 53.2872L71.6891 28.9364C71.148 28.7083 70.5532 28.601 69.9316 28.601Z" fill="url(#paint8_linear_3004_27710)"/>
<path d="M76.4864 123.374C75.6501 123.374 74.8541 123.195 74.1698 122.824L18.8182 92.6328C17.8612 92.1095 17.2306 91.2509 17.0428 90.2178C16.8057 88.9075 17.2977 87.4406 18.3844 86.1929L68.1459 29.1329C70.1494 26.8387 73.5929 25.9622 75.829 27.1786L131.181 57.37C132.138 57.8932 132.768 58.7519 132.956 59.7849C133.193 61.0953 132.701 62.5621 131.614 63.8098L81.8574 120.87C80.4666 122.462 78.3826 123.37 76.4909 123.37L76.4864 123.374ZM73.5035 26.87C71.6833 26.87 69.6664 27.751 68.3247 29.2939L18.5678 86.3494C17.5302 87.539 17.0607 88.9343 17.2843 90.1731C17.4542 91.1346 18.0445 91.9306 18.9345 92.4181L74.2861 122.609C76.4282 123.777 79.7421 122.927 81.6696 120.709L131.427 63.6488C132.464 62.4593 132.934 61.064 132.71 59.8252C132.54 58.8637 131.95 58.0676 131.06 57.5802L75.7127 27.3888C75.0598 27.0355 74.304 26.8655 73.5079 26.8655L73.5035 26.87Z" fill="url(#paint9_linear_3004_27710)"/>
<path d="M72.805 124.837C71.7719 124.837 70.797 124.578 70.0099 124.041L17.4981 88.0581C16.5947 87.4365 16.0402 86.5063 15.9418 85.433C15.8166 84.06 16.4293 82.5976 17.6233 81.4125L72.17 27.2818C74.3658 25.1039 77.8764 24.5135 79.9962 25.967L132.504 61.9453C133.407 62.5669 133.961 63.4971 134.06 64.5704C134.185 65.9434 133.572 67.4058 132.378 68.5909L77.8362 122.722C76.4543 124.09 74.5536 124.832 72.805 124.832V124.837ZM77.2011 25.408C75.5196 25.408 73.6815 26.128 72.3444 27.4517L17.7978 81.5869C16.6574 82.7184 16.067 84.1137 16.1878 85.4151C16.2772 86.4124 16.7915 87.28 17.6368 87.8613L70.1441 123.84C72.1744 125.231 75.5464 124.654 77.6618 122.552L132.204 68.421C133.344 67.2895 133.935 65.8942 133.814 64.5928C133.724 63.5955 133.21 62.7279 132.365 62.1466L79.8576 26.1682C79.1107 25.6539 78.1805 25.4124 77.1967 25.4124L77.2011 25.408Z" fill="url(#paint10_linear_3004_27710)"/>
<path d="M69.0263 126.009C67.7875 126.009 66.6203 125.651 65.7482 124.913L16.5771 83.2415C15.7319 82.5259 15.2623 81.5197 15.2578 80.4106C15.2534 78.993 15.9913 77.544 17.2837 76.4349L76.3383 25.7388C78.7174 23.6995 82.2683 23.4088 84.2539 25.0903L133.425 66.7617C134.27 67.4817 134.74 68.4834 134.744 69.5925C134.749 71.0102 134.011 72.4592 132.718 73.5683L73.6639 124.26C72.3267 125.409 70.6139 126.004 69.0218 126.004L69.0263 126.009ZM80.9803 24.2406C79.4464 24.2406 77.7962 24.8175 76.4993 25.9266L17.4447 76.6183C16.2059 77.6826 15.4993 79.06 15.5038 80.4062C15.5038 81.4392 15.9465 82.3784 16.7336 83.0492L65.9048 124.721C67.8054 126.331 71.2132 126.04 73.5029 124.077L132.557 73.3849C133.796 72.3205 134.503 70.9431 134.498 69.597C134.498 68.5639 134.056 67.6248 133.269 66.954L84.0929 25.2826C83.2656 24.585 82.1565 24.2406 80.9759 24.2406H80.9803Z" fill="url(#paint11_linear_3004_27710)"/>
<path d="M65.1747 126.872C63.7213 126.872 62.3528 126.389 61.4271 125.427L16.0796 78.2104C15.297 77.3964 14.9169 76.3187 15.0153 75.1738C15.136 73.7248 15.9991 72.3072 17.381 71.2875L80.6215 24.5313C83.1706 22.6486 86.7349 22.6665 88.5685 24.5761L133.92 71.7884C134.703 72.6023 135.083 73.6801 134.985 74.825C134.864 76.2739 134.001 77.6916 132.619 78.7113L69.3741 125.467C68.1129 126.402 66.5969 126.867 65.1702 126.867L65.1747 126.872ZM84.8298 23.382C83.4568 23.382 81.9944 23.8337 80.7735 24.7371L17.5241 71.4888C16.2048 72.4637 15.3775 73.8187 15.2612 75.1962C15.1718 76.265 15.5251 77.2712 16.2585 78.036L61.6104 125.248C63.359 127.068 66.7802 127.077 69.2309 125.266L132.476 78.51C133.795 77.5351 134.623 76.18 134.739 74.8026C134.828 73.7338 134.475 72.7275 133.741 71.9628L88.3896 24.7505C87.513 23.8382 86.2116 23.3775 84.8253 23.3775L84.8298 23.382Z" fill="url(#paint12_linear_3004_27710)"/>
<path d="M61.2794 127.413C59.6068 127.413 58.0371 126.782 57.089 125.566L16.0214 73.0004C15.3058 72.0836 15.0241 70.9387 15.2298 69.767C15.4847 68.3001 16.4641 66.9317 17.9176 66.0149L84.9951 23.6772C87.7008 21.9688 91.2516 22.3132 92.9153 24.4374L133.983 77.0029C134.698 77.9197 134.98 79.0646 134.774 80.2363C134.52 81.7031 133.54 83.0716 132.087 83.9884L65.0047 126.326C63.8464 127.06 62.5316 127.413 61.2794 127.413ZM88.7293 22.8409C87.5219 22.8409 86.2518 23.1852 85.1338 23.8918L18.0517 66.2295C16.6609 67.1106 15.7217 68.4119 15.4758 69.8117C15.2835 70.9119 15.5473 71.9896 16.2182 72.8438L57.2858 125.409C58.8689 127.435 62.2722 127.753 64.866 126.111L131.948 83.7737C133.339 82.8927 134.278 81.5913 134.524 80.1915C134.716 79.0914 134.452 78.0136 133.782 77.1594L92.714 24.594C91.8106 23.4402 90.3214 22.8409 88.7249 22.8409H88.7293Z" fill="url(#paint13_linear_3004_27710)"/>
<path d="M57.3501 127.619C55.4539 127.619 53.683 126.805 52.7438 125.315L16.4167 67.6427C15.7771 66.6275 15.6027 65.4111 15.9202 64.2171C16.3093 62.7502 17.405 61.4443 18.9166 60.6438L89.4332 23.1897C92.2775 21.6781 95.7881 22.3489 97.2594 24.6834L133.587 82.356C134.226 83.3712 134.401 84.5876 134.083 85.7817C133.694 87.2485 132.598 88.5544 131.087 89.3549L60.57 126.809C59.5415 127.355 58.4234 127.619 57.3456 127.619H57.3501ZM92.6576 22.6396C91.6201 22.6396 90.5468 22.8901 89.554 23.4178L19.0373 60.8719C17.5884 61.6411 16.5419 62.8844 16.1707 64.2841C15.8711 65.4111 16.0365 66.556 16.6358 67.5041L52.9629 125.177C54.3627 127.399 57.7213 128.03 60.4493 126.581L130.966 89.1268C132.415 88.3576 133.461 87.1144 133.833 85.7146C134.132 84.5876 133.967 83.4472 133.367 82.4947L97.0403 24.822C96.1504 23.4088 94.4688 22.6396 92.6576 22.6396Z" fill="url(#paint14_linear_3004_27710)"/>
<path d="M53.4191 127.48C51.2993 127.48 49.3315 126.456 48.4461 124.676L17.2798 62.1778C16.7252 61.0642 16.6626 59.7807 17.1009 58.5688C17.6286 57.1198 18.8226 55.8945 20.3789 55.2147L93.8919 23.0913C96.8614 21.7944 100.3 22.7962 101.566 25.3274L132.728 87.821C133.282 88.9346 133.345 90.2181 132.907 91.43C132.379 92.879 131.185 94.0999 129.629 94.7841L56.1158 126.912C55.2348 127.297 54.3135 127.48 53.4191 127.48ZM96.5931 22.7872C95.7344 22.7872 94.8445 22.9616 93.9992 23.3328L20.4863 55.4607C18.9926 56.1136 17.8522 57.2808 17.3513 58.6627C16.9354 59.8076 16.9935 61.015 17.5168 62.066L48.6786 124.56C49.8816 126.966 53.1686 127.918 56.0129 126.675L129.526 94.5471C131.02 93.8942 132.16 92.727 132.661 91.3451C133.077 90.2002 133.019 88.9927 132.495 87.9418L101.329 25.4482C100.488 23.7577 98.6145 22.7872 96.5931 22.7872Z" fill="url(#paint15_linear_3004_27710)"/>
<path d="M49.5055 126.979C47.1621 126.979 45.011 125.705 44.215 123.625L18.612 56.6458C18.1469 55.4339 18.2051 54.0922 18.773 52.8713C19.4304 51.4581 20.7184 50.3311 22.306 49.7811L98.3412 23.3865C101.414 22.3176 104.759 23.6593 105.792 26.3739L131.39 93.3577C131.855 94.5696 131.797 95.9113 131.229 97.1322C130.572 98.5454 129.284 99.6723 127.696 100.222L51.6656 126.613C50.95 126.863 50.2166 126.979 49.5055 126.979ZM100.506 23.2881C99.8215 23.2881 99.1194 23.3999 98.4307 23.6414L22.3955 50.0315C20.8749 50.5592 19.6451 51.6325 19.019 52.9831C18.4823 54.1369 18.4242 55.407 18.8625 56.5519L44.461 123.536C45.4493 126.116 48.6379 127.386 51.5761 126.367L127.607 99.9764C129.127 99.4487 130.357 98.3754 130.983 97.0248C131.52 95.871 131.578 94.6009 131.14 93.456L105.541 26.4722C104.786 24.4955 102.737 23.2881 100.501 23.2881H100.506Z" fill="url(#paint16_linear_3004_27710)"/>
<path d="M45.6356 126.116C43.0641 126.116 40.7476 124.555 40.0857 122.172L20.4262 51.0825C20.0639 49.7721 20.2518 48.3768 20.9539 47.1604C21.7365 45.8009 23.105 44.7812 24.706 44.3653L102.745 24.0931C105.902 23.2747 109.118 24.9518 109.914 27.8318L129.578 98.9209C129.94 100.231 129.752 101.627 129.05 102.843C128.267 104.202 126.899 105.222 125.298 105.634L47.2545 125.906C46.7134 126.044 46.1678 126.111 45.6356 126.111V126.116ZM104.368 24.1557C103.858 24.1557 103.335 24.2184 102.816 24.357L24.7731 44.6292C23.2436 45.0272 21.9333 45.9977 21.1864 47.2946C20.5201 48.4484 20.3412 49.7677 20.6856 51.0109L40.3495 122.1C41.1053 124.837 44.1777 126.429 47.1874 125.646L125.231 105.374C126.76 104.976 128.07 104.006 128.817 102.709C129.484 101.555 129.663 100.236 129.318 98.9925L109.654 27.9034C109.028 25.636 106.819 24.1557 104.368 24.1557Z" fill="url(#paint17_linear_3004_27710)"/>
<path d="M41.8474 124.882C39.0523 124.882 36.5881 122.994 36.1051 120.307L22.7156 45.528C22.4651 44.1193 22.7871 42.6837 23.6279 41.4852C24.5447 40.1793 25.94 39.3028 27.5634 39.021L107.073 25.2156C110.293 24.6565 113.348 26.669 113.893 29.6966L127.287 104.475C127.538 105.884 127.216 107.319 126.375 108.522C125.458 109.828 124.063 110.705 122.44 110.987L42.9296 124.792C42.5674 124.855 42.2096 124.886 41.8518 124.886L41.8474 124.882ZM108.156 25.3944C107.816 25.3944 107.471 25.4213 107.127 25.4839L27.6125 39.2938C26.0607 39.5622 24.728 40.3985 23.8515 41.6462C23.051 42.7866 22.7424 44.1506 22.9839 45.4833L36.3779 120.262C36.8922 123.142 39.8081 125.052 42.8759 124.519L122.386 110.714C123.938 110.446 125.271 109.609 126.147 108.361C126.948 107.221 127.256 105.857 127.015 104.524L113.621 29.7458C113.164 27.1922 110.817 25.3989 108.151 25.3989L108.156 25.3944Z" fill="url(#paint18_linear_3004_27710)"/>
<path d="M38.1663 123.272C36.7844 123.272 35.4607 122.807 34.3873 121.934C33.1754 120.951 32.4375 119.564 32.3033 118.035L25.4789 40.0362C25.3447 38.5068 25.8322 37.0131 26.8563 35.8324C27.8759 34.6518 29.307 33.9273 30.8812 33.7887L111.295 26.754C112.869 26.6154 114.403 27.0805 115.615 28.0643C116.827 29.0482 117.565 30.4346 117.699 31.964L124.523 109.963C124.801 113.12 122.377 115.924 119.121 116.21L38.7074 123.245C38.5241 123.263 38.3452 123.267 38.1663 123.267V123.272ZM111.836 27.0089C111.666 27.0089 111.491 27.0178 111.317 27.0313L30.9036 34.0659C29.4009 34.1956 28.0369 34.8888 27.0665 36.0113C26.096 37.1338 25.6309 38.5515 25.7561 40.0094L32.5806 118.008C32.7058 119.461 33.4124 120.781 34.5618 121.715C35.7156 122.654 37.178 123.097 38.6806 122.968L119.094 115.933C122.193 115.66 124.505 112.995 124.241 109.989L117.417 31.9909C117.292 30.5374 116.585 29.2181 115.436 28.2835C114.416 27.4561 113.155 27.0089 111.836 27.0089Z" fill="url(#paint19_linear_3004_27710)"/>
<path d="M115.362 121.29H34.6443C31.3752 121.29 28.7188 118.63 28.7188 115.365V34.6429C28.7188 31.3737 31.3797 28.7173 34.6443 28.7173H115.362C118.631 28.7173 121.287 31.3782 121.287 34.6429V115.36C121.287 118.63 118.627 121.286 115.362 121.286V121.29ZM34.6443 28.999C31.5317 28.999 29.0005 31.5303 29.0005 34.6429V115.36C29.0005 118.473 31.5317 121.004 34.6443 121.004H115.362C118.474 121.004 121.006 118.473 121.006 115.36V34.6429C121.006 31.5303 118.474 28.999 115.362 28.999H34.6443Z" fill="url(#paint20_linear_3004_27710)"/>
</g>
<defs>
<linearGradient id="paint0_linear_3004_27710" x1="74.9993" y1="30.3882" x2="74.9993" y2="119.613" gradientUnits="userSpaceOnUse">
<stop stop-color="white" stop-opacity="0.73"/>
<stop offset="1" stop-color="white" stop-opacity="0.11"/>
</linearGradient>
<linearGradient id="paint1_linear_3004_27710" x1="75.0022" y1="32.0164" x2="75.0022" y2="117.985" gradientUnits="userSpaceOnUse">
<stop stop-color="white" stop-opacity="0.73"/>
<stop offset="1" stop-color="white" stop-opacity="0.11"/>
</linearGradient>
<linearGradient id="paint2_linear_3004_27710" x1="75.0013" y1="33.9971" x2="75.0013" y2="116.004" gradientUnits="userSpaceOnUse">
<stop stop-color="white" stop-opacity="0.73"/>
<stop offset="1" stop-color="white" stop-opacity="0.11"/>
</linearGradient>
<linearGradient id="paint3_linear_3004_27710" x1="75.0038" y1="36.3237" x2="75.0038" y2="113.679" gradientUnits="userSpaceOnUse">
<stop stop-color="white" stop-opacity="0.73"/>
<stop offset="1" stop-color="white" stop-opacity="0.11"/>
</linearGradient>
<linearGradient id="paint4_linear_3004_27710" x1="74.9999" y1="37.6436" x2="74.9999" y2="112.368" gradientUnits="userSpaceOnUse">
<stop stop-color="white" stop-opacity="0.73"/>
<stop offset="1" stop-color="white" stop-opacity="0.11"/>
</linearGradient>
<linearGradient id="paint5_linear_3004_27710" x1="75.0021" y1="35.0134" x2="75.0021" y2="114.989" gradientUnits="userSpaceOnUse">
<stop stop-color="white" stop-opacity="0.73"/>
<stop offset="1" stop-color="white" stop-opacity="0.11"/>
</linearGradient>
<linearGradient id="paint6_linear_3004_27710" x1="75.0032" y1="32.5774" x2="75.0032" y2="117.427" gradientUnits="userSpaceOnUse">
<stop stop-color="white" stop-opacity="0.73"/>
<stop offset="1" stop-color="white" stop-opacity="0.11"/>
</linearGradient>
<linearGradient id="paint7_linear_3004_27710" x1="75.0018" y1="30.3542" x2="75.0018" y2="119.649" gradientUnits="userSpaceOnUse">
<stop stop-color="white" stop-opacity="0.73"/>
<stop offset="1" stop-color="white" stop-opacity="0.11"/>
</linearGradient>
<linearGradient id="paint8_linear_3004_27710" x1="74.9985" y1="28.3645" x2="74.9985" y2="121.639" gradientUnits="userSpaceOnUse">
<stop stop-color="white" stop-opacity="0.73"/>
<stop offset="1" stop-color="white" stop-opacity="0.11"/>
</linearGradient>
<linearGradient id="paint9_linear_3004_27710" x1="74.9994" y1="26.6305" x2="74.9994" y2="123.374" gradientUnits="userSpaceOnUse">
<stop stop-color="white" stop-opacity="0.73"/>
<stop offset="1" stop-color="white" stop-opacity="0.11"/>
</linearGradient>
<linearGradient id="paint10_linear_3004_27710" x1="75.0008" y1="25.1699" x2="75.0008" y2="124.837" gradientUnits="userSpaceOnUse">
<stop stop-color="white" stop-opacity="0.73"/>
<stop offset="1" stop-color="white" stop-opacity="0.11"/>
</linearGradient>
<linearGradient id="paint11_linear_3004_27710" x1="75.0011" y1="23.9971" x2="75.0011" y2="126.009" gradientUnits="userSpaceOnUse">
<stop stop-color="white" stop-opacity="0.73"/>
<stop offset="1" stop-color="white" stop-opacity="0.11"/>
</linearGradient>
<linearGradient id="paint12_linear_3004_27710" x1="75" y1="23.1315" x2="75" y2="126.872" gradientUnits="userSpaceOnUse">
<stop stop-color="white" stop-opacity="0.73"/>
<stop offset="1" stop-color="white" stop-opacity="0.11"/>
</linearGradient>
<linearGradient id="paint13_linear_3004_27710" x1="75.0021" y1="22.5903" x2="75.0021" y2="127.413" gradientUnits="userSpaceOnUse">
<stop stop-color="white" stop-opacity="0.73"/>
<stop offset="1" stop-color="white" stop-opacity="0.11"/>
</linearGradient>
<linearGradient id="paint14_linear_3004_27710" x1="75.0016" y1="22.3815" x2="75.0016" y2="127.619" gradientUnits="userSpaceOnUse">
<stop stop-color="white" stop-opacity="0.73"/>
<stop offset="1" stop-color="white" stop-opacity="0.11"/>
</linearGradient>
<linearGradient id="paint15_linear_3004_27710" x1="75.0038" y1="22.5239" x2="75.0038" y2="127.48" gradientUnits="userSpaceOnUse">
<stop stop-color="white" stop-opacity="0.73"/>
<stop offset="1" stop-color="white" stop-opacity="0.11"/>
</linearGradient>
<linearGradient id="paint16_linear_3004_27710" x1="75.0012" y1="23.0188" x2="75.0012" y2="126.979" gradientUnits="userSpaceOnUse">
<stop stop-color="white" stop-opacity="0.73"/>
<stop offset="1" stop-color="white" stop-opacity="0.11"/>
</linearGradient>
<linearGradient id="paint17_linear_3004_27710" x1="75.0019" y1="23.8857" x2="75.0019" y2="126.116" gradientUnits="userSpaceOnUse">
<stop stop-color="white" stop-opacity="0.73"/>
<stop offset="1" stop-color="white" stop-opacity="0.11"/>
</linearGradient>
<linearGradient id="paint18_linear_3004_27710" x1="75.0015" y1="25.1223" x2="75.0015" y2="124.886" gradientUnits="userSpaceOnUse">
<stop stop-color="white" stop-opacity="0.73"/>
<stop offset="1" stop-color="white" stop-opacity="0.11"/>
</linearGradient>
<linearGradient id="paint19_linear_3004_27710" x1="75.0009" y1="26.73" x2="75.0009" y2="123.272" gradientUnits="userSpaceOnUse">
<stop stop-color="white" stop-opacity="0.73"/>
<stop offset="1" stop-color="white" stop-opacity="0.11"/>
</linearGradient>
<linearGradient id="paint20_linear_3004_27710" x1="75.0031" y1="28.7173" x2="75.0031" y2="121.29" gradientUnits="userSpaceOnUse">
<stop stop-color="white" stop-opacity="0.73"/>
<stop offset="1" stop-color="white" stop-opacity="0.11"/>
</linearGradient>
</defs>
</svg>
