<svg width="54" height="54" viewBox="0 0 54 54" fill="none" xmlns="http://www.w3.org/2000/svg">
<g clip-path="url(#clip0_3005_28988)">
<path d="M27.0092 8.14282C25.5692 8.14282 24.1521 8.43997 22.8263 8.99997C21.5006 9.55997 20.3006 10.3714 19.2949 11.4C18.2892 12.4285 17.4892 13.64 16.9406 14.9771C16.4035 16.3143 16.1406 17.7428 16.1406 19.1828V22.8285H24.9749V17.5485C24.9749 17.2971 25.0206 17.0571 25.1121 16.8285C25.2035 16.6 25.3406 16.3943 25.5235 16.2114C25.6949 16.04 25.9006 15.8914 26.1292 15.8C26.3578 15.7085 26.5978 15.6514 26.8492 15.6514H27.1692C27.4206 15.6514 27.6606 15.6971 27.8892 15.8C28.1178 15.8914 28.3235 16.0285 28.4949 16.2114C28.6663 16.3828 28.8035 16.6 28.9063 16.8285C28.9978 17.0571 29.0549 17.3085 29.0549 17.5485V31.72C30.2206 31.72 31.3635 31.4914 32.4378 31.0457C33.5121 30.6 34.4835 29.9485 35.3063 29.1257C36.1292 28.3028 36.7806 27.32 37.2263 26.2457C37.6721 25.1714 37.9006 24.0171 37.9006 22.8514V19.2057C37.9006 16.28 36.7578 13.48 34.7121 11.4C33.7063 10.3714 32.5063 9.55997 31.1921 8.99997C29.8663 8.42854 28.4492 8.14282 27.0092 8.14282Z" fill="#F2F2F2"/>
<path d="M27.1696 38.8858H26.8496C26.5981 38.8858 26.3581 38.84 26.1296 38.7372C25.901 38.6458 25.6953 38.5086 25.5238 38.3258C25.3524 38.1543 25.2153 37.9372 25.1124 37.7086C25.0096 37.48 24.9638 37.2286 24.9638 36.9886V22.8286C23.7981 22.8286 22.6553 23.0572 21.581 23.5029C20.5067 23.9486 19.5353 24.6 18.7124 25.4229C17.8896 26.2458 17.2381 27.2286 16.7924 28.3029C16.3696 29.3886 16.141 30.5429 16.141 31.7086V35.3086C16.1296 36.7486 16.3924 38.1886 16.941 39.5258C17.4781 40.8629 18.2781 42.0858 19.2953 43.1143C20.301 44.1429 21.5124 44.9543 22.8381 45.5143C24.1638 46.0743 25.5924 46.36 27.021 46.36C28.4496 46.36 29.8781 46.0743 31.2038 45.5143C32.5296 44.9543 33.7296 44.1429 34.7467 43.1143C35.7524 42.0858 36.5524 40.8743 37.101 39.5258C37.6381 38.1886 37.9124 36.7486 37.901 35.3086V31.7086H29.0667V36.9886C29.0667 37.24 29.021 37.48 28.9181 37.7086C28.8267 37.9372 28.6896 38.1429 28.5067 38.3258C28.3353 38.4972 28.1296 38.6458 27.901 38.7372C27.6724 38.8286 27.4324 38.8858 27.181 38.8858H27.1696Z" fill="#F2F2F2"/>
</g>
<defs>
<clipPath id="clip0_3005_28988">
<rect width="24" height="40" fill="white" transform="translate(15 7)"/>
</clipPath>
</defs>
</svg>
