<svg width="54" height="54" viewBox="0 0 54 54" fill="none" xmlns="http://www.w3.org/2000/svg">
<g clip-path="url(#clip0_3005_29022)">
<mask id="mask0_3005_29022" style="mask-type:luminance" maskUnits="userSpaceOnUse" x="4" y="3" width="182" height="48">
<path d="M4 3H185.029V51H4V3Z" fill="white"/>
</mask>
<g mask="url(#mask0_3005_29022)">
</g>
<g clip-path="url(#clip1_3005_29022)">
<mask id="mask1_3005_29022" style="mask-type:luminance" maskUnits="userSpaceOnUse" x="8" y="7" width="152" height="40">
<path d="M8.5531 7.44446H159.745V46.5556H8.5531V7.44446Z" fill="white"/>
</mask>
<g mask="url(#mask1_3005_29022)">
<mask id="mask2_3005_29022" style="mask-type:luminance" maskUnits="userSpaceOnUse" x="8" y="7" width="39" height="40">
<path d="M8.5531 7.83331H46.7211V46.1645H8.5531V7.83331Z" fill="white"/>
</mask>
<g mask="url(#mask2_3005_29022)">
<mask id="mask3_3005_29022" style="mask-type:luminance" maskUnits="userSpaceOnUse" x="8" y="7" width="39" height="40">
<path d="M8.5531 7.83331H46.7211V46.1645H8.5531V7.83331Z" fill="white"/>
</mask>
<g mask="url(#mask3_3005_29022)">
<path d="M31.4243 9.35865L32.4403 11.7479C34.434 16.439 38.1546 20.1756 42.8256 22.1779L45.2046 23.1982C45.8277 23.4651 46.3328 23.847 46.7234 24.3025C45.539 15.7706 38.8201 9.02275 30.3247 7.83331C30.7772 8.22442 31.1586 8.73287 31.4243 9.35865ZM10.0719 23.1982L12.4509 22.1779C17.1221 20.1755 20.843 16.439 22.8373 11.7479L23.8521 9.35865C24.0972 8.77214 24.4734 8.25021 24.9517 7.83331C16.4563 9.02275 9.73744 15.7706 8.5531 24.3025C8.94253 23.847 9.4488 23.4651 10.0719 23.1982ZM45.2057 30.8007L42.8256 31.8211C38.1544 33.8237 34.4338 37.5607 32.4403 42.2522L31.4243 44.6403C31.1795 45.2272 30.8032 45.7496 30.3247 46.1668C38.8201 44.9762 45.539 38.2284 46.7234 29.6964C46.3085 30.1771 45.7899 30.555 45.2057 30.8007ZM23.8521 44.6403L22.8373 42.2522C20.8431 37.5608 17.1222 33.8238 12.4509 31.8211L10.0719 30.8007C9.4877 30.555 8.96793 30.1771 8.5531 29.6964C9.73744 38.2284 16.4563 44.9762 24.9517 46.1668C24.4736 45.7493 24.0974 45.227 23.8521 44.6403Z" fill="#999999"/>
</g>
<path d="M18.9799 25.1262L20.1517 24.6235C22.4537 23.6368 24.2875 21.7955 25.2705 19.4838L25.7698 18.3059C26.4708 16.6574 28.7994 16.6574 29.5004 18.3059L29.9998 19.4838C30.9828 21.7955 32.8165 23.6368 35.1186 24.6235L36.2914 25.1262C37.9328 25.8302 37.9328 28.1676 36.2914 28.8716L35.1186 29.3743C32.8162 30.3611 30.9823 32.2028 29.9998 34.5151L29.5004 35.6919C28.7994 37.3403 26.4708 37.3403 25.7698 35.6919L25.2705 34.5151C24.2879 32.2028 22.4541 30.3611 20.1517 29.3743L18.9799 28.8716C17.3375 28.1676 17.3375 25.8302 18.9799 25.1262Z" fill="white"/>
</g>
</g>
</g>
</g>
<defs>
<clipPath id="clip0_3005_29022">
<rect width="54" height="54" fill="white"/>
</clipPath>
<clipPath id="clip1_3005_29022">
<rect width="38.2222" height="39.1111" fill="white" transform="translate(8.84891 7.44446)"/>
</clipPath>
</defs>
</svg>
