<svg width="54" height="54" viewBox="0 0 54 54" fill="none" xmlns="http://www.w3.org/2000/svg">
<g clip-path="url(#clip0_3005_29065)">
<path fill-rule="evenodd" clip-rule="evenodd" d="M16.2989 41.3424C11.9348 38.0815 9.10326 32.8696 9.10326 27C9.10326 17.1196 17.1196 9.10326 27 9.10326C35.1576 9.10326 44.0652 13.9783 46.2174 21.4456C43.8097 13.1033 36.1196 7 27 7C15.9565 7 7 15.9565 7 27C7 38.0435 15.9565 47 27 47C38.0435 47 47 38.0435 47 27V25.9456H45.9021C45.8696 25.9456 45.8206 25.9456 45.7554 25.9456C45.625 25.9456 45.4402 25.9403 45.2011 25.9294C44.7282 25.913 44.0761 25.8804 43.3424 25.8153C41.8424 25.6848 40.1304 25.4294 38.9674 24.962C37.0924 24.212 36.0326 23.2229 34.8261 22.0598L34.7554 21.9946C33.5435 20.8315 32.1848 19.5218 29.8206 18.413C27.4946 17.3207 24.9239 17.4946 23.038 17.8859C22.0815 18.0815 21.2554 18.3424 20.6739 18.5543C20.3804 18.6576 20.1468 18.7554 19.9838 18.8207C19.0326 19.2228 18.1087 19.6956 17.1794 20.1359C17.1794 20.1359 19.0109 20.6359 19.913 20.9185C19.9456 20.9294 19.9946 20.9456 20.0652 20.9674C20.2011 21.0109 20.3967 21.0815 20.6304 21.1794C21.1087 21.375 21.7338 21.663 22.3533 22.0653C23.3315 22.6903 24.1413 23.4838 24.4729 24.4511C22.4021 24.7229 20.4565 25.6359 19 26.4891C18.1196 27.0054 17.3859 27.5271 16.8696 27.913C16.6141 28.1088 16.4076 28.2717 16.2663 28.3859C16.1467 28.4837 14.2772 30.1304 14.2772 30.1304C14.2772 30.1304 16.6902 30.3859 17.8804 30.625C18.6739 30.7826 19.7391 31.0435 20.8587 31.4294C21.9782 31.8206 23.1088 32.3315 24.0489 32.9891C24.9891 33.6467 25.6794 34.4021 26.0163 35.2717C27.0054 37.8044 26.0326 40.2663 24.0815 41.6521C22.1521 43.0218 19.2228 43.3479 16.2935 41.337L16.2989 41.3424ZM23.125 44.4729C23.913 44.2174 24.6468 43.8424 25.3098 43.375C27.962 41.4891 29.3588 38.0326 27.9838 34.5109C27.4403 33.125 26.4076 32.0706 25.2609 31.2663C24.1087 30.462 22.788 29.875 21.5598 29.4456C20.7554 29.163 19.9729 28.9456 19.2935 28.7826C19.538 28.625 19.7935 28.462 20.0706 28.2989C21.6903 27.3479 23.7337 26.4729 25.6902 26.4729C28.6412 26.4729 30.837 27.3804 32.9348 28.3479C33.125 28.4348 33.3153 28.5271 33.5109 28.6141C35.3859 29.4946 37.3533 30.4185 39.6413 30.4185C41.9294 30.4185 43.587 29.7935 44.7771 29.1412C43.7174 38.0109 36.1685 44.8912 27.0109 44.8912C25.6794 44.8912 24.3804 44.7446 23.1359 44.4729H23.125ZM42.4946 27.8533C41.7065 28.1196 40.75 28.3153 39.6359 28.3153C37.8424 28.3153 36.2989 27.5979 34.3424 26.6847C34.1685 26.6032 33.9946 26.5218 33.8152 26.4403C31.8532 25.5326 29.587 24.5706 26.6359 24.3968C26.2391 22.4456 24.7609 21.1087 23.4891 20.2935C23.3479 20.2011 23.2065 20.1141 23.0652 20.0326C23.1902 20.0054 23.3206 19.9729 23.4565 19.9456C25.163 19.5924 27.1956 19.5054 28.9185 20.3206C30.962 21.2826 32.1196 22.3913 33.3206 23.5435L33.3641 23.5815C34.5979 24.7662 35.9076 26.0109 38.1847 26.9239C39.4511 27.4294 41.0924 27.7011 42.4946 27.8533Z" fill="url(#paint0_linear_3005_29065)"/>
</g>
<defs>
<linearGradient id="paint0_linear_3005_29065" x1="6.6413" y1="27.3696" x2="47.3588" y2="26.625" gradientUnits="userSpaceOnUse">
<stop stop-color="#29CCB9"/>
<stop offset="0.49" stop-color="#0091FF"/>
<stop offset="1" stop-color="#FF66B7"/>
</linearGradient>
<clipPath id="clip0_3005_29065">
<rect width="40" height="40" fill="white" transform="translate(7 7)"/>
</clipPath>
</defs>
</svg>
