<svg width="54" height="54" viewBox="0 0 54 54" fill="none" xmlns="http://www.w3.org/2000/svg">
<g clip-path="url(#clip0_3005_29121)">
<path d="M29.0645 8.21291C27.3882 6.5957 24.6694 6.5957 22.9922 8.21291C21.3151 9.83011 21.3151 12.4509 22.9922 14.0681L34.479 25.1444L37.1796 22.5403C39.0422 20.7451 39.0422 17.833 37.1796 16.0371L29.0645 8.21291Z" fill="url(#paint0_linear_3005_29121)"/>
<path d="M18.6627 13.1855L41.1043 35.1645L34.9143 41.2269L12.4727 19.248L18.6627 13.1855Z" fill="url(#paint1_linear_3005_29121)"/>
<path d="M18.6712 28.8556L30.1638 39.7064C31.8392 41.3751 31.8392 44.0805 30.1638 45.7484C28.4893 47.4171 25.7734 47.4171 24.0981 45.7484L15.9735 37.5684C14.113 35.7151 14.113 33.396 15.9735 31.5427L18.6712 28.8556Z" fill="url(#paint2_linear_3005_29121)"/>
<path d="M45.7663 23.5081C44.121 21.841 41.4556 21.841 39.811 23.5081C38.1672 25.176 38.1672 27.8792 39.811 29.547L42.7887 32.567L45.7663 29.547C47.4102 27.8792 47.4102 25.176 45.7663 23.5081Z" fill="url(#paint3_linear_3005_29121)"/>
<path d="M11.2106 21.4329L14.1876 24.452C15.8323 26.1201 15.8323 28.8233 14.1876 30.4912C12.5438 32.1592 9.87762 32.1592 8.23289 30.4912C6.58904 28.8233 6.58904 26.1201 8.23289 24.452L11.2106 21.4329Z" fill="url(#paint4_linear_3005_29121)"/>
</g>
<defs>
<linearGradient id="paint0_linear_3005_29121" x1="35.5221" y1="14.4193" x2="15.1215" y2="37.515" gradientUnits="userSpaceOnUse">
<stop stop-color="#F170A8"/>
<stop offset="0.473958" stop-color="#D561CE"/>
<stop offset="1" stop-color="#6EBFFA"/>
</linearGradient>
<linearGradient id="paint1_linear_3005_29121" x1="35.5235" y1="14.4194" x2="15.123" y2="37.515" gradientUnits="userSpaceOnUse">
<stop stop-color="#F170A8"/>
<stop offset="0.473958" stop-color="#D561CE"/>
<stop offset="1" stop-color="#6EBFFA"/>
</linearGradient>
<linearGradient id="paint2_linear_3005_29121" x1="35.5238" y1="14.4192" x2="15.1232" y2="37.5149" gradientUnits="userSpaceOnUse">
<stop stop-color="#F170A8"/>
<stop offset="0.473958" stop-color="#D561CE"/>
<stop offset="1" stop-color="#6EBFFA"/>
</linearGradient>
<linearGradient id="paint3_linear_3005_29121" x1="35.5237" y1="14.4194" x2="15.1231" y2="37.5149" gradientUnits="userSpaceOnUse">
<stop stop-color="#F170A8"/>
<stop offset="0.473958" stop-color="#D561CE"/>
<stop offset="1" stop-color="#6EBFFA"/>
</linearGradient>
<linearGradient id="paint4_linear_3005_29121" x1="35.5247" y1="14.4192" x2="15.1241" y2="37.5149" gradientUnits="userSpaceOnUse">
<stop stop-color="#F170A8"/>
<stop offset="0.473958" stop-color="#D561CE"/>
<stop offset="1" stop-color="#6EBFFA"/>
</linearGradient>
<clipPath id="clip0_3005_29121">
<rect width="40" height="40" fill="white" transform="translate(7 7)"/>
</clipPath>
</defs>
</svg>
