<svg width="112" height="54" viewBox="0 0 112 54" fill="none" xmlns="http://www.w3.org/2000/svg">
<path d="M31.8318 3V38.8018H28.111C27.7972 38.8015 27.4866 38.7346 27.1969 38.6049C26.9071 38.4752 26.644 38.2853 26.4225 38.0459C26.201 37.8065 26.0255 37.5225 25.906 37.21C25.7866 36.8975 25.7255 36.5627 25.7263 36.2248V35.8183C24.012 38.169 21.5036 39.5697 18.0748 39.5697C11.7192 39.4796 6.53333 33.6027 6.53333 26.0089C6.53333 18.369 11.7183 12.4931 18.0748 12.4931C21.5454 12.4931 24.012 13.8947 25.7263 16.2445V7.3851C25.7263 4.98835 27.5244 3 29.7827 3H31.8318ZM25.7263 26.0089C25.7263 21.7139 22.9251 18.8215 19.2035 18.8215C15.44 18.8215 12.6387 21.7148 12.6387 26.0089C12.6387 30.3038 15.44 33.1962 19.2035 33.1962C22.9251 33.1962 25.7263 30.3029 25.7263 26.0089ZM59.3457 13.2159L50.7319 38.7558C48.2645 46.1243 44.2509 49.3341 38.2291 48.9726V42.8695C41.5742 42.9146 43.2886 41.3778 44.4182 37.9418L34.7585 13.2169H38.522C39.3818 13.2181 40.2212 13.4991 40.9302 14.0231C41.6391 14.5472 42.1844 15.2897 42.4946 16.1534L47.5951 30.393L52.8647 13.215H59.3457V13.2159ZM102.667 12.7184V19.0477C102.667 19.5903 102.248 20.0419 101.789 19.9968C98.8195 19.9518 95.4744 21.6688 95.4744 26.5515V38.7558H92.5895C91.7342 38.7537 90.9146 38.386 90.3109 37.7335C89.7071 37.0809 89.3687 36.1969 89.3699 35.2757V12.6733H92.715C94.2193 12.6733 95.4744 14.0299 95.4744 15.6568V17.601C96.7286 14.165 99.6981 12.7184 102.667 12.7184ZM72.5606 12.5381V18.1887H72.3933L72.4769 19.0027H72.5606C76.1986 19.0027 78.9998 21.9401 78.9998 26.0539C78.9998 30.2128 76.1986 33.1061 72.5606 33.1061C68.9645 33.1061 66.1624 30.2128 66.1624 26.0539H60.0578C60.0578 33.6487 65.5766 39.5697 72.5606 39.5697C79.5019 39.5697 85.1052 33.6928 85.1052 26.0539C85.1052 18.415 79.5019 12.5381 72.5606 12.5381Z" fill="white"/>
<path d="M59.7333 26.0443C61.7556 29.3342 65.11 31.556 69.0667 32C67.2174 30.8443 66.0135 28.6668 66.0135 26L59.7333 26.0443Z" fill="url(#paint0_linear_3005_29180)"/>
<path d="M65.2839 26H59.7333L72.8 13V18.5216C72.8 22.6527 69.4354 26 65.2839 26Z" fill="white"/>
<defs>
<linearGradient id="paint0_linear_3005_29180" x1="59.7416" y1="29.0052" x2="69.0877" y2="29.0052" gradientUnits="userSpaceOnUse">
<stop stop-color="#212121"/>
<stop offset="0.174" stop-color="#212121" stop-opacity="0.75"/>
<stop offset="0.534" stop-color="#212121" stop-opacity="0.3"/>
<stop offset="1" stop-color="#212121" stop-opacity="0.05"/>
</linearGradient>
</defs>
</svg>
