<svg width="112" height="54" viewBox="0 0 112 54" fill="none" xmlns="http://www.w3.org/2000/svg">
<mask id="mask0_3005_29203" style="mask-type:luminance" maskUnits="userSpaceOnUse" x="4" y="15" width="103" height="24">
<path d="M106.99 15H4.66666V39H106.99V15Z" fill="white"/>
</mask>
<g mask="url(#mask0_3005_29203)">
<path d="M102.019 15.4461V29.2856L94.5303 15.4245H89.5989L79.9057 33.4461H75.6756C75.6756 33.4461 75.7029 23.5772 75.7029 23.36C75.7025 21.2555 74.922 19.2374 73.5331 17.7493C72.1443 16.2613 70.2607 15.425 68.2965 15.4245L47.029 15.4128L41.1842 25.6789L35.3394 15.4128H29.9331V15.4265L24.4299 25.6398L16.0792 25.6535V30.2797H21.8473C21.0508 32.4852 19.2792 33.859 16.0774 33.8218C12.3239 33.7866 9.53672 30.8727 9.57507 26.9607C9.61343 23.1701 12.1431 20.1232 16.0024 20.1525C18.2746 20.1701 20.0408 21.131 21.1769 22.8316L25.3888 20.2601C23.4801 17.1192 20.165 15.0331 16.0518 14.9999C9.47644 14.949 4.73306 20.3149 4.66731 26.9372C4.59973 33.767 9.79608 39.0234 16.0828 39.0018C19.9184 38.9881 22.8701 37.4774 24.7605 34.9431H30.3915V38.5282H35.334V25.131L40.8829 34.9157H41.4509L47.0345 25.131L46.9906 38.5165L64.9066 38.5498V31.2954H68.2965C69.1354 31.2982 69.9687 31.148 70.7605 30.8511V38.5576H82.1413L84.0701 34.9549H89.5989V38.5576H94.5303V24.677L102.019 38.5498H106.986V15.4245L102.019 15.4461ZM30.4025 29.9275H27.5349L30.408 24.6281L30.4025 29.9275ZM59.9641 31.2973V33.3952H51.9605V29.1525H55.9495V24.8335H51.9605V20.5283H59.9696L59.9641 31.2973ZM70.7495 23.4519C70.7462 24.2154 70.4606 24.9464 69.9553 25.4848C69.4501 26.0232 68.7662 26.3252 68.0536 26.3247H64.9085V20.3795H68.0591C68.7717 20.379 69.4555 20.681 69.9608 21.2194C70.4661 21.7578 70.7516 22.4888 70.755 23.2523L70.7495 23.4519ZM89.5989 29.9275H86.7586L89.5989 24.6183V29.9275Z" fill="white"/>
<mask id="mask1_3005_29203" style="mask-type:luminance" maskUnits="userSpaceOnUse" x="4" y="14" width="103" height="26">
<path d="M102.019 15.4461V29.2856L94.5303 15.4245H89.5989L79.9057 33.4461H75.6756C75.6756 33.4461 75.7029 23.5772 75.7029 23.36C75.7025 21.2555 74.922 19.2374 73.5331 17.7493C72.1443 16.2613 70.2607 15.425 68.2965 15.4245L47.029 15.4128L41.1842 25.6789L35.3394 15.4128H29.9331V15.4265L24.4299 25.6398L16.0792 25.6535V30.2797H21.8473C21.0508 32.4852 19.2792 33.859 16.0774 33.8218C12.3239 33.7866 9.53672 30.8727 9.57507 26.9607C9.61343 23.1701 12.1431 20.1232 16.0024 20.1525C18.2746 20.1701 20.0408 21.131 21.1769 22.8316L25.3888 20.2601C23.4801 17.1192 20.165 15.0331 16.0518 14.9999C9.47644 14.949 4.73306 20.3149 4.66731 26.9372C4.59973 33.767 9.79608 39.0234 16.0828 39.0018C19.9184 38.9881 22.8701 37.4774 24.7605 34.9431H30.3915V38.5282H35.334V25.131L40.8829 34.9157H41.4509L47.0345 25.131L46.9906 38.5165L64.9066 38.5498V31.2954H68.2965C69.1354 31.2982 69.9687 31.148 70.7605 30.8511V38.5576H82.1413L84.0701 34.9549H89.5989V38.5576H94.5303V24.677L102.019 38.5498H106.986V15.4245L102.019 15.4461ZM30.4025 29.9275H27.5349L30.408 24.6281L30.4025 29.9275ZM59.9641 31.2973V33.3952H51.9605V29.1525H55.9495V24.8335H51.9605V20.5283H59.9696L59.9641 31.2973ZM70.7495 23.4519C70.7462 24.2154 70.4606 24.9464 69.9553 25.4848C69.4501 26.0232 68.7662 26.3252 68.0536 26.3247H64.9085V20.3795H68.0591C68.7717 20.379 69.4555 20.681 69.9608 21.2194C70.4661 21.7578 70.7516 22.4888 70.755 23.2523L70.7495 23.4519ZM89.5989 29.9275H86.7586L89.5989 24.6183V29.9275Z" fill="white"/>
</mask>
<g mask="url(#mask1_3005_29203)">
<path d="M24.2651 11.8315H4.53177V39.6711H24.2651V11.8315Z" fill="url(#paint0_linear_3005_29203)"/>
<path d="M41.4232 12.81H35.3136V40.6496H41.4232V12.81Z" fill="url(#paint1_linear_3005_29203)"/>
<path d="M65.0234 40.6495H70.7549V23.2463H65.0234V40.6495Z" fill="url(#paint2_linear_3005_29203)"/>
<path d="M83.8323 40.6493H89.5949V13.7217H83.8323V40.6493Z" fill="url(#paint3_linear_3005_29203)"/>
<path d="M50.6406 23.7885H59.9721V11.0566H50.6406V23.7885Z" fill="url(#paint4_radial_3005_29203)"/>
<path d="M59.9995 22.8002H68.1913V11.8218H59.9995V22.8002Z" fill="url(#paint5_radial_3005_29203)"/>
<path d="M50.6406 38.7103H59.9721V27.7319H50.6406V38.7103Z" fill="url(#paint6_radial_3005_29203)"/>
</g>
</g>
<defs>
<linearGradient id="paint0_linear_3005_29203" x1="24.2377" y1="25.7513" x2="4.50437" y2="25.7513" gradientUnits="userSpaceOnUse">
<stop stop-color="white" stop-opacity="0"/>
<stop offset="1" stop-color="#818181"/>
</linearGradient>
<linearGradient id="paint1_linear_3005_29203" x1="41.3866" y1="26.7298" x2="35.277" y2="26.7298" gradientUnits="userSpaceOnUse">
<stop offset="0.02" stop-color="white" stop-opacity="0"/>
<stop offset="1" stop-color="#4C4C4C"/>
</linearGradient>
<linearGradient id="paint2_linear_3005_29203" x1="65.0582" y1="31.947" x2="70.7878" y2="31.947" gradientUnits="userSpaceOnUse">
<stop offset="0.02" stop-color="white" stop-opacity="0"/>
<stop offset="1" stop-color="#4C4C4C"/>
</linearGradient>
<linearGradient id="paint3_linear_3005_29203" x1="83.867" y1="27.1836" x2="89.6296" y2="27.1836" gradientUnits="userSpaceOnUse">
<stop offset="0.02" stop-color="white" stop-opacity="0"/>
<stop offset="1" stop-color="#4C4C4C"/>
</linearGradient>
<radialGradient id="paint4_radial_3005_29203" cx="0" cy="0" r="1" gradientUnits="userSpaceOnUse" gradientTransform="translate(60.5036 19.5593) scale(5.62009 12.7054)">
<stop stop-color="#4C4C4C"/>
<stop offset="0.2" stop-color="#5E5E5E" stop-opacity="0.9"/>
<stop offset="0.5" stop-color="#8F8F8F" stop-opacity="0.63"/>
<stop offset="0.87" stop-color="#DEDEDE" stop-opacity="0.18"/>
<stop offset="1" stop-color="white" stop-opacity="0"/>
</radialGradient>
<radialGradient id="paint5_radial_3005_29203" cx="0" cy="0" r="1" gradientUnits="userSpaceOnUse" gradientTransform="translate(68.8029 18.9196) scale(4.94569 8.73121)">
<stop stop-color="#4C4C4C"/>
<stop offset="0.2" stop-color="#5E5E5E" stop-opacity="0.9"/>
<stop offset="0.5" stop-color="#8F8F8F" stop-opacity="0.63"/>
<stop offset="0.87" stop-color="#DEDEDE" stop-opacity="0.18"/>
<stop offset="1" stop-color="white" stop-opacity="0"/>
</radialGradient>
<radialGradient id="paint6_radial_3005_29203" cx="0" cy="0" r="1" gradientUnits="userSpaceOnUse" gradientTransform="translate(60.6826 34.831) scale(5.62009 10.9592)">
<stop stop-color="#4C4C4C"/>
<stop offset="0.2" stop-color="#5E5E5E" stop-opacity="0.9"/>
<stop offset="0.5" stop-color="#8F8F8F" stop-opacity="0.63"/>
<stop offset="0.87" stop-color="#DEDEDE" stop-opacity="0.18"/>
<stop offset="1" stop-color="white" stop-opacity="0"/>
</radialGradient>
</defs>
</svg>
