<svg width="183" height="120" viewBox="0 0 183 120" fill="none" xmlns="http://www.w3.org/2000/svg">
<g clip-path="url(#clip0_3005_27964)">
<path d="M89.244 59.5388V71.4081H85.4756V42.0894H95.4649C97.8747 42.0382 100.203 42.9525 101.934 44.6274C103.685 46.204 104.672 48.4599 104.634 50.8141C104.685 53.1854 103.698 55.4584 101.934 57.0393C100.186 58.7056 98.0285 59.5388 95.4649 59.5345L89.244 59.5388ZM89.244 45.6998V55.937H95.5589C96.9604 55.9797 98.3105 55.4285 99.2847 54.4202C101.263 52.4975 101.31 49.3315 99.3829 47.3533C99.3487 47.3191 99.3188 47.2849 99.2847 47.255C98.3233 46.2253 96.9646 45.6613 95.5589 45.6998H89.244ZM113.316 50.6945C116.102 50.6945 118.298 51.4379 119.909 52.9248C121.519 54.4117 122.323 56.454 122.323 59.0432V71.4081H118.721V68.6224H118.558C116.999 70.9167 114.922 72.0618 112.333 72.0618C110.124 72.0618 108.274 71.4081 106.787 70.0964C105.343 68.8787 104.523 67.0757 104.557 65.1829C104.557 63.1064 105.343 61.4572 106.911 60.2309C108.479 59.0047 110.573 58.3895 113.196 58.3895C115.431 58.3895 117.277 58.7996 118.721 59.6157V58.7526C118.729 57.4623 118.157 56.2403 117.166 55.42C116.17 54.5227 114.871 54.0314 113.53 54.0485C111.427 54.0485 109.761 54.9372 108.535 56.7103L105.219 54.621C107.039 52.0019 109.74 50.6945 113.316 50.6945ZM108.441 65.2684C108.437 66.2425 108.902 67.1568 109.688 67.7251C110.522 68.3788 111.556 68.7292 112.615 68.7078C114.205 68.7035 115.73 68.0712 116.854 66.9475C118.101 65.7725 118.725 64.3967 118.725 62.8116C117.55 61.8759 115.914 61.4059 113.812 61.4059C112.282 61.4059 111.004 61.7734 109.983 62.5125C108.954 63.2645 108.441 64.1746 108.441 65.2684ZM143.002 51.3482L130.428 80.2524H126.54L131.205 70.1391L122.934 51.3482H127.027L133.004 65.7597H133.085L138.9 51.3482H143.002Z" fill="white"/>
<path d="M74.0187 56.975C74.0187 55.8256 73.9248 54.6806 73.7282 53.5483H57.8427V60.0342H66.939C66.563 62.1277 65.3496 63.9778 63.5765 65.1527V69.3655H69.007C72.1858 66.4388 74.0187 62.1021 74.0187 56.975Z" fill="white"/>
<path d="M57.8411 73.4375C62.3872 73.4375 66.2154 71.9463 69.0054 69.37L63.5749 65.1572C62.0624 66.1826 60.1184 66.7679 57.8411 66.7679C53.4489 66.7679 49.7189 63.807 48.3858 59.8164H42.793V64.1574C45.6513 69.8485 51.4749 73.4375 57.8411 73.4375Z" fill="white"/>
<path d="M48.3873 59.8163C47.6824 57.727 47.6824 55.4582 48.3873 53.3689V49.028H42.7945C40.4018 53.7876 40.4018 59.3976 42.7945 64.1573L48.3873 59.8163Z" fill="white"/>
<path d="M57.8411 46.4171C60.2423 46.3787 62.5623 47.2845 64.3013 48.9423L69.1122 44.1356C66.0616 41.2729 62.024 39.7006 57.8411 39.7476C51.4749 39.7476 45.6513 43.3409 42.793 49.0277L48.3858 53.3687C49.7189 49.3781 53.4489 46.4171 57.8411 46.4171Z" fill="white"/>
</g>
<defs>
<clipPath id="clip0_3005_27964">
<rect width="102" height="102" fill="white" transform="translate(41 9)"/>
</clipPath>
</defs>
</svg>
