<svg width="183" height="120" viewBox="0 0 183 120" fill="none" xmlns="http://www.w3.org/2000/svg">
<g clip-path="url(#clip0_3005_27966)">
<path d="M130.184 74.444L129.322 70.1315H119.685L118.151 74.4134L110.427 74.4287C115.392 62.4955 119.079 53.6597 121.483 47.9135C122.111 46.4109 123.227 45.6442 124.871 45.6557C126.129 45.6672 128.179 45.6672 131.028 45.6595L137 74.4325L130.184 74.444ZM121.851 64.2244H128.065L125.745 53.4144L121.851 64.2244ZM72.071 45.6519L79.8373 45.6595L67.8313 74.4479L59.9692 74.4402C57.9921 66.8361 56.0397 59.2256 54.1118 51.6089C53.7285 50.0909 52.9695 49.029 51.509 48.5269C49.3491 47.8054 47.1792 47.1141 45 46.453L45 45.6595H57.4085C59.5552 45.6595 60.8087 46.6984 61.2112 48.8297C61.6175 50.9649 62.6372 56.4044 64.2778 65.1367L72.071 45.6519ZM90.5093 45.6595L84.3722 74.444L76.9777 74.4325L83.1033 45.6519L90.5093 45.6595ZM105.498 45.1267C107.709 45.1267 110.496 45.8167 112.099 46.453L110.803 52.4177C109.354 51.835 106.97 51.0492 104.965 51.076C102.051 51.1259 100.25 52.3487 100.25 53.5217C100.25 55.4307 103.378 56.3929 106.598 58.4782C110.27 60.8549 110.757 62.99 110.711 65.313C110.661 70.1239 106.598 74.8734 98.0265 74.8734C94.1165 74.8159 92.7058 74.49 89.5165 73.3554L90.8658 67.13C94.1127 68.487 95.4888 68.9202 98.2642 68.9202C100.806 68.9202 102.987 67.8929 103.006 66.1027C103.021 64.83 102.239 64.1975 99.3873 62.6259C96.5353 61.0504 92.5333 58.873 92.587 54.4915C92.6522 48.8872 97.9613 45.1267 105.498 45.1267Z" fill="white"/>
</g>
<defs>
<clipPath id="clip0_3005_27966">
<rect width="92" height="92" fill="white" transform="translate(45 14)"/>
</clipPath>
</defs>
</svg>
