<svg width="183" height="120" viewBox="0 0 183 120" fill="none" xmlns="http://www.w3.org/2000/svg">
<g clip-path="url(#clip0_3005_27974)">
<path d="M140.385 46.7652C140.751 46.338 140.996 45.8509 140.996 45.2403C141.001 44.6342 140.783 44.0474 140.385 43.5906C139.956 43.1622 139.409 42.9177 138.796 42.9177C138.187 42.9177 137.7 43.1628 137.209 43.5906C136.784 44.0185 136.598 44.568 136.598 45.2403C136.598 45.8509 136.784 46.338 137.209 46.7652C137.7 47.1931 138.187 47.3758 138.796 47.3758C139.409 47.3758 139.956 47.1931 140.385 46.7652ZM140.509 69.2398V49.5138H137.21L137.272 69.2398H140.509ZM132.873 50.4917L132.325 50.2467C130.859 49.391 129.087 48.9644 126.951 48.9644C124.629 48.9644 122.736 49.5132 121.332 50.6128C120.599 51.1629 120.11 51.7117 119.744 52.4458C119.378 53.1169 119.193 53.7886 119.193 54.5819C119.193 55.926 119.806 57.0249 120.906 58.0016C121.942 58.9184 123.469 59.6512 125.484 60.2612C127.193 60.8107 128.354 61.3608 129.087 61.9109C129.698 62.5221 130.065 63.1932 130.065 64.0476C130.065 64.9638 129.576 65.6967 128.72 66.3079C127.864 66.7968 126.642 67.1018 125.118 67.1018C123.467 67.1018 121.82 66.674 120.11 65.8788L119.682 65.575L118.278 68.139L118.768 68.3835C120.66 69.2997 122.737 69.7263 124.997 69.7263C127.439 69.7263 129.455 69.238 131.042 68.139C131.836 67.6501 132.386 66.9796 132.814 66.3085C133.239 65.5145 133.424 64.6582 133.424 63.8038V63.7408C133.424 62.2758 132.814 60.9929 131.653 59.9556C130.677 59.1018 129.088 58.3677 127.012 57.7577C125.423 57.2058 124.264 56.657 123.591 56.2297C122.859 55.6791 122.554 55.0697 122.554 54.398C122.554 53.6034 122.859 52.994 123.532 52.4446C124.264 51.955 125.239 51.6494 126.523 51.6494C128.294 51.6494 129.76 51.955 130.92 52.6878L131.348 52.9934L132.873 50.4917ZM112.966 51.9568C110.706 50.0028 107.897 48.965 104.659 48.965C101.484 48.965 98.8578 49.9411 96.721 51.8346C94.3379 53.9732 93.118 56.9033 93.118 60.7508V76.0792H96.292V66.1862C97.2699 67.2846 98.4929 68.1402 99.9573 68.752C101.423 69.4226 103.01 69.7275 104.722 69.7275C107.958 69.7275 110.706 68.7521 112.966 66.6734C115.287 64.6582 116.445 62.2165 116.445 59.345C116.445 56.4143 115.287 53.9725 112.966 51.9568ZM104.659 51.7117C107.042 51.7117 109.117 52.4458 110.704 53.9102C112.354 55.3759 113.209 57.2071 113.209 59.408C113.209 61.4824 112.475 63.1926 111.01 64.6582C109.423 66.185 107.286 66.9796 104.721 66.9796C102.154 66.9796 100.077 66.1856 98.4293 64.6582C96.9038 63.1327 96.1715 61.4225 96.1715 59.408C96.1715 57.391 96.9044 55.621 98.4293 54.1541C100.018 52.5674 102.095 51.7117 104.659 51.7117ZM88.048 52.9347C85.9125 50.2467 82.8583 48.9644 78.7657 48.9644C75.7121 48.9644 73.0846 49.8194 70.8262 51.6506C68.3844 53.5441 67.1632 56.1099 67.1632 59.2851C67.1632 61.0558 67.651 62.8271 68.6888 64.4755C69.6062 66.0628 71.0101 67.3463 72.9036 68.3224C74.7959 69.2392 76.8111 69.6658 79.0096 69.6658C81.0864 69.6658 83.0399 69.2392 84.9346 68.3224C86.8256 67.3463 88.2308 66.0628 89.147 64.4755L89.7582 63.437H86.2169C85.4828 64.4755 84.4432 65.3312 83.1022 66.0023C81.7588 66.6734 80.2931 66.9796 78.8879 66.9796C76.9339 66.9796 75.2849 66.4894 73.8186 65.5127C72.353 64.4749 71.3769 63.1926 70.7657 61.4824C72.7796 60.6885 74.7959 60.2606 76.9957 60.2606L80.2931 60.6261L85.4223 61.1157C87.0096 61.1157 88.3555 60.8712 89.5748 60.5057C90.0644 60.3217 90.3688 60.0773 90.4922 59.7717C90.6744 59.5278 90.6744 59.1018 90.554 58.611C90.1854 56.4143 89.3921 54.522 88.048 52.9347ZM87.1948 57.9435L87.2553 58.0646L85.4834 58.3084L81.6365 57.9429L76.2622 57.5139H75.346C73.6359 57.6361 72.0486 57.9429 70.5212 58.4912C70.7645 56.231 71.8652 54.4591 73.6976 53.178C75.2232 52.1995 76.9345 51.6506 78.7657 51.6506C81.6347 51.6506 83.8344 52.5668 85.4834 54.3992C86.3391 55.4993 86.9485 56.6588 87.1948 57.9435ZM52.9326 48.9644C49.8179 48.9644 47.131 49.9405 44.9937 51.834C42.6118 53.9725 41.4511 56.9027 41.4511 60.7496L41.3906 76.078H44.6887L44.6269 66.185C45.6043 67.284 46.8254 68.139 48.2306 68.7508C49.7568 69.4219 51.3453 69.7257 53.0548 69.7257C56.2918 69.7257 59.0397 68.7508 61.3 66.6728C63.6201 64.6576 64.719 62.2146 64.719 59.3438C64.719 56.4125 63.6201 53.9707 61.3599 51.955C59.0397 50.0022 56.2918 48.9644 52.9326 48.9644ZM46.7038 54.1547C48.3528 52.5674 50.3686 51.7117 52.9326 51.7117C55.3762 51.7117 57.3913 52.4458 59.0385 53.9102C60.6894 55.3759 61.4815 57.2071 61.4815 59.408C61.4815 61.4824 60.7499 63.1926 59.3435 64.6582C57.7574 66.185 55.6806 66.9796 52.9937 66.9796C50.4896 66.9796 48.3528 66.1856 46.7032 64.6582C45.2375 63.1327 44.5047 61.4225 44.5047 59.408C44.5053 57.3916 45.2375 55.6216 46.7038 54.1547Z" fill="white"/>
</g>
<defs>
<clipPath id="clip0_3005_27974">
<rect width="100" height="100" fill="white" transform="translate(41 10)"/>
</clipPath>
</defs>
</svg>
