<svg width="183" height="120" viewBox="0 0 183 120" fill="none" xmlns="http://www.w3.org/2000/svg">
<g clip-path="url(#clip0_3005_27976)">
<path d="M32 68L34.225 64.61H47.115C47.845 64.61 48.325 64.16 48.325 63.46V61.5H37.24C33.94 61.5 32.475 60.11 32.475 57.025V55.695C32.475 53.395 33.905 52.005 36.16 52.005H36.41V56.965C36.41 57.665 36.89 58.115 37.62 58.115H48.355C50.805 58.115 52.26 59.505 52.26 61.775V63.525C52.26 66.525 50.71 68.005 47.5 68.005L32 68ZM109.265 64.55H119.235C120.885 64.55 121.935 63.585 121.935 62.07V57.93C121.935 56.415 120.885 55.45 119.235 55.45H109.265V64.55ZM105.265 68V52H119.335C123.525 52 125.935 54.3 125.935 58.11V61.89C125.935 65.7 123.525 68 119.335 68H105.265ZM85.87 64.55H94.29C95.81 64.55 96.795 63.645 96.795 62.225V57.775C96.795 56.355 95.81 55.45 94.29 55.45H85.87C84.35 55.45 83.365 56.355 83.365 57.775V62.225C83.365 63.645 84.35 64.55 85.87 64.55ZM94.385 68H85.775C81.71 68 79.36 65.76 79.36 62.04V57.96C79.36 54.24 81.71 52 85.775 52H94.385C98.45 52 100.8 54.24 100.8 57.96V62.04C100.8 65.76 98.45 68 94.385 68ZM127.58 68L137.01 52H142.57L152 68H147.425L145.805 65.25H137.77L135.615 61.98L132.055 68H127.58ZM135.71 61.8H143.775L139.74 54.995L135.71 61.8ZM40.35 55.325L38.065 52H51.88L49.655 55.325H40.35ZM56.665 68V52H60.665V58.23H65.97L72.86 52H78.165L69.4 59.95L78.325 68H72.7L65.805 61.68H60.665V68H56.665Z" fill="white"/>
</g>
<defs>
<clipPath id="clip0_3005_27976">
<rect width="182.5" height="120" fill="white" transform="translate(0.5)"/>
</clipPath>
</defs>
</svg>
