<svg width="183" height="120" viewBox="0 0 183 120" fill="none" xmlns="http://www.w3.org/2000/svg">
<path d="M99.2113 68.1563C99.2113 68.3288 99.2675 68.4263 99.365 68.4263C99.4441 68.4156 99.519 68.3846 99.5825 68.3363L127.633 50.1338C128.106 49.8019 128.674 49.631 129.253 49.6463H135.417C136.362 49.6463 137 50.2763 137 51.2213V62.9925C137 64.4175 136.685 65.2425 135.425 65.9963L127.948 70.4963C127.873 70.5479 127.786 70.5789 127.696 70.5863C127.606 70.5863 127.516 70.515 127.516 70.2563V56.52C127.516 56.3588 127.471 56.2538 127.363 56.2538C127.283 56.2626 127.208 56.2938 127.145 56.3438L106.648 69.66C106.183 69.9759 105.634 70.1421 105.073 70.1363H91.4825C90.53 70.1363 89.9 69.5063 89.9 68.5538V51.5888C89.9 51.465 89.8437 51.3488 89.735 51.3488C89.657 51.3592 89.5832 51.3903 89.5212 51.4388L75.995 59.55C75.86 59.64 75.8225 59.7038 75.8225 59.7675C75.8225 59.82 75.8525 59.8763 75.9425 59.9738L85.6063 69.63C85.7338 69.7575 85.8237 69.855 85.8237 69.9638C85.8237 70.0538 85.6775 70.125 85.5088 70.125H76.775C76.0888 70.125 75.56 70.0275 75.1888 69.6563L69.3312 63.8063C69.3091 63.7797 69.2816 63.758 69.2507 63.7425C69.2197 63.727 69.1858 63.7181 69.1513 63.7163C69.0875 63.7199 69.0257 63.7392 68.9713 63.7725L59.1838 69.66C58.7157 69.9744 58.161 70.1344 57.5975 70.1175H48.5938C47.63 70.125 47 69.4875 47 68.5463V56.9963C47 55.5713 47.315 54.7463 48.5825 53.9963L56.1125 49.47C56.1709 49.4329 56.2383 49.4122 56.3075 49.41C56.4275 49.41 56.4875 49.5225 56.4875 49.785V65.25C56.4875 65.4113 56.525 65.4863 56.6413 65.4863C56.7221 65.4737 56.799 65.4429 56.8663 65.3963L82.2762 50.1C82.7689 49.7684 83.3557 49.6053 83.9487 49.635H97.6288C98.5738 49.635 99.2113 50.265 99.2113 51.21L99.2037 68.1525L99.2113 68.1563Z" fill="white"/>
</svg>
