<svg width="183" height="120" viewBox="0 0 183 120" fill="none" xmlns="http://www.w3.org/2000/svg">
<path d="M140.6 54.95V49.675H121.2C117.15 49.675 115.325 52.175 115.025 54.6V54.675V49.675H109.325V54.95H115H140.6ZM115 56.85L109.3 56.525V62.6C109.3 64.5 108.35 65.075 105.05 65.075H100.5C97.775 65.075 96.625 64.3 96.625 62.6V55.95L90.85 55.525V63.075H90.725C90.4 60.875 89.575 58.325 84.075 57.95L66 56.75C66 59.525 67.975 61.175 71.075 61.5L83.675 62.775C84.675 62.85 85.4 63.15 85.4 63.975C85.4 64.875 84.65 64.975 83.5 64.975H65.775V56.75L60 56.375V70.325H83.525C88.775 70.325 90.45 67.6 90.7 65.325H90.825C91.475 68.925 94.625 70.325 99.95 70.325H105.825C112.05 70.325 115 68.425 115 63.975V56.85ZM133.325 57.925L115.25 56.85C115.25 59.625 117.075 61.475 120.175 61.725L133.05 62.725C134.05 62.8 134.65 63.05 134.65 63.875C134.65 64.65 133.95 64.95 132.5 64.95H114.95V70.325H132.875C138.525 70.325 141 68.35 141 63.85C141 59.8 138.775 58.275 133.325 57.925ZM90.85 49.675H96.625V54.95H90.85V49.675ZM56.825 56.125L50.55 55.5L41 70.325H48.025L56.825 56.125ZM89.8 49.675H72.175C68.075 49.675 66.275 52.225 65.85 54.675V49.675H56.075C54.7 49.675 54.05 50.1 53.4 51.05L50.7 54.95H89.8V49.675Z" fill="white"/>
</svg>
