<svg width="183" height="120" viewBox="0 0 183 120" fill="none" xmlns="http://www.w3.org/2000/svg">
<g clip-path="url(#clip0_3005_27952)">
<path d="M21.6976 59.8609L17.25 61.5593V44.1426H23.9906L30.9772 56.8064L38.0988 44.1426H44.8047V53.6482L40.1493 54.5857V48.8608L36.4292 55.4885C32.6728 56.3809 30.5723 56.9784 26.8414 58.2281L21.6976 48.8608V59.8609Z" fill="white"/>
<path d="M28.6322 61.5478L27.6797 59.7353C30.682 58.7684 32.3716 58.2918 35.3936 57.5283L33.1802 61.5478H28.6322Z" fill="white"/>
<path d="M40.1836 61.5482V56.363L44.8563 55.3184V61.5482H40.1836Z" fill="white"/>
<path d="M68.8215 51.9113L63.9062 61.4862H69.0674L74.1974 51.4824L68.8215 51.9113Z" fill="white"/>
<path d="M88.3911 61.4862H83.1988L81.6921 58.539H78.2213L76.0703 54.9519H79.8493L77.9754 51.2368L82.9841 50.9912L88.3911 61.4862Z" fill="white"/>
<path d="M82.122 49.306C77.2357 49.54 74.5354 49.7109 69.7734 50.0704L72.7836 44.0273H79.4202L82.122 49.306Z" fill="white"/>
<path d="M107.406 49.4582V44.1484H122.46L123.524 44.286C123.777 44.3188 124.027 44.3739 124.27 44.4507L124.511 44.5266C124.942 44.6626 125.339 44.8895 125.675 45.1919C125.967 45.4556 126.209 45.7716 126.385 46.1237L126.396 46.1472C126.559 46.4706 126.666 46.8183 126.715 47.1765L126.825 47.9846V49.4582L126.762 49.9079L126.693 50.1788C126.658 50.3116 126.613 50.4413 126.557 50.5666C126.495 50.706 126.421 50.8394 126.335 50.9651L126.222 51.129C124.736 50.9192 123.673 50.8176 122.155 50.6896V49.0386C122.155 48.8707 122.118 48.705 122.046 48.5532L122 48.4565C121.921 48.2897 121.789 48.1542 121.623 48.0717C121.509 48.0144 121.382 47.9846 121.254 47.9846H112.107V49.7349C110.191 49.6358 109.178 49.5735 107.406 49.4582Z" fill="white"/>
<path d="M124.283 52.6021C120.628 52.1803 118.479 51.9952 114.75 51.6963L119.45 53.5677L120.373 54.0611C120.638 54.2022 120.885 54.3718 121.112 54.567L121.211 54.6524C121.369 54.789 121.512 54.9425 121.638 55.1101L121.731 55.2349C121.908 55.4722 122.035 55.7437 122.101 56.0322C122.138 56.1898 122.156 56.3509 122.156 56.5125V61.4234H126.825V57.8639V56.1807C126.825 55.8922 126.796 55.6046 126.737 55.3221L126.729 55.2813C126.671 54.9999 126.581 54.7259 126.463 54.4641L126.444 54.4211C126.297 54.0984 126.103 53.7993 125.868 53.5337L125.698 53.3408C125.509 53.1274 125.281 52.952 125.026 52.8241C124.793 52.7073 124.542 52.632 124.283 52.6021Z" fill="white"/>
<path d="M112.107 51.513C110.397 51.312 109.361 51.2275 107.406 51.1152V61.4235H112.107V51.513Z" fill="white"/>
<path d="M146.906 48.6975V50.3786C146.906 50.6501 146.934 50.9208 146.989 51.1867L147.05 51.4877C147.109 51.7758 147.202 52.0557 147.328 52.3215L147.369 52.4055C147.503 52.6899 147.681 52.9518 147.896 53.182C148.087 53.3876 148.307 53.5658 148.547 53.7117L148.637 53.766C148.893 53.9217 149.168 54.0466 149.453 54.1383L149.951 54.2978C150.461 54.3876 150.976 54.4385 151.494 54.4499L160.849 54.6576L161.529 54.7204C161.722 54.7382 161.908 54.8004 162.072 54.9023L162.11 54.926C162.284 55.0332 162.424 55.1866 162.515 55.369C162.59 55.5199 162.629 55.6862 162.629 55.8547V56.1208V56.5993C162.629 56.7758 162.586 56.9496 162.504 57.1058C162.42 57.2653 162.298 57.4015 162.148 57.5023L162.049 57.5693C161.898 57.6705 161.732 57.7451 161.556 57.7894L161.446 57.8174C161.267 57.8622 161.085 57.8849 160.901 57.8849H156.373C160.07 58.9754 162.032 59.6053 164.832 60.846C165.047 60.846 165.258 60.7881 165.445 60.6785L165.737 60.5052C165.941 60.3848 166.126 60.2355 166.287 60.062L166.356 59.9878C166.517 59.8133 166.658 59.621 166.776 59.4146L166.836 59.3101C166.945 59.1195 167.03 58.9158 167.088 58.7041C167.15 58.4795 167.18 58.2478 167.18 58.015V54.3573C167.18 54.0996 167.147 53.843 167.082 53.5937C167.028 53.3857 166.951 53.1841 166.854 52.9924L166.77 52.8279C166.656 52.6031 166.509 52.3969 166.333 52.2165C166.142 52.0211 165.919 51.8585 165.676 51.7353L165.477 51.635C165.267 51.5287 165.047 51.442 164.821 51.3762L164.632 51.3215C164.327 51.2327 164.015 51.1685 163.7 51.1297L162.376 50.9667L153.634 50.7868H152.91C152.765 50.7868 152.621 50.766 152.481 50.7251L152.362 50.6901C152.148 50.6269 151.957 50.5006 151.815 50.3276C151.693 50.1775 151.611 49.9977 151.579 49.8064L151.559 49.6868C151.545 49.6016 151.538 49.5154 151.538 49.4291V49.1147C151.538 49.042 151.544 48.9693 151.557 48.8977L151.564 48.8619C151.606 48.6359 151.717 48.4286 151.884 48.2697C151.983 48.1752 152.098 48.1001 152.225 48.0482L152.402 47.9754C152.594 47.8969 152.796 47.8469 153.002 47.8272L153.634 47.767H160.461L161.115 47.8325C161.275 47.8487 161.433 47.8915 161.579 47.9592L161.659 47.9959C161.845 48.0816 162.004 48.2156 162.12 48.384C162.179 48.4703 162.227 48.5645 162.26 48.6638L162.286 48.7392C162.346 48.9154 162.376 49.1003 162.376 49.2863V49.5588H166.851V48.3931L166.775 47.6632L166.661 47.1324C166.619 46.9377 166.563 46.7465 166.492 46.5603L166.487 46.5471C166.361 46.2158 166.189 45.9037 165.977 45.6195L165.931 45.5569C165.817 45.4048 165.69 45.2639 165.55 45.1359C165.311 44.9174 165.038 44.7389 164.742 44.6074L164.632 44.5584C164.376 44.4448 164.108 44.3601 163.833 44.306L163.336 44.2081C162.937 44.1294 162.532 44.0804 162.126 44.0613L160.821 44H154.337H152.393L151.24 44.0899L150.664 44.1752C150.379 44.2175 150.097 44.2818 149.822 44.3675C149.521 44.4613 149.228 44.5805 148.947 44.7238L148.725 44.8371L148.648 44.8897C148.255 45.1612 147.917 45.5052 147.653 45.9033C147.432 46.2373 147.266 46.6046 147.16 46.9913L147.111 47.1714C147.031 47.4686 146.977 47.7728 146.955 48.0799L146.906 48.6975Z" fill="white"/>
<path d="M162.049 61.5686C156.422 59.701 153.2 58.6867 146.957 57.1133V57.1591C146.957 57.5335 146.994 57.907 147.068 58.274L147.097 58.4188C147.145 58.6549 147.213 58.8863 147.302 59.1101L147.339 59.2041C147.476 59.549 147.669 59.8693 147.908 60.1523C148.128 60.4101 148.383 60.6342 148.668 60.8168L148.725 60.8536C149.032 61.0503 149.365 61.2027 149.714 61.3064L149.967 61.3815C150.386 61.5058 150.817 61.582 151.254 61.6083L153.061 61.7174H160.279L162.049 61.5686Z" fill="white"/>
<path fill-rule="evenodd" clip-rule="evenodd" d="M63.9961 66.3936H66.9505C67.2567 66.3936 67.5612 66.4377 67.8546 66.5247L67.9626 66.5566C68.2597 66.6447 68.5383 66.7857 68.7849 66.9731L68.8044 66.9878C69.0397 67.1665 69.2415 67.3888 69.3974 67.6385C69.5596 67.8986 69.6722 68.1902 69.7255 68.4929L69.7354 68.5486C69.7646 68.7144 69.7722 68.8833 69.7582 69.051C69.7371 69.3029 69.6673 69.5484 69.5527 69.774L69.4732 69.9304C69.3974 70.0794 69.3088 70.2215 69.2082 70.355L69.1994 70.3667C69.0696 70.5389 68.9218 70.6966 68.7587 70.8371L68.902 70.9052C69.0967 70.998 69.2796 71.1138 69.4465 71.2502L69.5119 71.3036C69.7402 71.4901 69.9309 71.7225 70.0703 71.9807C70.1685 72.1626 70.2421 72.3601 70.286 72.563C70.3192 72.7161 70.336 72.8725 70.336 73.0293V73.1541C70.336 73.4424 70.2835 73.7282 70.1812 73.9978C70.0976 74.2177 69.9818 74.4241 69.8376 74.6101L69.8214 74.631C69.6316 74.8761 69.3986 75.0845 69.1341 75.2463L69.084 75.277C68.9664 75.3489 68.8432 75.4115 68.7158 75.4642C68.3966 75.5961 68.0545 75.664 67.709 75.664H64.0479V73.0832H64.6574V75.0553H67.709C67.9745 75.0553 68.2374 75.0032 68.4827 74.9018C68.5806 74.8614 68.6753 74.8132 68.7657 74.758L68.8158 74.7273C69.0173 74.604 69.1948 74.4452 69.3395 74.2585L69.3556 74.2376C69.463 74.0992 69.5491 73.9456 69.6112 73.7819C69.6875 73.5813 69.7265 73.3686 69.7265 73.1541V73.0293C69.7265 72.9157 69.7144 72.8026 69.6903 72.6917C69.6587 72.5456 69.6052 72.4019 69.5338 72.2696C69.4316 72.0803 69.2917 71.9101 69.1259 71.7747L69.0606 71.7212C68.9315 71.6158 68.7903 71.5263 68.6398 71.4547L68.1028 71.1992H64.6056V71.2038H63.9961V66.3936ZM64.6056 70.5905H68.0757L68.1674 70.5264C68.3756 70.3809 68.5596 70.2034 68.7124 70.0007L68.7211 69.9891C68.8004 69.884 68.8701 69.7722 68.9297 69.6549L69.0092 69.4985C69.0882 69.3431 69.1363 69.1739 69.1508 69.0002C69.1605 68.8847 69.1552 68.7683 69.1351 68.6541L69.1253 68.5983C69.0856 68.3733 69.0015 68.155 68.8801 67.9604C68.7629 67.7726 68.6111 67.6058 68.4355 67.4723L68.416 67.4575C68.228 67.3148 68.0156 67.2072 67.7892 67.1402L67.6813 67.1082C67.4441 67.0379 67.1979 67.0022 66.9505 67.0022H64.6056V70.5905ZM121.462 66.4112H126.842V67.0198H122.072V69.6967H121.462V66.4112ZM104.058 66.5766C104.449 66.4807 104.849 66.4323 105.252 66.4323H105.326C105.683 66.4323 106.039 66.4826 106.382 66.5817C106.736 66.684 107.065 66.8584 107.35 67.0938L107.419 67.1515L107.534 67.2634C107.663 67.3885 107.777 67.5279 107.875 67.6787L107.907 67.7286C107.965 67.8173 108.014 67.9111 108.054 68.0087C108.071 68.0496 108.091 68.0907 108.117 68.1431C108.14 68.1925 108.17 68.2526 108.196 68.3163C108.251 68.455 108.307 68.6576 108.307 68.9144H107.697C107.697 68.746 107.661 68.6202 107.63 68.5429C107.614 68.5028 107.594 68.4619 107.569 68.4105L107.565 68.4032C107.542 68.3562 107.514 68.2995 107.49 68.2401C107.464 68.1769 107.432 68.1161 107.395 68.0586L107.363 68.0087C107.29 67.8966 107.206 67.7929 107.109 67.6999L107.011 67.6045L106.959 67.5619C106.741 67.3801 106.486 67.2454 106.213 67.1664C105.924 67.0832 105.626 67.041 105.326 67.041H105.252C104.898 67.041 104.546 67.0835 104.202 67.1677L104.106 67.1914C103.842 67.256 103.598 67.3819 103.393 67.5589L103.34 67.6047C103.158 67.7627 103.002 67.9495 102.879 68.1577L102.854 68.1993C102.76 68.3595 102.71 68.5419 102.71 68.7277V68.8281C102.71 68.9748 102.732 69.1207 102.774 69.2611L102.777 69.2702C102.848 69.5059 102.978 69.7199 103.154 69.8925C103.265 70.0023 103.394 70.0936 103.535 70.1627L103.699 70.243C103.906 70.3445 104.126 70.4179 104.352 70.4615L105.083 70.6021C105.623 70.6867 106.156 70.8141 106.676 70.9832L106.692 70.9882L107.109 71.1458C107.407 71.2583 107.68 71.4311 107.908 71.6537L107.937 71.6826C108.151 71.8906 108.318 72.1414 108.427 72.4184C108.525 72.6657 108.576 72.9293 108.576 73.1952V73.3673C108.576 73.6401 108.526 73.9107 108.43 74.166C108.321 74.4562 108.154 74.721 107.938 74.944L107.919 74.9641C107.768 75.1199 107.597 75.2548 107.411 75.365L107.357 75.3968C107.04 75.5838 106.69 75.7083 106.327 75.7635L106.134 75.7928C105.941 75.822 105.746 75.8367 105.551 75.8367H105.254C104.846 75.8367 104.441 75.7789 104.05 75.6649L103.989 75.6473C103.807 75.5941 103.629 75.5263 103.457 75.4446L103.338 75.3879C103.094 75.2716 102.87 75.119 102.672 74.9352C102.411 74.6927 102.202 74.4003 102.057 74.0754L102.034 74.0243C101.976 73.8955 101.924 73.7558 101.889 73.6058C101.854 73.4493 101.804 73.1993 101.804 72.9916H102.414C102.414 73.1255 102.449 73.3179 102.484 73.4707C102.506 73.5703 102.543 73.671 102.59 73.7759L102.613 73.8269C102.725 74.0774 102.887 74.3028 103.088 74.4898C103.24 74.6314 103.413 74.749 103.601 74.8387L103.72 74.8953C103.861 74.9629 104.008 75.019 104.159 75.0629L104.22 75.0806C104.555 75.1784 104.904 75.2281 105.254 75.2281H105.551C105.716 75.2281 105.88 75.2157 106.042 75.191L106.235 75.1617C106.522 75.1183 106.797 75.0202 107.046 74.8728L107.1 74.841C107.24 74.7588 107.368 74.658 107.48 74.5416L107.499 74.5216C107.657 74.3583 107.779 74.1645 107.859 73.9521C107.93 73.7651 107.966 73.567 107.966 73.3673V73.1952C107.966 73.0059 107.93 72.8182 107.86 72.642C107.783 72.4448 107.664 72.2663 107.512 72.1181L107.482 72.0891C107.314 71.9253 107.114 71.798 106.894 71.7152L106.489 71.5627L106.487 71.5619C105.997 71.4024 105.494 71.2822 104.984 71.2026L105.031 70.9018L104.973 71.2007L104.237 71.0591C103.957 71.0053 103.686 70.9146 103.431 70.7893L103.267 70.709C103.067 70.6113 102.884 70.4822 102.726 70.3266C102.478 70.0823 102.294 69.7794 102.193 69.4458L102.191 69.4367C102.131 69.2393 102.101 69.0342 102.101 68.8281V68.7277C102.101 68.4335 102.18 68.1446 102.329 67.891L102.353 67.8493C102.509 67.5838 102.708 67.3457 102.941 67.1443L102.995 67.0984C103.272 66.8585 103.604 66.6878 103.96 66.6003L104.058 66.5766ZM85.7372 66.4922H86.4717L88.3517 71.545V71.7195H87.7422V71.6544L86.1002 67.2411L82.7594 75.8503L82.1911 75.6303L85.7372 66.4922ZM121.462 70.735H126.521V71.3437H122.072V75.0166H126.904V75.6253H121.462V70.735ZM87.0882 72.6767H88.7361L89.9421 75.6816V75.8566H89.3326V75.799L88.3238 73.2854H87.1224V73.1245L87.0237 72.6913L87.0882 72.6767Z" fill="white"/>
</g>
<defs>
<clipPath id="clip0_3005_27952">
<rect width="151" height="88" fill="white" transform="translate(16.25 16)"/>
</clipPath>
</defs>
</svg>
