<svg width="183" height="120" viewBox="0 0 183 120" fill="none" xmlns="http://www.w3.org/2000/svg">
<path d="M18.2393 62.2057L33.7943 77.7607C25.8509 76.418 19.582 70.1491 18.2393 62.2057Z" fill="white"/>
<path d="M18 57.9828L38.0172 78C39.2077 77.9364 40.3691 77.7633 41.4914 77.4906L18.5094 54.5086C18.2367 55.631 18.0636 56.7923 18 57.9828Z" fill="white"/>
<path d="M19.5059 51.5212L44.4789 76.4943C45.3885 76.1039 46.2615 75.6446 47.0913 75.123L20.8771 48.9088C20.3555 49.7386 19.8962 50.6116 19.5059 51.5212Z" fill="white"/>
<path d="M22.5689 46.6172C26.0558 42.5656 31.2214 40 36.9863 40C47.4873 40 56 48.5127 56 59.0137C56 64.7786 53.4345 69.9442 49.3828 73.4311L22.5689 46.6172Z" fill="white"/>
<path d="M75.8086 70.3999H89.7403V66.6061H80.41V48.6363H75.8086V70.3999ZM92.7024 70.3999H97.2296V54.0772H92.7024V70.3999ZM94.9766 52.1431C96.2944 52.1431 97.4314 51.1442 97.4314 49.8477C97.4314 48.5619 96.2944 47.563 94.9766 47.563C93.6695 47.563 92.5325 48.5619 92.5325 49.8477C92.5325 51.1442 93.6695 52.1431 94.9766 52.1431ZM105.383 60.9633C105.393 58.8593 106.647 57.6265 108.475 57.6265C110.293 57.6265 111.387 58.8167 111.376 60.8146V70.3999H115.903V60.0069C115.903 56.2026 113.672 53.8647 110.271 53.8647C107.848 53.8647 106.095 55.0549 105.362 56.9571H105.17V54.0772H100.856V70.3999H105.383V60.9633ZM126.953 70.7188C131.001 70.7188 133.711 68.7527 134.349 65.7242L130.173 65.4478C129.716 66.6912 128.536 67.3394 127.038 67.3394C124.774 67.3394 123.339 65.841 123.339 63.4075V63.3969H134.455V62.1535C134.455 56.6064 131.097 53.8647 126.783 53.8647C121.979 53.8647 118.866 57.2759 118.866 62.313C118.866 67.4882 121.937 70.7188 126.953 70.7188ZM123.339 60.5914C123.425 58.7317 124.849 57.244 126.857 57.244C128.812 57.244 130.173 58.6467 130.194 60.5914H123.339ZM142.128 70.7082C144.54 70.7082 146.102 69.6561 146.899 68.1364H147.027V70.3999H151.32V59.3906C151.32 55.5012 147.994 53.8647 144.466 53.8647C140.449 53.8647 137.909 55.735 137.282 58.7105L141.469 59.0505C141.777 57.9666 142.744 57.1696 144.37 57.1696C145.932 57.1696 146.782 57.9347 146.793 59.3056C146.804 60.3789 145.677 60.5383 142.84 60.8146C139.609 61.1121 136.708 62.1961 136.708 65.841C136.708 69.0716 139.014 70.7082 142.128 70.7082ZM143.424 67.5838C142.032 67.5838 141.033 66.9356 141.033 65.6922C141.033 64.4171 142.085 63.79 143.679 63.5669C144.667 63.4288 146.283 63.195 146.825 62.8337V64.5659C146.825 66.2768 145.411 67.5838 143.424 67.5838ZM154.832 70.3999H159.359V61.1653C159.37 59.1674 160.815 57.7966 162.643 57.7966C163.259 57.7966 163.759 57.9666 164.183 58.1791L165.544 54.4385C164.949 54.0772 164.183 53.8434 163.312 53.8434C161.474 53.8434 159.986 54.9061 159.391 56.9252H159.221V54.0772H154.832V70.3999Z" fill="white"/>
</svg>
