<svg width="183" height="120" viewBox="0 0 183 120" fill="none" xmlns="http://www.w3.org/2000/svg">
<path d="M83.2376 61.6501C83.2376 66.9734 79.0732 70.896 73.9626 70.896C68.852 70.896 64.6876 66.9734 64.6876 61.6501C64.6876 56.2894 68.852 52.4043 73.9626 52.4043C79.0732 52.4043 83.2376 56.2894 83.2376 61.6501ZM79.1775 61.6501C79.1775 58.3236 76.7639 56.0476 73.9626 56.0476C71.1613 56.0476 68.7477 58.3236 68.7477 61.6501C68.7477 64.9433 71.1613 67.2527 73.9626 67.2527C76.7639 67.2527 79.1775 64.9391 79.1775 61.6501Z" fill="white"/>
<path d="M103.245 61.6501C103.245 66.9734 99.081 70.896 93.9703 70.896C88.8597 70.896 84.6953 66.9734 84.6953 61.6501C84.6953 56.2936 88.8597 52.4043 93.9703 52.4043C99.081 52.4043 103.245 56.2894 103.245 61.6501ZM99.1852 61.6501C99.1852 58.3236 96.7716 56.0476 93.9703 56.0476C91.1691 56.0476 88.7555 58.3236 88.7555 61.6501C88.7555 64.9433 91.1691 67.2527 93.9703 67.2527C96.7716 67.2527 99.1852 64.9391 99.1852 61.6501Z" fill="white"/>
<path d="M122.424 52.9629V69.562C122.424 76.3901 118.397 79.1789 113.637 79.1789C109.155 79.1789 106.458 76.1817 105.441 73.7306L108.976 72.2591C109.606 73.7639 111.148 75.5397 113.632 75.5397C116.68 75.5397 118.568 73.6597 118.568 70.1206V68.7909H118.426C117.518 69.9122 115.767 70.8918 113.557 70.8918C108.934 70.8918 104.699 66.865 104.699 61.6835C104.699 56.4645 108.934 52.4043 113.557 52.4043C115.763 52.4043 117.513 53.3839 118.426 54.4719H118.568V52.9671H122.424V52.9629ZM118.856 61.6835C118.856 58.4278 116.684 56.0476 113.92 56.0476C111.119 56.0476 108.772 58.4278 108.772 61.6835C108.772 64.9058 111.119 67.2527 113.92 67.2527C116.684 67.2527 118.856 64.9058 118.856 61.6835Z" fill="white"/>
<path d="M128.78 43.2336V70.3292H124.82V43.2336H128.78Z" fill="white"/>
<path d="M144.211 64.6932L147.363 66.7941C146.346 68.299 143.895 70.8918 139.659 70.8918C134.407 70.8918 130.484 66.8317 130.484 61.646C130.484 56.1477 134.44 52.4001 139.205 52.4001C144.003 52.4001 146.35 56.2185 147.117 58.282L147.538 59.3324L135.178 64.4514C136.124 66.3064 137.596 67.2527 139.659 67.2527C141.727 67.2527 143.161 66.2356 144.211 64.6932ZM134.511 61.3667L142.773 57.936C142.319 56.7813 140.952 55.9768 139.343 55.9768C137.279 55.9768 134.407 57.7984 134.511 61.3667V61.3667Z" fill="white"/>
<path d="M49.6975 59.2447V55.3221H62.9159C63.0451 56.0058 63.1118 56.8145 63.1118 57.6899C63.1118 60.6329 62.3073 64.272 59.7145 66.8648C57.1925 69.491 53.9702 70.8917 49.7016 70.8917C41.7897 70.8917 35.1367 64.4471 35.1367 56.5352C35.1367 48.6233 41.7897 42.1787 49.7016 42.1787C54.0786 42.1787 57.1967 43.8962 59.5394 46.1347L56.7715 48.9026C55.0916 47.3269 52.8155 46.1013 49.6975 46.1013C43.9198 46.1013 39.4011 50.7576 39.4011 56.5352C39.4011 62.3128 43.9198 66.9691 49.6975 66.9691C53.445 66.9691 55.5793 65.4642 56.9466 64.0969C58.0554 62.9881 58.7849 61.4041 59.0725 59.2406L49.6975 59.2447V59.2447Z" fill="white"/>
</svg>
