<svg width="183" height="120" viewBox="0 0 183 120" fill="none" xmlns="http://www.w3.org/2000/svg">
<g clip-path="url(#clip0_3005_27989)">
<path d="M72.6222 58.9755C72.6222 56.5703 70.2169 54.0047 66.2083 54.0047C61.7185 54.0047 56.5874 57.372 55.7857 64.1066C54.9839 70.8412 59.153 73.8878 63.4823 73.8878C67.8117 73.8878 69.8963 72.2843 72.1411 70.0395C70.2169 67.6342 67.6514 68.7567 67.1703 68.917C66.6893 69.2377 65.8876 69.5584 64.6048 69.5584C63.0013 69.5584 61.2375 68.7567 61.2375 65.7101C71.8204 64.5876 72.6222 61.3807 72.6222 58.9755ZM67.491 59.2962C67.491 60.0979 67.1703 61.3807 61.8789 62.0221C63.0013 58.0134 65.0858 57.6927 66.0479 57.6927C67.01 57.853 67.491 58.4944 67.491 59.2962ZM49.6925 59.9376C49.6925 59.9376 47.4476 66.9928 47.2872 67.6342C47.2872 66.9928 45.5234 54.3254 45.5234 54.3254C41.6751 54.3254 39.5906 57.0513 38.6285 59.9376C38.6285 59.9376 35.9026 66.9928 35.7422 67.6342C35.5819 67.1532 35.2612 60.0979 35.2612 60.0979C34.9405 56.5703 31.7335 54.3254 29.168 54.3254L32.3749 73.5671C36.3836 73.5671 38.6285 70.8412 39.7509 67.9549C39.7509 67.9549 42.1561 61.7014 42.3165 61.3807C42.3165 61.7014 44.0803 73.5671 44.0803 73.5671C48.089 73.5671 50.3338 71.0015 51.4563 68.2756L57.0684 54.3254C52.8994 54.3254 50.8149 57.0513 49.6925 59.9376ZM87.5345 53.8444C85.1293 53.8444 83.2051 55.1271 81.6016 57.2117L82.8844 45.6666C79.5171 45.6666 76.9515 48.5529 76.3102 52.7219L73.7446 73.4068C75.6688 73.4068 77.5929 72.9257 78.7154 71.4826C79.6775 72.7654 81.1206 73.7274 83.2051 73.7274C88.8173 73.7274 92.6656 67.3135 92.6656 61.2203C92.826 55.6082 90.1 53.8444 87.5345 53.8444ZM86.8931 63.7859C86.2517 67.1532 84.4879 69.3981 82.5637 69.3981C80.7999 69.3981 79.9982 68.5963 79.9982 68.5963C80.3188 65.7101 80.6395 63.7859 81.2809 62.1824C81.9223 60.5789 83.5258 58.1737 85.1293 58.1737C86.7327 58.3341 87.5345 60.4186 86.8931 63.7859ZM106.776 54.3254H102.928V54.165C103.249 51.5995 103.73 50.3167 105.814 50.1564C107.097 49.996 107.738 49.3546 107.899 48.5529C108.059 47.9115 108.38 45.827 108.38 45.827C100.523 45.827 98.1174 49.1943 97.476 54.3254V54.4857H97.3157C96.0329 54.4857 94.5898 55.9289 94.4294 57.6927L94.2691 58.3341H96.8346L94.5898 76.293L93.9484 79.5C94.1087 79.5 94.1087 79.5 94.2691 79.5C97.9571 79.3396 100.202 76.4534 100.843 72.2843L102.607 58.1737H103.89C105.012 58.1737 106.456 57.0513 106.776 54.9668V54.3254ZM126.98 54.0047C122.49 54.0047 118.321 57.372 117.038 62.5031C115.756 67.6342 117.68 73.8878 124.254 73.8878C130.828 73.8878 134.677 67.4739 134.677 62.1824C134.516 56.891 130.989 54.0047 126.98 54.0047ZM128.744 63.6256C128.583 66.0308 127.461 69.5584 124.575 69.5584C121.689 69.5584 122.17 65.3894 122.33 63.4652C122.651 61.3807 123.773 58.3341 126.339 58.3341C128.744 58.3341 129.064 61.06 128.744 63.6256ZM156.805 59.9376C156.805 59.9376 154.56 66.9928 154.399 67.6342C154.399 66.9928 152.636 54.3254 152.636 54.3254C148.787 54.3254 146.703 57.0513 145.741 59.9376C145.741 59.9376 143.015 66.9928 142.854 67.6342C142.854 67.1532 142.373 60.0979 142.373 60.0979C142.213 56.5703 138.846 54.4857 136.28 54.4857L139.487 73.7274C143.496 73.7274 145.741 71.0015 146.863 68.1153C146.863 68.1153 149.268 61.8617 149.429 61.541C149.429 61.8617 151.192 73.7274 151.192 73.7274C155.201 73.7274 157.446 71.1619 158.568 68.436L163.86 54.3254C159.851 54.3254 157.767 57.0513 156.805 59.9376ZM110.464 45.827L107.257 72.124L106.616 75.3309C106.776 75.3309 106.776 75.3309 106.937 75.3309C110.464 75.3309 113.03 72.124 113.35 68.2756L115.275 53.203C115.756 48.7132 112.869 45.827 110.464 45.827Z" fill="white"/>
</g>
<defs>
<clipPath id="clip0_3005_27989">
<rect width="135.333" height="56" fill="white" transform="translate(29.168 34)"/>
</clipPath>
</defs>
</svg>
