<svg width="183" height="120" viewBox="0 0 183 120" fill="none" xmlns="http://www.w3.org/2000/svg">
<path fill-rule="evenodd" clip-rule="evenodd" d="M129.227 55.6413C129.693 56.4451 129.846 57.3595 129.896 58.3876L129.962 59.7578V69.3395L130.03 70.7112C130.165 72.9514 131.817 74.6077 134.074 74.7486L135.439 74.8162V59.7578L135.506 58.3876C135.562 57.3711 135.713 56.4393 136.187 55.6298C136.669 54.7995 137.361 54.1107 138.193 53.6324C139.025 53.1541 139.969 52.9032 140.929 52.905C141.889 52.9067 142.832 53.161 143.663 53.6423C144.493 54.1237 145.183 54.815 145.662 55.6471C146.128 56.4508 146.273 57.3826 146.329 58.3876L146.397 59.7535V69.3395L146.464 70.7112C146.605 72.9629 148.244 74.6192 150.509 74.7486L151.873 74.8162V58.3876C151.873 55.4826 150.719 52.6965 148.666 50.6419C146.612 48.5873 143.826 47.4325 140.921 47.4313C139.366 47.4297 137.829 47.7599 136.412 48.3999C134.995 49.0398 133.731 49.9748 132.704 51.1424C131.677 49.9753 130.413 49.0405 128.996 48.4004C127.579 47.7602 126.042 47.4294 124.487 47.4299C122.212 47.4299 120.102 48.1201 118.353 49.312C117.286 48.1215 114.899 47.4299 113.529 47.4299V74.8162L114.899 74.7486C117.191 74.5977 118.848 72.9859 118.937 70.7112L119.01 69.3395V59.7578L119.078 58.3876C119.135 57.3538 119.279 56.4451 119.746 55.6356C120.229 54.8058 120.92 54.1171 121.752 53.6382C122.584 53.1594 123.527 52.9071 124.487 52.9066C125.447 52.9068 126.391 53.1596 127.223 53.6396C128.055 54.1196 128.746 54.8099 129.227 55.6413V55.6413ZM35.4767 74.7501L36.8469 74.8162H57.3863L57.3187 73.4503C57.1333 71.1986 55.5387 69.5538 53.2799 69.4071L51.9096 69.3395H39.5874L56.0161 52.9052L55.9485 51.5407C55.8421 49.266 54.18 47.6226 51.9096 47.4975L50.5394 47.4357L30 47.4299L30.0676 48.8002C30.2473 51.0302 31.8649 52.7096 34.105 52.839L35.4767 52.9066H47.7989L31.3703 69.341L31.4378 70.7112C31.573 72.9686 33.202 74.6034 35.4767 74.7486V74.7501ZM108.153 51.4386C109.425 52.7101 110.434 54.2196 111.122 55.8811C111.81 57.5425 112.165 59.3233 112.165 61.1216C112.165 62.92 111.81 64.7007 111.122 66.3622C110.434 68.0236 109.425 69.5332 108.153 70.8047C105.584 73.372 102.1 74.8141 98.4679 74.8141C94.8357 74.8141 91.3521 73.372 88.7827 70.8047C83.4355 65.4574 83.4355 56.7859 88.7827 51.4386C90.0533 50.1675 91.5619 49.1591 93.2222 48.4711C94.8825 47.783 96.6621 47.4288 98.4593 47.4285C100.259 47.4272 102.042 47.7809 103.706 48.4692C105.369 49.1576 106.88 50.1671 108.153 51.44V51.4386ZM104.278 55.3164C105.818 56.8578 106.684 58.9476 106.684 61.1267C106.684 63.3057 105.818 65.3955 104.278 66.9369C102.737 68.4771 100.647 69.3423 98.4679 69.3423C96.2889 69.3423 94.1991 68.4771 92.6577 66.9369C91.1175 65.3955 90.2523 63.3057 90.2523 61.1267C90.2523 58.9476 91.1175 56.8578 92.6577 55.3164C94.1991 53.7762 96.2889 52.911 98.4679 52.911C100.647 52.911 102.737 53.7762 104.278 55.3164V55.3164ZM69.72 47.4285C71.5173 47.4289 73.297 47.7834 74.9573 48.4718C76.6176 49.1601 78.1261 50.1687 79.3966 51.44C84.7453 56.7859 84.7453 65.4588 79.3966 70.8047C76.8272 73.372 73.3436 74.8141 69.7114 74.8141C66.0792 74.8141 62.5956 73.372 60.0262 70.8047C54.6789 65.4574 54.6789 56.7859 60.0262 51.4386C61.2968 50.1675 62.8053 49.1591 64.4656 48.4711C66.1259 47.783 67.9055 47.4288 69.7028 47.4285H69.72ZM75.5216 55.3135C77.0623 56.855 77.9278 58.9451 77.9278 61.1245C77.9278 63.3039 77.0623 65.394 75.5216 66.9355C73.9803 68.4757 71.8904 69.3409 69.7114 69.3409C67.5324 69.3409 65.4425 68.4757 63.9011 66.9355C62.3609 65.3941 61.4957 63.3042 61.4957 61.1252C61.4957 58.9462 62.3609 56.8563 63.9011 55.315C65.4425 53.7747 67.5324 52.9096 69.7114 52.9096C71.8904 52.9096 73.9803 53.7747 75.5216 55.315V55.3135Z" fill="white"/>
</svg>
