<svg width="183" height="120" viewBox="0 0 183 120" fill="none" xmlns="http://www.w3.org/2000/svg">
<g clip-path="url(#clip0_3005_27993)">
<path d="M46.068 51.7879C40.5772 51.7879 36.2869 55.9561 36.2869 61.5361C36.2869 67.1161 40.4688 71.2486 46.068 71.2486C51.6672 71.2486 55.9218 67.0448 55.9218 61.5004C55.9218 55.9918 51.74 51.7879 46.068 51.7879ZM46.1051 67.2273C42.9782 67.2273 40.6869 64.7988 40.6869 61.5375C40.6869 58.2391 42.9412 55.812 46.068 55.812C49.2319 55.812 51.5218 58.2762 51.5218 61.5375C51.5218 64.7988 49.2319 67.2273 46.1051 67.2273ZM57.121 56.0288H59.8484V70.8878H64.2114V52.1501H57.121V56.0288ZM25.3066 55.8106C27.5979 55.8106 29.4158 57.2238 30.1059 59.3257H34.7241C33.8872 54.8324 30.1787 51.7879 25.3436 51.7879C19.8528 51.7879 15.5625 55.9561 15.5625 61.5375C15.5625 67.1188 19.7444 71.25 25.3436 71.25C30.0702 71.25 33.8515 68.2055 34.6885 63.6751H30.1059C29.4515 65.777 27.6335 67.2273 25.3423 67.2273C22.1784 67.2273 19.9612 64.7988 19.9612 61.5375C19.9626 58.2391 22.1441 55.8106 25.3066 55.8106ZM140.021 59.725L136.822 59.2544C135.295 59.0376 134.204 58.53 134.204 57.3336C134.204 56.0288 135.623 55.3771 137.549 55.3771C139.658 55.3771 141.004 56.2826 141.294 57.7685H145.512C145.039 53.9996 142.13 51.7892 137.659 51.7892C133.04 51.7892 129.986 54.145 129.986 57.479C129.986 60.6676 131.986 62.5171 136.022 63.0961L139.221 63.5667C140.786 63.7834 141.658 64.4009 141.658 65.5602C141.658 67.0461 140.131 67.6622 138.022 67.6622C135.44 67.6622 133.986 66.6112 133.768 65.0169H129.477C129.878 68.6774 132.75 71.25 137.985 71.25C142.749 71.25 145.911 69.0754 145.911 65.3421C145.911 62.0081 143.621 60.2683 140.021 59.725ZM62.0299 44.4311C60.4302 44.4311 59.2299 45.5905 59.2299 47.1848C59.2299 48.779 60.4289 49.9384 62.0299 49.9384C63.6297 49.9384 64.8303 48.779 64.8303 47.1848C64.8303 45.5905 63.6297 44.4311 62.0299 44.4311ZM126.06 58.5657C126.06 54.5072 123.587 51.7892 118.351 51.7892C113.407 51.7892 110.643 54.2905 110.097 58.1321H114.425C114.643 56.6462 115.806 55.4141 118.279 55.4141C120.498 55.4141 121.588 56.3924 121.588 57.5888C121.588 59.1474 119.588 59.5453 117.115 59.7991C113.77 60.1613 109.625 61.3207 109.625 65.67C109.625 69.0411 112.135 71.2143 116.135 71.2143C119.261 71.2143 121.224 69.9095 122.207 67.8433C122.353 69.6914 123.734 70.8878 125.662 70.8878H128.207V67.0105H126.061V58.5657H126.06ZM121.769 63.2772C121.769 65.7784 119.588 67.6265 116.933 67.6265C115.296 67.6265 113.915 66.9377 113.915 65.4889C113.915 63.6408 116.133 63.1331 118.169 62.9164C120.133 62.7353 121.223 62.3003 121.769 61.4661V63.2772ZM98.6081 51.7879C96.1714 51.7879 94.1354 52.8032 92.6812 54.5059V44.25H88.3182V70.8878H92.6082V68.4236C94.0624 70.199 96.136 71.25 98.6081 71.25C103.844 71.25 107.808 67.1188 107.808 61.5375C107.808 55.9561 103.771 51.7879 98.6081 51.7879ZM97.9538 67.2273C94.8269 67.2273 92.5357 64.7988 92.5357 61.5375C92.5357 58.2762 94.8627 55.812 97.9893 55.812C101.153 55.812 103.37 58.2405 103.37 61.5375C103.37 64.7988 101.08 67.2273 97.9538 67.2273ZM77.8823 51.7879C75.0464 51.7879 73.1915 52.9472 72.1009 54.5786V52.1501H67.7733V70.8864H72.1363V60.7033C72.1363 57.8399 73.9542 55.8106 76.6449 55.8106C79.1542 55.8106 80.7169 57.5861 80.7169 60.16V70.8878H85.0799V59.8348C85.0816 55.1219 82.6461 51.7879 77.8823 51.7879ZM166.71 60.9214C166.71 55.5582 162.783 51.7892 157.51 51.7892C151.911 51.7892 147.802 55.9931 147.802 61.5375C147.802 67.3727 152.202 71.25 157.583 71.25C162.129 71.25 165.692 68.5677 166.6 64.7631H162.054C161.4 66.4301 159.8 67.3727 157.655 67.3727C154.854 67.3727 152.745 65.6329 152.273 62.5884H166.708V60.9214H166.71ZM152.528 59.4712C153.22 56.8616 155.183 55.5939 157.438 55.5939C159.91 55.5939 161.801 57.007 162.237 59.4712H152.528Z" fill="white"/>
</g>
<defs>
<clipPath id="clip0_3005_27993">
<rect width="151.875" height="54" fill="white" transform="translate(15.5625 33)"/>
</clipPath>
</defs>
</svg>
