<svg width="183" height="120" viewBox="0 0 183 120" fill="none" xmlns="http://www.w3.org/2000/svg">
<g clip-path="url(#clip0_3005_27956)">
<path d="M75.4941 60.1686L85.4743 74.3786H78.1528L72.0174 65.2228L65.8821 74.3786H58.7651L68.6635 60.2928L59.0514 46.6214H66.3729L72.1811 55.28L78.1937 46.6214H84.9016L75.4941 60.1686Z" fill="white"/>
<path d="M99.196 46.6214V74.3786H93.3879V52.3385H87.089V46.6214H99.196Z" fill="white"/>
<path d="M103.484 63.69V57.31C103.484 50.5571 108.27 46 114.569 46C120.827 46 125.735 50.5157 125.735 57.2686V63.69C125.735 70.4428 120.786 75 114.487 75C108.188 75 103.484 70.36 103.484 63.69ZM109.292 57.31V63.69C109.292 67.1286 111.501 69.1172 114.487 69.1172C117.554 69.1172 119.886 67.0872 119.886 63.69V57.2686C119.886 53.9129 117.636 51.8414 114.569 51.8414C111.542 51.8414 109.292 53.8714 109.292 57.31Z" fill="white"/>
</g>
<defs>
<clipPath id="clip0_3005_27956">
<rect width="68" height="29" fill="white" transform="translate(58.25 46)"/>
</clipPath>
</defs>
</svg>
