<svg width="183" height="120" viewBox="0 0 183 120" fill="none" xmlns="http://www.w3.org/2000/svg">
<path d="M136.22 61.44C136.22 63.94 134.505 65.775 132.145 65.775C129.825 65.775 128.01 63.875 128.01 61.44C128.01 58.89 129.725 57.1 132.085 57.1C134.405 57.1 136.22 59.005 136.22 61.44ZM64.695 56.84C64.0695 56.8185 63.4478 56.9466 62.8817 57.2136C62.3156 57.4805 61.8214 57.8787 61.44 58.375C60.6758 59.4425 60.3665 60.7696 60.58 62.065L67.975 58.995C67.701 58.3532 67.2435 57.8068 66.6599 57.4243C66.0764 57.0417 65.3928 56.8402 64.695 56.845V56.84ZM99.51 57.1C97.15 57.1 95.43 58.89 95.43 61.44C95.43 63.87 97.25 65.775 99.57 65.775C101.93 65.775 103.645 63.935 103.645 61.44C103.645 59.005 101.83 57.1 99.51 57.1ZM151 39.985V80.015H31V39.985H151ZM56.05 65.25H46.44V49.125H42.15V69.14H56.05V65.25ZM61.735 64.78L72.55 60.295C72.3568 58.7144 71.7148 57.2222 70.7 55.995C69.28 54.345 67.18 53.47 64.62 53.47C59.965 53.47 56.455 56.9 56.455 61.435C56.455 66.085 59.975 69.4 65.085 69.4C67.945 69.4 70.875 68.04 72.245 66.455L69.57 64.4C67.785 65.72 66.77 66.03 65.145 66.03C63.685 66.03 62.545 65.58 61.735 64.78ZM89.585 59.585C89.585 56.04 87.05 53.47 83.325 53.47C82.355 53.474 81.3986 53.6984 80.5281 54.1263C79.6575 54.5542 78.8956 55.1744 78.3 55.94V53.73H74.07V69.135H78.3V60.37C78.3 58.79 79.525 57.115 81.79 57.115C83.54 57.115 85.35 58.33 85.35 60.37V69.135H89.585V59.585ZM107.82 61.435C107.82 56.915 104.195 53.47 99.57 53.47C94.905 53.47 91.255 56.97 91.255 61.435C91.255 65.95 94.885 69.395 99.51 69.395C104.17 69.395 107.82 65.895 107.82 61.435ZM118.15 69.135L124.49 53.73H119.655L115.83 64.225L112.005 53.725H107.175L113.515 69.13L118.15 69.135ZM140.395 61.435C140.395 56.915 136.77 53.47 132.145 53.47C127.485 53.47 123.835 56.97 123.835 61.435C123.835 65.95 127.46 69.395 132.085 69.395C136.745 69.395 140.395 65.895 140.395 61.435Z" fill="white"/>
</svg>
