<svg width="183" height="120" viewBox="0 0 183 120" fill="none" xmlns="http://www.w3.org/2000/svg">
<g clip-path="url(#clip0_3005_27959)">
<path d="M134.993 50.54L135.247 65.357H135.12L130.83 50.5455H123.774V69.2015H128.438L128.185 53.884H128.311L132.909 69.2015H139.658V50.5455L134.993 50.54ZM46.1685 50.54L42.643 69.394H47.747L50.332 52.245H50.4585L52.983 69.394H58.021L54.556 50.5455L46.1685 50.54ZM74.664 50.54L72.332 64.917H72.2055L69.8735 50.5455H62.19L61.8105 69.394H66.5405L66.667 52.4375H66.7275L69.879 69.394H74.6695L77.821 52.4375H77.9475L78.074 69.394H82.804L82.364 50.5455L74.664 50.54ZM34.701 64.037C34.8444 64.4854 34.8653 64.9639 34.7615 65.423C34.635 66.05 34.195 66.6825 32.9355 66.6825C31.7365 66.6825 31.0435 65.9895 31.0435 64.9775V63.1515H26V64.6035C26 68.8275 29.3385 70.087 32.875 70.087C36.274 70.087 39.112 68.888 39.552 65.797C39.805 64.158 39.618 63.091 39.552 62.7115C38.672 58.7405 31.4835 57.602 30.9775 55.3965C30.9146 55.064 30.9146 54.7226 30.9775 54.39C31.104 53.7575 31.5495 53.125 32.6825 53.125C33.8155 53.125 34.4425 53.8235 34.4425 54.83V55.963H39.1725V54.643C39.1725 50.5455 35.4545 49.913 32.809 49.913C29.465 49.913 26.693 51.046 26.187 54.0765C26.0215 54.9107 26.044 55.7712 26.253 56.5955C27.0065 60.5005 33.755 61.639 34.701 64.0315M96.037 64.0315C96.224 64.4715 96.158 65.0435 96.0975 65.423C95.971 66.05 95.531 66.6825 94.2715 66.6825C93.0725 66.6825 92.3795 65.9895 92.3795 64.9775V63.1515H87.336V64.6035C87.336 68.7615 90.614 70.021 94.145 70.021C97.5495 70.021 100.322 68.888 100.762 65.7365C101.015 64.0975 100.828 63.091 100.762 62.6455C100.008 58.7405 92.88 57.5415 92.3795 55.3965C92.316 55.064 92.316 54.7225 92.3795 54.39C92.506 53.7575 92.946 53.125 94.0845 53.125C95.1515 53.125 95.8445 53.8235 95.8445 54.83V55.963H100.508V54.643C100.508 50.5455 96.851 49.913 94.2055 49.913C90.867 49.913 88.1555 50.9855 87.6495 54.0765C87.523 54.896 87.523 55.6495 87.7155 56.5955C88.469 60.5005 95.0855 61.573 96.037 64.0315ZM111.921 66.556C113.241 66.556 113.626 65.676 113.747 65.17C113.813 64.9775 113.813 64.664 113.813 64.477V50.54H118.598V64.092C118.598 64.4715 118.598 65.1645 118.543 65.357C118.224 68.8825 115.452 70.0155 111.982 70.0155C108.517 70.0155 105.744 68.8825 105.425 65.3515C105.425 65.1645 105.365 64.4715 105.365 64.092V50.54H110.15V64.4715C110.15 64.7245 110.15 64.972 110.216 65.1645C110.216 65.665 110.601 66.5505 111.921 66.5505M151.257 66.3635C152.643 66.3635 153.083 65.4835 153.209 64.972C153.27 64.785 153.27 64.4715 153.27 64.279V61.5675H151.317V58.7955H158V63.839C158 64.2185 158 64.4715 157.94 65.104C157.621 68.569 154.656 69.7625 151.317 69.7625C147.979 69.7625 145.015 68.569 144.701 65.0985C144.635 64.4715 144.635 64.2185 144.635 63.839V55.897C144.635 55.5835 144.701 54.951 144.701 54.632C145.141 51.1065 147.979 49.9735 151.317 49.9735C154.656 49.9735 157.56 51.1065 157.934 54.6375C158 55.204 158 55.897 158 55.897V56.5295H153.27V55.457C153.27 55.457 153.27 55.017 153.209 54.764C153.143 54.324 152.769 53.378 151.317 53.378C149.931 53.378 149.557 54.258 149.425 54.764C149.365 55.0115 149.365 55.3305 149.365 55.644V64.279C149.365 64.532 149.365 64.785 149.425 64.972C149.425 65.478 149.932 66.3635 151.257 66.3635Z" fill="white"/>
</g>
<defs>
<clipPath id="clip0_3005_27959">
<rect width="182.5" height="120" fill="white" transform="translate(0.5)"/>
</clipPath>
</defs>
</svg>
