<svg width="183" height="120" viewBox="0 0 183 120" fill="none" xmlns="http://www.w3.org/2000/svg">
<path d="M113.86 44.8665C113.86 44.8665 111.722 45.7215 109.238 48.4575C106.749 51.1983 105.305 54.2763 106.374 55.0933C106.787 55.4068 107.737 55.4685 109.461 53.9058C111.048 52.5264 112.294 50.7981 113.1 48.8565C114.211 46.149 113.86 44.8998 113.86 44.8665ZM127.459 49.797C124.699 48.3768 122.681 46.643 120.581 45.5695C118.577 44.5435 117.28 44.1113 115.66 44.3298C115.435 44.37 115.213 44.4255 114.995 44.496C114.995 44.496 115.831 47.346 112.511 52.1293C109.148 56.9838 106.098 56.9505 105.229 55.6158C104.322 54.2098 105.495 51.3408 107.452 48.79C109.504 46.1205 113.105 43.907 113.105 43.907C113.105 43.907 111.96 43.204 109.138 44.8095C106.383 46.358 101.648 50.0678 97.254 56.3188C92.8555 62.5698 91.9815 66.0088 91.3545 68.7163C90.7275 71.4238 91.2975 74.3213 94.2995 74.3213C97.3015 74.3213 100.797 69.7423 101.785 68.151C103.619 65.187 104.811 60.6413 102.317 61.2635C101.087 61.5723 100.094 62.9308 99.4675 64.2418C99.0715 65.0834 98.7689 65.9658 98.565 66.8733C97.6921 67.2321 96.8723 67.7083 96.1282 68.2888C95.3017 68.9023 94.5294 69.5857 93.8197 70.3313C93.8197 70.3313 93.8292 68.1653 95.5535 64.6598C97.2825 61.159 100.446 59.5583 102.241 59.4063C103.856 59.278 105.961 60.6508 104.179 65.7095C102.398 70.7683 97.1352 76.9195 91.611 76.9955C86.5142 77.0668 83.175 70.5593 90.2715 59.2068C98.128 46.6525 107.343 42.805 110.331 42.3775C113.323 41.95 114.297 43.2658 114.297 43.2658C116.097 42.5281 118.041 42.2081 119.983 42.33C123.64 42.577 126.462 45.161 130.195 46.9803C129.221 47.9065 128.295 48.8803 127.464 49.7923M143.87 45.5648C141.339 47.1893 137.838 48.6618 134.47 48.3483C133.62 49.227 132.708 50.2483 131.796 51.3598C137.629 52.514 142.745 48.8945 145.462 45.8165C146.453 44.712 147.305 43.49 147.998 42.178C146.76 43.4666 145.375 44.6002 143.87 45.5648ZM136.099 62.014C136.144 61.9373 136.181 61.8561 136.209 61.7718C136.192 61.6376 136.129 61.5135 136.031 61.42C135.934 61.3266 135.807 61.2697 135.672 61.2588C135.116 61.235 134.356 61.3395 132.371 63.5388C130.721 65.3576 129.301 67.3725 128.143 69.538C127.003 71.6185 126.542 73.167 127.193 73.566C127.407 73.6773 127.655 73.7027 127.887 73.6373C128.328 73.5328 128.832 73.1148 129.597 72.236C129.953 71.818 130.347 71.229 130.822 70.5783C132.138 68.7923 135.444 63.154 136.099 62.014ZM115.442 64.408C115.774 63.5435 116.197 61.8383 115.318 61.1685C114.373 60.456 111.969 62.1233 111.955 63.8333C111.941 65.586 113.651 66.3745 114.059 66.4885C114.297 66.5503 114.373 66.536 114.487 66.3508C114.85 65.7261 115.169 65.0769 115.442 64.408ZM113.622 67.5905C113.026 67.3152 112.47 66.9605 111.969 66.536C111.468 66.1147 111.05 65.6041 110.734 65.0303C110.696 64.9733 110.663 65.016 110.625 65.0683C110.592 65.1158 110.44 65.2535 109.157 67.1298C107.875 69.0108 105.908 72.9058 107.685 73.566C108.83 73.9935 110.73 71.9938 111.77 70.6685C112.474 69.7424 113.112 68.7679 113.679 67.752C113.736 67.6428 113.679 67.6143 113.622 67.5905ZM133.848 72.0888C133.363 72.863 132.812 74.3498 134.404 73.4235C136.351 72.3025 139.125 68.0893 139.125 68.0893H140.384C139.239 69.8508 137.964 71.5243 136.57 73.0958C134.598 75.2808 132.19 77.271 130.49 77.0715C128.514 76.8435 129.131 74.2405 129.131 74.2405C129.131 74.2405 126.3 77.2568 124.334 77.043C121.688 76.7485 122.495 73.4758 122.495 73.4758C122.495 73.4758 119.503 77.1523 117.46 77.0383C114.264 76.8483 115.066 72.958 115.959 70.2173C116.434 68.7543 116.876 67.6048 116.876 67.6048C116.876 67.6048 116.558 67.6855 115.879 67.7853C115.518 67.8375 114.872 67.8755 114.872 67.8755C114.872 67.8755 113.542 70.2268 112.473 71.6375C111.409 73.0483 106.877 77.917 104.208 76.9433C101.747 76.0408 102.564 72.2693 103.999 69.272C106.089 64.902 111.979 58.6178 115.38 59.449C118.9 60.304 115.461 66.726 115.461 66.726C115.461 66.726 115.461 66.7498 115.494 66.7688C115.565 66.7925 115.75 66.8163 116.173 66.7308C116.613 66.6422 117.043 66.515 117.46 66.3508C117.46 66.3508 121.004 58.936 124.913 54.0815C128.822 49.2365 136.622 40.8765 139.686 42.9C140.427 43.3988 140.094 45.1088 139.087 47.1845C138.633 47.332 138.172 47.4556 137.705 47.555C138.379 46.3295 138.826 45.2988 138.959 44.5768C139.42 42.0688 133.568 47.3555 129.388 53.0318C126.868 56.4554 124.63 60.0772 122.695 63.8618C123.45 63.4014 124.171 62.8871 124.851 62.3228C126.717 60.777 128.491 59.1227 130.162 57.3685C131.77 55.7215 133.279 53.9799 134.679 52.153C135.125 52.1313 135.569 52.0854 136.009 52.0153C134.481 54.0885 132.815 56.0563 131.022 57.9053C129.359 59.5915 127.554 61.406 125.982 62.7265C124.581 63.9162 123.104 65.0126 121.56 66.0088C121.56 66.0088 117.902 73.3855 119.892 73.8558C121.061 74.1408 123.369 70.5783 123.369 70.5783C123.369 70.5783 126.386 65.985 128.2 63.9093C130.68 61.0925 132.808 59.4633 134.945 59.4348C136.185 59.411 136.916 60.7315 136.916 60.7315L137.501 59.829H141.096C141.096 59.829 134.38 71.2195 133.843 72.0793M143.87 45.5743C141.339 47.194 137.838 48.6665 134.47 48.353C133.615 49.2318 132.708 50.253 131.791 51.3645C137.629 52.5188 142.74 48.904 145.462 45.8213C146.453 44.7152 147.305 43.4917 147.998 42.178C146.76 43.4666 145.375 44.6002 143.87 45.5648M93.378 51.1603H89.958L88.0247 54.2858H91.4447L93.378 51.1603ZM77.1805 61.976C78.6387 59.981 82.6525 52.9938 82.6525 52.9938C82.6357 52.8604 82.5737 52.7368 82.4769 52.6434C82.3802 52.5501 82.2544 52.4927 82.1205 52.4808C81.5647 52.4523 80.6385 52.6423 78.7955 54.946C76.9572 57.2498 75.5275 59.0785 74.4872 60.988C73.3472 63.0685 72.8437 64.5363 73.504 64.9353C73.7157 65.0414 73.9589 65.0667 74.188 65.0065C74.6155 64.902 75.176 64.4698 75.9407 63.591C76.3762 63.0689 76.7913 62.5301 77.1852 61.976M58.836 52.5235C57.8907 51.811 55.4872 53.4783 55.473 55.1835C55.4587 56.9363 57.639 57.473 57.9192 57.4825C58.0013 57.4899 58.0838 57.4734 58.1567 57.435C58.207 57.405 58.2468 57.3602 58.2707 57.3068C58.5281 56.8043 58.7595 56.2891 58.9642 55.763C59.2967 54.8938 59.7147 53.1933 58.836 52.5235ZM57.411 58.556C56.7594 58.3516 56.1368 58.0642 55.5585 57.701C54.9967 57.3352 54.5399 56.8294 54.2332 56.2333C54.2 56.1763 54.162 56.219 54.1287 56.2713C54.0955 56.3188 53.9055 56.561 52.6182 58.4468C51.3357 60.3373 49.4262 64.1943 51.2122 64.8593C52.3522 65.2868 54.2712 63.2728 55.3162 61.9523C56.0971 60.9157 56.8187 59.8357 57.4775 58.7175C57.5202 58.6035 57.4775 58.575 57.411 58.556ZM85.341 59.715H86.5902C86.5902 59.715 80.3155 68.797 76.7672 68.3743C74.7912 68.1415 75.3755 65.7 75.3755 65.7C75.3755 65.7 72.5967 68.9538 70.0412 68.2935C67.728 67.6998 69.2242 63.8475 69.2242 63.8475C68.9582 63.952 63.947 69.5998 60.4225 68.246C56.7365 66.821 58.6507 62.09 59.3537 60.6698C59.9475 59.468 60.603 58.2995 60.603 58.2995C60.603 58.2995 60.0377 58.461 59.6767 58.5418L58.7932 58.7318C58.7932 58.7318 57.05 61.5628 55.986 62.9783C54.9172 64.389 50.3905 69.2483 47.721 68.284C45.0515 67.315 45.7117 63.5815 47.2127 60.6128C49.6447 55.8058 55.4112 49.8968 58.8882 50.7898C62.3985 51.6875 59.4915 57.3828 59.4915 57.3828C59.4915 57.3828 60.1897 57.473 61.8665 56.3283C64.2747 54.6848 67.4525 50.2625 70.8962 50.785C72.5207 51.0273 74.0312 52.685 71.965 55.839C71.3047 56.8508 70.198 57.7533 69.3525 56.8603C68.8252 56.2998 69.286 55.2928 69.8417 54.5945C70.0573 54.312 70.339 54.0867 70.662 53.9384C70.985 53.7902 71.3394 53.7235 71.6942 53.7443C71.6942 53.7443 72.2642 52.4475 70.8155 52.4665C69.6422 52.4903 66.6782 55.2215 65.0062 57.9765C63.472 60.5083 61.1445 64.8213 63.4767 65.7618C65.619 66.6263 69.6945 61.7908 71.5802 59.2543C73.466 56.7225 77.7647 50.9798 81.3747 50.7518C82.6145 50.671 83.3555 51.8015 83.3555 51.8015L83.7735 51.1413H87.3787C87.3787 51.1413 80.5862 62.4795 80.0542 63.3345C79.6362 64.0043 79.0852 65.5195 80.61 64.6693C82.1395 63.8238 85.341 59.715 85.341 59.715ZM83.3745 77.879C80.7191 76.0402 77.5391 75.1119 74.3115 75.2333C73.4389 75.2573 72.5842 75.4866 71.8167 75.9025C71.0493 76.3185 70.3905 76.9093 69.894 77.6273C68.5165 75.2285 65.7995 73.756 61.5957 73.7893C54.8032 73.8653 48.063 77.0003 42.7287 76.9955C37.613 76.9955 33.8795 73.7798 34.003 68.0655C34.2262 58.0478 42.6955 49.0228 49.013 44.9615C52.6562 42.634 55.7057 41.9358 57.696 42.159C59.1495 42.3205 60.8975 44.002 59.7955 46.4768C58.1757 50.0915 55.9385 49.797 56.0192 48.068C56.0667 46.9423 56.8172 46.2345 57.3777 45.8403C57.7841 45.6244 58.238 45.5133 58.6982 45.5173C59.0212 45.2465 59.254 43.2658 56.6605 43.9165C54.067 44.5673 50.913 47.1275 47.9205 50.4288C44.928 53.7348 40.273 59.981 39.1235 66.5408C38.5867 69.5808 38.9382 75.1288 46.1535 75.067C52.2667 75.0195 61.2822 70.9868 69.5662 71.0723C72.4505 71.0609 75.2833 71.836 77.76 73.3143C79.9022 74.6348 82.472 76.5633 83.384 77.879" fill="white"/>
</svg>
