<svg width="170" height="170" viewBox="0 0 170 170" fill="none" xmlns="http://www.w3.org/2000/svg">
    <g clip-path="url(#clip0_3005_28709)">
        <path
            d="M154.942 43.6881C154.875 43.3919 154.789 43.1092 154.697 42.8171C154.662 42.7273 154.643 42.6404 154.608 42.5507C154.126 41.1033 153.382 39.67 152.37 38.2833L152.357 38.2643L152.35 38.2548C152.039 37.8166 151.7 37.3987 151.328 36.9753C151.288 36.9182 151.254 36.8705 151.195 36.8269C150.957 36.5519 150.702 36.2741 150.439 36.0031C150.212 35.7634 149.975 35.5305 149.738 35.2976C149.595 35.1559 149.458 35.0238 149.305 34.8889C148.929 34.5401 148.52 34.1858 148.086 33.8355C148.013 33.7728 147.946 33.7197 147.873 33.657C145.024 31.3547 141.094 29.0028 135.745 26.7697C135.604 26.7122 135.463 26.6548 135.315 26.5878C134.571 26.2853 133.81 25.9801 133.014 25.6856L132.919 25.6527L132.533 25.5116C104.471 15.1782 60.6162 15.8979 34.1338 27.144L33.7367 27.311C33.7271 27.3178 33.7176 27.3245 33.7081 27.3313C33.6985 27.338 33.6795 27.3515 33.6632 27.3488L33.5734 27.3838C29.8631 28.998 26.6112 30.7738 23.9045 32.6927C22.4368 33.7332 21.1454 34.8205 20.0196 35.9191C19.972 35.9529 19.9243 35.9867 19.8997 36.0327C19.4458 36.4833 19.0408 36.9422 18.6521 37.4039C18.5389 37.527 18.4067 37.6637 18.3098 37.7896C17.981 38.1945 17.6943 38.5981 17.4144 39.0112C17.2806 39.2063 17.1237 39.389 16.9967 39.5936C16.8041 39.8876 16.6508 40.1966 16.4908 40.4961L16.4162 40.4917L16.417 40.6343C16.417 40.6343 16.3951 40.6641 16.3923 40.6804C16.257 40.9338 16.0985 41.1749 15.9794 41.4311C15.8234 41.7564 15.7094 42.0805 15.586 42.4113C15.4681 42.7096 15.3339 43.0051 15.2418 43.2994C15.1497 43.5937 15.0997 43.8868 15.0306 44.1933C14.9492 44.523 14.8583 44.8593 14.8095 45.1945C14.7623 45.4713 14.7639 45.7564 14.7425 46.0292C14.7239 46.2857 14.6794 46.5462 14.6771 46.8055L14.6711 46.9385L14.7201 60.7436C14.703 60.9418 14.6697 61.1372 14.6689 61.3381L14.7092 75.2925C14.7017 75.4839 14.6684 75.6793 14.6608 75.8707L14.7039 89.8088C14.6868 90.007 14.6602 90.2119 14.6595 90.4128L14.6563 90.5295L14.7049 104.435L14.7144 123.578L14.6608 123.745L14.7192 123.746C14.7204 123.788 14.7149 123.821 14.7093 123.854C14.7161 124.207 14.7459 124.572 14.796 124.966C14.8079 125.043 14.8199 125.121 14.8223 125.205C14.8712 125.557 14.9363 125.911 15.0313 126.287C15.102 126.609 15.1986 126.927 15.2951 127.245C15.3098 127.306 15.3341 127.361 15.3488 127.422C15.8537 128.882 16.6073 130.308 17.619 131.695L17.6134 131.727L17.6325 131.714C17.9498 132.162 18.2958 132.589 18.6676 133.012C18.7013 133.06 18.7351 133.108 18.7851 133.158C19.0298 133.443 19.284 133.72 19.5478 133.991C19.7682 134.222 20.0049 134.454 20.2417 134.687C20.385 134.829 20.5217 134.961 20.6746 135.096C21.0507 135.445 21.4594 135.799 21.894 136.149C21.9603 136.203 22.0334 136.265 22.0997 136.318C24.9491 138.621 28.8791 140.973 34.2285 143.206C34.3695 143.263 34.5105 143.321 34.6515 143.378C35.3957 143.681 36.1563 143.986 36.9522 144.28L37.0471 144.313L37.4336 144.454C44.4029 147.013 52.3321 148.906 60.7445 150.127C62.886 150.44 65.052 150.708 67.2427 150.93C71.624 151.373 76.0943 151.639 80.5828 151.749C100.598 152.186 121.005 149.197 135.859 142.86L136.228 142.713L136.247 142.7L136.42 142.62C137.307 142.235 138.17 141.837 139.002 141.434C141.661 140.135 144.033 138.754 146.082 137.302C147.531 136.275 148.81 135.211 149.926 134.119C149.983 134.078 150.043 134.021 150.094 133.971C150.547 133.521 150.943 133.069 151.338 132.616C151.454 132.477 151.584 132.357 151.7 132.217C152.029 131.812 152.315 131.409 152.605 130.989C152.739 130.794 152.895 130.611 153.02 130.423C153.212 130.129 153.365 129.82 153.535 129.514L153.61 129.518L153.609 129.375C153.609 129.375 153.633 129.329 153.646 129.306C153.778 129.069 153.927 128.835 154.037 128.585C154.196 128.244 154.312 127.903 154.445 127.566C154.561 127.284 154.682 127.011 154.765 126.724C154.869 126.406 154.915 126.088 154.994 125.774C155.063 125.468 155.158 125.157 155.194 124.845C155.238 124.542 155.242 124.225 155.269 123.919C155.284 123.679 155.323 123.451 155.32 123.224L155.277 109.286C155.294 109.088 155.328 108.893 155.328 108.692L155.288 94.7373C155.296 94.5459 155.329 94.3506 155.33 94.1497L155.287 80.2115C155.304 80.0133 155.33 79.8084 155.338 79.617L155.263 56.2411L155.226 46.2914C155.226 46.2914 155.231 46.2168 155.23 46.1747C155.223 45.8217 155.196 45.4401 155.146 45.0463C155.14 44.9784 155.135 44.9105 155.114 44.8398C155.065 44.4881 155.003 44.1172 154.901 43.7314L154.942 43.6881ZM154.637 45.3786C154.661 45.676 154.695 45.9666 154.694 46.268C154.697 46.5951 154.661 46.9073 154.638 47.2384C154.613 47.5275 154.615 47.8126 154.565 48.1057C154.522 48.4083 154.436 48.7121 154.361 49.0091C154.292 49.3157 154.232 49.6155 154.147 49.9193C154.057 50.1974 153.935 50.4698 153.82 50.7518C153.69 51.0731 153.586 51.3904 153.43 51.7157C153.31 51.9719 153.152 52.2131 153.017 52.4665C152.884 52.7036 152.758 52.9503 152.6 53.1914C152.539 53.1057 152.478 53.02 152.417 52.9342L152.372 39.3558C153.57 41.168 154.317 43.0289 154.581 44.9168C154.605 45.0717 154.603 45.2305 154.617 45.3921L154.637 45.3786ZM154.645 124.777C154.602 125.079 154.519 125.367 154.443 125.664C154.374 125.97 154.321 126.28 154.22 126.581C154.14 126.852 154.011 127.115 153.908 127.374C153.806 127.633 153.712 127.885 153.593 128.141L153.561 118.016C154.107 119.19 154.491 120.378 154.661 121.588C154.675 121.607 154.669 121.639 154.666 121.656C154.72 122.075 154.749 122.499 154.751 122.927C154.754 123.254 154.717 123.566 154.694 123.897C154.67 124.186 154.669 124.487 154.629 124.774L154.645 124.777ZM152.11 130.695C151.824 131.099 151.546 131.496 151.218 131.901C151.111 132.033 150.982 132.154 150.866 132.293C150.48 132.739 150.097 133.168 149.662 133.605C149.602 133.662 149.532 133.725 149.472 133.782C148.388 134.837 147.156 135.868 145.755 136.861C145.088 137.334 144.388 137.801 143.649 138.254C143.471 138.366 143.286 138.468 143.101 138.571C142.54 138.911 141.963 139.249 141.37 139.583C141.064 139.757 140.728 139.91 140.405 140.081C139.907 140.348 139.409 140.615 138.888 140.87C138.514 141.05 138.114 141.233 137.724 141.41C137.295 141.613 136.867 141.817 136.415 142.008L136.396 137.456L136.364 128.119L136.412 128.085C140.131 126.464 143.386 124.672 146.074 122.766C146.731 122.3 147.35 121.819 147.935 121.332C148.031 121.265 148.126 121.197 148.215 121.12C148.712 120.71 149.153 120.283 149.602 119.865C149.763 119.708 149.946 119.563 150.098 119.413C150.492 119.019 150.827 118.624 151.188 118.225C151.355 118.035 151.547 117.842 151.704 117.659C152.001 117.29 152.257 116.923 152.521 116.55C152.565 116.49 152.609 116.43 152.653 116.371C152.771 116.559 152.881 116.753 152.99 116.948L153.031 129.227C152.852 129.54 152.699 129.849 152.503 130.159C152.389 130.341 152.241 130.517 152.11 130.695ZM133.414 143.248C133.001 143.413 132.574 143.558 132.144 143.719C131.688 143.885 131.24 144.06 130.784 144.225C130.454 144.345 130.117 144.455 129.789 144.559C129.211 144.754 128.64 144.958 128.056 145.144C127.869 145.204 127.676 145.255 127.49 145.316C120.712 147.43 113.169 148.971 105.269 149.948L105.222 135.984C116.519 134.588 127.109 132.032 135.806 128.342L135.855 142.248C135.429 142.435 134.99 142.603 134.548 142.788C134.17 142.941 133.799 143.104 133.414 143.248ZM45.6841 146.477C45.0832 146.316 44.5013 146.142 43.9262 145.977C43.5505 145.871 43.1748 145.766 42.8086 145.653C42.3706 145.52 41.9353 145.371 41.4972 145.237C41.0036 145.086 40.5099 144.935 40.0285 144.762C39.6786 144.652 39.3411 144.519 39.0007 144.402C38.4868 144.223 37.9566 144.041 37.4522 143.854L37.4119 129.9L37.4675 129.918C44.4369 132.477 52.3661 134.369 60.7785 135.59C62.9199 135.904 65.0859 136.172 67.2766 136.393C67.9105 136.459 68.5375 136.515 69.1742 136.565L69.2184 150.545C61.1734 149.823 53.394 148.525 46.2754 146.645C46.0828 146.595 45.8902 146.546 45.6976 146.496L45.6841 146.477ZM36.8691 143.638C36.3254 143.437 35.8008 143.222 35.2761 143.007C35.0402 142.917 34.7975 142.817 34.5616 142.726C33.8662 142.432 33.187 142.141 32.5269 141.836C32.4185 141.784 32.2843 141.736 32.1759 141.684C27.4373 139.505 23.6244 137.055 20.7805 134.377C19.778 133.427 18.9209 132.461 18.1833 131.481L18.1391 117.844C18.2972 118.047 18.4878 118.255 18.6554 118.451C18.7027 118.518 18.7527 118.568 18.8095 118.628C19.0407 118.894 19.2814 119.152 19.5384 119.414C19.7723 119.663 20.0158 119.906 20.2756 120.151C20.4122 120.283 20.5489 120.415 20.695 120.54C21.0779 120.899 21.4961 121.246 21.9279 121.613C21.9942 121.666 22.0605 121.719 22.1269 121.772C24.9763 124.075 28.8967 126.433 34.2557 128.66C34.4034 128.727 34.5539 128.777 34.7017 128.844C35.3903 129.129 36.1048 129.41 36.8356 129.693L36.8464 133.263L36.8759 143.647L36.8691 143.638ZM16.673 129.088C16.4601 128.666 16.273 128.241 16.1117 127.811C16.066 127.686 16.0271 127.571 15.9909 127.439C15.8781 127.118 15.772 126.807 15.685 126.482C15.6274 126.28 15.5956 126.073 15.5543 125.874C15.505 125.622 15.4394 125.368 15.4064 125.12C15.3707 124.888 15.3607 124.651 15.3508 124.415C15.338 124.195 15.309 123.972 15.3058 123.746C15.303 123.418 15.3395 123.106 15.3625 122.775C15.3867 122.486 15.3878 122.185 15.4283 121.898C15.4715 121.596 15.5636 121.302 15.6232 121.002C15.6922 120.695 15.7518 120.395 15.8371 120.091C15.9264 119.813 16.0483 119.541 16.1539 119.266C16.2842 118.944 16.3913 118.611 16.5541 118.295C16.6705 118.055 16.8289 117.814 16.9548 117.567C17.0902 117.314 17.2323 117.07 17.384 116.819C17.4447 116.905 17.5055 116.991 17.5663 117.077L17.616 130.681C17.2705 130.153 16.9479 129.637 16.6865 129.107C16.6865 129.107 16.6798 129.098 16.673 129.088ZM15.3417 45.218C15.3849 44.9154 15.4703 44.6115 15.5461 44.3145C15.6152 44.0079 15.6747 43.7081 15.7696 43.3975C15.8561 43.1358 15.9752 42.8796 16.0781 42.6206C16.1809 42.3617 16.277 42.0932 16.3988 41.8207L16.4359 52.0134C16.2944 51.7129 16.1463 51.4029 16.0307 51.0984C16.0036 51.0603 16.0025 51.0182 15.985 50.9734C15.8479 50.5982 15.7339 50.2354 15.6389 49.859C15.6135 49.7626 15.5881 49.6661 15.5626 49.5696C15.4744 49.2028 15.412 48.832 15.3496 48.4612C15.3349 48.4 15.3202 48.3389 15.3218 48.2805C15.265 47.8772 15.2502 47.4726 15.245 47.0612C15.2354 46.7245 15.2747 46.3961 15.2977 46.0649C15.3124 45.7826 15.327 45.5003 15.358 45.2207L15.3417 45.218ZM17.7917 39.4021C18.0935 38.9591 18.4115 38.519 18.7717 38.0776C18.8249 38.0112 18.8849 37.9544 18.9381 37.8881C20.3334 36.2405 22.0965 34.6471 24.2409 33.1269C26.8428 31.2823 29.9792 29.5454 33.5739 27.9702L33.6105 38.2633L33.6158 41.8663L33.5681 41.9001C29.8578 43.5143 26.6221 45.2929 23.9059 47.2186C22.4287 48.2658 21.1278 49.3598 19.9925 50.4652C19.9543 50.4922 19.9258 50.5125 19.8944 50.5491C19.431 51.0064 19.0164 51.472 18.6086 51.9472C18.505 52.0636 18.3851 52.1773 18.2882 52.3032C17.9499 52.7148 17.6604 53.1347 17.3614 53.5613C17.3423 53.5748 17.3272 53.6142 17.3082 53.6277C17.1894 53.4399 17.0937 53.2645 16.9912 53.0795L16.9515 40.7419C17.1306 40.4289 17.2839 40.1199 17.4887 39.8029C17.5789 39.6675 17.7044 39.5212 17.7945 39.3858L17.7917 39.4021ZM36.646 26.7083C44.8105 23.5394 54.4731 21.3121 64.7172 20.0464L64.771 34.0199C53.4836 35.4097 42.8937 37.9652 34.1868 41.6618L34.1315 27.7467C34.9543 27.3924 35.7906 27.0571 36.6528 26.7178L36.646 26.7083ZM118.385 22.0591C119.194 22.2301 119.983 22.4146 120.773 22.5991C120.982 22.6514 121.194 22.6874 121.393 22.7464C122.085 22.9143 122.751 23.0862 123.424 23.2676C123.721 23.3432 124.034 23.4216 124.331 23.4973C124.916 23.6553 125.498 23.8296 126.073 23.9944C126.448 24.1002 126.824 24.2059 127.19 24.3184C127.7 24.4722 128.207 24.6422 128.717 24.7959C129.13 24.933 129.551 25.0633 129.964 25.2004C130.431 25.3554 130.88 25.5238 131.339 25.6855C131.741 25.8294 132.153 25.9665 132.547 26.1171L132.594 40.0811L132.538 40.0633C123.292 36.6567 112.324 34.4568 100.838 33.4254L100.794 19.4452C106.759 19.982 112.588 20.8305 118.102 22.0025C118.19 22.0259 118.288 22.0425 118.385 22.0591ZM135.382 27.2274C143.079 30.4293 148.68 34.3303 151.814 38.549L151.86 52.1274C151.702 51.9246 151.525 51.7353 151.357 51.5393C151.31 51.4726 151.246 51.4031 151.189 51.3432C150.965 51.0873 150.724 50.8285 150.483 50.5698C150.25 50.3206 149.983 50.0659 149.716 49.8111C149.58 49.679 149.45 49.5564 149.313 49.4243C148.93 49.066 148.505 48.7089 148.08 48.3518C148.014 48.2987 147.955 48.255 147.888 48.2019C145.032 45.8901 141.118 43.5409 135.753 41.3051C135.612 41.2476 135.464 41.1806 135.313 41.1299C134.625 40.8453 133.91 40.5646 133.17 40.288L133.123 26.324C133.588 26.4952 134.034 26.6799 134.48 26.8647C134.778 26.9824 135.093 27.1029 135.382 27.2274ZM154.636 59.9628C154.664 60.2439 154.684 60.5155 154.696 60.7938C154.698 61.121 154.669 61.4426 154.639 61.7643C154.615 62.0533 154.616 62.3384 154.566 62.6315C154.523 62.9341 154.438 63.2379 154.369 63.5445C154.293 63.8415 154.25 64.1441 154.148 64.4452C154.056 64.7395 153.925 65.0187 153.809 65.3007C153.734 65.4973 153.661 65.6776 153.586 65.8742L153.558 56.0183C154.07 57.144 154.436 58.2869 154.592 59.4359C154.62 59.6165 154.622 59.8012 154.643 59.9723L154.636 59.9628ZM151.248 117.338C151.132 117.478 150.993 117.605 150.886 117.738C150.51 118.176 150.127 118.605 149.692 119.042C149.622 119.106 149.543 119.176 149.474 119.24C148.398 120.288 147.17 121.303 145.769 122.296C145.102 122.769 144.402 123.236 143.663 123.688C143.494 123.794 143.309 123.896 143.124 123.999C142.554 124.346 141.977 124.683 141.374 125.025C141.077 125.192 140.748 125.354 140.445 125.512C139.937 125.786 139.432 126.044 138.892 126.312C138.518 126.491 138.128 126.668 137.754 126.847C137.325 127.051 136.881 127.252 136.436 127.452L136.394 113.556L136.442 113.523C137.328 113.137 138.192 112.74 139.023 112.336C141.226 111.262 143.212 110.125 145.007 108.939C148.215 111.101 150.692 113.424 152.346 115.858C152.278 115.964 152.193 116.067 152.118 116.163C151.841 116.56 151.564 116.956 151.238 117.345L151.248 117.338ZM48.6399 132.688C47.9087 132.506 47.1871 132.316 46.4722 132.136C46.2077 132.066 45.9499 132.005 45.6854 131.935C45.1334 131.782 44.6071 131.626 44.0646 131.467C43.6496 131.346 43.225 131.232 42.81 131.111C42.395 130.99 41.9923 130.846 41.5868 130.719C41.0701 130.555 40.5371 130.389 40.0299 130.219C39.6963 130.112 39.375 129.982 39.0414 129.875C38.5112 129.693 37.9742 129.501 37.4535 129.312L37.4065 115.348L37.4621 115.366C46.7013 118.763 57.6436 120.967 69.1037 122.002L69.1479 135.983C62.068 135.349 55.1989 134.264 48.7999 132.732C48.7443 132.715 48.6859 132.713 48.6303 132.695L48.6399 132.688ZM34.5562 128.175C33.9001 127.896 33.267 127.629 32.6463 127.339C32.4918 127.262 32.3345 127.202 32.1705 127.132C27.4319 124.953 23.619 122.504 20.7819 119.835C19.7794 118.885 18.9222 117.919 18.1846 116.939L18.1773 115.656C18.3957 115.358 18.5883 115.064 18.8297 114.778C18.977 114.602 19.1569 114.432 19.3042 114.256C19.6561 113.863 19.9916 113.468 20.3855 113.074C20.5273 112.931 20.7016 112.793 20.8529 112.643C21.2917 112.231 21.7305 111.82 22.2086 111.424C22.3039 111.356 22.4087 111.282 22.4973 111.205C23.0707 110.741 23.6604 110.28 24.2989 109.828C24.5277 109.665 24.7985 109.502 25.0272 109.34C27.4842 110.947 30.5181 112.56 34.2407 114.115C34.3817 114.172 34.5227 114.23 34.6705 114.297C35.3429 114.579 36.0343 114.847 36.7583 115.121L36.8054 129.085C36.3498 128.907 35.8943 128.729 35.455 128.554C35.1567 128.436 34.8422 128.315 34.5372 128.188L34.5562 128.175ZM15.9282 118.281C15.6749 118.832 15.4447 119.396 15.2728 119.962L15.254 112.461C15.2822 112.542 15.3008 112.629 15.329 112.709C15.3437 112.77 15.368 112.824 15.3827 112.885C15.6524 113.71 16.0159 114.526 16.4569 115.33L16.4686 117.225C16.3142 117.492 16.1923 117.764 16.0704 118.037C16.0307 118.122 15.9842 118.198 15.9445 118.284L15.9282 118.281ZM15.7491 57.9532C15.8412 57.6589 15.9727 57.3796 16.081 57.0881C16.1716 56.8522 16.2621 56.6163 16.3717 56.3669L16.4087 66.5595C16.2673 66.259 16.1258 65.9585 16.0102 65.6541C15.986 65.5997 15.9713 65.5385 15.9538 65.4937C15.8207 65.1444 15.7162 64.7748 15.6185 64.4147C15.5863 64.3087 15.5541 64.2027 15.5315 64.09C15.45 63.7326 15.3781 63.3686 15.3292 63.0168C15.324 62.9489 15.3026 62.8783 15.2974 62.8104C15.2775 62.6813 15.2902 62.5578 15.2704 62.4288L15.2618 60.7603C15.2618 60.7603 15.2677 60.6273 15.2693 60.5689C15.2907 60.2962 15.2863 60.0273 15.3403 59.7601C15.3863 59.4412 15.4745 59.1211 15.5531 58.8078C15.6193 58.5175 15.6666 58.2407 15.7654 57.9559L15.7491 57.9532ZM18.7485 52.6495C18.8549 52.5168 18.9939 52.3897 19.1098 52.2502C19.4863 51.8116 19.879 51.3758 20.3043 50.9455C20.3519 50.9117 20.4119 50.8548 20.4528 50.8115C21.5472 49.7494 22.7977 48.7055 24.2177 47.6988C26.8196 45.8543 29.956 44.1174 33.5602 42.5354L33.6032 55.4432L33.6088 56.441L33.5612 56.4748C30.331 57.8774 27.471 59.4184 24.9867 61.0651C23.3777 59.9873 21.9427 58.8722 20.7007 57.706C19.6982 56.7565 18.841 55.7898 18.1034 54.81L18.109 54.7774L18.0899 54.7909C17.9346 54.5719 17.786 54.3623 17.6442 54.1623C17.7221 54.0499 17.8094 53.9307 17.8968 53.8115C18.1711 53.4309 18.4388 53.0408 18.7552 52.659L18.7485 52.6495ZM115.314 35.9871C116.174 36.1501 117.015 36.3266 117.856 36.5031C118.026 36.5403 118.212 36.5803 118.391 36.6108C119.102 36.7652 119.81 36.9358 120.511 37.0969C120.808 37.1726 121.108 37.2319 121.405 37.3076C121.992 37.4493 122.561 37.6046 123.139 37.7531C123.54 37.8549 123.951 37.9499 124.35 38.068C124.83 38.1999 125.301 38.3385 125.771 38.4772C126.252 38.6091 126.738 38.7505 127.209 38.8892C127.608 39.0072 127.988 39.1388 128.386 39.2568C128.919 39.4228 129.459 39.5984 129.982 39.7712C130.323 39.8877 130.647 40.0014 130.978 40.1247C131.508 40.307 132.038 40.4892 132.549 40.6851L132.596 54.649L132.541 54.6312C123.311 51.2274 112.375 49.0331 100.906 48.0044L100.862 34.0242C105.771 34.4652 110.586 35.1163 115.213 35.9867C115.252 36.0018 115.294 36.0006 115.327 36.0061L115.314 35.9871ZM135.354 41.7735C143.059 44.9849 148.669 48.8791 151.81 53.1074L151.809 54.3387C151.6 54.6299 151.401 54.9143 151.166 55.2095C150.988 55.422 150.776 55.629 150.588 55.8483C150.268 56.2043 149.964 56.5631 149.611 56.9135C149.44 57.0772 149.244 57.2449 149.064 57.4154C148.057 58.3583 146.952 59.2846 145.694 60.1765C145.466 60.3386 145.204 60.4953 144.966 60.6642C142.509 59.0569 139.475 57.4437 135.753 55.8893C135.605 55.8223 135.448 55.7621 135.307 55.7046C134.641 55.4322 133.943 55.1544 133.235 54.8833L133.195 40.9288C133.69 41.1218 134.178 41.3054 134.663 41.5052C134.899 41.5955 135.142 41.6954 135.377 41.7858L135.354 41.7735ZM154.047 66.2626C154.31 65.7042 154.54 65.1402 154.706 64.5651L154.731 72.0752C154.692 71.9597 154.663 71.8374 154.617 71.7124C154.617 71.7124 154.604 71.6933 154.597 71.6838C154.331 70.8847 153.997 70.0908 153.577 69.3156L153.569 67.2032C153.692 66.9728 153.798 66.7397 153.915 66.4998C153.945 66.4211 153.991 66.3453 154.031 66.2599L154.047 66.2626ZM154.73 109.403C154.708 109.675 154.703 109.951 154.665 110.221C154.619 110.54 154.534 110.844 154.455 111.157C154.389 111.447 154.339 111.74 154.247 112.035C154.158 112.313 154.036 112.585 153.921 112.867C153.827 113.119 153.727 113.362 153.618 113.611L153.579 103.477C154.124 104.65 154.508 105.838 154.672 107.039C154.676 107.065 154.68 107.09 154.684 107.116C154.708 107.271 154.696 107.437 154.711 107.598L154.718 109.225C154.718 109.225 154.715 109.341 154.713 109.4L154.73 109.403ZM143.476 109.265C142.801 109.687 142.103 110.096 141.382 110.492C141.124 110.633 140.849 110.77 140.59 110.911C140.038 111.202 139.485 111.493 138.91 111.773C138.552 111.955 138.174 112.108 137.8 112.288C137.355 112.488 136.908 112.705 136.447 112.903L136.431 109.508C136.767 109.356 137.077 109.208 137.404 109.062C137.932 108.817 138.476 108.574 138.987 108.326C139.444 108.102 139.869 107.873 140.309 107.646C140.724 107.423 141.153 107.22 141.552 106.994C141.599 106.961 141.654 106.936 141.708 106.912C142.696 107.457 143.622 108.017 144.504 108.594C144.221 108.78 143.961 108.979 143.664 109.146C143.607 109.187 143.543 109.218 143.479 109.249L143.476 109.265ZM133.415 128.706C133.075 128.833 132.726 128.966 132.37 129.09C131.841 129.293 131.321 129.49 130.779 129.674C130.529 129.765 130.255 129.844 130.005 129.936C129.357 130.152 128.715 130.378 128.05 130.592C127.944 130.624 127.838 130.657 127.732 130.689C120.89 132.834 113.267 134.403 105.28 135.399L105.233 121.435C116.504 120.043 127.075 117.501 135.753 113.824L135.759 115.509L135.802 127.73C135.459 127.873 135.117 128.015 134.758 128.156C134.306 128.347 133.864 128.531 133.406 128.713L133.415 128.706ZM45.7031 117.396C45.0466 117.217 44.4159 117.034 43.7784 116.842C43.4679 116.747 43.1478 116.659 42.8372 116.565C42.3042 116.399 41.7875 116.236 41.264 116.063C40.8585 115.935 40.453 115.808 40.0571 115.673C39.5892 115.518 39.1404 115.35 38.6889 115.198C38.2699 115.051 37.8576 114.914 37.4577 114.754L37.4445 111.443C37.7591 111.563 38.0927 111.67 38.4168 111.784C38.8914 111.948 39.3632 112.129 39.8474 112.287C40.227 112.418 40.6095 112.534 40.9987 112.659C41.548 112.827 42.0945 113.012 42.6533 113.174C42.9476 113.266 43.2446 113.342 43.5322 113.424C44.2022 113.622 44.8722 113.82 45.5545 113.994C45.6983 114.036 45.8516 114.07 45.9953 114.111C53.16 116.016 60.9978 117.315 69.0916 118.046L69.1004 121.432C61.0812 120.705 53.3181 119.411 46.2253 117.526C46.049 117.479 45.8794 117.442 45.7126 117.389L45.7031 117.396ZM34.5346 113.62C33.9801 113.384 33.442 113.15 32.9133 112.909C32.6572 112.79 32.3915 112.678 32.142 112.568C29.6955 111.44 27.5127 110.24 25.5649 108.987C25.8127 108.812 26.0605 108.636 26.3313 108.473C26.5096 108.361 26.7138 108.244 26.8921 108.132C27.3221 107.87 27.7685 107.611 28.2216 107.362C28.2351 107.381 28.2677 107.386 28.2907 107.398C28.7975 107.669 29.3206 107.942 29.8532 108.209C29.9846 108.273 30.1161 108.337 30.2543 108.411C30.7734 108.658 31.3088 108.908 31.8509 109.168C32.0149 109.238 32.1694 109.314 32.3239 109.391C32.8526 109.632 33.4002 109.859 33.9547 110.095C34.1418 110.178 34.3221 110.25 34.5091 110.332C35.0568 110.559 35.6303 110.782 36.2038 111.006C36.3841 111.078 36.5482 111.148 36.738 111.214L36.7444 114.515C36.3349 114.362 35.935 114.202 35.535 114.042C35.1974 113.909 34.8436 113.773 34.5155 113.634L34.5346 113.62ZM22.056 110.845C21.8503 111.02 21.6541 111.187 21.458 111.355C21.0057 111.747 20.5792 112.135 20.169 112.526C20.0395 112.647 19.9101 112.767 19.7874 112.897C19.2013 113.484 18.664 114.08 18.1756 114.684L18.1337 103.292C18.312 103.524 18.5229 103.761 18.7203 103.979C18.7339 103.998 18.7474 104.017 18.7676 104.045C19.0421 104.352 19.3165 104.658 19.6101 104.951C19.8103 105.152 20.0172 105.363 20.2404 105.577C20.3905 105.729 20.5502 105.873 20.7099 106.017C21.0793 106.357 21.4812 106.701 21.8995 107.049C21.9793 107.121 22.0619 107.177 22.1417 107.249C22.8714 107.834 23.6594 108.42 24.522 109.011C24.3409 109.139 24.1531 109.258 23.972 109.387C23.8577 109.468 23.7501 109.558 23.6357 109.639C23.0829 110.031 22.5599 110.445 22.0465 110.852L22.056 110.845ZM15.972 112.868C15.866 112.557 15.7666 112.255 15.6768 111.947C15.6288 111.738 15.5807 111.529 15.5489 111.322C15.4996 111.071 15.4408 110.826 15.4078 110.578C15.372 110.345 15.3621 110.109 15.3454 109.863C15.3326 109.643 15.3036 109.421 15.3004 109.194C15.2908 108.857 15.3301 108.529 15.3531 108.198C15.3745 107.925 15.3729 107.64 15.4201 107.363C15.4634 107.06 15.5582 106.75 15.6273 106.443C15.7031 106.146 15.7464 105.844 15.8385 105.549C15.9278 105.271 16.0497 104.999 16.1553 104.724C16.2403 104.52 16.3089 104.314 16.4007 104.12L16.436 114.028C16.3189 113.782 16.1949 113.526 16.1035 113.276C16.0511 113.141 16.0149 113.01 15.972 112.868ZM118.347 51.1541C119.211 51.3429 120.066 51.5385 120.911 51.7408C121.065 51.7753 121.218 51.8097 121.362 51.8509C122.102 52.0271 122.84 52.2196 123.569 52.4188C123.817 52.4862 124.058 52.544 124.306 52.6113C124.947 52.7872 125.577 52.9698 126.199 53.1592C126.519 53.2471 126.846 53.3446 127.166 53.4325C127.715 53.6013 128.248 53.7673 128.788 53.9428C129.177 54.0676 129.566 54.1925 129.948 54.3077C130.423 54.4722 130.888 54.6434 131.356 54.7984C131.752 54.9327 132.155 55.0766 132.541 55.2177L132.554 58.5288C132.24 58.4083 131.913 58.3108 131.589 58.1971C131.114 58.0326 130.649 57.8614 130.158 57.6942C129.746 57.5571 129.324 57.4267 128.912 57.2896C128.412 57.1291 127.904 56.9591 127.385 56.8122C127.002 56.6969 126.594 56.5856 126.212 56.4703C125.653 56.3083 125.094 56.1463 124.526 55.991C124.189 55.9003 123.843 55.8163 123.507 55.7256C122.864 55.5661 122.224 55.3902 121.571 55.2374C121.297 55.174 121.03 55.1202 120.765 55.0501C120.032 54.8834 119.291 54.7072 118.547 54.5473C118.362 54.5073 118.182 54.4769 117.997 54.4369C117.155 54.2604 116.305 54.0906 115.444 53.9276C115.379 53.9165 115.298 53.9027 115.233 53.8916C110.613 53.0307 105.807 52.3728 100.904 51.9414L100.896 48.5556C106.894 49.0979 112.755 49.952 118.282 51.143C118.298 51.1458 118.331 51.1514 118.347 51.1541ZM135.344 56.3224C138.794 57.7551 141.817 59.3329 144.396 61.0112C144.132 61.1841 143.891 61.3693 143.613 61.5231C143.48 61.6177 143.333 61.6933 143.193 61.7783C142.734 62.0606 142.243 62.3372 141.751 62.6139C141.738 62.5949 141.705 62.5894 141.682 62.5771C141.192 62.3094 140.682 62.0552 140.166 61.7915C140.011 61.715 139.85 61.6289 139.696 61.5524C139.209 61.3105 138.704 61.0821 138.207 60.847C138.014 60.7554 137.827 60.6733 137.633 60.5818C137.127 60.3534 136.612 60.1318 136.087 59.9169C135.877 59.8226 135.674 59.7377 135.454 59.6501C134.907 59.423 134.34 59.2093 133.783 58.9889C133.602 58.9164 133.422 58.8439 133.242 58.7713L133.235 55.4697C133.7 55.6409 134.146 55.8257 134.602 56.0036C134.861 56.1063 135.113 56.1995 135.363 56.3089L135.344 56.3224ZM147.978 59.1156C148.143 58.9844 148.301 58.8438 148.459 58.7031C148.969 58.2703 149.445 57.8321 149.897 57.3978C149.978 57.3111 150.076 57.2273 150.158 57.1407C150.763 56.5399 151.31 55.9376 151.801 55.3174L151.837 66.6993C151.658 66.4679 151.447 66.231 151.243 66.0036C151.23 65.9846 151.216 65.9655 151.203 65.9465C150.928 65.6401 150.647 65.3243 150.347 65.0219C150.146 64.8203 149.946 64.6188 149.746 64.4172C149.586 64.2728 149.43 64.112 149.27 63.9676C148.9 63.6284 148.505 63.2931 148.094 62.9551C148.004 62.8897 147.918 62.8079 147.828 62.7425C147.106 62.1672 146.327 61.5741 145.462 60.9997C145.633 60.8781 145.821 60.7593 145.993 60.6377C146.04 60.6039 146.088 60.5701 146.136 60.5363C146.784 60.0769 147.392 59.6024 147.959 59.1291L147.978 59.1156ZM154.635 74.6054C154.651 74.8511 154.678 75.0902 154.688 75.3264C154.691 75.3522 154.679 75.3752 154.683 75.4011C154.401 74.5992 154.051 73.8025 153.614 73.0245L153.603 70.6854C154.081 71.7635 154.423 72.8521 154.577 73.959C154.6 74.1722 154.612 74.3922 154.635 74.6054ZM138.634 107.889C138.561 107.927 138.471 107.962 138.398 108C137.768 108.303 137.105 108.601 136.443 108.899L136.436 107.859L136.427 104.33C138.097 105.05 139.667 105.811 141.125 106.595C140.618 106.869 140.087 107.131 139.554 107.409C139.251 107.567 138.964 107.727 138.634 107.889ZM33.953 109.467C33.4216 109.242 32.8835 109.009 32.3779 108.78C32.1217 108.661 31.8723 108.552 31.6256 108.426C31.1065 108.179 30.5874 107.931 30.0942 107.68C29.9099 107.582 29.7323 107.493 29.5385 107.401C29.3082 107.278 29.0778 107.155 28.8475 107.032C30.4558 106.15 32.2174 105.302 34.0997 104.482C34.977 104.104 35.8773 103.738 36.8006 103.384L36.8217 110.625C36.0977 110.351 35.3995 110.073 34.7176 109.798C34.4586 109.695 34.2187 109.579 33.9598 109.476L33.953 109.467ZM26.0044 108.032C25.6764 108.236 25.3742 108.436 25.0625 108.642C23.4603 107.574 22.0185 106.449 20.7928 105.286C19.7903 104.336 18.9331 103.37 18.1955 102.39L18.1882 101.107C18.3848 100.839 18.5746 100.561 18.7874 100.296C20.9196 102.677 23.848 104.909 27.5333 106.976C27.5726 106.992 27.6024 107.013 27.639 107.045C27.2402 107.27 26.8551 107.515 26.4726 107.743C26.3134 107.841 26.1474 107.93 25.9977 108.022L26.0044 108.032ZM17.0089 115.139L16.9684 103.002C17.1106 102.758 17.2364 102.512 17.3881 102.261C17.4286 102.318 17.4692 102.375 17.5097 102.432L17.5506 115.499C17.4946 115.582 17.4224 115.662 17.3664 115.744C17.2341 115.537 17.1276 115.327 17.0116 115.123L17.0089 115.139ZM15.9296 103.739C15.6763 104.29 15.446 104.854 15.2741 105.42L15.2553 97.9193C15.5315 98.8542 15.9108 99.7732 16.3935 100.676L16.4017 102.789C16.2786 103.019 16.1746 103.236 16.0678 103.469C16.0281 103.554 15.9788 103.647 15.9391 103.732L15.9296 103.739ZM17.2837 54.7041C17.3715 54.828 17.4525 54.9422 17.5403 55.0661L17.5852 67.815C17.5101 67.9112 17.4446 68.0005 17.3763 68.1062C17.3545 68.136 17.3231 68.1726 17.2917 68.2091C17.1904 68.0662 17.1245 67.9126 17.0327 67.763L16.9871 55.215C17.0828 55.0469 17.1717 54.8694 17.2742 54.7109L17.2837 54.7041ZM135.636 60.3512C137.614 61.1817 139.441 62.062 141.136 62.9785C140.591 63.2794 140.006 63.5653 139.427 63.8607C139.162 63.9915 138.92 64.1346 138.648 64.2559C138.591 64.2965 138.52 64.3179 138.456 64.349C137.635 64.7454 136.79 65.1295 135.894 65.5216C135.016 65.9002 134.106 66.2733 133.183 66.6273L133.155 59.3765C133.879 59.6504 134.594 59.931 135.299 60.2184C135.417 60.2636 135.518 60.306 135.627 60.358L135.636 60.3512ZM143.963 61.9763C144.291 61.7724 144.593 61.5725 144.905 61.3658C147.836 63.3385 150.148 65.4489 151.783 67.6535L151.782 68.8848C151.585 69.1529 151.405 69.4239 151.183 69.696C149.051 67.3146 146.122 65.0827 142.453 63.0181C142.407 62.9935 142.377 62.9717 142.338 62.9566C142.718 62.7447 143.074 62.5205 143.44 62.2896C143.609 62.1843 143.785 62.0884 143.953 61.9831L143.963 61.9763ZM154.255 97.502C154.178 97.757 154.062 97.9969 153.968 98.2491C153.863 98.5243 153.767 98.7928 153.635 99.072L153.627 96.1723C153.735 95.9812 153.827 95.7874 153.919 95.5935C153.949 95.5149 153.995 95.439 154.035 95.3536C154.298 94.7952 154.528 94.2312 154.693 93.6561L154.699 95.4413C154.685 95.5227 154.697 95.6002 154.683 95.6816C154.642 95.9679 154.56 96.2554 154.494 96.5457C154.422 96.8686 154.359 97.1847 154.265 97.4952L154.255 97.502ZM151.887 114.18C150.304 112.21 148.187 110.334 145.573 108.566C145.744 108.445 145.939 108.335 146.111 108.214C147.502 107.227 148.724 106.203 149.806 105.164C149.907 105.064 150.024 104.967 150.132 104.876C150.566 104.439 150.95 104.01 151.326 103.572C151.452 103.425 151.603 103.275 151.728 103.129C151.769 103.086 151.813 103.026 151.847 102.973L151.884 114.196L151.887 114.18ZM142.44 106.651C142.44 106.651 142.364 106.605 142.318 106.58C142.697 106.368 143.063 106.137 143.43 105.906C143.598 105.801 143.764 105.712 143.933 105.607C144.646 105.158 145.334 104.714 145.982 104.255C146.049 104.207 146.115 104.16 146.182 104.113C146.801 103.673 147.382 103.219 147.945 102.762C148.129 102.618 148.297 102.47 148.464 102.323C148.955 101.903 149.42 101.488 149.845 101.058C149.946 100.958 150.053 100.867 150.147 100.758C150.491 100.414 150.811 100.058 151.122 99.7086C151.38 100.012 151.622 100.313 151.848 100.611L151.852 102.011C151.656 102.279 151.475 102.55 151.253 102.822C151.19 102.895 151.111 102.965 151.055 103.048C149.663 104.679 147.919 106.259 145.793 107.766C145.564 107.928 145.313 108.078 145.074 108.247C144.252 107.713 143.372 107.178 142.453 106.67L142.44 106.651ZM143.077 105.47C142.637 105.738 142.191 105.997 141.728 106.254C141.705 106.242 141.682 106.229 141.659 106.217C141.169 105.949 140.652 105.686 140.126 105.429C139.979 105.362 139.834 105.278 139.686 105.211C139.183 104.967 138.671 104.729 138.142 104.488C137.955 104.406 137.784 104.327 137.607 104.238C137.216 104.071 136.819 103.895 136.413 103.725L136.399 99.04L136.447 99.0062C137.334 98.6208 138.197 98.2232 139.029 97.82C141.231 96.7452 143.218 95.6087 145.012 94.4226C147.312 95.9696 149.221 97.5928 150.734 99.2824C150.621 99.4056 150.498 99.5355 150.382 99.675C150.115 99.9646 149.871 100.267 149.581 100.544C149.278 100.844 148.927 101.136 148.598 101.441C148.311 101.702 148.049 101.959 147.745 102.217C147.53 102.398 147.292 102.567 147.07 102.739C146.614 103.105 146.157 103.472 145.662 103.823C145.014 104.283 144.333 104.736 143.613 105.175C143.444 105.281 143.259 105.383 143.081 105.495L143.077 105.47ZM133.423 114.174C133.119 114.289 132.807 114.396 132.503 114.511C131.939 114.725 131.374 114.939 130.787 115.141C130.582 115.215 130.37 115.28 130.174 115.347C129.471 115.588 128.768 115.828 128.058 116.059C128.013 116.077 127.962 116.085 127.917 116.102C121.037 118.275 113.352 119.859 105.307 120.853L105.301 117.451C112.225 116.593 118.881 115.295 124.983 113.56C125.044 113.545 125.089 113.527 125.15 113.513C125.88 113.31 126.596 113.088 127.313 112.867C127.551 112.798 127.789 112.73 128.01 112.659C128.585 112.48 129.137 112.289 129.706 112.101C130.062 111.977 130.425 111.863 130.781 111.739C131.253 111.576 131.701 111.401 132.157 111.236C132.577 111.081 133.014 110.929 133.427 110.765C133.831 110.607 134.228 110.44 134.632 110.283C135.01 110.129 135.395 109.985 135.766 109.822L135.782 113.218C135.493 113.336 135.195 113.461 134.898 113.587C134.411 113.789 133.94 113.994 133.446 114.186L133.423 114.174ZM34.2069 103.805L34.1893 99.5385C34.1893 99.5385 34.2516 99.5659 34.2747 99.5781C34.4157 99.6356 34.5567 99.6931 34.6976 99.7506C35.3633 100.023 36.0547 100.291 36.7692 100.572L36.7798 102.768C36.7798 102.768 36.7417 102.795 36.7254 102.793C35.8728 103.125 35.0269 103.467 34.1974 103.812L34.2069 103.805ZM15.741 72.4858C15.8304 72.2078 15.9522 71.9353 16.0578 71.66C16.1511 71.4078 16.2444 71.1556 16.3608 70.9157L16.3754 73.825C16.277 74.0093 16.1852 74.2032 16.0935 74.397C16.0538 74.4824 16.0074 74.5583 15.9677 74.6437C15.7144 75.1954 15.4841 75.7593 15.3122 76.3249L15.3001 74.5301C15.3001 74.5301 15.302 74.3713 15.3227 74.2994C15.3659 73.9968 15.458 73.7026 15.5176 73.4027C15.5866 73.0962 15.6394 72.7868 15.741 72.4858ZM18.1119 55.7915C19.6943 57.7611 21.8121 59.6374 24.4422 61.4081C24.2707 61.5297 24.0666 61.6458 23.895 61.7674C22.4368 62.8012 21.1645 63.8749 20.0388 64.9736C19.9816 65.0141 19.9311 65.0642 19.8902 65.1075C19.4459 65.5513 19.0504 66.0034 18.6549 66.4555C18.539 66.595 18.4 66.7221 18.2936 66.8548C18.2499 66.9144 18.209 66.9577 18.1653 67.0173L18.1214 55.7848L18.1119 55.7915ZM36.0034 67.2523C36.2623 67.3549 36.528 67.4671 36.7965 67.563L36.8047 69.6754C35.9263 70.0119 35.0709 70.3607 34.2317 70.7123L34.2165 66.5296C34.3412 66.5843 34.4755 66.6323 34.6069 66.6965C35.0692 66.884 35.5411 67.0648 36.0129 67.2455L36.0034 67.2523ZM115.295 65.0686C116.204 65.2399 117.094 65.4247 117.984 65.6095C118.114 65.6317 118.251 65.6634 118.372 65.6923C119.164 65.8605 119.937 66.0422 120.71 66.2239C120.936 66.279 121.154 66.3245 121.379 66.3795C122.055 66.5447 122.728 66.7261 123.403 66.8912C123.707 66.9764 124.014 67.0452 124.317 67.1304C124.909 67.298 125.484 67.4627 126.075 67.6303C126.441 67.7428 126.81 67.8391 127.177 67.9516C127.575 68.0696 127.971 68.204 128.377 68.3316C126.488 68.9403 124.55 69.4987 122.559 70.023C122.229 69.9418 121.909 69.8539 121.586 69.7823C121.328 69.7217 121.054 69.6583 120.797 69.5978C120.056 69.4216 119.322 69.2549 118.562 69.0922C118.393 69.055 118.214 69.0245 118.037 68.9778C117.189 68.7918 116.339 68.622 115.469 68.4657C115.397 68.4451 115.322 68.4408 115.241 68.427C110.621 67.5661 105.822 66.9177 100.913 66.4767L100.904 63.091C105.813 63.532 110.645 64.1858 115.262 65.063C115.262 65.063 115.295 65.0686 115.311 65.0713L115.295 65.0686ZM139.033 64.6984C139.49 64.4745 139.915 64.2451 140.346 64.0253C140.768 63.8121 141.19 63.599 141.588 63.3736C141.636 63.3399 141.69 63.3156 141.745 63.2913C145.548 65.4039 148.586 67.7299 150.765 70.1779C150.621 70.3376 150.467 70.5041 150.322 70.6638C150.086 70.9169 149.874 71.1823 149.621 71.4326C149.237 71.8196 148.797 72.1888 148.364 72.5675C148.168 72.7352 147.995 72.9152 147.789 73.0896C147.26 73.5359 146.676 73.9643 146.092 74.3927C145.949 74.4941 145.839 74.601 145.696 74.7023C145.467 74.8645 145.206 75.0211 144.967 75.19C142.646 73.6728 139.832 72.1472 136.38 70.6724L136.359 65.9359C136.73 65.7728 137.079 65.5975 137.45 65.4344C137.978 65.1891 138.522 64.9465 139.033 64.6984ZM152.977 69.4399L152.988 71.9799C152.826 71.7513 152.664 71.5227 152.495 71.2846L152.484 68.9455C152.484 68.9455 152.559 68.8493 152.593 68.7965C152.725 69.0033 152.848 69.2168 152.971 69.4303L152.977 69.4399ZM154.694 81.1327C154.648 81.4516 154.562 81.7554 154.484 82.0687C154.418 82.359 154.368 82.6521 154.275 82.9464C154.186 83.2244 154.055 83.5036 153.956 83.7884C153.898 83.9294 153.85 84.0636 153.786 84.1951C153.741 84.1121 153.687 84.0359 153.65 83.9625L153.638 81.6234C153.737 81.4391 153.828 81.2452 153.92 81.0514C153.96 80.966 154.006 80.8901 154.046 80.8047C154.309 80.2463 154.53 79.6891 154.711 79.1168L154.716 80.902C154.703 80.9834 154.714 81.0608 154.701 81.1422L154.694 81.1327ZM154.619 89.0864C154.649 89.3512 154.663 89.6132 154.677 89.8753C154.681 89.9011 154.678 89.9174 154.666 89.9404C154.383 89.1385 154.033 88.3419 153.597 87.5639L153.594 85.8629L153.652 85.8644L153.651 85.7219C153.651 85.7219 153.67 85.7084 153.673 85.6921C153.698 85.646 153.722 85.5999 153.744 85.5701C154.148 86.5435 154.432 87.53 154.573 88.5174C154.598 88.7143 154.6 88.899 154.619 89.0864ZM154.129 93.5267C154.037 93.821 153.903 94.1165 153.785 94.4147C153.737 94.549 153.682 94.6737 153.624 94.8147L153.606 88.931C154.044 89.8515 154.355 90.7756 154.547 91.713C154.501 92.0319 154.416 92.3357 154.337 92.649C154.271 92.9393 154.221 93.2324 154.122 93.5171L154.129 93.5267ZM143.402 94.7771C142.755 95.1782 142.086 95.567 141.383 95.9502C141.144 96.077 140.888 96.2011 140.639 96.3347C140.068 96.6396 139.496 96.9445 138.902 97.2372C138.582 97.3923 138.246 97.5446 137.91 97.6969C137.427 97.9247 136.954 98.1458 136.455 98.3709L136.439 94.9756C136.801 94.8193 137.14 94.6507 137.495 94.4849C138.004 94.2531 138.512 94.0212 139.005 93.7866C139.462 93.5628 139.886 93.3334 140.327 93.1067C140.742 92.8841 141.171 92.6805 141.56 92.4619C141.607 92.4281 141.662 92.4038 141.716 92.3796C142.704 92.9245 143.631 93.4841 144.512 94.0613C144.229 94.2477 143.979 94.4396 143.672 94.6137C143.587 94.6745 143.478 94.7231 143.392 94.7839L143.402 94.7771ZM45.737 102.859C45.0086 102.66 44.2898 102.454 43.5642 102.238C43.3255 102.164 43.084 102.106 42.8453 102.032C42.4398 101.905 42.0506 101.78 41.6451 101.652C43.5334 101.043 45.4718 100.485 47.463 99.9608C54.2198 101.654 61.5421 102.832 69.0835 103.511L69.0922 106.897C60.94 106.164 53.0562 104.84 45.8712 102.907C45.8156 102.889 45.7668 102.881 45.7112 102.863L45.737 102.859ZM34.559 99.0904C34.4342 99.0356 34.3095 98.9809 34.1848 98.9262L34.1689 95.6314C34.2936 95.6861 34.4116 95.7313 34.5363 95.786C35.107 96.0254 35.6968 96.2514 36.2866 96.4773C36.4439 96.5375 36.5916 96.6046 36.7584 96.658L36.7648 99.9596C36.339 99.8035 35.9323 99.6338 35.5161 99.4709C35.1948 99.3409 34.864 99.2176 34.5522 99.0808L34.559 99.0904ZM30.8893 105.327C30.5153 105.506 30.1642 105.698 29.8036 105.896C29.318 106.141 28.8228 106.391 28.3601 106.648C28.322 106.675 28.2866 106.686 28.2485 106.713C25.2324 105.044 22.6893 103.254 20.6612 101.343C20.1417 100.853 19.6575 100.352 19.2155 99.8492C19.5919 99.4106 19.9751 98.9815 20.4004 98.5512C20.4794 98.4808 20.5584 98.4105 20.6374 98.3402C21.7195 97.3011 22.9319 96.2842 24.3233 95.2977C24.5521 95.1356 24.8229 94.9722 25.0516 94.81C27.3731 96.3273 30.1875 97.8529 33.6253 99.3086L33.637 104.052C32.6863 104.468 31.7682 104.89 30.8893 105.327ZM15.9802 98.3358C15.8741 98.0245 15.768 97.7133 15.6877 97.3981C15.6329 97.1793 15.6011 96.9729 15.553 96.7637C15.5105 96.5219 15.4517 96.2773 15.4092 96.0355C15.3762 95.787 15.3595 95.5412 15.3455 95.2792C15.33 95.0755 15.3078 94.8623 15.3018 94.6518C15.2978 94.626 15.3101 94.603 15.3061 94.5772C15.5882 95.3791 15.9382 96.1757 16.3751 96.9537L16.3782 99.3416C16.288 99.1336 16.1883 98.9324 16.0982 98.7244C16.0457 98.5898 16.0096 98.458 15.9639 98.333L15.9802 98.3358ZM15.8575 76.4679C15.9496 76.1736 16.0743 75.8848 16.1989 75.5961C16.2565 75.4551 16.3045 75.3208 16.3621 75.1798L16.3787 81.1219C16.2373 80.8214 16.0891 80.5114 15.9735 80.2069C15.9465 80.1688 15.9453 80.1267 15.9278 80.0819C15.7908 79.7068 15.67 79.3344 15.575 78.958C15.5496 78.8616 15.5242 78.7651 15.4987 78.6686C15.4693 78.5464 15.4562 78.4268 15.4336 78.3141C15.4336 78.3141 15.4296 78.2883 15.4324 78.272C15.4756 77.9694 15.5705 77.6588 15.6396 77.3523C15.7059 77.062 15.7654 76.7621 15.8575 76.4679ZM20.4126 69.4601C20.5544 69.3167 20.7287 69.1788 20.8772 69.0449C21.8966 68.0789 23.0394 67.1256 24.3261 66.2135C24.9741 65.754 25.6548 65.3001 26.3748 64.8613C26.5272 64.7532 26.719 64.6601 26.8783 64.5616C27.3274 64.2861 27.7833 64.0201 28.2555 63.757C28.2622 63.7665 28.2948 63.772 28.3015 63.7816C28.7921 64.0492 29.3151 64.3225 29.841 64.5794C29.9955 64.6559 30.1404 64.7392 30.2949 64.8158C30.7747 65.0481 31.2708 65.2832 31.7601 65.5088C31.9702 65.6032 32.164 65.6948 32.3741 65.7892C32.755 65.9628 33.1549 66.123 33.5521 66.2994L33.5626 71.0006L33.5149 71.0344C30.2848 72.437 27.4247 73.978 24.9404 75.6247C23.3315 74.547 21.8965 73.4318 20.6544 72.2656C20.1349 71.7752 19.6507 71.2741 19.2087 70.7717C19.2523 70.7121 19.3123 70.6553 19.3723 70.5984C19.705 70.2194 20.0282 69.8471 20.4003 69.4832L20.4126 69.4601ZM132.161 67.6095C132.296 67.557 132.437 67.5141 132.572 67.4616L132.572 69.1789L132.51 69.1515C131.737 68.8693 130.954 68.5939 130.156 68.3157C130.361 68.2417 130.582 68.1705 130.788 68.0965C131.25 67.9405 131.699 67.7655 132.164 67.5933L132.161 67.6095ZM134.645 66.6497C135.024 66.4962 135.408 66.3522 135.78 66.1892L135.79 70.4465C135.79 70.4465 135.744 70.4219 135.728 70.4191C135.58 70.3521 135.43 70.3014 135.282 70.2344C134.616 69.9621 133.918 69.6842 133.201 69.4199L133.197 67.2328C133.277 67.2046 133.367 67.1696 133.441 67.1318C133.844 66.9743 134.242 66.8072 134.645 66.6497ZM147.948 73.678C148.132 73.5333 148.3 73.3859 148.467 73.2385C148.958 72.8192 149.422 72.404 149.857 71.9669C149.958 71.8668 150.066 71.7762 150.16 71.6665C150.503 71.3228 150.824 70.9668 151.134 70.6176C151.372 70.8926 151.594 71.1649 151.799 71.4343L151.838 81.2251C151.673 81.0128 151.476 80.795 151.285 80.5866C151.251 80.539 151.218 80.4914 151.174 80.4505C150.93 80.166 150.659 79.8854 150.389 79.6049C150.175 79.3843 149.945 79.1609 149.708 78.928C149.565 78.7863 149.412 78.6514 149.262 78.5002C148.886 78.1515 148.484 77.8067 148.065 77.4591C147.992 77.3964 147.91 77.3405 147.83 77.2683C147.1 76.6835 146.312 76.0972 145.45 75.5065C145.621 75.3849 145.819 75.2593 145.99 75.1377C146.057 75.0904 146.124 75.0431 146.19 74.9958C146.81 74.5566 147.39 74.1024 147.954 73.6454L147.948 73.678ZM154.337 78.1653C154.274 78.4393 154.226 78.7161 154.137 78.9941C154.045 79.2884 153.901 79.5906 153.783 79.8889C153.729 80.0136 153.681 80.1479 153.626 80.2726L153.608 74.3889C154.039 75.2998 154.357 76.2335 154.549 77.1709C154.493 77.4965 154.412 77.8261 154.33 78.1557L154.337 78.1653ZM138.633 93.3632C138.515 93.4185 138.396 93.4738 138.287 93.5223C137.686 93.8054 137.069 94.0857 136.442 94.3728L136.432 89.8141C138.102 90.5337 139.673 91.295 141.131 92.079C140.576 92.3867 139.991 92.6726 139.403 92.9748C139.147 93.0988 138.905 93.2419 138.64 93.3727L138.633 93.3632ZM133.96 102.73C133.701 102.627 133.459 102.527 133.206 102.434L133.195 100.338C134.074 100.002 134.929 99.6528 135.778 99.2945L135.79 101.877L135.796 103.461C135.671 103.406 135.546 103.351 135.422 103.297C134.953 103.1 134.465 102.916 133.97 102.723L133.96 102.73ZM22.0737 96.3058C21.868 96.4803 21.6718 96.648 21.4756 96.8157C21.0233 97.2079 20.5968 97.5961 20.1866 97.9871C20.0572 98.1075 19.9277 98.2279 19.805 98.3578C19.4615 98.7015 19.1506 99.0507 18.8397 99.3999C18.6153 99.144 18.3937 98.8718 18.1951 98.6118L18.1581 88.7626C18.3162 88.9654 18.5001 89.1642 18.6677 89.3603C18.7285 89.446 18.8015 89.5087 18.8623 89.5944C19.107 89.8789 19.3707 90.1499 19.6412 90.4305C19.8684 90.6702 20.1051 90.9031 20.3514 91.1292C20.4813 91.2518 20.6112 91.3745 20.7478 91.5066C21.147 91.8676 21.5624 92.2315 22.0037 92.5913C22.0633 92.635 22.1296 92.6881 22.1796 92.7385C22.893 93.3205 23.6742 93.8973 24.5301 94.4785C24.3491 94.6068 24.1517 94.7324 23.9802 94.8541C23.8563 94.9419 23.7582 95.0257 23.6438 95.1068C23.091 95.4987 22.568 95.9124 22.0641 96.3126L22.0737 96.3058ZM17.0265 100.6L17.0242 98.0106C17.1863 98.2392 17.3483 98.4678 17.5171 98.706L17.5258 101.061C17.4821 101.121 17.4317 101.171 17.4043 101.233C17.272 101.027 17.1655 100.816 17.0495 100.612L17.0265 100.6ZM15.8657 91.0032C15.9455 90.732 16.0741 90.469 16.1797 90.1938C16.24 90.0365 16.3004 89.8792 16.377 89.7247L16.4032 95.66C16.2618 95.3596 16.1136 95.0495 15.998 94.7451C15.9805 94.7002 15.963 94.6554 15.9455 94.6105C15.8152 94.2449 15.6945 93.8725 15.59 93.5029C15.5645 93.4065 15.5391 93.31 15.5069 93.204C15.4775 93.0817 15.4644 92.9622 15.4417 92.8495C15.4417 92.8495 15.4378 92.8237 15.4473 92.8169C15.4905 92.5143 15.5854 92.2037 15.6545 91.8972C15.7303 91.6001 15.7736 91.2975 15.8657 91.0032ZM16.0113 83.8154C15.8985 83.4947 15.7857 83.1739 15.7054 82.8587C15.6545 82.6658 15.6227 82.4593 15.5814 82.2596C15.5254 81.9988 15.4761 81.7475 15.4364 81.4894C15.4073 81.2667 15.3974 81.0304 15.3779 80.801C15.3584 80.5715 15.3322 80.3324 15.329 80.1057C15.3222 80.0962 15.3278 80.0636 15.3305 80.0474C15.6126 80.8492 15.9626 81.6459 16.3995 82.4239L16.4025 84.1249L16.3442 84.1233L16.345 84.2659C16.345 84.2659 16.345 84.2659 16.3354 84.2726C16.3013 84.3255 16.2739 84.3878 16.2397 84.4407C16.2048 84.351 16.1603 84.268 16.1253 84.1783C16.0796 84.0532 16.0407 83.9377 15.995 83.8127L16.0113 83.8154ZM17.2728 69.253C17.3606 69.3768 17.4416 69.4911 17.5294 69.615L17.538 71.9703C17.3824 72.1952 17.2363 72.4133 17.0901 72.6314C17.0711 72.6449 17.0683 72.6612 17.056 72.6842L17.0445 69.6582C17.1183 69.5199 17.1922 69.3817 17.2728 69.253ZM31.6786 64.8081C31.1364 64.5484 30.6011 64.2982 30.0848 64.0345C29.914 63.9552 29.746 63.8596 29.5847 63.7735C29.3381 63.6478 29.1172 63.5181 28.8706 63.3924C30.3129 62.5989 31.8827 61.8438 33.5598 61.0986L33.5661 64.0567L33.5723 65.641C33.1751 65.4646 32.7684 65.2949 32.3875 65.1213C32.1476 65.0051 31.9145 64.8984 31.6814 64.7918L31.6786 64.8081ZM39.2336 69.3847C39.6958 69.2288 40.1744 69.0756 40.6462 68.9128C40.7899 68.954 40.9242 69.002 41.0679 69.0432C41.6077 69.2187 42.1407 69.3847 42.6804 69.5603C42.991 69.655 43.2948 69.7401 43.6149 69.8281C44.2686 70.023 44.9251 70.2016 45.5884 70.3898C45.7484 70.4337 45.9248 70.4805 46.0944 70.5177C46.1988 70.5438 46.3195 70.5727 46.424 70.5989C43.9924 71.2493 41.6338 71.9624 39.381 72.7438C39.211 72.807 39.0505 72.8635 38.8806 72.9268C38.3802 73.1098 37.8798 73.2928 37.3794 73.4757L37.3735 70.0737C37.7678 69.9229 38.1784 69.775 38.5891 69.627C38.8039 69.5462 39.0187 69.4655 39.2499 69.3875L39.2336 69.3847ZM100.225 52.4373L100.254 62.4779C88.7372 61.4831 76.7157 61.6758 65.3659 63.0383L65.3309 53.0303C76.6577 51.6555 88.6887 51.456 100.218 52.4278L100.225 52.4373ZM125.177 69.8986C125.9 69.6864 126.614 69.4811 127.314 69.2566C127.552 69.1882 127.799 69.113 128.031 69.035C128.438 68.9033 128.846 68.7716 129.247 68.6304C129.47 68.7017 129.702 68.7662 129.915 68.8443C130.382 68.9993 130.831 69.1677 131.296 69.3389C131.699 69.4828 132.111 69.6199 132.504 69.7705L132.518 73.0816C132.226 72.9734 131.909 72.8692 131.608 72.7678C131.11 72.591 130.629 72.417 130.122 72.247C129.726 72.1127 129.327 71.9946 128.931 71.8603C128.407 71.6875 127.884 71.5148 127.348 71.365C126.982 71.2525 126.597 71.1535 126.231 71.041C125.655 70.8762 125.074 70.7019 124.489 70.5439C124.201 70.4615 123.911 70.3953 123.614 70.3197C124.071 70.1963 124.518 70.0797 124.958 69.9535C125.02 69.9388 125.09 69.9173 125.151 69.9025L125.177 69.8986ZM135.342 70.8645C135.499 70.9248 135.654 71.0013 135.802 71.0683L135.811 74.3536C135.686 74.2989 135.568 74.2537 135.443 74.199C134.896 73.9719 134.322 73.7487 133.749 73.5255C133.568 73.453 133.404 73.3832 133.215 73.3174L133.208 70.0158C133.673 70.1871 134.119 70.3718 134.575 70.5498C134.834 70.6524 135.086 70.7456 135.335 70.855L135.342 70.8645ZM142.497 92.1269C142.497 92.1269 142.398 92.0682 142.345 92.0341C142.734 91.8155 143.091 91.5913 143.457 91.3603C143.616 91.2617 143.792 91.1659 143.951 91.0674C144.664 90.619 145.361 90.1679 146.009 89.7084C146.095 89.6476 146.171 89.5935 146.25 89.5232C146.85 89.0975 147.402 88.6636 147.937 88.2268C148.131 88.0754 148.317 87.9145 148.494 87.7603C148.966 87.3546 149.411 86.9529 149.834 86.5388C149.954 86.4252 150.064 86.3183 150.184 86.2047C150.518 85.8677 150.845 85.5213 151.147 85.1788C151.385 85.4538 151.606 85.726 151.812 85.9955L151.814 87.554C151.639 87.7923 151.481 88.0335 151.28 88.2758C151.174 88.4085 151.035 88.5357 150.928 88.6683C150.552 89.107 150.159 89.5428 149.724 89.9799C149.677 90.0137 149.636 90.057 149.595 90.1003C148.491 91.1691 147.24 92.2131 145.811 93.2265C145.582 93.3887 145.33 93.5386 145.092 93.7075C144.27 93.174 143.412 92.6512 142.503 92.1364L142.497 92.1269ZM143.133 90.9031C142.683 91.1786 142.228 91.4445 141.755 91.7077C141.732 91.6954 141.709 91.6831 141.686 91.6708C141.203 91.4127 140.709 91.1613 140.209 90.9003C140.038 90.821 139.87 90.7255 139.7 90.6462C139.236 90.4166 138.754 90.2005 138.274 89.9681C138.057 89.8643 137.847 89.7699 137.621 89.6728C137.24 89.4991 136.84 89.339 136.443 89.1625L136.419 83.8979L136.412 80.4537C136.802 80.2772 137.177 80.0978 137.557 79.928C138.057 79.703 138.556 79.4779 139.032 79.2405C139.489 79.0167 139.913 78.7873 140.354 78.5606C140.76 78.3448 141.198 78.1344 141.587 77.9158C141.635 77.882 141.689 77.8577 141.743 77.8335C145.547 79.9461 148.585 82.272 150.764 84.72C150.68 84.8229 150.588 84.9163 150.506 85.0029C150.208 85.3291 149.925 85.6581 149.601 85.9883C149.368 86.2251 149.096 86.4468 148.849 86.6646C147.895 87.5411 146.85 88.4106 145.678 89.2417C145.03 89.7011 144.34 90.1618 143.62 90.6006C143.467 90.7087 143.295 90.7883 143.135 90.8868L143.133 90.9031ZM127.565 101.668C120.777 103.789 113.224 105.336 105.325 106.314L105.319 102.912C111.319 102.164 117.113 101.105 122.531 99.6977C124.571 100.212 126.561 100.777 128.484 101.388C128.359 101.434 128.243 101.473 128.111 101.509C127.935 101.563 127.758 101.617 127.581 101.671L127.565 101.668ZM41.9151 97.8112C40.388 97.3338 38.899 96.8293 37.4482 96.2978L37.4234 88.5868C40.5849 87.3903 43.951 86.3208 47.4834 85.4051C52.938 86.7765 58.7522 87.8069 64.7647 88.5108L64.7938 96.1472C58.7609 96.889 52.9386 97.9682 47.4884 99.3703C46.0749 99.0127 44.69 98.6348 43.3174 98.2339C42.8468 98.0953 42.3694 97.9471 41.9083 97.8017L41.9151 97.8112ZM32.176 98.0318C29.7294 96.9038 27.5303 95.7006 25.5921 94.4412C25.8494 94.2588 26.0877 94.0899 26.3585 93.9265C26.5368 93.8144 26.7314 93.7051 26.9097 93.593C27.3398 93.331 27.7957 93.0651 28.2488 92.8154C28.2718 92.8277 28.2948 92.84 28.3179 92.8523C28.8084 93.12 29.3247 93.3837 29.8506 93.6406C29.9983 93.7076 30.1365 93.7814 30.2815 93.8647C30.7843 94.1093 31.3034 94.3568 31.832 94.5974C32.0028 94.6767 32.1736 94.756 32.3511 94.8448C32.755 95.0308 33.178 95.2032 33.6077 95.3852L33.6169 98.6705C33.3281 98.546 33.0394 98.4215 32.767 98.2998C32.5731 98.2082 32.3698 98.1234 32.1664 98.0386L32.176 98.0318ZM32.3657 94.219C32.1326 94.1124 31.8927 93.9962 31.6596 93.8896C31.1174 93.6298 30.5821 93.3797 30.0657 93.116C29.9045 93.0299 29.7337 92.9506 29.5725 92.8646C29.3258 92.7389 29.0982 92.5996 28.8583 92.4835C30.3265 91.686 31.9154 90.9174 33.6019 90.1654L33.6128 94.7662C33.1994 94.587 32.7696 94.405 32.3657 94.219ZM26.0153 93.4828C25.6873 93.6867 25.3851 93.8866 25.0734 94.0933C23.4712 93.0251 22.0294 91.9004 20.8037 90.737C19.8012 89.7875 18.944 88.8209 18.2064 87.841L18.2059 86.5676C18.4024 86.2995 18.5922 86.0218 18.8146 85.7496C20.9467 88.131 23.8751 90.3629 27.5442 92.4276C27.5903 92.4522 27.6201 92.474 27.6661 92.4986C27.2579 92.7307 26.8822 92.9684 26.4903 93.2033C26.3406 93.2952 26.1746 93.3842 26.0221 93.4923L26.0153 93.4828ZM19.009 81.4183C19.4073 80.9499 19.8219 80.4843 20.2853 80.0269C20.2853 80.0269 20.2948 80.0202 20.3043 80.0134C21.4233 78.9053 22.7215 77.8275 24.1987 76.7803C24.4274 76.6181 24.6887 76.4615 24.9175 76.2993C25.7396 76.8328 26.6134 77.3584 27.5225 77.8731C27.5686 77.8977 27.6051 77.9291 27.6512 77.9537C27.262 78.1723 26.8959 78.4033 26.5298 78.6342C26.3515 78.7463 26.1664 78.8489 25.9976 78.9542C25.3035 79.389 24.6161 79.8334 23.9871 80.2794C23.9204 80.3267 23.8536 80.374 23.7869 80.4212C23.1674 80.8604 22.5873 81.3147 22.0329 81.7649C21.8491 81.9096 21.6815 82.057 21.5044 82.2112C21.0235 82.6236 20.5589 83.0389 20.1268 83.4597C20.026 83.5598 19.9156 83.6667 19.8147 83.7668C19.4617 84.1173 19.1413 84.4733 18.8303 84.8225C18.6059 84.5665 18.3843 84.2943 18.1857 84.0343L18.1823 82.4338C18.3666 82.1887 18.525 81.9475 18.716 81.712C18.8006 81.6091 18.911 81.5022 18.9955 81.3993L19.009 81.4183ZM27.6307 91.8224C24.8831 90.2495 22.5568 88.5639 20.6654 86.7847C20.1459 86.2943 19.6617 85.7931 19.2196 85.2908C19.2196 85.2908 19.2291 85.284 19.2387 85.2772C19.6123 84.8549 19.9888 84.4163 20.4208 83.9955C20.5026 83.9089 20.6074 83.8346 20.6892 83.748C21.7523 82.7224 22.9618 81.7218 24.3342 80.7489C24.9823 80.2894 25.663 79.8355 26.3829 79.3967C26.5449 79.2818 26.7272 79.1955 26.9055 79.0834C27.3451 78.8147 27.801 78.5488 28.2732 78.2856C28.303 78.3074 28.3355 78.3129 28.3653 78.3348C28.8491 78.5929 29.3424 78.8443 29.8356 79.0957C29.9969 79.1818 30.1514 79.2583 30.3222 79.3376C30.8182 79.5727 31.321 79.8174 31.8497 80.0581C32.0272 80.1469 32.198 80.2262 32.385 80.3082C32.7755 80.4751 33.1726 80.6516 33.5793 80.8212L33.607 89.5463C32.6849 89.9424 31.7926 90.3604 30.9328 90.7838C30.5043 90.9874 30.1056 91.2128 29.6906 91.4354C29.2594 91.6553 28.809 91.8887 28.394 92.1113C28.3559 92.1384 28.311 92.1559 28.2757 92.1666C28.0847 92.0587 27.8678 91.9548 27.6768 91.847C27.6768 91.847 27.6633 91.8279 27.6537 91.8347L27.6307 91.8224ZM17.2552 83.7924C17.3429 83.9162 17.424 84.0305 17.5118 84.1543L17.5136 86.5002C17.47 86.5598 17.4263 86.6194 17.3921 86.6722C17.2599 86.4654 17.1534 86.2546 17.0374 86.0506L17.0269 84.1975C17.1007 84.0593 17.1745 83.9211 17.2552 83.7924ZM18.1981 85.0417C18.2657 85.1369 18.3427 85.2254 18.4265 85.3235C18.3515 85.4196 18.2764 85.5157 18.2014 85.6119L18.2049 85.0512L18.1981 85.0417ZM31.6975 79.3788C31.1391 79.1163 30.5806 78.8538 30.0413 78.5778C29.8868 78.5013 29.7323 78.4248 29.571 78.3387C29.3244 78.213 29.0873 78.0805 28.8502 77.9481C30.2925 77.1546 31.8718 76.3927 33.5394 75.6543L33.552 78.7224L33.5586 80.2062C33.1519 80.0365 32.7384 79.8573 32.3508 79.6742C32.134 79.5703 31.9239 79.4759 31.707 79.372L31.6975 79.3788ZM30.9084 76.2457C30.5343 76.425 30.1995 76.6194 29.8417 76.8015C29.3465 77.0524 28.8418 77.31 28.3696 77.5732C28.341 77.5935 28.2961 77.611 28.2675 77.6312C27.2798 77.0863 26.3436 76.5334 25.4619 75.9563C27.8005 74.4272 30.4945 72.9753 33.5384 71.6332L33.5444 75.0352C32.6386 75.4341 31.7653 75.8385 30.9151 76.2552L30.9084 76.2457ZM16.9765 88.4696C17.1187 88.2257 17.2446 87.979 17.3962 87.7284C17.4367 87.7855 17.4773 87.8427 17.5178 87.8998L17.544 97.7137C17.3414 97.4279 17.1742 97.1314 16.9974 96.8417L16.9765 88.4696ZM24.4123 75.9705C24.2407 76.0921 24.0366 76.2082 23.8651 76.3298C22.4069 77.3636 21.125 78.4441 19.9993 79.5427C19.9516 79.5765 19.9012 79.6266 19.8603 79.6699C19.4159 80.1137 19.03 80.5591 18.6345 81.0112C18.509 81.1574 18.37 81.2845 18.2541 81.424C18.2255 81.4443 18.2036 81.4741 18.1913 81.4971L18.158 72.1176C18.3764 71.8197 18.5785 71.519 18.8227 71.217C20.3086 72.8686 22.1817 74.4604 24.4218 75.9638L24.4123 75.9705ZM18.1495 71.1361L18.1455 70.4234C18.2333 70.5472 18.3401 70.6575 18.4374 70.7746C18.3338 70.891 18.2532 71.0197 18.1495 71.1361ZM17.0121 73.8746C17.1816 73.5684 17.3321 73.2756 17.5342 72.9749L17.5675 82.3544C17.5115 82.437 17.446 82.5264 17.39 82.609C17.3559 82.6619 17.315 82.7052 17.2904 82.7512C17.1891 82.6084 17.1231 82.4547 17.0314 82.3051L17.0037 73.9235C17.0037 73.9235 17.0256 73.8937 17.0283 73.8774L17.0121 73.8746ZM34.2082 89.2632L34.1811 81.468L34.1731 81.073C34.2978 81.1277 34.4157 81.1729 34.5404 81.2276C35.0421 81.4301 35.56 81.6355 36.0874 81.8341C36.307 81.9217 36.5266 82.0093 36.7626 82.0996L36.784 88.2101C36.784 88.2101 36.7554 88.2303 36.7296 88.2343C35.877 88.5668 35.0311 88.9089 34.2015 89.2537L34.2082 89.2632ZM135.612 74.881C135.674 74.9084 135.737 74.9358 135.799 74.9631L135.815 80.0757C134.947 80.4476 134.073 80.8099 133.168 81.1504L133.14 73.8996C133.864 74.1735 134.595 74.4569 135.284 74.7415C135.386 74.7839 135.487 74.8263 135.596 74.8783L135.612 74.881ZM138.63 78.7953C138.557 78.833 138.467 78.868 138.394 78.9058C137.754 79.216 137.073 79.5273 136.385 79.8292L136.367 75.2188C138.06 75.9507 139.647 76.7148 141.119 77.5178C140.666 77.7675 140.189 78.0049 139.713 78.2422C139.346 78.4311 139.004 78.6159 138.621 78.802L138.63 78.7953ZM133.447 99.6018C133.357 99.6368 133.267 99.6718 133.187 99.7001L133.171 96.3048C133.252 96.2765 133.325 96.2388 133.405 96.2105C133.835 96.049 134.251 95.8685 134.674 95.6974C135.033 95.5574 135.402 95.4107 135.754 95.2611L135.769 98.6564C135.382 98.8167 134.985 98.9837 134.597 99.144C134.219 99.2975 133.848 99.4606 133.453 99.6113L133.447 99.6018ZM130.817 100.579C130.496 100.692 130.159 100.802 129.831 100.905C129.671 100.962 129.52 101.012 129.359 101.068C129.216 101.027 129.081 100.979 128.938 100.938C128.405 100.772 127.881 100.599 127.332 100.43C126.972 100.327 126.606 100.215 126.237 100.119C125.646 99.9509 125.064 99.7766 124.463 99.6158C124.176 99.5334 123.885 99.4673 123.598 99.3849C124.099 99.244 124.608 99.1126 125.1 98.9785C125.1 98.9785 125.1 98.9785 125.109 98.9717C125.884 98.7516 126.652 98.522 127.404 98.2896C127.59 98.2291 127.793 98.1714 127.979 98.111C128.589 97.9215 129.186 97.7131 129.79 97.5141C130.101 97.4079 130.429 97.3044 130.74 97.1982C131.231 97.022 131.722 96.8458 132.216 96.6532C132.341 96.6075 132.475 96.555 132.6 96.5092L132.606 99.9113C132.472 99.9638 132.321 100.014 132.186 100.066C131.721 100.238 131.272 100.413 130.801 100.576L130.817 100.579ZM39.8827 83.2081C40.2393 83.3274 40.6055 83.4399 40.9621 83.5592C41.5344 83.7403 42.0972 83.9281 42.679 84.1024C42.9503 84.182 43.2311 84.2549 43.5023 84.3345C44.1886 84.535 44.8749 84.7354 45.5803 84.9224C45.7078 84.9608 45.838 84.983 45.9655 85.0214C46.1093 85.0626 46.2626 85.097 46.3996 85.1287C43.2571 85.9682 40.254 86.9236 37.4257 87.9841L37.406 82.8457L37.4012 82.3339C37.7158 82.4544 38.0494 82.5613 38.3734 82.6751C38.8711 82.8518 39.3687 83.0286 39.8759 83.1986L39.8827 83.2081ZM125.162 84.4216C125.876 84.2163 126.583 84.0014 127.29 83.7865C127.537 83.7113 127.785 83.6361 128.032 83.5609C128.591 83.3794 129.149 83.198 129.701 83.007C130.058 82.8833 130.43 82.7623 130.786 82.6386C131.249 82.4826 131.697 82.3076 132.153 82.1421C132.288 82.0896 132.429 82.0466 132.573 81.9874L132.586 87.1163L132.591 87.6281C132.276 87.5076 131.943 87.4006 131.625 87.2964C131.128 87.1196 130.64 86.9361 130.139 86.7757C129.75 86.6508 129.361 86.526 128.972 86.4012C128.439 86.2352 127.915 86.0624 127.366 85.8937C127.006 85.7907 126.64 85.6781 126.271 85.5819C125.68 85.4143 125.098 85.24 124.497 85.0792C124.21 84.9968 123.919 84.9307 123.632 84.8483C124.079 84.7317 124.526 84.615 124.976 84.4821C125.047 84.4606 125.108 84.4459 125.179 84.4244L125.162 84.4216ZM134.637 81.1823C135.015 81.0288 135.4 80.8848 135.772 80.7218L135.803 88.8862C135.678 88.8315 135.544 88.7835 135.412 88.7193C134.95 88.5318 134.478 88.3511 134.006 88.1703C133.747 88.0677 133.482 87.9555 133.213 87.8596L133.189 81.7654C133.269 81.7372 133.359 81.7022 133.432 81.6644C133.836 81.5069 134.233 81.3399 134.631 81.1728L134.637 81.1823ZM135.571 89.4081C135.65 89.4382 135.719 89.4751 135.798 89.5052L135.813 94.6178C134.946 94.9897 134.071 95.352 133.167 95.6925L133.139 88.4417C133.87 88.7251 134.594 88.999 135.289 89.2932C135.375 89.3328 135.47 89.3657 135.555 89.4053L135.571 89.4081ZM132.609 95.916C129.438 97.1193 126.056 98.1861 122.504 99.1152C122.175 99.0341 121.855 98.9461 121.525 98.865C121.284 98.8071 121.033 98.7561 120.784 98.6888C120.027 98.5098 119.27 98.3308 118.494 98.1654C118.341 98.1309 118.195 98.106 118.041 98.0716C117.168 97.8895 116.284 97.7142 115.391 97.5457C115.359 97.5401 115.326 97.5346 115.294 97.5291C112.039 96.917 108.69 96.4146 105.272 96.0178L105.246 88.3652C111.262 87.6206 117.075 86.5482 122.509 85.1433C126.035 86.0359 129.412 87.0624 132.579 88.2376L132.609 95.916ZM104.648 95.9452C103.399 95.7999 102.138 95.6777 100.868 95.5622L100.839 88.8558C102.109 88.7283 103.363 88.598 104.613 88.4419L104.632 95.9424L104.648 95.9452ZM69.725 88.4579L69.6995 81.6347C79.7359 80.7024 90.1832 80.6524 100.248 81.5176L100.264 88.3475C90.2275 89.2799 79.7831 89.3135 69.7087 88.4551L69.725 88.4579ZM100.277 88.911L100.299 95.5074C90.2342 94.6422 79.7897 94.6759 69.7533 95.6082L69.731 89.0118C79.7959 89.8769 90.2431 89.827 100.28 88.8947L100.277 88.911ZM105.269 96.5785C110.836 97.2402 116.239 98.1756 121.333 99.4019C116.258 100.667 110.854 101.65 105.29 102.345L105.269 96.5785ZM100.833 88.3019L100.807 81.5792C102.094 81.6974 103.371 81.8224 104.646 81.9637L104.668 87.8732C103.402 88.0266 102.113 88.1676 100.826 88.2924L100.833 88.3019ZM65.3575 81.5499L65.332 74.0398C66.5806 74.1851 67.8415 74.3073 69.112 74.4228L69.1311 81.136C67.8706 81.2567 66.6073 81.3938 65.3575 81.5499ZM65.2956 82.109C66.5617 81.9557 67.8345 81.8119 69.1209 81.6871L69.1467 88.4098C67.86 88.2916 66.5827 88.1665 65.3178 88.0185L65.2956 82.109ZM64.7424 87.9542C59.1656 87.2992 53.7461 86.361 48.6292 85.1224C53.7204 83.8603 59.1337 82.8707 64.7238 82.1709L64.7356 87.9446L64.7424 87.9542ZM69.7335 96.1661C81.2246 95.1041 93.2545 95.206 104.628 96.5031L104.65 102.413C93.3235 103.787 81.2925 103.987 69.7562 103.006L69.7335 96.1661ZM104.586 102.988L104.592 106.39C93.2771 107.742 81.2719 107.937 69.7614 106.952L69.7527 103.566C81.2632 104.551 93.2616 104.346 104.586 102.988ZM105.217 87.799L105.198 82.0158C110.791 82.6735 116.211 83.6117 121.328 84.8503C116.227 86.1192 110.814 87.1087 105.217 87.799ZM69.6772 81.078L69.6482 74.4721C79.713 75.3372 90.1575 75.3036 100.194 74.3713L100.216 80.9677C90.1581 80.1121 79.7041 80.1525 69.6676 81.0848L69.6772 81.078ZM97.2133 74.0656C86.6411 74.8482 75.7074 74.6562 65.3192 73.4764L65.297 67.5669C76.6237 66.1921 88.6547 65.9926 100.184 66.9644L100.207 73.8039C99.2113 73.8943 98.2157 73.9847 97.2066 74.056L97.2133 74.0656ZM69.0848 88.9689L69.1039 95.6821C67.8434 95.8029 66.5801 95.9399 65.3303 96.096L65.3048 88.5859C66.5534 88.7312 67.8144 88.8534 69.0848 88.9689ZM152.934 83.9832L152.943 85.7942C152.87 85.9325 152.796 86.0707 152.715 86.1994C152.627 86.0756 152.54 85.9517 152.452 85.8279L152.44 83.4888C152.44 83.4888 152.515 83.3927 152.55 83.3398C152.682 83.5466 152.811 83.7697 152.927 83.9737L152.934 83.9832ZM151.765 84.9405C151.698 84.8453 151.621 84.7568 151.544 84.6683C151.619 84.5722 151.694 84.476 151.766 84.3962L151.772 84.9501L151.765 84.9405ZM151.758 83.4146C151.561 83.6828 151.381 83.9537 151.158 84.2258C149.026 81.8445 146.098 79.6126 142.429 77.5479C142.39 77.5328 142.353 77.5015 142.323 77.4797C142.703 77.2678 143.059 77.0436 143.426 76.8127C143.594 76.7073 143.77 76.6115 143.929 76.5129C144.257 76.309 144.569 76.1023 144.881 75.8957C147.811 77.8683 150.124 79.9787 151.758 82.1833L151.758 83.4146ZM143.605 76.0557C143.417 76.1746 143.213 76.2907 143.018 76.4C142.598 76.6552 142.161 76.9076 141.715 77.1668C141.701 77.1478 141.669 77.1422 141.646 77.1299C141.139 76.8595 140.622 76.5958 140.106 76.3321C139.958 76.2651 139.813 76.1818 139.666 76.1148C139.163 75.8701 138.651 75.6322 138.122 75.3916C137.944 75.3027 137.774 75.2234 137.587 75.1414C137.183 74.9554 136.753 74.7735 136.33 74.601L136.321 71.3157C139.346 72.6343 142.028 74.0536 144.343 75.5613C144.095 75.737 143.857 75.9059 143.595 76.0625L143.605 76.0557ZM132.531 81.4021C129.379 82.5919 126.022 83.6547 122.48 84.5771C122.15 84.4959 121.83 84.408 121.501 84.3268C121.259 84.269 121.008 84.218 120.76 84.1506C120.003 83.9717 119.246 83.7927 118.47 83.6273C118.317 83.5928 118.17 83.5679 118.017 83.5335C117.143 83.3514 116.269 83.1693 115.377 83.0008C115.337 82.9857 115.295 82.9869 115.256 82.9719C111.984 82.357 108.619 81.8519 105.185 81.4523L105.156 73.816C111.199 73.0674 117.028 71.9978 122.487 70.5889C125.99 71.4692 129.351 72.493 132.495 73.6558L132.527 81.3763L132.531 81.4021ZM104.63 81.4166C103.381 81.2713 102.121 81.1491 100.85 81.0336L100.831 74.3204C102.101 74.1929 103.355 74.0626 104.605 73.9065L104.623 81.4071L104.63 81.4166ZM100.175 66.4268C88.6717 65.451 76.6638 65.6628 65.3494 67.0145L65.3366 63.6029C76.651 62.2512 88.6562 62.0557 100.167 63.041L100.175 66.4268ZM64.6921 73.42C59.1316 72.7678 53.7379 71.8256 48.644 70.5994C53.7189 69.3345 59.1132 68.3584 64.6775 67.6626L64.6921 73.42ZM64.6886 73.9807L64.715 81.6333C58.7079 82.3711 52.895 83.4435 47.4707 84.8417C43.9288 83.9463 40.5518 82.9198 37.3682 81.7419L37.3446 74.073C40.5251 72.8629 43.9075 71.7961 47.4753 70.8697C52.9135 72.2383 58.7115 73.266 64.6914 73.9644L64.6886 73.9807ZM48.6155 99.6876C55.0291 98.0891 61.9516 96.9456 69.1072 96.2523L69.133 102.975L69.0842 102.967C61.9717 102.327 55.0442 101.241 48.6155 99.6876ZM146.093 93.685C147.475 92.7053 148.678 91.6951 149.76 90.6561C149.87 90.5492 149.997 90.4451 150.107 90.3382C150.53 89.9241 150.887 89.499 151.261 89.0767C151.405 88.917 151.576 88.7533 151.713 88.584C151.732 88.5705 151.754 88.5407 151.776 88.5109L151.809 97.8904C151.809 97.8904 151.809 97.8904 151.8 97.8972C151.591 98.1883 151.389 98.4891 151.148 98.7747C149.662 97.1231 147.789 95.5314 145.548 94.028C145.72 93.9064 145.915 93.797 146.086 93.6754L146.093 93.685ZM151.808 98.8787L151.806 99.5819C151.718 99.4581 151.618 99.3573 151.521 99.2402C151.624 99.1238 151.712 99.0046 151.799 98.8854L151.808 98.8787ZM152.915 96.1767C152.748 96.4667 152.607 96.7527 152.424 97.0399L152.39 87.6604C152.446 87.5778 152.509 87.5047 152.565 87.4221C152.596 87.3855 152.631 87.3327 152.662 87.2961C152.77 87.4485 152.852 87.6049 152.941 87.7708L152.97 96.0941C152.97 96.0941 152.934 96.1632 152.921 96.1862L152.915 96.1767ZM151.771 70.4242C151.703 70.329 151.626 70.2405 151.549 70.152C151.624 70.0558 151.699 69.9597 151.771 69.8798L151.777 70.4337L151.771 70.4242ZM36.8435 81.527C36.1195 81.2531 35.405 80.9725 34.7163 80.6879C34.536 80.6153 34.3652 80.536 34.2012 80.4662L34.1827 75.3699C35.0409 75.0048 35.9249 74.6358 36.8224 74.2857L36.8435 81.527ZM18.1968 99.5838C18.2643 99.6791 18.3481 99.7771 18.4252 99.8656C18.3501 99.9617 18.2751 100.058 18.2 100.154L18.1968 99.5838ZM34.1808 95.0219L34.1623 89.9256C35.0204 89.5605 35.9044 89.1914 36.8019 88.8414L36.8231 96.0826C36.0991 95.8088 35.3913 95.5377 34.7026 95.253C34.5223 95.1805 34.3515 95.1012 34.1712 95.0286L34.1808 95.0219ZM37.4051 100.822L37.4607 100.84C38.2336 101.122 39.0323 101.401 39.8309 101.679C39.0029 101.965 38.2007 102.248 37.4025 102.556L37.3956 100.829L37.4051 100.822ZM40.0624 101.157C39.5783 100.999 39.1132 100.828 38.6481 100.657C38.2522 100.522 37.8494 100.379 37.463 100.238L37.4499 96.9264C37.7577 97.0374 38.0587 97.1388 38.3665 97.2498C38.8642 97.4265 39.3618 97.6033 39.8595 97.78C40.2161 97.8993 40.5986 98.0146 40.9552 98.1339C41.518 98.3217 42.0835 98.4933 42.6558 98.6743C42.9271 98.754 43.2079 98.8268 43.4859 98.916C44.1722 99.1164 44.8585 99.3169 45.5638 99.5038C45.6913 99.5423 45.8216 99.5644 45.9491 99.6028C46.0928 99.644 46.2394 99.6689 46.3831 99.7101C44.4503 100.236 42.5703 100.796 40.7499 101.399C40.5275 101.328 40.2888 101.254 40.0664 101.183L40.0624 101.157ZM69.7293 107.533C81.2561 108.521 93.2843 108.338 104.625 106.982L104.653 116.981C101.53 117.363 98.3554 117.652 95.1557 117.845C94.334 117.898 93.5151 117.935 92.6866 117.978C85.0516 118.339 77.299 118.21 69.7683 117.567L69.7389 107.526L69.7293 107.533ZM130.269 101.382C131.062 101.106 131.848 100.821 132.624 100.543L132.623 102.218C132.292 102.095 131.943 101.985 131.595 101.859C131.153 101.7 130.711 101.541 130.26 101.389L130.269 101.382ZM152.464 100.389L152.452 98.05C152.608 97.8251 152.764 97.6003 152.913 97.3659C152.922 97.3592 152.941 97.3457 152.944 97.3294L152.956 100.355C152.882 100.494 152.808 100.632 152.727 100.761C152.639 100.637 152.558 100.522 152.471 100.399L152.464 100.389ZM153.007 81.5412C153.007 81.5412 152.983 81.5873 152.97 81.6103C152.84 81.8312 152.727 82.0548 152.597 82.2757C152.557 82.2185 152.516 82.1614 152.469 82.0947L152.437 72.3134C152.646 72.6087 152.814 72.9052 152.987 73.2112L153.017 81.5345L153.007 81.5412ZM103.801 73.46C102.819 73.5694 101.846 73.6721 100.857 73.772L100.832 67.0494C107.97 67.685 114.914 68.7734 121.359 70.33C115.82 71.7087 109.903 72.755 103.801 73.46ZM100.219 51.8834C88.7152 50.9077 76.7072 51.1195 65.3928 52.4712L65.3801 49.0596C76.704 47.7011 88.6997 47.5124 100.21 48.4977L100.219 51.8834ZM64.6973 67.1047C58.7065 67.8453 52.9194 68.9137 47.5113 70.3146C45.4712 69.8002 43.4814 69.2357 41.5421 68.6212C48.5625 66.3635 56.4332 64.7195 64.6845 63.6931L64.6973 67.1047ZM39.747 68.6343C38.9381 68.9073 38.1426 69.1992 37.3635 69.494L37.3509 67.7997C37.7143 67.9285 38.094 68.0601 38.4574 68.1889C38.8832 68.345 39.3089 68.5012 39.7375 68.6411L39.747 68.6343ZM36.7996 70.2945L36.8056 73.6965C36.8056 73.6965 36.777 73.7168 36.7512 73.7208C35.8986 74.0533 35.0527 74.3953 34.2231 74.7401L34.2076 71.3448C34.9856 71.008 35.7866 70.6835 36.6038 70.3617C36.6582 70.3374 36.7289 70.3159 36.7833 70.2917L36.7996 70.2945ZM15.352 83.6531C15.3735 83.7238 15.3949 83.7944 15.4192 83.8488C15.5574 84.266 15.7147 84.6697 15.8951 85.0857C15.7514 85.388 15.647 85.7053 15.5263 86.0199C15.4413 86.2232 15.3468 86.4333 15.2781 86.6395L15.2607 83.403C15.2793 83.4899 15.3143 83.5797 15.3425 83.6598L15.352 83.6531ZM15.2995 88.8714C15.3522 88.562 15.4308 88.2487 15.4999 87.9421C15.5662 87.6518 15.6257 87.352 15.7178 87.0577C15.8072 86.7797 15.929 86.5072 16.0414 86.2415C16.099 86.1005 16.1498 85.95 16.2169 85.8022C16.2614 85.8852 16.3059 85.9681 16.3503 86.0511L16.355 88.3807C16.2538 88.5813 16.162 88.7751 16.0608 88.9757C16.0239 89.0448 15.9869 89.1139 15.9568 89.1925C15.6939 89.751 15.4704 90.3245 15.2985 90.89L15.2864 89.0953C15.2864 89.0953 15.2951 88.946 15.309 88.8646L15.2995 88.8714ZM69.7648 118.127C81.2753 119.113 93.2737 118.908 104.598 117.549L104.604 120.951C93.2892 122.303 81.2841 122.498 69.7736 121.513L69.7648 118.127ZM116.396 115.082C115.381 115.286 114.349 115.488 113.311 115.68C111.583 115.989 109.834 116.27 108.056 116.529C107.136 116.666 106.203 116.783 105.27 116.901L105.241 106.903C113.867 105.839 122.082 104.095 129.354 101.687C130.529 102.071 131.684 102.469 132.795 102.884C133.637 103.203 134.462 103.519 135.259 103.856C135.361 103.898 135.469 103.95 135.571 103.992C135.633 104.02 135.696 104.047 135.758 104.074L135.774 109.187C131.686 110.955 127.175 112.45 122.352 113.707C120.406 114.214 118.41 114.67 116.377 115.095L116.396 115.082ZM30.9288 61.69C30.571 61.8721 30.239 62.0502 29.8907 62.2256C29.386 62.4832 28.8717 62.7476 28.3833 63.008C28.3547 63.0283 28.3098 63.0458 28.2812 63.0661C28.0902 62.9582 27.8733 62.8543 27.6823 62.7464C27.6823 62.7464 27.6823 62.7464 27.6755 62.7369C26.9114 62.3054 26.1853 61.8469 25.4823 61.4007C27.8209 59.8716 30.5149 58.4197 33.5589 57.0775L33.5649 60.4796C32.659 60.8785 31.7858 61.2829 30.9355 61.6996L30.9288 61.69ZM27.5267 63.3147C27.5267 63.3147 27.6256 63.3734 27.6784 63.4075C27.2797 63.6329 26.9135 63.8639 26.5379 64.1016C26.3691 64.2069 26.1936 64.3027 26.0343 64.4013C25.3307 64.8429 24.6528 65.2806 24.0142 65.7332C23.9094 65.8076 23.8209 65.8847 23.7256 65.9522C23.1537 66.3576 22.6117 66.7848 22.0954 67.208C21.8993 67.3757 21.7126 67.5367 21.5165 67.7044C21.0546 68.1033 20.6186 68.4983 20.1989 68.8961C20.079 69.0097 19.9495 69.1301 19.8364 69.2533C19.4929 69.597 19.1724 69.9529 18.871 70.2954C18.6264 70.0109 18.3845 69.7101 18.1656 69.4216L18.1603 67.9798C18.3568 67.7117 18.5275 67.4475 18.7567 67.1849C18.8849 67.0224 19.0553 66.8587 19.1903 66.7057C19.5449 66.2969 19.8995 65.8881 20.3125 65.4808C20.4133 65.3807 20.54 65.2766 20.6409 65.1764C21.6916 64.1739 22.8753 63.1773 24.2191 62.2246C24.4479 62.0625 24.7092 61.9059 24.9379 61.7437C25.76 62.2772 26.6175 62.8 27.5267 63.3147ZM37.4125 103.136C38.4963 102.725 39.6193 102.33 40.7492 101.944C45.044 103.336 49.6371 104.502 54.4566 105.422C59.1783 106.325 64.091 106.993 69.1078 107.444L69.1372 117.485C57.6418 116.46 46.6765 114.244 37.4306 110.837L37.4058 103.126L37.4125 103.136ZM154.645 86.3768C154.624 86.3061 154.609 86.245 154.578 86.1811C154.433 85.7543 154.279 85.3343 154.091 84.9088C154.247 84.5835 154.355 84.2499 154.485 83.9286C154.56 83.732 154.649 83.5544 154.715 83.3646L154.723 86.6078C154.695 86.5276 154.673 86.4569 154.645 86.3768ZM132.56 66.8397C131.477 67.2503 130.379 67.6417 129.243 68.0181C120.741 65.2575 111.009 63.4268 100.868 62.5152L100.839 52.4747C112.334 53.4993 123.293 55.7059 132.545 59.122L132.577 66.8425L132.56 66.8397ZM100.252 47.91C88.7345 46.9152 76.7131 47.1079 65.3633 48.4703L65.3096 34.4968C76.643 33.1316 88.674 32.9321 100.191 33.927L100.236 47.9072L100.252 47.91ZM64.7289 63.0891C56.119 64.1551 47.9139 65.893 40.6254 68.2978C39.451 67.9138 38.2794 67.5136 37.1459 67.0863C36.3107 66.7768 35.5108 66.4565 34.7205 66.1294C34.5401 66.0569 34.3626 65.9681 34.1823 65.8955L34.1638 60.7992C42.8178 57.0685 53.3942 54.494 64.6939 53.0811L64.7289 63.0891ZM16.423 69.5692L16.3646 69.5677L16.3654 69.7102C16.3654 69.7102 16.3408 69.7563 16.3285 69.7794C16.1958 70.0165 16.0469 70.2509 15.9374 70.5003C15.7786 70.8419 15.6618 71.1822 15.5288 71.5198C15.4562 71.7002 15.374 71.8872 15.3109 72.0608L15.2866 65.2797C15.5738 66.1495 15.9548 67.0101 16.4295 67.8615L16.4325 69.5625L16.423 69.5692ZM69.7307 122.059C70.0103 122.09 70.2899 122.12 70.5723 122.135C81.8441 123.046 93.5602 122.826 104.626 121.508L104.673 135.472C93.3395 136.837 81.3018 137.027 69.7845 136.032L69.7403 122.052L69.7307 122.059ZM152.465 114.915L152.418 102.182C152.493 102.086 152.561 101.98 152.636 101.884C152.655 101.871 152.677 101.841 152.689 101.818C152.797 101.97 152.879 102.127 152.968 102.293L153.016 114.782C152.92 114.95 152.831 115.128 152.729 115.286C152.641 115.163 152.56 115.048 152.472 114.924L152.465 114.915ZM153.595 102.106L153.592 100.405L153.651 100.407L153.65 100.264C153.65 100.264 153.687 100.195 153.708 100.165C153.832 99.9347 153.978 99.7166 154.084 99.4835C154.253 99.1351 154.382 98.7717 154.511 98.4083C154.574 98.2348 154.66 98.0735 154.714 97.9067L154.731 104.678C154.444 103.808 154.063 102.948 153.595 102.106ZM64.6982 49.1279L64.7109 52.5395C55.5943 53.6785 46.9297 55.5561 39.3756 58.1921C39.2858 58.2271 39.1961 58.2621 39.1063 58.2972C38.3136 58.5729 37.5277 58.8581 36.7649 59.1556C35.9122 59.4881 35.0664 59.8302 34.2368 60.175L34.2213 56.7797C34.9992 56.4428 35.8002 56.1183 36.6175 55.7965C44.782 52.6276 54.4445 50.4003 64.6819 49.1252L64.6982 49.1279ZM152.974 67.0519C152.854 67.266 152.741 67.4896 152.594 67.7077C152.554 67.6506 152.507 67.5839 152.466 67.5268L152.422 54.4764C152.478 54.3938 152.541 54.3207 152.594 54.2544C152.727 54.4611 152.849 54.6747 152.972 54.8882L153.014 66.9665C153.014 66.9665 152.98 67.0194 152.968 67.0424L152.974 67.0519ZM65.3361 33.9485L65.2823 19.975C76.6416 18.6058 88.6889 18.4091 100.232 19.3999L100.276 33.3802C88.7331 32.3893 76.6954 32.5793 65.3361 33.9485ZM64.7601 48.5688C53.4985 49.9546 42.9344 52.5061 34.2303 56.1865L34.1845 42.2646C42.8358 38.5502 53.4161 36.0014 64.7158 34.5886L64.7696 48.5621L64.7601 48.5688ZM80.5937 137.2C88.6815 137.377 96.8407 136.988 104.667 136.049L104.714 150.013C93.364 151.375 81.3071 151.579 69.7641 150.588L69.7199 136.608C73.3033 136.915 76.9455 137.124 80.5937 137.2ZM153.572 114.961L153.63 114.962L153.629 114.82C153.774 114.559 153.945 114.295 154.067 114.023C154.213 113.704 154.327 113.38 154.458 113.059C154.551 112.807 154.677 112.56 154.76 112.315L154.784 119.397C154.498 118.469 154.083 117.561 153.584 116.655L153.581 114.954L153.572 114.961ZM15.222 50.584C15.5077 51.5121 15.9224 52.4203 16.4213 53.3261L16.4243 55.0271L16.3659 55.0256L16.3668 55.1681C16.3668 55.1681 16.3326 55.221 16.3203 55.244C16.1877 55.4811 16.0388 55.7155 15.932 55.9486C15.7732 56.2902 15.6564 56.6306 15.533 56.9614C15.4425 57.1973 15.3261 57.4373 15.2451 57.6664L15.2334 56.1147L15.2153 50.5745L15.222 50.584ZM154.752 57.5196C154.737 57.4584 154.713 57.404 154.698 57.3429C154.67 57.2627 154.644 57.1662 154.616 57.0861C154.346 56.2611 153.99 55.4549 153.555 54.6607L153.544 52.7655C153.691 52.4891 153.823 52.2098 153.954 51.9306C153.991 51.8615 154.028 51.7924 154.058 51.7137C154.314 51.1458 154.545 50.5818 154.726 50.0095L154.752 57.5196Z"
            fill="url(#paint0_linear_3005_28709)" />
    </g>
    <defs>
        <linearGradient id="paint0_linear_3005_28709" x1="62.8546" y1="5.07968" x2="104.68" y2="177.897"
            gradientUnits="userSpaceOnUse">
            <stop stop-color="#D8D8D8" />
            <stop offset="0.87" stop-color="#3A3A3A" />
        </linearGradient>
        <clipPath id="clip0_3005_28709">
            <rect width="170" height="170" fill="white" />
        </clipPath>
    </defs>
</svg>