<svg width="210" height="120" viewBox="0 0 210 120" fill="none" xmlns="http://www.w3.org/2000/svg">
    <path
        d="M10.9328 67.1576L5 69.4232V46.1901H13.9917L23.3114 63.0831L32.8113 46.1901H41.7567V58.8702L35.5466 60.1207V52.484L30.5841 61.3251C25.5733 62.5155 22.7713 63.3125 17.7944 64.9796L10.9328 52.484V67.1576Z"
        fill="#F1AE5B" />
    <path d="M20.1829 69.4081L18.9123 66.9902C22.9172 65.7003 25.171 65.0646 29.2022 64.0462L26.2497 69.4081H20.1829Z"
        fill="#F1AE5B" />
    <path d="M35.5924 69.4089V62.492L41.8256 61.0986V69.4089H35.5924Z" fill="#F1AE5B" />
    <path d="M73.7938 56.5533L67.2371 69.3257H74.1218L80.9649 55.9811L73.7938 56.5533Z" fill="#F1AE5B" />
    <path
        d="M99.8984 69.3257H92.9722L90.9623 65.3943H86.3323L83.463 60.6092H88.504L86.0043 55.6535L92.6857 55.3259L99.8984 69.3257Z"
        fill="#F1AE5B" />
    <path d="M91.5359 53.0778C85.0177 53.39 81.4157 53.618 75.0634 54.0976L79.0788 46.0364H87.9318L91.5359 53.0778Z"
        fill="#F1AE5B" />
    <path
        d="M125.264 53.2806V46.1976H145.345L146.764 46.3811C147.102 46.4248 147.436 46.4984 147.76 46.6008L148.081 46.7021C148.656 46.8835 149.185 47.1862 149.634 47.5896C150.024 47.9413 150.346 48.3629 150.58 48.8326L150.596 48.8639C150.813 49.2952 150.955 49.7591 151.021 50.237L151.167 51.3149V53.2806L151.084 53.8805L150.991 54.2419C150.946 54.419 150.885 54.592 150.81 54.7592C150.728 54.9451 150.629 55.123 150.514 55.2907L150.364 55.5093C148.381 55.2295 146.963 55.094 144.939 54.9233V52.7209C144.939 52.497 144.889 52.2758 144.793 52.0734L144.732 51.9444C144.626 51.7219 144.45 51.5412 144.229 51.4311C144.076 51.3547 143.907 51.3149 143.736 51.3149H131.534V53.6497C128.979 53.5175 127.627 53.4344 125.264 53.2806Z"
        fill="#F1AE5B" />
    <path
        d="M147.776 57.4749C142.901 56.9122 140.035 56.6654 135.06 56.2666L141.33 58.7629L142.561 59.4211C142.914 59.6093 143.243 59.8356 143.546 60.096L143.678 60.21C143.89 60.3922 144.081 60.5969 144.249 60.8205L144.372 60.9869C144.609 61.3034 144.778 61.6656 144.866 62.0505C144.915 62.2607 144.939 62.4756 144.939 62.6912V69.2421H151.168V64.4939V62.2486C151.168 61.8638 151.129 61.4801 151.051 61.1033L151.039 61.0489C150.962 60.6735 150.843 60.3079 150.684 59.9588L150.659 59.9013C150.464 59.4709 150.205 59.072 149.891 58.7177L149.664 58.4603C149.412 58.1756 149.108 57.9417 148.768 57.7711C148.457 57.6152 148.122 57.5147 147.776 57.4749Z"
        fill="#F1AE5B" />
    <path d="M131.534 56.0218C129.253 55.7536 127.871 55.6409 125.264 55.4911V69.2418H131.534V56.0218Z"
        fill="#F1AE5B" />
    <path
        d="M177.955 52.2662V54.5088C177.955 54.8708 177.992 55.232 178.065 55.5867L178.147 55.9882C178.225 56.3725 178.35 56.746 178.518 57.1005L178.572 57.2126C178.751 57.5918 178.989 57.9413 179.275 58.2484C179.53 58.5226 179.823 58.7603 180.144 58.955L180.263 59.0274C180.605 59.235 180.972 59.4017 181.353 59.5239L182.017 59.7368C182.697 59.8566 183.384 59.9244 184.075 59.9397L196.554 60.2167L197.461 60.3006C197.718 60.3243 197.966 60.4073 198.186 60.5431L198.237 60.5748C198.468 60.7177 198.655 60.9224 198.776 61.1656C198.877 61.367 198.928 61.5888 198.928 61.8136V62.1685V62.8068C198.928 63.0423 198.871 63.2741 198.762 63.4825C198.65 63.6953 198.487 63.877 198.287 64.0114L198.154 64.1007C197.954 64.2358 197.732 64.3353 197.498 64.3944L197.35 64.4317C197.112 64.4915 196.868 64.5218 196.623 64.5218H190.584C195.515 65.9764 198.132 66.8167 201.867 68.4717C202.154 68.4717 202.436 68.3945 202.684 68.2483L203.075 68.0171C203.346 67.8565 203.593 67.6573 203.808 67.426L203.9 67.327C204.115 67.0942 204.303 66.8376 204.46 66.5623L204.54 66.4229C204.686 66.1687 204.799 65.897 204.876 65.6145C204.959 65.315 205 65.0059 205 64.6954V59.8161C205 59.4724 204.955 59.1301 204.869 58.7975C204.796 58.5201 204.694 58.2512 204.565 57.9954L204.453 57.776C204.301 57.4761 204.104 57.2011 203.869 56.9604C203.614 56.6998 203.318 56.4829 202.992 56.3185L202.727 56.1847C202.448 56.0429 202.154 55.9273 201.852 55.8395L201.601 55.7665C201.193 55.6481 200.777 55.5625 200.357 55.5106L198.59 55.2932L186.929 55.0533H185.964C185.77 55.0533 185.578 55.0255 185.392 54.9709L185.233 54.9242C184.947 54.84 184.693 54.6715 184.504 54.4407C184.34 54.2404 184.231 54.0007 184.188 53.7454L184.162 53.5859C184.143 53.4723 184.133 53.3573 184.133 53.2422V52.8228C184.133 52.7257 184.142 52.6289 184.159 52.5334L184.168 52.4856C184.224 52.184 184.373 51.9075 184.595 51.6955C184.726 51.5695 184.881 51.4694 185.05 51.4002L185.286 51.303C185.542 51.1982 185.812 51.1316 186.086 51.1053L186.929 51.025H196.036L196.908 51.1124C197.123 51.134 197.333 51.1911 197.528 51.2814L197.635 51.3304C197.883 51.4446 198.095 51.6234 198.249 51.848C198.329 51.9632 198.392 52.0889 198.436 52.2213L198.471 52.3218C198.55 52.557 198.59 52.8035 198.59 53.0517V53.4152H204.561V51.8602L204.459 50.8866L204.307 50.1785C204.251 49.9188 204.176 49.6637 204.081 49.4154L204.075 49.3977C203.907 48.9558 203.678 48.5394 203.395 48.1604L203.333 48.0768C203.182 47.874 203.012 47.6859 202.825 47.5152C202.506 47.2237 202.141 46.9857 201.747 46.8102L201.6 46.7449C201.259 46.5933 200.901 46.4804 200.534 46.4082L199.871 46.2776C199.339 46.1726 198.8 46.1072 198.257 46.0817L196.517 46H187.867H185.275L183.736 46.12L182.967 46.2338C182.587 46.2901 182.211 46.3758 181.844 46.4903C181.443 46.6154 181.052 46.7744 180.677 46.9655L180.381 47.1167L180.279 47.1869C179.754 47.5489 179.303 48.0079 178.952 48.539C178.656 48.9845 178.434 49.4744 178.294 49.9902L178.229 50.2305C178.121 50.627 178.05 51.0327 178.019 51.4423L177.955 52.2662Z"
        fill="#F1AE5B" />
    <path
        d="M198.155 69.4358C190.65 66.9445 186.351 65.5914 178.023 63.4926V63.5538C178.023 64.0532 178.073 64.5514 178.171 65.041L178.21 65.2341C178.273 65.549 178.364 65.8577 178.484 66.1563L178.533 66.2817C178.716 66.7417 178.972 67.169 179.292 67.5465C179.585 67.8905 179.926 68.1893 180.306 68.433L180.382 68.482C180.792 68.7444 181.235 68.9477 181.701 69.086L182.039 69.1862C182.597 69.3521 183.173 69.4536 183.755 69.4887L186.165 69.6342H195.794L198.155 69.4358Z"
        fill="#F1AE5B" />
    <path fill-rule="evenodd" clip-rule="evenodd"
        d="M67.3573 75.8718H71.2983C71.7067 75.8718 72.1129 75.9308 72.5044 76.0468L72.6484 76.0894C73.0447 76.2068 73.4163 76.3949 73.7452 76.6449L73.7713 76.6646C74.0851 76.9029 74.3544 77.1994 74.5623 77.5325C74.7787 77.8794 74.9289 78.2685 75.0001 78.6723L75.0132 78.7466C75.0521 78.9677 75.0623 79.193 75.0436 79.4167C75.0155 79.7528 74.9224 80.0803 74.7695 80.3811L74.6635 80.5898C74.5624 80.7886 74.4441 80.9781 74.3099 81.1562L74.2982 81.1718C74.1251 81.4015 73.9279 81.6119 73.7104 81.7993L73.9015 81.8902C74.1613 82.0139 74.4052 82.1684 74.6279 82.3504L74.7151 82.4216C75.0196 82.6704 75.274 82.9804 75.4599 83.3248C75.591 83.5674 75.6892 83.8309 75.7478 84.1015C75.792 84.3059 75.8144 84.5144 75.8144 84.7235V84.89C75.8144 85.2746 75.7444 85.6559 75.6079 86.0155C75.4963 86.3089 75.342 86.5842 75.1496 86.8324L75.1279 86.8602C74.8747 87.1871 74.564 87.4651 74.2111 87.681L74.1443 87.7219C73.9874 87.8179 73.8231 87.9014 73.6531 87.9716C73.2273 88.1476 72.771 88.2382 72.3102 88.2382H67.4263V84.7956H68.2394V87.4262H72.3102C72.6643 87.4262 73.015 87.3566 73.3422 87.2215C73.4728 87.1675 73.5991 87.1033 73.7197 87.0295L73.7865 86.9886C74.0554 86.8241 74.2921 86.6123 74.4851 86.3633L74.5067 86.3354C74.6498 86.1508 74.7647 85.9459 74.8476 85.7275C74.9493 85.46 75.0013 85.1762 75.0013 84.89V84.7235C75.0013 84.5721 74.9852 84.4212 74.9531 84.2733C74.911 84.0784 74.8396 83.8867 74.7443 83.7102C74.608 83.4577 74.4213 83.2306 74.2002 83.05L74.113 82.9787C73.9409 82.838 73.7525 82.7187 73.5517 82.6231L72.8355 82.2823H68.1703V82.2885H67.3573V75.8718ZM68.1703 81.4704H72.7993L72.9216 81.3849C73.1993 81.1908 73.4447 80.954 73.6486 80.6836L73.6602 80.6681C73.7659 80.5279 73.859 80.3787 73.9385 80.2223L74.0445 80.0137C74.1499 79.8064 74.2141 79.5807 74.2334 79.349C74.2464 79.1949 74.2393 79.0397 74.2125 78.8873L74.1994 78.8128C74.1465 78.5127 74.0342 78.2215 73.8723 77.9619C73.716 77.7114 73.5135 77.4888 73.2793 77.3109L73.2532 77.2911C73.0024 77.1007 72.7191 76.9572 72.4171 76.8678L72.2731 76.8251C71.9568 76.7313 71.6284 76.6838 71.2983 76.6838H68.1703V81.4704ZM144.014 75.8953H151.19V76.7072H144.828V80.2781H144.014V75.8953ZM120.797 76.116C121.319 75.9881 121.853 75.9235 122.391 75.9235H122.489C122.965 75.9235 123.44 75.9907 123.897 76.1228C124.371 76.2592 124.81 76.4919 125.189 76.8059L125.281 76.8828L125.435 77.0322C125.607 77.1991 125.759 77.385 125.89 77.5862L125.932 77.6527C126.009 77.771 126.075 77.8962 126.129 78.0264C126.151 78.0809 126.177 78.1358 126.212 78.2057C126.244 78.2715 126.283 78.3517 126.318 78.4367C126.392 78.6217 126.465 78.8919 126.465 79.2345H125.652C125.652 79.0098 125.604 78.842 125.563 78.7389C125.542 78.6855 125.515 78.6309 125.481 78.5623L125.476 78.5526C125.445 78.49 125.408 78.4142 125.376 78.3351C125.341 78.2507 125.299 78.1696 125.249 78.093L125.207 78.0264C125.11 77.8768 124.997 77.7385 124.868 77.6144L124.737 77.4872L124.668 77.4303C124.377 77.1878 124.037 77.0081 123.673 76.9028C123.287 76.7917 122.889 76.7354 122.489 76.7354H122.391C121.919 76.7354 121.449 76.7922 120.991 76.9045L120.862 76.9361C120.51 77.0222 120.185 77.1902 119.911 77.4263L119.841 77.4875C119.597 77.6982 119.389 77.9473 119.225 78.2251L119.192 78.2806C119.067 78.4943 119 78.7377 119 78.9855V79.1194C119 79.3151 119.029 79.5097 119.086 79.697L119.089 79.7091C119.184 80.0236 119.357 80.309 119.592 80.5392C119.74 80.6858 119.913 80.8075 120.1 80.8996L120.319 81.0068C120.596 81.1421 120.888 81.2401 121.19 81.2982L122.166 81.4858C122.886 81.5986 123.597 81.7686 124.29 81.9942L124.311 82.0009L124.868 82.2111C125.266 82.3611 125.629 82.5917 125.933 82.8886L125.972 82.9271C126.257 83.2047 126.48 83.5392 126.626 83.9086C126.757 84.2386 126.824 84.5901 126.824 84.9449V85.1744C126.824 85.5384 126.758 85.8994 126.63 86.24C126.484 86.6271 126.262 86.9802 125.973 87.2778L125.948 87.3046C125.747 87.5124 125.519 87.6923 125.27 87.8393L125.198 87.8817C124.776 88.1311 124.309 88.2972 123.825 88.3708L123.567 88.4099C123.309 88.449 123.05 88.4685 122.79 88.4685H122.393C121.849 88.4685 121.308 88.3914 120.787 88.2393L120.706 88.2158C120.463 88.145 120.225 88.0545 119.996 87.9455L119.838 87.8699C119.512 87.7147 119.214 87.5111 118.95 87.266C118.601 86.9424 118.322 86.5524 118.128 86.119L118.097 86.0509C118.02 85.8791 117.951 85.6927 117.905 85.4926C117.858 85.2839 117.791 84.9504 117.791 84.6733H118.604C118.604 84.852 118.652 85.1086 118.698 85.3124C118.728 85.4452 118.777 85.5796 118.84 85.7195L118.87 85.7876C119.02 86.1217 119.236 86.4224 119.504 86.6718C119.707 86.8607 119.938 87.0176 120.188 87.1372L120.346 87.2128C120.535 87.303 120.732 87.3777 120.933 87.4364L121.014 87.46C121.462 87.5904 121.926 87.6566 122.393 87.6566H122.79C123.009 87.6566 123.228 87.6401 123.444 87.6072L123.702 87.5682C124.084 87.5102 124.452 87.3793 124.784 87.1828L124.856 87.1404C125.042 87.0306 125.213 86.8963 125.363 86.7409L125.388 86.7143C125.599 86.4964 125.762 86.2379 125.869 85.9545C125.963 85.7051 126.011 85.4409 126.011 85.1744V84.9449C126.011 84.6923 125.963 84.442 125.87 84.207C125.766 83.9439 125.608 83.7058 125.405 83.5082L125.365 83.4695C125.141 83.2509 124.874 83.0811 124.581 82.9706L124.041 82.7672L124.038 82.7661C123.384 82.5533 122.714 82.3931 122.033 82.2869L122.096 81.8857L122.019 82.2843L121.037 82.0954C120.663 82.0237 120.302 81.9027 119.961 81.7356L119.743 81.6285C119.476 81.498 119.233 81.3258 119.021 81.1183C118.69 80.7925 118.445 80.3884 118.311 79.9433L118.308 79.9312C118.227 79.6679 118.187 79.3944 118.187 79.1194V78.9855C118.187 78.593 118.293 78.2077 118.491 77.8694L118.524 77.8137C118.732 77.4595 118.997 77.1419 119.309 76.8733L119.379 76.8121C119.75 76.4921 120.192 76.2643 120.667 76.1477L120.797 76.116ZM96.3589 76.0034H97.3387L99.8464 82.7436V82.9764H99.0335V82.8895L96.8431 77.0024L92.3866 88.4866L91.6286 88.1933L96.3589 76.0034ZM144.014 81.6632H150.763V82.4751H144.828V87.3746H151.274V88.1865H144.014V81.6632ZM98.161 84.2532H100.359L101.968 88.2616V88.495H101.155V88.4183L99.8093 85.0652H98.2066V84.8506L98.0751 84.2728L98.161 84.2532Z"
        fill="#F1AE5B" />
</svg>