<svg width="210" height="120" viewBox="0 0 210 120" fill="none" xmlns="http://www.w3.org/2000/svg">
    <g clip-path="url(#clip0_3004_6656)">
        <path
            d="M49.2455 54.0582L49.2464 54.0586C50.17 54.4796 50.8911 55.0734 51.4209 55.8407L51.4216 55.8418C51.942 56.5909 52.2104 57.4901 52.2104 58.56V71.5179H49.762V59.23C49.762 57.9895 49.3332 56.9814 48.4379 56.2693C47.5686 55.5778 46.4607 55.2529 45.1499 55.2529C44.2651 55.2529 43.4239 55.3962 42.6324 55.6886C41.8268 55.9863 41.1629 56.4429 40.6522 57.0603L40.6507 57.062C40.1204 57.7096 39.8679 58.5145 39.8679 59.4475V71.5179H37.437V45.4545H39.7954V55.9625V57.5902L40.6387 56.198C40.9254 55.7248 41.3144 55.2734 41.8152 54.8455C42.3007 54.4306 42.9 54.088 43.6216 53.8183C44.3228 53.5561 45.1496 53.4195 46.1125 53.4195C47.2781 53.4195 48.3197 53.6338 49.2455 54.0582Z"
            fill="#F1AE5B" stroke="#F1AE5B" />
        <path d="M58.6395 48.7704V46.1945H61.1604V48.7704H58.6395Z" fill="#F1AE5B" stroke="#F1AE5B" />
        <path d="M58.7495 71.5129V53.6545H61.088V71.5129H58.7495Z" fill="#F1AE5B" stroke="#F1AE5B" />
        <path
            d="M92.7577 71.2448C91.6967 71.6659 90.5932 71.8754 89.4399 71.8754C87.75 71.8754 86.29 71.5107 85.0356 70.793C83.7823 70.0758 82.8017 69.0463 82.0898 67.6911C81.3813 66.3425 81.017 64.7062 81.017 62.765C81.017 60.8445 81.3479 59.181 81.9935 57.7634C82.6376 56.3493 83.5647 55.2562 84.7769 54.4716C85.9808 53.6923 87.4439 53.2921 89.1875 53.2921C90.8869 53.2921 92.2939 53.6575 93.4294 54.3657C94.5718 55.0783 95.4417 56.0804 96.0445 57.3899C96.6464 58.7026 96.9555 60.2774 96.9555 62.1275V62.908H83.9599H83.5054V63.3625C83.5054 64.6011 83.7115 65.7329 84.129 66.7566C84.5525 67.7953 85.2057 68.6313 86.0855 69.2515C86.9829 69.8842 88.0875 70.1871 89.3699 70.1871C90.6394 70.1871 91.7604 69.8921 92.7104 69.2801C93.5807 68.7216 94.1684 67.9333 94.4735 66.9395H96.7345C96.4845 67.8983 96.0491 68.7127 95.437 69.3935C94.6972 70.213 93.8059 70.8303 92.7577 71.2448ZM83.5229 61.1011L83.5289 61.5495H83.9775H94.1774H94.6319V61.095C94.6319 59.9656 94.4405 58.9347 94.0516 58.0068C93.6567 57.0644 93.0488 56.3078 92.2266 55.7532L92.2257 55.7526C91.3894 55.1913 90.3605 54.923 89.1675 54.923C87.9211 54.923 86.8484 55.2241 85.9865 55.8556C85.1511 56.466 84.5248 57.2503 84.1128 58.2019C83.7082 59.1362 83.5095 60.1022 83.5229 61.1011Z"
            fill="#F1AE5B" stroke="#F1AE5B" />
        <path
            d="M116.164 48.4602L116.163 48.4612C115.812 48.9837 115.668 49.7137 115.668 50.585V53.2V53.6545H116.123H120.278V55.1954H116.177H115.723V55.65V71.5129H113.255V55.65V55.1954H112.8H109.297V53.6545H112.8H113.255V53.2V50.295C113.255 48.879 113.615 47.8754 114.267 47.2077C114.915 46.5446 115.916 46.1745 117.355 46.1745H120.444L120.455 47.6429H118.1C117.273 47.6429 116.564 47.869 116.164 48.4602Z"
            fill="#F1AE5B" stroke="#F1AE5B" />
        <path
            d="M134.6 55.7213C134.535 55.7111 134.47 55.7025 134.403 55.6954C134.115 55.6652 133.866 55.6487 133.653 55.648C132.872 55.5971 132.132 55.6441 131.437 55.793C130.731 55.944 130.1 56.2052 129.552 56.5794L129.55 56.5802C128.992 56.964 128.552 57.4666 128.234 58.0808C127.907 58.7105 127.755 59.4538 127.755 60.295V71.5104H125.325V53.652H127.61V56.81L128.494 56.9609C128.791 56.1172 129.199 55.4345 129.715 54.9018C130.244 54.3603 130.84 53.9577 131.51 53.6926C132.189 53.4236 132.893 53.2895 133.62 53.2895C133.875 53.2895 134.126 53.3078 134.376 53.3403C134.464 53.3528 134.538 53.3673 134.6 53.3826V55.7213Z"
            fill="#F1AE5B" stroke="#F1AE5B" />
        <path
            d="M175.865 54.0754C176.78 53.5554 177.824 53.2895 178.997 53.2895C179.605 53.2895 180.247 53.3823 180.927 53.5727C181.578 53.7547 182.185 54.0737 182.748 54.5382C183.293 54.9863 183.754 55.6181 184.118 56.4516C184.473 57.265 184.661 58.3372 184.661 59.6924V71.5079H182.192V60.02C182.192 58.8451 182.008 57.8702 181.588 57.1487C181.183 56.453 180.638 55.9436 179.951 55.6455L179.949 55.6449C179.304 55.3672 178.615 55.2279 177.89 55.2279C177.247 55.2279 176.579 55.3547 175.887 55.5986C175.153 55.8564 174.531 56.2921 174.02 56.8968C173.471 57.547 173.223 58.4051 173.223 59.4224V71.5104H170.792V59.0424C170.792 58.217 170.57 57.4982 170.105 56.9084L170.104 56.9075C169.664 56.3532 169.114 55.9323 168.458 55.648L168.457 55.6476C167.822 55.3732 167.175 55.2304 166.527 55.2304C165.827 55.2304 165.126 55.3674 164.429 55.6418C163.704 55.9264 163.096 56.3773 162.605 56.9875C162.083 57.6372 161.843 58.4636 161.843 59.4224V71.5104H159.412V53.652H161.733V55.92V57.4895L162.572 56.1629C163.055 55.3995 163.723 54.7229 164.585 54.1358C165.396 53.5839 166.479 53.2895 167.87 53.2895C168.495 53.2895 169.14 53.3955 169.807 53.6122C170.466 53.8258 171.07 54.146 171.621 54.574C172.16 54.9922 172.575 55.5009 172.872 56.1032L173.23 56.8305L173.664 56.1456C174.205 55.2916 174.934 54.6028 175.865 54.0754Z"
            fill="#F1AE5B" stroke="#F1AE5B" />
        <path d="M5.45456 59.0004V53.6545H7.67297V59.0004H5.45456Z" fill="#F1AE5B" stroke="#F1AE5B" />
        <path d="M17.967 59.0004V53.6545H20.1854V59.0004H17.967Z" fill="#F1AE5B" stroke="#F1AE5B" />
        <path d="M30.4796 59.0004V53.6545H32.698V59.0004H30.4796Z" fill="#F1AE5B" stroke="#F1AE5B" />
        <path d="M8.582 65.2555V59.9095H10.8004V65.2555H8.582Z" fill="#F1AE5B" stroke="#F1AE5B" />
        <path d="M14.8395 65.2555V59.9095H17.0579V65.2555H14.8395Z" fill="#F1AE5B" stroke="#F1AE5B" />
        <path d="M11.7094 71.5105V66.1646H13.9279V71.5105H11.7094Z" fill="#F1AE5B" stroke="#F1AE5B" />
        <path d="M21.0945 65.2555V59.9095H23.3128V65.2555H21.0945Z" fill="#F1AE5B" stroke="#F1AE5B" />
        <path d="M27.3495 65.2555V59.9095H29.5679V65.2555H27.3495Z" fill="#F1AE5B" stroke="#F1AE5B" />
        <path d="M24.2221 71.5105V66.1646H26.4405V71.5105H24.2221Z" fill="#F1AE5B" stroke="#F1AE5B" />
        <path
            d="M72.4254 53.0275V53.4821H72.8799H78.7404V55.7305H72.8799H72.4254V56.185V68.3555H70.1795V56.185V55.7305H69.7249H67.0219V53.4821H69.7249H70.1795V53.0275V47.1696H72.4254V53.0275Z"
            fill="#F1AE5B" stroke="#F1AE5B" />
        <path d="M73.3345 71.513V69.2645H78.7379V71.513H73.3345Z" fill="#F1AE5B" stroke="#F1AE5B" />
        <path
            d="M149.98 59.9096H150.435V59.455V56.7821H152.653V68.3855H150.435V62.5826V62.128H149.98H144.177V59.9096H149.98Z"
            fill="#F1AE5B" stroke="#F1AE5B" />
        <path d="M140.595 65.2554H140.141V65.71V68.3854H137.922V63.037H143.268V65.2554H140.595Z" fill="#F1AE5B"
            stroke="#F1AE5B" />
        <path d="M141.05 55.8729V53.6545H149.525V55.8729H141.05Z" fill="#F1AE5B" stroke="#F1AE5B" />
        <path d="M137.922 59.0005V56.7821H140.141V59.0005H137.922Z" fill="#F1AE5B" stroke="#F1AE5B" />
        <path d="M192.942 55.8729V53.6545H201.418V55.8729H192.942Z" fill="#F1AE5B" stroke="#F1AE5B" />
        <path d="M192.942 71.5129V69.2946H201.418V71.5129H192.942Z" fill="#F1AE5B" stroke="#F1AE5B" />
        <path d="M202.327 68.383V66.1646H204.545V68.383H202.327Z" fill="#F1AE5B" stroke="#F1AE5B" />
        <path d="M201.873 59.9096H202.327V59.455V56.7821H204.545V62.128H199.2V59.9096H201.873Z" fill="#F1AE5B"
            stroke="#F1AE5B" />
        <path
            d="M192.033 62.5826V63.0371H192.487H198.291V65.2555H192.487H192.033V65.71V68.3855H189.815V56.7821H192.033V62.5826Z"
            fill="#F1AE5B" stroke="#F1AE5B" />
        <path d="M141.05 71.5129V69.2946H149.525V71.5129H141.05Z" fill="#F1AE5B" stroke="#F1AE5B" />
        <path d="M153.562 71.5129V69.2946H155.78V71.5129H153.562Z" fill="#F1AE5B" stroke="#F1AE5B" />
    </g>
    <defs>
        <clipPath id="clip0_3004_6656">
            <rect width="200" height="30" fill="#F1AE5B" transform="translate(5 45)" />
        </clipPath>
    </defs>
</svg>