<svg width="210" height="120" viewBox="0 0 210 120" fill="none" xmlns="http://www.w3.org/2000/svg">
    <g clip-path="url(#clip0_3004_6688)">
        <path
            d="M82.3302 59.1693L95.8328 78.3946H85.9273L77.6265 66.0074L69.3258 78.3946H59.6969L73.0888 59.3374L60.0843 40.8408H69.9898L77.8479 52.5553L85.9826 40.8408H95.0581L82.3302 59.1693Z"
            fill="#F1AE5B" />
        <path d="M114.398 40.8408V78.3946H106.54V48.5757H98.0175V40.8408H114.398Z" fill="#F1AE5B" />
        <path
            d="M120.199 63.9335V55.3018C120.199 46.1655 126.674 40 135.196 40C143.662 40 150.303 46.1095 150.303 55.2457V63.9335C150.303 73.0697 143.607 79.2353 135.085 79.2353C126.563 79.2353 120.199 72.9576 120.199 63.9335ZM128.057 55.3018V63.9335C128.057 68.5857 131.045 71.2762 135.085 71.2762C139.235 71.2762 142.39 68.5297 142.39 63.9335V55.2457C142.39 50.7056 139.346 47.9031 135.196 47.9031C131.101 47.9031 128.057 50.6496 128.057 55.3018Z"
            fill="#F1AE5B" />
    </g>
    <defs>
        <clipPath id="clip0_3004_6688">
            <rect width="92" height="39" fill="#F1AE5B" transform="translate(59 40)" />
        </clipPath>
    </defs>
</svg>