<svg width="191" height="60" viewBox="0 0 191 60" fill="none" xmlns="http://www.w3.org/2000/svg">
<path d="M68.6252 29.5435V13.175H78.8009C80.2984 13.175 81.5355 13.3669 82.5121 13.7411C83.4888 14.1153 84.205 14.6142 84.6514 15.2379C85.1072 15.8615 85.3304 16.5811 85.3304 17.3871C85.3304 18.5768 84.9026 19.5171 84.0562 20.2175C83.2097 20.9179 81.954 21.2729 80.2891 21.2729V21.484C81.768 21.484 82.9028 21.8198 83.6934 22.501C84.4747 23.1822 84.8747 24.0841 84.8747 25.2067C84.8747 26.051 84.6607 26.7994 84.2329 27.4518C83.805 28.1043 83.126 28.6224 82.2052 28.9966C81.2844 29.3708 80.131 29.5626 78.7358 29.5626H68.6252V29.5435ZM77.8336 25.9647C78.4102 25.9647 78.8753 25.8975 79.2288 25.7536C79.5822 25.6097 79.8426 25.4178 80.0101 25.1779C80.1775 24.938 80.2612 24.6406 80.2612 24.3048C80.2612 23.969 80.1775 23.6907 80.0101 23.4509C79.8426 23.211 79.5822 23.0191 79.2195 22.8752C78.8567 22.7313 78.3916 22.6641 77.8336 22.6641H72.662V20.1599H78.28C79.1078 20.1599 79.7217 20.0064 80.1124 19.6898C80.503 19.3828 80.6984 18.951 80.6984 18.4041C80.6984 17.9052 80.4937 17.5022 80.0938 17.1952C79.6938 16.8882 79.0892 16.7346 78.2707 16.7346H73.0155V25.9455H77.8243L77.8336 25.9647Z" fill="white"/>
<path d="M84.3819 29.5435L92.0648 13.175H97.7758L105.459 29.5435H100.566L94.9854 17.3871H94.7993L89.2651 29.5435H84.3726H84.3819ZM89.6185 26.0318V23.5084H100.203V26.0318H89.6185Z" fill="white"/>
<path d="M105.914 29.5435V13.175H112.965L119.197 25.3122H119.383V13.175H123.643V29.5435H116.592L110.36 17.4063H110.184V29.5435H105.924H105.914Z" fill="white"/>
<path d="M124.098 29.5435L131.781 13.175H137.492L145.175 29.5435H140.283L134.702 17.3871H134.516L128.982 29.5435H124.089H124.098ZM129.335 26.0318V23.5084H139.92V26.0318H129.335Z" fill="white"/>
<path d="M145.64 29.5435V13.175H152.691L158.923 25.3122H159.109V13.175H163.369V29.5435H156.318L150.086 17.4063H149.91V29.5435H145.65H145.64Z" fill="white"/>
<path d="M163.824 29.5435L171.507 13.175H177.218L184.901 29.5435H180.009L174.428 17.3871H174.242L168.708 29.5435H163.815H163.824ZM169.061 26.0318V23.5084H179.646V26.0318H169.061Z" fill="white"/>
<path d="M75.2106 47.0823C73.7131 47.0823 72.4295 46.8137 71.3412 46.2668C70.253 45.7199 69.4252 44.9715 68.8578 44.0217C68.2904 43.0622 68.0021 41.9876 68.0021 40.7883C68.0021 39.589 68.2904 38.4952 68.8764 37.5453C69.4624 36.5954 70.3181 35.8471 71.4529 35.3002C72.5876 34.7533 73.9549 34.4846 75.5548 34.4846C76.55 34.4846 77.4894 34.6189 78.3638 34.8876C79.2381 35.1562 79.9171 35.4633 80.3914 35.7991V37.6412C79.9357 37.2479 79.2753 36.8833 78.401 36.5571C77.5266 36.2308 76.5779 36.0677 75.5548 36.0677C74.3456 36.0677 73.3038 36.2788 72.4388 36.6914C71.5738 37.1039 70.9134 37.67 70.4669 38.3896C70.0112 39.1092 69.7879 39.9056 69.7879 40.7979C69.7879 41.6902 70.0019 42.4769 70.439 43.1965C70.8762 43.9161 71.5087 44.4918 72.3272 44.9044C73.155 45.3169 74.113 45.528 75.2106 45.528C76.1593 45.528 77.0616 45.4033 77.8987 45.1538C78.7451 44.9044 79.3962 44.6261 79.8799 44.3191V46.1037C79.4148 46.3628 78.7637 46.593 77.908 46.7945C77.0616 46.996 76.1593 47.1015 75.2106 47.1015V47.0823Z" fill="white"/>
<path d="M82.5865 46.9V34.6477H89.2928C90.3066 34.6477 91.1717 34.8012 91.86 35.1178C92.5576 35.4345 93.0784 35.8662 93.4319 36.4227C93.7853 36.9792 93.9621 37.6124 93.9621 38.3224C93.9621 38.9653 93.8133 39.5314 93.5249 40.0399C93.2273 40.5388 92.7994 40.9322 92.232 41.22C91.6646 41.5079 90.9949 41.6518 90.2322 41.6518V41.7381C91.3019 41.7381 92.1111 41.978 92.6506 42.4577C93.1901 42.9375 93.4598 43.5995 93.4598 44.4534V46.9H91.767V44.5398C91.767 43.8777 91.5623 43.3692 91.1624 43.0334C90.7624 42.6976 90.1392 42.5249 89.3021 42.5249H84.0282V40.865H89.3021C90.2415 40.865 90.9577 40.6539 91.4507 40.2414C91.9437 39.8288 92.1855 39.2723 92.1855 38.5911C92.1855 37.9099 91.9437 37.3534 91.4507 36.9408C90.9577 36.5282 90.2415 36.3172 89.3021 36.3172H84.298V46.9096H82.6051L82.5865 46.9Z" fill="white"/>
<path d="M100.296 46.9V44.0984L94.1852 34.6477H96.0827L101.087 42.5249H101.189L106.193 34.6477H108.091L101.98 44.0984V46.9H100.287H100.296Z" fill="white"/>
<path d="M110.751 46.9H109.058V34.6477H115.764C116.797 34.6477 117.652 34.8108 118.35 35.1274C119.048 35.4441 119.569 35.9046 119.913 36.4995C120.257 37.0943 120.434 37.7851 120.434 38.5815C120.434 39.3778 120.257 40.0687 119.913 40.6635C119.569 41.2584 119.048 41.7189 118.35 42.0356C117.652 42.3522 116.787 42.5153 115.764 42.5153H110.49V40.8554H115.764C116.704 40.8554 117.42 40.6443 117.913 40.2318C118.406 39.8192 118.648 39.2627 118.648 38.5815C118.648 37.9003 118.406 37.3438 117.913 36.9312C117.42 36.5187 116.704 36.3076 115.764 36.3076H110.76V46.9H110.751Z" fill="white"/>
<path d="M121.271 36.3173V34.6575H132.47V36.3173H121.271ZM126.024 46.9098V36.0391H127.717V46.9098H126.024Z" fill="white"/>
<path d="M140.701 47.0827C139.111 47.0827 137.743 46.814 136.599 46.2671C135.465 45.7202 134.6 44.9814 134.023 44.022C133.446 43.0625 133.149 41.9879 133.149 40.779C133.149 39.5701 133.437 38.4859 134.023 37.536C134.609 36.5862 135.465 35.8378 136.599 35.2909C137.734 34.744 139.101 34.4753 140.701 34.4753C142.301 34.4753 143.659 34.744 144.803 35.2909C145.938 35.8378 146.803 36.5766 147.38 37.536C147.966 38.4859 148.254 39.5701 148.254 40.779C148.254 41.9879 147.966 43.0721 147.38 44.022C146.794 44.9718 145.938 45.7202 144.803 46.2671C143.668 46.814 142.301 47.0827 140.701 47.0827ZM140.701 45.5091C141.91 45.5091 142.952 45.2981 143.817 44.8855C144.682 44.4729 145.343 43.9068 145.798 43.1872C146.254 42.4677 146.477 41.6713 146.477 40.779C146.477 39.8867 146.254 39.0903 145.798 38.3708C145.343 37.6512 144.682 37.0851 143.817 36.6725C142.952 36.2599 141.91 36.0489 140.701 36.0489C139.492 36.0489 138.45 36.2599 137.585 36.6725C136.72 37.0851 136.06 37.6512 135.613 38.3708C135.158 39.0903 134.934 39.8867 134.934 40.779C134.934 41.6713 135.158 42.4677 135.613 43.1872C136.069 43.9068 136.72 44.4729 137.585 44.8855C138.45 45.2981 139.492 45.5091 140.701 45.5091Z" fill="white"/>
<path d="M21.4861 1.24896L1.80446 12.9736C0.688298 13.6356 0 14.8637 0 16.1974V43.8299C0 45.1539 0.688298 46.382 1.80446 47.0536L21.4861 58.7783C23.2905 59.8529 25.5414 58.5096 25.5414 56.3604V38.3034C25.5414 36.3077 24.509 34.4655 22.8348 33.4773L17.0214 30.0136L22.8348 26.55C24.509 25.5521 25.5414 23.71 25.5414 21.7239V3.66681C25.5414 1.51761 23.2905 0.183962 21.4861 1.24896ZM17.0307 46.8905L8.52002 41.8246V30.7428L17.0307 35.8088V46.8905ZM17.0307 24.1993L8.52002 29.2652V18.1835L17.0307 13.1175V24.1993Z" fill="url(#paint0_linear_3002_29735)"/>
<path d="M51.8083 12.9734L32.1174 1.24881C30.3129 0.174216 28.062 1.51746 28.062 3.66665V56.3603C28.062 58.5095 30.3129 59.8431 32.1174 58.7781L51.799 47.0535C52.9152 46.3915 53.6035 45.1634 53.6035 43.8297V30.0135L45.0927 35.0794V41.8244L36.582 46.8904V13.1269L45.0927 18.1929V24.9379L53.6035 30.0039V16.1972C53.6035 14.8732 52.9152 13.6451 51.799 12.9734H51.8083Z" fill="url(#paint1_linear_3002_29735)"/>
<path d="M21.4861 1.24896L1.80446 12.9736C0.688298 13.6356 0 14.8637 0 16.1974V43.8299C0 45.1539 0.688298 46.382 1.80446 47.0536L21.4861 58.7783C23.2905 59.8529 25.5414 58.5096 25.5414 56.3604V38.3034C25.5414 36.3077 24.509 34.4655 22.8348 33.4773L17.0214 30.0136L22.8348 26.55C24.509 25.5521 25.5414 23.71 25.5414 21.7239V3.66681C25.5414 1.51761 23.2905 0.183962 21.4861 1.24896ZM17.0307 46.8905L8.52002 41.8246V30.7428L17.0307 35.8088V46.8905ZM17.0307 24.1993L8.52002 29.2652V18.1835L17.0307 13.1175V24.1993Z" fill="url(#paint2_linear_3002_29735)"/>
<path opacity="0.3" d="M51.8083 12.9734L32.1174 1.24881C30.3129 0.174216 28.062 1.51746 28.062 3.66665V56.3603C28.062 58.5095 30.3129 59.8431 32.1174 58.7781L51.799 47.0535C52.9152 46.3915 53.6035 45.1634 53.6035 43.8297V30.0135L45.0927 35.0794V41.8244L36.582 46.8904V13.1269L45.0927 18.1929V24.9379L53.6035 30.0039V16.1972C53.6035 14.8732 52.9152 13.6451 51.799 12.9734H51.8083Z" fill="url(#paint3_linear_3002_29735)"/>
<defs>
<linearGradient id="paint0_linear_3002_29735" x1="-3.74843" y1="47.9076" x2="66.8431" y2="0.206353" gradientUnits="userSpaceOnUse">
<stop stop-color="#FFAD00"/>
<stop offset="1" stop-color="#FFD200"/>
</linearGradient>
<linearGradient id="paint1_linear_3002_29735" x1="-0.0466004" y1="53.3859" x2="70.5453" y2="5.67527" gradientUnits="userSpaceOnUse">
<stop stop-color="#FFAD00"/>
<stop offset="1" stop-color="#FFD200"/>
</linearGradient>
<linearGradient id="paint2_linear_3002_29735" x1="4.11119" y1="51.9469" x2="30.9706" y2="5.91674" gradientUnits="userSpaceOnUse">
<stop stop-color="#DEE4E4"/>
<stop offset="0.07" stop-color="#DEE4E4" stop-opacity="0"/>
</linearGradient>
<linearGradient id="paint3_linear_3002_29735" x1="48.125" y1="49.385" x2="35.0477" y2="27.0907" gradientUnits="userSpaceOnUse">
<stop stop-color="#DEE4E4"/>
<stop offset="0.03" stop-color="#DEE4E4" stop-opacity="0"/>
</linearGradient>
</defs>
</svg>
