<svg width="191" height="60" viewBox="0 0 191 60" fill="none" xmlns="http://www.w3.org/2000/svg">
<g clip-path="url(#clip0_3002_29758)">
<path d="M70.7933 29.5251V13.1565H81.2969C82.8398 13.1565 84.1144 13.3482 85.1207 13.7219C86.1269 14.0957 86.8649 14.594 87.3345 15.2169C87.8041 15.8399 88.0341 16.5586 88.0341 17.3732C88.0341 18.5616 87.5932 19.5008 86.7211 20.2004C85.849 20.9 84.5553 21.2546 82.8398 21.2546V21.4654C84.3636 21.4654 85.5328 21.8008 86.3474 22.4813C87.162 23.1617 87.5645 24.0625 87.5645 25.1838C87.5645 26.0272 87.3441 26.7747 86.8936 27.4264C86.4432 28.078 85.7532 28.5956 84.8044 28.9693C83.8557 29.3431 82.6577 29.5347 81.2298 29.5347H70.8029L70.7933 29.5251ZM80.2906 25.9505C80.8848 25.9505 81.3639 25.8834 81.7281 25.7397C82.0923 25.5959 82.3606 25.4042 82.5331 25.1647C82.7056 24.9251 82.7919 24.628 82.7919 24.283C82.7919 23.9379 82.7056 23.6696 82.5331 23.43C82.3606 23.1904 82.0923 22.9988 81.7185 22.855C81.3448 22.7113 80.8656 22.6442 80.2906 22.6442H74.9621V20.1429H80.7602C81.6131 20.1429 82.2456 19.9895 82.6577 19.6733C83.0602 19.357 83.2615 18.9354 83.2615 18.3891C83.2615 17.8907 83.0506 17.4882 82.6385 17.1816C82.2265 16.8749 81.5939 16.7216 80.7602 16.7216H75.3359V25.9409H80.2906V25.9505Z" fill="white"/>
<path d="M87.0473 29.5251L94.9728 13.1565H100.867L108.792 29.5251H103.742L97.9917 17.3637H97.8L92.0978 29.5251H87.0473ZM92.4524 26.0176V23.4875H103.378V26.0176H92.4524Z" fill="white"/>
<path d="M109.271 29.5251V13.1565H116.545L122.976 25.2988H123.168V13.1565H127.566V29.5251H120.293L113.862 17.3828H113.67V29.5251H109.271Z" fill="white"/>
<path d="M128.026 29.5251L135.952 13.1565H141.846L149.771 29.5251H144.721L138.971 17.3637H138.779L133.077 29.5251H128.026ZM133.431 26.0176V23.4875H144.357V26.0176H133.431Z" fill="white"/>
<path d="M150.251 29.5251V13.1565H157.524L163.955 25.2988H164.147V13.1565H168.546V29.5251H161.272L154.841 17.3828H154.649V29.5251H150.251Z" fill="white"/>
<path d="M169.005 29.5251L176.931 13.1565H182.825L190.75 29.5251H185.7L179.95 17.3637H179.758L174.056 29.5251H169.005ZM174.41 26.0176V23.4875H185.336V26.0176H174.41Z" fill="white"/>
<path d="M77.5882 47.0634C76.0452 47.0634 74.7131 46.795 73.6014 46.2488C72.4801 45.7025 71.6272 44.955 71.033 43.9966C70.4388 43.0383 70.1513 41.9649 70.1513 40.7574C70.1513 39.5499 70.4484 38.4573 71.0522 37.5086C71.656 36.5598 72.5376 35.8123 73.7164 35.266C74.8856 34.7198 76.2944 34.4514 77.9428 34.4514C78.9682 34.4514 79.9361 34.5856 80.837 34.8539C81.7378 35.1223 82.4374 35.4289 82.9262 35.7644V37.6044C82.4566 37.2115 81.7762 36.8473 80.8657 36.5215C79.9649 36.1956 78.9874 36.0327 77.9332 36.0327C76.6873 36.0327 75.614 36.2435 74.7227 36.6556C73.8314 37.0677 73.151 37.6332 72.6814 38.3519C72.2118 39.0707 71.9818 39.8757 71.9818 40.7574C71.9818 41.6391 72.2022 42.4345 72.6526 43.1533C73.1031 43.872 73.7547 44.447 74.6077 44.8591C75.4606 45.2712 76.4477 45.4821 77.5882 45.4821C78.5657 45.4821 79.4953 45.3575 80.3578 45.1083C81.2299 44.8591 81.9103 44.5812 82.3991 44.2745V46.0571C81.9199 46.3158 81.2395 46.5458 80.3674 46.7471C79.4953 46.9483 78.5657 47.0538 77.5882 47.0538V47.0634Z" fill="white"/>
<path d="M83.712 46.8909L90.0179 34.6335H92.1167L98.4227 46.8909H96.5827L91.12 36.2148H91.0146L85.552 46.8909H83.712ZM86.865 43.7379V42.0704H95.2697V43.7379H86.865Z" fill="white"/>
<path d="M101.307 46.8909H99.5537V34.6335H106.463C107.527 34.6335 108.418 34.7965 109.137 35.1127C109.856 35.4386 110.393 35.889 110.747 36.4832C111.102 37.0774 111.284 37.7769 111.284 38.5628C111.284 39.3486 111.102 40.0482 110.747 40.6424C110.393 41.2366 109.856 41.6966 109.137 42.0129C108.418 42.3387 107.527 42.492 106.463 42.492H101.02V40.8341H106.463C107.431 40.8341 108.169 40.6233 108.677 40.2112C109.185 39.7991 109.434 39.2432 109.434 38.5532C109.434 37.8632 109.185 37.3169 108.677 36.8953C108.169 36.4832 107.431 36.2723 106.463 36.2723H101.298V46.8621L101.307 46.8909Z" fill="white"/>
<path d="M114.053 34.6335V46.8813H115.807V34.6335H114.053Z" fill="white"/>
<path d="M118.059 36.3008V34.6428H129.617V36.3008H118.059ZM122.957 46.8906V36.0228H124.71V46.8906H122.957Z" fill="white"/>
<path d="M128.209 46.8909L134.515 34.6335H136.613L142.919 46.8909H141.079L135.617 36.2148H135.511L130.049 46.8909H128.209ZM131.362 43.7379V42.0704H139.766V43.7379H131.362Z" fill="white"/>
<path d="M144.05 46.8909V34.6335H145.804V45.2233H154.381V46.8909H144.05Z" fill="white"/>
<path d="M22.1667 1.23513L1.8592 12.9558C0.709181 13.617 0 14.8437 0 16.1759V43.8147C0 45.1469 0.709181 46.3736 1.8592 47.0348L22.1667 58.7651C24.0259 59.8384 26.3451 58.4967 26.3451 56.35V38.2946C26.3451 36.3013 25.2813 34.4612 23.5563 33.4645L17.5666 30.0049L23.5659 26.5452C25.2909 25.5485 26.3547 23.7085 26.3547 21.7151V3.65977C26.3547 1.51306 24.0355 0.171357 22.1763 1.24471L22.1667 1.23513ZM17.5666 46.8815L8.7881 41.8118V30.7332L17.5666 35.8029V46.8815ZM17.5666 24.1877L8.7881 29.2574V18.1788L17.5666 13.1091V24.1877Z" fill="url(#paint0_linear_3002_29758)"/>
<path d="M53.4473 12.9556L33.1398 1.23495C31.2806 0.161594 28.9614 1.50328 28.9614 3.64999V56.3498C28.9614 58.4965 31.2806 59.8382 33.1398 58.7649L53.4473 47.0346C54.5974 46.3734 55.3065 45.1467 55.3065 43.8146V29.9951L46.528 35.0648V41.8116L37.7399 46.8813V13.1089L46.528 18.1786V24.9254L55.3065 29.9951V16.1757C55.3065 14.8436 54.5974 13.6169 53.4473 12.9556Z" fill="url(#paint1_linear_3002_29758)"/>
</g>
<defs>
<linearGradient id="paint0_linear_3002_29758" x1="-7.91599" y1="48.5682" x2="67.8801" y2="3.39143" gradientUnits="userSpaceOnUse">
<stop stop-color="#EE7E25"/>
<stop offset="1" stop-color="#FFCF63"/>
</linearGradient>
<linearGradient id="paint1_linear_3002_29758" x1="-5.60636" y1="52.4493" x2="70.1898" y2="7.27257" gradientUnits="userSpaceOnUse">
<stop stop-color="#EE7E25"/>
<stop offset="1" stop-color="#FFCF63"/>
</linearGradient>
<clipPath id="clip0_3002_29758">
<rect width="190.286" height="60" fill="white"/>
</clipPath>
</defs>
</svg>
