<svg width="191" height="60" viewBox="0 0 191 60" fill="none" xmlns="http://www.w3.org/2000/svg">
<path d="M68.6072 29.5518V13.1838H78.7802C80.2773 13.1838 81.5141 13.3661 82.4905 13.7499C83.4668 14.1241 84.1829 14.623 84.6292 15.2466C85.0849 15.8702 85.308 16.5898 85.308 17.3957C85.308 18.5854 84.8803 19.5257 84.0341 20.2261C83.1879 20.9265 81.9325 21.2815 80.268 21.2815V21.4925C81.7465 21.4925 82.881 21.8283 83.6714 22.5095C84.4525 23.1907 84.8524 24.083 84.8524 25.2152C84.8524 26.0595 84.6385 26.8078 84.2107 27.4602C83.783 28.1127 83.1042 28.6307 82.1836 29.0049C81.263 29.3791 80.1099 29.571 78.7151 29.571H68.6072V29.5518ZM77.8131 25.9731C78.3896 25.9731 78.8546 25.9059 79.2079 25.762C79.5613 25.6181 79.8217 25.4262 79.989 25.1863C80.1564 24.9465 80.2401 24.6491 80.2401 24.3133C80.2401 23.9775 80.1564 23.6992 79.989 23.4594C79.8217 23.2195 79.5613 23.0276 79.1986 22.8837C78.836 22.7398 78.371 22.6726 77.8131 22.6726H72.6429V20.1685H78.2594C79.087 20.1685 79.7008 20.015 80.0913 19.6984C80.4819 19.3818 80.6772 18.9596 80.6772 18.4127C80.6772 17.9138 80.4726 17.5109 80.0727 17.2134C79.6729 16.9064 79.0685 16.7529 78.2501 16.7529H72.9963V25.9635H77.8038L77.8131 25.9731Z" fill="white"/>
<path d="M84.3597 29.5518L92.0406 13.1838H97.7502L105.431 29.5518H100.54L94.9605 17.3957H94.7745L89.2416 29.5518H84.3504H84.3597ZM89.595 26.0403V23.5169H100.177V26.0403H89.595Z" fill="white"/>
<path d="M105.887 29.5518V13.1838H112.935L119.165 25.3207H119.351V13.1838H123.61V29.5518H116.562L110.332 17.4149H110.155V29.5518H105.896H105.887Z" fill="white"/>
<path d="M124.066 29.5518L131.747 13.1838H137.457L145.137 29.5518H140.246L134.667 17.3957H134.481L128.948 29.5518H124.057H124.066ZM129.301 26.0403V23.5169H139.884V26.0403H129.301Z" fill="white"/>
<path d="M145.602 29.5518V13.1838H152.651L158.881 25.3207H159.067V13.1838H163.326V29.5518H156.277L150.047 17.4149H149.87V29.5518H145.612H145.602Z" fill="white"/>
<path d="M163.782 29.5518L171.463 13.1838H177.172L184.853 29.5518H179.962L174.382 17.3957H174.197L168.664 29.5518H163.772H163.782ZM169.017 26.0403V23.5169H179.599V26.0403H169.017Z" fill="white"/>
<path d="M68.2353 46.9077V34.6558H69.9277V45.2479H78.2409V46.9077H68.2353Z" fill="white"/>
<path d="M78.2409 46.9077L84.3503 34.6558H86.3868L92.4962 46.9077H90.7108L85.4197 36.2292H85.3174L80.0263 46.9077H78.2409ZM81.291 43.7608V42.101H89.4368V43.7608H81.291Z" fill="white"/>
<path d="M93.5935 46.9077V34.6558H100.121C101.153 34.6558 102.018 34.7997 102.716 35.0875C103.413 35.3753 103.934 35.7591 104.278 36.2292C104.622 36.7089 104.789 37.2366 104.789 37.8027C104.789 38.7238 104.455 39.4529 103.785 39.9806C103.116 40.5083 102.093 40.7769 100.716 40.7769V40.8633C101.935 40.8633 102.864 41.1223 103.497 41.65C104.129 42.1777 104.445 42.8781 104.445 43.7512C104.445 44.3556 104.287 44.8929 103.962 45.3726C103.636 45.8428 103.134 46.217 102.455 46.4952C101.767 46.7734 100.912 46.9077 99.8702 46.9077H93.5935ZM99.7866 45.2479C100.503 45.2479 101.07 45.1712 101.488 45.0273C101.907 44.8833 102.214 44.6723 102.4 44.4036C102.576 44.135 102.669 43.7992 102.669 43.4058C102.669 43.0316 102.576 42.715 102.4 42.4559C102.223 42.1969 101.916 42.005 101.488 41.8611C101.061 41.7172 100.493 41.65 99.7866 41.65H95.0162V39.9902H100.121C101.126 39.9902 101.86 39.8271 102.316 39.4913C102.772 39.1555 103.004 38.7142 103.004 38.1481C103.004 37.582 102.772 37.1407 102.316 36.8145C101.86 36.4787 101.126 36.3156 100.121 36.3156H95.2859V45.2383H99.7773L99.7866 45.2479Z" fill="white"/>
<path d="M112.098 47.0805C111.085 47.0805 110.136 46.9653 109.271 46.7255C108.407 46.4952 107.756 46.2266 107.328 45.9387V44.1542C107.765 44.49 108.416 44.8066 109.262 45.0848C110.108 45.3631 111.029 45.507 112.015 45.507C112.842 45.507 113.521 45.4206 114.051 45.2479C114.581 45.0752 114.972 44.845 115.204 44.5667C115.446 44.2885 115.557 43.9911 115.557 43.6745C115.557 43.2523 115.39 42.9165 115.065 42.6671C114.739 42.4176 114.33 42.2257 113.846 42.0914C113.363 41.9571 112.693 41.8036 111.847 41.6405C110.713 41.4294 109.801 41.2183 109.104 40.9976C108.407 40.777 107.811 40.422 107.319 39.9519C106.817 39.4721 106.575 38.8197 106.575 37.9946C106.575 37.3806 106.77 36.8049 107.17 36.2676C107.57 35.7399 108.183 35.3082 109.039 34.982C109.894 34.6558 110.945 34.4927 112.228 34.4927C113.214 34.4927 114.163 34.627 115.074 34.886C115.985 35.1451 116.692 35.4329 117.185 35.7495V37.5725C116.711 37.1983 116.013 36.8529 115.111 36.5363C114.2 36.2197 113.242 36.0662 112.238 36.0662C111.317 36.0662 110.573 36.1621 109.997 36.3444C109.42 36.5267 109.002 36.7665 108.751 37.064C108.5 37.3518 108.369 37.6684 108.369 37.9946C108.369 38.4072 108.528 38.7334 108.844 38.9733C109.16 39.2227 109.56 39.405 110.034 39.5297C110.508 39.6544 111.178 39.8079 112.033 39.971C113.168 40.1821 114.079 40.3932 114.786 40.6235C115.492 40.8442 116.097 41.1991 116.599 41.6884C117.101 42.1778 117.352 42.8398 117.352 43.6841C117.352 44.2885 117.157 44.8546 116.776 45.3727C116.394 45.8908 115.809 46.3129 115.018 46.62C114.228 46.9366 113.261 47.0901 112.108 47.0901L112.098 47.0805Z" fill="white"/>
<path d="M51.795 12.9824L32.1185 1.25807C30.3145 0.183503 28.0641 1.5267 28.0641 3.67584V56.368C28.0641 58.5171 30.3145 59.8508 32.1185 58.7858L51.795 47.0615C52.9109 46.3995 53.599 45.1714 53.599 43.8378V30.0219L45.0905 35.0877V41.8326L36.582 46.8984V13.1263L45.0905 18.1921V24.9369L53.599 30.0027V16.1869C53.599 14.8629 52.9109 13.6348 51.795 12.9632V12.9824ZM21.4898 1.25807L1.81329 12.9824C0.68812 13.6444 0 14.8724 0 16.1965V43.8282C0 45.1522 0.68812 46.3803 1.80399 47.0519L21.4898 58.7762C23.2938 59.8507 25.5441 58.5075 25.5441 56.3584V38.3018C25.5441 36.3062 24.512 34.4641 22.8382 33.4759L17.0263 30.0123L22.8382 26.5488C24.512 25.551 25.5441 23.7088 25.5441 21.7228V3.66623C25.5441 1.5171 23.2938 0.183494 21.4898 1.24847V1.25807ZM17.0356 46.8984L8.52711 41.8326V30.7511L17.0356 35.8169V46.8984ZM17.0356 24.2077L8.52711 29.2736V18.1921L17.0356 13.1263V24.2077Z" fill="url(#paint0_linear_3002_29779)"/>
<defs>
<linearGradient id="paint0_linear_3002_29779" x1="52.9667" y1="5.21093" x2="-0.727166" y2="53.0059" gradientUnits="userSpaceOnUse">
<stop stop-color="#00789C"/>
<stop offset="1" stop-color="#006091"/>
</linearGradient>
</defs>
</svg>
