<svg width="191" height="60" viewBox="0 0 191 60" fill="none" xmlns="http://www.w3.org/2000/svg">
<g clip-path="url(#clip0_3002_29795)">
<path d="M68.5546 29.5217V13.1533H78.7279C80.225 13.1533 81.4618 13.3356 82.4382 13.7194C83.4146 14.0936 84.1307 14.5925 84.577 15.2162C85.0327 15.8398 85.2558 16.5594 85.2558 17.3654C85.2558 18.5551 84.8374 19.4954 83.9819 20.1958C83.1356 20.8962 81.8803 21.2512 80.2157 21.2512V21.4622C81.6943 21.4622 82.8288 21.7981 83.6192 22.4793C84.4004 23.1605 84.8002 24.0528 84.8002 25.1849C84.8002 26.0293 84.5863 26.7777 84.1585 27.4301C83.7308 28.0825 83.052 28.6006 82.1313 28.9748C81.2107 29.349 80.0576 29.5409 78.6628 29.5409H68.5546V29.5217ZM77.7607 25.943C78.3373 25.943 78.8022 25.8758 79.1556 25.7318C79.509 25.5879 79.7694 25.3961 79.9367 25.1562C80.1041 24.9163 80.1878 24.6189 80.1878 24.283C80.1878 23.9472 80.1041 23.669 79.9367 23.4292C79.7694 23.1893 79.5089 22.9974 79.1463 22.8535C78.7836 22.7095 78.3187 22.6424 77.7607 22.6424H72.5904V20.1382H78.2164C79.044 20.1382 79.6578 19.9847 80.0483 19.668C80.4389 19.3514 80.6342 18.9293 80.6342 18.3824C80.6342 17.8835 80.4296 17.4805 80.0297 17.1831C79.6298 16.876 79.0161 16.7225 78.2071 16.7225H72.9531V25.9333H77.7607V25.943Z" fill="white"/>
<path d="M84.3073 29.5217L91.9884 13.1533H97.6981L105.379 29.5217H100.479L94.899 17.3654H94.7223L89.1894 29.5217H84.2887H84.3073ZM89.5428 26.0101V23.4867H100.125V26.0101H89.5428Z" fill="white"/>
<path d="M105.844 29.5217V13.1533H112.893L119.124 25.2905H119.3V13.1533H123.559V29.5217H116.511L110.28 17.3845H110.094V29.5217H105.835H105.844Z" fill="white"/>
<path d="M124.024 29.5217L131.705 13.1533H137.415L145.096 29.5217H140.196L134.616 17.3654H134.439L128.906 29.5217H124.006H124.024ZM129.26 26.0101V23.4867H139.842V26.0101H129.26Z" fill="white"/>
<path d="M145.552 29.5217V13.1533H152.601L158.831 25.2905H159.008V13.1533H163.267V29.5217H156.218L149.988 17.3845H149.802V29.5217H145.542H145.552Z" fill="white"/>
<path d="M163.732 29.5217L171.413 13.1533H177.123L184.804 29.5217H179.903L174.323 17.3654H174.147L168.614 29.5217H163.713H163.732ZM168.967 26.0101V23.4867H179.55V26.0101H168.967Z" fill="white"/>
<path d="M67.4201 46.8785V45.3049L75.9009 36.382V36.2956H67.5875V34.6357H78.2723V36.2093L69.7914 45.1322V45.2186H78.6163V46.8785H67.4201Z" fill="white"/>
<path d="M78.8767 46.8783L84.9863 34.626H87.0228L93.1324 46.8783H91.3562L86.065 36.1995H85.9627L80.6714 46.8783H78.886H78.8767ZM81.9269 43.7313V42.0714H90.0729V43.7313H81.9269Z" fill="white"/>
<path d="M96.6847 46.8783L90.7518 34.626H92.621L97.7076 45.3048H97.7913L102.878 34.626H104.747L98.8142 46.8783H96.694H96.6847Z" fill="white"/>
<path d="M112.633 47.0512C111.042 47.0512 109.676 46.7825 108.532 46.2356C107.397 45.6887 106.532 44.95 105.956 43.9905C105.37 43.0406 105.082 41.9564 105.082 40.7475C105.082 39.5386 105.37 38.4544 105.956 37.5045C106.542 36.5547 107.397 35.8063 108.532 35.2594C109.666 34.7125 111.033 34.4438 112.633 34.4438C114.232 34.4438 115.59 34.7125 116.724 35.2594C117.859 35.8063 118.724 36.5451 119.3 37.5045C119.886 38.4544 120.174 39.5386 120.174 40.7475C120.174 41.9564 119.886 43.0406 119.3 43.9905C118.714 44.9404 117.859 45.6887 116.724 46.2356C115.59 46.7825 114.223 47.0512 112.633 47.0512ZM112.633 45.4777C113.842 45.4777 114.883 45.2665 115.748 44.854C116.613 44.4414 117.273 43.8754 117.719 43.1558C118.175 42.4362 118.398 41.6398 118.398 40.7475C118.398 39.8552 118.175 39.0589 117.719 38.3393C117.264 37.6197 116.613 37.0536 115.748 36.641C114.883 36.2284 113.842 36.0174 112.633 36.0174C111.424 36.0174 110.382 36.2284 109.517 36.641C108.653 37.0536 107.992 37.6197 107.537 38.3393C107.081 39.0589 106.858 39.8552 106.858 40.7475C106.858 41.6398 107.081 42.4362 107.537 43.1558C107.992 43.8754 108.643 44.4414 109.517 44.854C110.382 45.2665 111.424 45.4777 112.633 45.4777Z" fill="white"/>
<path d="M122.471 46.8783V34.626H127.642C129.297 34.626 130.682 34.885 131.817 35.3935C132.951 35.9116 133.788 36.6216 134.356 37.5427C134.914 38.4638 135.192 39.5288 135.192 40.7473C135.192 41.9659 134.914 43.0308 134.356 43.9519C133.798 44.873 132.951 45.5926 131.817 46.1012C130.682 46.6193 129.297 46.8687 127.642 46.8687H122.471V46.8783ZM127.642 45.2184C128.934 45.2184 130.003 45.0362 130.878 44.662C131.742 44.2878 132.384 43.7697 132.793 43.1076C133.202 42.4456 133.416 41.6589 133.416 40.7666C133.416 39.8743 133.212 39.0875 132.793 38.4255C132.384 37.7634 131.742 37.2453 130.878 36.8711C130.013 36.497 128.934 36.3146 127.642 36.3146H124.164V45.2376H127.642V45.2184Z" fill="white"/>
<path d="M142.585 47.051C141.572 47.051 140.623 46.9359 139.758 46.696C138.893 46.4562 138.243 46.1971 137.815 45.9093V44.1247C138.252 44.4605 138.903 44.7771 139.749 45.0553C140.595 45.3336 141.516 45.4775 142.502 45.4775C143.329 45.4775 144.008 45.3911 144.538 45.2184C145.068 45.0457 145.449 44.8155 145.691 44.5372C145.933 44.259 146.045 43.9616 146.045 43.6449C146.045 43.2228 145.877 42.8869 145.552 42.6375C145.226 42.388 144.817 42.1961 144.333 42.0618C143.85 41.9275 143.18 41.7739 142.334 41.6108C141.2 41.3997 140.288 41.1887 139.591 40.968C138.893 40.7473 138.298 40.3924 137.805 39.9222C137.303 39.4425 137.062 38.79 137.062 37.9649C137.062 37.3508 137.257 36.7752 137.657 36.2379C138.057 35.7102 138.67 35.2784 139.526 34.9522C140.372 34.626 141.441 34.4629 142.715 34.4629C143.701 34.4629 144.65 34.5972 145.561 34.8562C146.472 35.1153 147.179 35.4032 147.672 35.7198V37.5427C147.198 37.1685 146.5 36.8232 145.598 36.5065C144.687 36.1899 143.729 36.0364 142.725 36.0364C141.813 36.0364 141.06 36.1323 140.484 36.3146C139.907 36.4969 139.489 36.7368 139.238 37.0342C138.986 37.3221 138.856 37.6387 138.856 37.9649C138.856 38.3775 139.014 38.7037 139.331 38.9436C139.647 39.193 140.047 39.3753 140.521 39.5001C140.995 39.6248 141.665 39.7783 142.52 39.9414C143.655 40.1525 144.566 40.3635 145.273 40.5938C145.979 40.8145 146.584 41.1695 147.086 41.6588C147.588 42.1482 147.839 42.8102 147.839 43.6545C147.839 44.2589 147.644 44.825 147.263 45.3431C146.881 45.8613 146.296 46.2834 145.505 46.5904C144.715 46.9071 143.748 47.0606 142.595 47.0606L142.585 47.051Z" fill="white"/>
<path d="M51.7417 12.9517L32.0646 1.22708C30.2606 0.152484 28.0101 1.49575 28.0101 3.64494V56.3385C28.0101 58.4877 30.2606 59.8214 32.0646 58.7564L51.7417 47.0317C52.8576 46.3697 53.5457 45.1416 53.5457 43.808V29.9917L45.0369 35.0577V41.8027L36.5282 46.8686V13.0956L45.0369 18.1616V24.9066L53.5457 29.9726V16.1563C53.5457 14.8322 52.8576 13.6041 51.7417 12.9325V12.9517ZM21.4356 1.22708L1.7586 12.9517C0.6427 13.6137 -0.0454407 14.8418 -0.0454407 16.1755V43.808C-0.0454407 45.132 0.6427 46.3601 1.7586 47.0317L21.4356 58.7564C23.2397 59.831 25.4901 58.4877 25.4901 56.3385V38.2815C25.4901 36.2858 24.4579 34.4436 22.784 33.4553L16.972 29.9917L22.784 26.5281C24.4579 25.5302 25.4901 23.688 25.4901 21.7019V3.64494C25.4901 1.49575 23.2397 0.162079 21.4356 1.22708ZM16.9813 46.8686L8.47258 41.8027V30.7209L16.9813 35.7869V46.8686ZM16.9813 24.1774L8.47258 29.2434V18.1616L16.9813 13.0956V24.1774Z" fill="url(#paint0_linear_3002_29795)"/>
</g>
<defs>
<linearGradient id="paint0_linear_3002_29795" x1="60.7247" y1="-1.49778" x2="-12.7089" y2="62.4212" gradientUnits="userSpaceOnUse">
<stop stop-color="#9A674B"/>
<stop offset="1" stop-color="#883600"/>
</linearGradient>
<clipPath id="clip0_3002_29795">
<rect width="190.286" height="60" fill="white"/>
</clipPath>
</defs>
</svg>
