<svg width="191" height="60" viewBox="0 0 191 60" fill="none" xmlns="http://www.w3.org/2000/svg">
<path d="M68.5966 29.3501V12.9817H78.7694C80.2665 12.9817 81.5032 13.1736 82.4796 13.5478C83.4559 13.922 84.1719 14.4209 84.6183 15.0445C85.0739 15.6682 85.2971 16.3878 85.2971 17.1937C85.2971 18.3835 84.8786 19.3237 84.0231 20.0241C83.1677 20.7245 81.9216 21.0795 80.2572 21.0795V21.2906C81.7357 21.2906 82.8701 21.6264 83.6605 22.3077C84.4416 22.9889 84.8414 23.8908 84.8414 25.0133C84.8414 25.8577 84.6276 26.606 84.1998 27.2585C83.7721 27.9109 83.0933 28.429 82.1727 28.8032C81.2521 29.1774 80.0991 29.3693 78.7043 29.3693H68.5966V29.3501ZM77.8023 25.7713C78.3788 25.7713 78.8438 25.7041 79.1971 25.5602C79.5505 25.4163 79.8108 25.2244 79.9782 24.9845C80.1456 24.7447 80.2293 24.4473 80.2293 24.1114C80.2293 23.7756 80.1456 23.4974 79.9782 23.2575C79.8108 23.0177 79.5505 22.8258 79.1878 22.6818C78.8252 22.5379 78.3602 22.4708 77.8023 22.4708H72.6322V19.9666H78.2579C79.0855 19.9666 79.6993 19.813 80.0898 19.4964C80.4804 19.1894 80.6756 18.7576 80.6756 18.2107C80.6756 17.7118 80.471 17.3089 80.0712 17.0018C79.6713 16.6948 79.0577 16.5413 78.2487 16.5413H72.9949V25.7521H77.8023V25.7713Z" fill="white"/>
<path d="M84.3486 29.3501L92.0293 12.9817H97.7387L105.419 29.3501H100.519L94.9398 17.1937H94.7631L89.2304 29.3501H84.33H84.3486ZM89.5837 25.8385V23.3151H100.166V25.8385H89.5837Z" fill="white"/>
<path d="M105.884 29.3501V12.9817H112.933L119.163 25.1189H119.34V12.9817H123.599V29.3501H116.55L110.32 17.2129H110.134V29.3501H105.875H105.884Z" fill="white"/>
<path d="M124.063 29.3501L131.744 12.9817H137.454L145.134 29.3501H140.234L134.655 17.1937H134.478L128.945 29.3501H124.045H124.063ZM129.299 25.8385V23.3151H139.881V25.8385H129.299Z" fill="white"/>
<path d="M145.59 29.3501V12.9817H152.638L158.868 25.1189H159.045V12.9817H163.304V29.3501H156.256L150.025 17.2129H149.839V29.3501H145.581H145.59Z" fill="white"/>
<path d="M163.769 29.3501L171.45 12.9817H177.159L184.84 29.3501H179.939L174.36 17.1937H174.183L168.651 29.3501H163.75H163.769ZM169.004 25.8385V23.3151H179.586V25.8385H169.004Z" fill="white"/>
<path d="M66.7834 46.7067L72.8926 34.4543H74.9291L81.0383 46.7067H79.2622L73.9713 36.0279H73.869L68.578 46.7067H66.7927H66.7834ZM69.8333 43.5596V41.8998H77.979V43.5596H69.8333Z" fill="white"/>
<path d="M82.1356 46.7067V34.4543H83.8279V45.0468H92.141V46.7067H82.1356Z" fill="white"/>
<path d="M93.5916 46.7067V34.4543H95.284V45.0468H103.597V46.7067H93.5916Z" fill="white"/>
<path d="M105.299 34.4543V46.7067H107V34.4543H105.299Z" fill="white"/>
<path d="M108.367 46.7067L114.476 34.4543H116.513L122.622 46.7067H120.846L115.555 36.0279H115.453L110.162 46.7067H108.376H108.367ZM111.417 43.5596V41.8998H119.563V43.5596H111.417Z" fill="white"/>
<path d="M123.719 46.7067V34.4543H126.435L133.306 45.1331H133.39V34.4543H135.082V46.7067H132.367L125.495 36.0279H125.412V46.7067H123.719Z" fill="white"/>
<path d="M144.586 46.8797C143.088 46.8797 141.805 46.6111 140.717 46.0642C139.629 45.5173 138.802 44.7689 138.235 43.819C137.667 42.8596 137.379 41.785 137.379 40.5856C137.379 39.3863 137.667 38.2925 138.253 37.3427C138.839 36.3928 139.694 35.6444 140.829 35.0975C141.963 34.5506 143.33 34.282 144.93 34.282C145.925 34.282 146.864 34.4163 147.738 34.685C148.612 34.9536 149.291 35.2606 149.765 35.5964V37.4386C149.309 37.0452 148.649 36.6806 147.775 36.3544C146.901 36.0282 145.952 35.8651 144.93 35.8651C143.721 35.8651 142.679 36.0762 141.815 36.4887C140.95 36.9013 140.29 37.4674 139.834 38.187C139.378 38.9066 139.155 39.7029 139.155 40.5952C139.155 41.4875 139.369 42.2743 139.806 42.9939C140.243 43.7135 140.875 44.2892 141.694 44.7017C142.521 45.1143 143.479 45.3254 144.576 45.3254C145.525 45.3254 146.427 45.2006 147.264 44.9512C148.11 44.7017 148.761 44.4235 149.235 44.1165V45.9011C148.77 46.1601 148.119 46.3904 147.264 46.5919C146.417 46.7934 145.515 46.8989 144.567 46.8989L144.586 46.8797Z" fill="white"/>
<path d="M151.959 46.7067V34.4543H161.797V36.1142H153.652V45.0372H162.132V46.6971H151.959V46.7067ZM153.382 41.3721V39.7122H161.119V41.3721H153.382Z" fill="white"/>
<path d="M21.48 1.05545L1.80395 12.7801C0.688106 13.4421 0 14.6702 0 16.0039V43.6363C0 44.9604 0.688106 46.1885 1.80395 46.8601L21.48 58.5848C23.2839 59.6594 25.5343 58.3161 25.5343 56.1669V38.1098C25.5343 36.1142 24.5021 34.272 22.8283 33.2838L17.0166 29.8297L22.8283 26.366C24.5021 25.3682 25.5343 23.526 25.5343 21.54V3.4829C25.5343 1.33371 23.2839 5.43247e-05 21.48 1.06506V1.05545ZM17.0259 46.697L8.51759 41.6311V30.5493L17.0259 35.6152V46.697ZM17.0259 24.0058L8.51759 29.0717V17.9899L17.0259 12.924V24.0058ZM51.7938 12.7801L32.1177 1.05545C30.3138 -0.0191443 28.0635 1.32411 28.0635 3.4733V56.1669C28.0635 58.3161 30.3138 59.6498 32.1177 58.5848L51.7938 46.8601C52.9096 46.1981 53.5977 44.97 53.5977 43.6363V29.8201L45.0894 34.8861V41.6311L36.5811 46.697V12.924L45.0894 17.9899V24.735L53.5977 29.8009V15.9847C53.5977 14.6606 52.9096 13.4325 51.7938 12.7609V12.7801Z" fill="url(#paint0_linear_3002_29813)"/>
<defs>
<linearGradient id="paint0_linear_3002_29813" x1="55.4482" y1="3.75154" x2="-6.29802" y2="56.4928" gradientUnits="userSpaceOnUse">
<stop stop-color="#AB2567"/>
<stop offset="1" stop-color="#9A0040"/>
</linearGradient>
</defs>
</svg>
