<svg width="191" height="60" viewBox="0 0 191 60" fill="none" xmlns="http://www.w3.org/2000/svg">
<path d="M68.5997 29.5178V13.1494H78.773C80.2702 13.1494 81.507 13.3317 82.4834 13.7155C83.4598 14.0897 84.1759 14.5886 84.6222 15.2123C85.0779 15.8359 85.301 16.5555 85.301 17.3615C85.301 18.5512 84.8733 19.4915 84.0271 20.1919C83.1808 20.8923 81.9254 21.2473 80.2609 21.2473V21.4583C81.7395 21.4583 82.874 21.7942 83.6644 22.4754C84.4455 23.1566 84.8454 24.0489 84.8454 25.181C84.8454 26.0254 84.6315 26.7738 84.2037 27.4262C83.776 28.0786 83.0971 28.5967 82.1765 28.9709C81.2559 29.3451 80.1028 29.537 78.7079 29.537H68.5997V29.5178ZM77.8059 25.939C78.3825 25.939 78.8474 25.8719 79.2008 25.7279C79.5542 25.584 79.8145 25.3921 79.9819 25.1523C80.1493 24.9124 80.233 24.615 80.233 24.2791C80.233 23.9433 80.1493 23.6651 79.9819 23.4253C79.8145 23.1854 79.5542 22.9935 79.1915 22.8496C78.8288 22.7056 78.3639 22.6385 77.8059 22.6385H72.6356V20.1343H78.2523C79.0799 20.1343 79.6936 19.9808 80.0842 19.6641C80.4748 19.3475 80.6701 18.9254 80.6701 18.3785C80.6701 17.8796 80.4655 17.4766 80.0656 17.1792C79.6658 16.8721 79.0613 16.7186 78.243 16.7186H72.9889V25.9294H77.7966L77.8059 25.939Z" fill="white"/>
<path d="M84.3527 29.5178L92.0338 13.1494H97.7435L105.425 29.5178H100.533L94.9538 17.3615H94.7678L89.2348 29.5178H84.3434H84.3527ZM89.5881 26.0062V23.4828H100.171V26.0062H89.5881Z" fill="white"/>
<path d="M105.88 29.5178V13.1494H112.929L119.159 25.2866H119.345V13.1494H123.604V29.5178H116.556L110.325 17.3806H110.149V29.5178H105.89H105.88Z" fill="white"/>
<path d="M124.06 29.5178L131.741 13.1494H137.451L145.132 29.5178H140.241L134.661 17.3615H134.475L128.942 29.5178H124.051H124.06ZM129.296 26.0062V23.4828H139.878V26.0062H129.296Z" fill="white"/>
<path d="M145.597 29.5178V13.1494H152.646L158.876 25.2866H159.062V13.1494H163.321V29.5178H156.272L150.042 17.3806H149.865V29.5178H145.606H145.597Z" fill="white"/>
<path d="M163.777 29.5178L171.458 13.1494H177.168L184.849 29.5178H179.957L174.378 17.3615H174.192L168.659 29.5178H163.768H163.777ZM169.012 26.0062V23.4828H179.595V26.0062H169.012Z" fill="white"/>
<path d="M75.7788 47.2296L70.0133 36.119H69.9296V46.8841H68.2372V34.6318H71.1571L75.8346 43.7179H75.9183L80.4098 34.6318H83.246V46.8841H81.5536V36.119H81.4699L75.7881 47.2296H75.7788Z" fill="white"/>
<path d="M85.7848 46.8744V34.6221H95.6233V36.2819H87.4773V45.2049H95.9581V46.8648H85.7755L85.7848 46.8744ZM87.2076 41.5398V39.8799H94.9445V41.5398H87.2076Z" fill="white"/>
<path d="M97.9945 46.8744V34.6221H103.165C104.82 34.6221 106.206 34.8811 107.34 35.3896C108.475 35.9077 109.312 36.6177 109.879 37.5388C110.437 38.4599 110.716 39.5249 110.716 40.7434C110.716 41.962 110.437 43.0269 109.879 43.948C109.321 44.8691 108.475 45.5887 107.34 46.0972C106.206 46.6154 104.82 46.8648 103.165 46.8648H97.9945V46.8744ZM103.165 45.2145C104.457 45.2145 105.527 45.0322 106.401 44.6581C107.266 44.2839 107.907 43.7658 108.317 43.1037C108.726 42.4417 108.94 41.6549 108.94 40.7626C108.94 39.8703 108.735 39.0836 108.317 38.4216C107.898 37.7595 107.266 37.2414 106.401 36.8672C105.536 36.493 104.457 36.3107 103.165 36.3107H99.687V45.2337H103.165V45.2145Z" fill="white"/>
<path d="M112.594 34.6221V46.8744H114.296V34.6221H112.594Z" fill="white"/>
<path d="M115.663 46.8744L121.773 34.6221H123.809L129.919 46.8744H128.133L122.842 36.1956H122.74L117.448 46.8744H115.663ZM118.713 43.7273V42.0675H126.859V43.7273H118.713Z" fill="white"/>
<path d="M51.7871 12.9478L32.1101 1.22317C30.306 0.148578 28.0556 1.49184 28.0556 3.64104V56.3346C28.0556 58.4838 30.306 59.8175 32.1101 58.7525L51.7871 47.0278C52.903 46.3658 53.5911 45.1377 53.5911 43.8041V29.9878L45.0824 35.0538V41.7988L36.5737 46.8647V13.0917L45.0824 18.1577V24.9027L53.5911 29.9686V16.1524C53.5911 14.8283 52.903 13.6002 51.7871 12.9286V12.9478ZM21.4811 1.22317L1.80404 12.9478C0.688139 13.6098 0 14.8379 0 16.1716V43.8041C0 45.1281 0.688139 46.3562 1.80404 47.0278L21.4904 58.7525C23.2944 59.8271 25.5448 58.4838 25.5448 56.3346V38.2776C25.5448 36.2819 24.5126 34.4397 22.8388 33.4514L17.0268 29.9878L22.8388 26.5242C24.5126 25.5263 25.5448 23.6841 25.5448 21.698V3.64104C25.5448 1.49184 23.2944 0.158173 21.4904 1.22317H21.4811ZM17.0268 46.8647L8.51804 41.7988V30.717L17.0268 35.783V46.8647ZM17.0268 24.1735L8.51804 29.2394V18.1577L17.0268 13.0917V24.1735Z" fill="url(#paint0_linear_3002_29833)"/>
<defs>
<linearGradient id="paint0_linear_3002_29833" x1="51.4616" y1="8.10252" x2="0.357195" y2="50.6765" gradientUnits="userSpaceOnUse">
<stop stop-color="#427074"/>
<stop offset="1" stop-color="#005760"/>
</linearGradient>
</defs>
</svg>
