<svg width="191" height="60" viewBox="0 0 191 60" fill="none" xmlns="http://www.w3.org/2000/svg">
<path d="M64.6577 29.53V13.1616H74.2464C75.6575 13.1616 76.8232 13.3535 77.7435 13.7277C78.6638 14.1019 79.3387 14.6008 79.7594 15.2245C80.1889 15.8481 80.3992 16.5677 80.3992 17.3737C80.3992 18.5634 80.0048 19.5037 79.1984 20.2041C78.4008 20.9045 77.2176 21.2595 75.6487 21.2595V21.4706C77.0423 21.4706 78.1116 21.8064 78.8567 22.4876C79.5929 23.1688 79.9697 24.0707 79.9697 25.1933C79.9697 26.0376 79.7682 26.786 79.365 27.4384C78.9618 28.0908 78.322 28.6089 77.4543 28.9831C76.5865 29.3573 75.4997 29.5492 74.185 29.5492H64.6577V29.53ZM73.3348 25.9512C73.8782 25.9512 74.3165 25.8841 74.6495 25.7402C74.9826 25.5962 75.228 25.4043 75.3858 25.1645C75.5436 24.9246 75.6225 24.6272 75.6225 24.2914C75.6225 23.9556 75.5436 23.6773 75.3858 23.4375C75.228 23.1976 74.9826 23.0057 74.6407 22.8618C74.2989 22.7179 73.8607 22.6507 73.3348 22.6507H68.4616V20.1465H73.7643C74.5443 20.1465 75.1228 19.993 75.491 19.6764C75.8591 19.3693 76.0431 18.9376 76.0431 18.3907C76.0431 17.8918 75.8503 17.4888 75.4734 17.1818C75.0965 16.8747 74.5181 16.7212 73.7556 16.7212H68.8034V25.9321H73.3348V25.9512Z" fill="white"/>
<path d="M79.5052 29.53L86.7449 13.1616H92.1264L99.3661 29.53H94.7471L89.4882 17.3737H89.3217L84.1067 29.53H79.4876H79.5052ZM84.4397 26.0184V23.495H94.4141V26.0184H84.4397Z" fill="white"/>
<path d="M99.8043 29.53V13.1616H106.448L112.32 25.2988H112.487V13.1616H116.501V29.53H109.858L103.985 17.3928H103.81V29.53H99.7955H99.8043Z" fill="white"/>
<path d="M116.939 29.53L124.179 13.1616H129.561L136.8 29.53H132.181L126.923 17.3737H126.756L121.541 29.53H116.922H116.939ZM121.874 26.0184V23.495H131.848V26.0184H121.874Z" fill="white"/>
<path d="M137.23 29.53V13.1616H143.874L149.746 25.2988H149.913V13.1616H153.927V29.53H147.283L141.411 17.3928H141.236V29.53H137.221H137.23Z" fill="white"/>
<path d="M154.365 29.53L161.605 13.1616H166.987L174.226 29.53H169.607L164.348 17.3737H164.182L158.967 29.53H154.348H154.365ZM159.3 26.0184V23.495H169.274V26.0184H159.3Z" fill="white"/>
<path d="M69.6711 47.0596C68.523 47.0596 67.5325 46.8389 66.7174 46.4072C65.9023 45.9754 65.28 45.3614 64.8593 44.565C64.4386 43.7687 64.2282 42.8476 64.2282 41.8018V34.625H65.8234V41.8018C65.8234 42.9723 66.1389 43.855 66.7788 44.4691C67.4098 45.0831 68.3739 45.3902 69.6624 45.3902C70.5213 45.3902 71.24 45.2462 71.8097 44.968C72.3795 44.6898 72.8002 44.2868 73.0806 43.7495C73.3611 43.2122 73.4926 42.5693 73.4926 41.8018V34.625H75.0878V41.8018C75.0878 42.8476 74.8774 43.7783 74.4567 44.565C74.036 45.3614 73.4137 45.9754 72.5986 46.4072C71.7835 46.8389 70.8018 47.0596 69.6449 47.0596H69.6711Z" fill="white"/>
<path d="M77.4193 46.8866V34.6343H79.9786L86.4557 45.3131H86.5346V34.6343H88.1298V46.8866H85.5705L79.0933 36.2078H79.0145V46.8866H77.4193Z" fill="white"/>
<path d="M91.0483 34.6343V46.8866H92.6523V34.6343H91.0483Z" fill="white"/>
<path d="M99.5327 46.8866L93.9407 34.6343H95.7025L100.497 45.3131H100.576L105.37 34.6343H107.132L101.54 46.8866H99.5414H99.5327Z" fill="white"/>
<path d="M108.166 46.8866V34.6343H117.439V36.2941H109.761V45.2171H117.755V46.877H108.166V46.8866ZM109.507 41.552V39.8921H116.799V41.552H109.507Z" fill="white"/>
<path d="M119.683 46.8866V34.6343H126.002C126.958 34.6343 127.773 34.7878 128.421 35.1044C129.079 35.421 129.57 35.8528 129.903 36.4093C130.236 36.9658 130.402 37.599 130.402 38.309C130.402 38.9519 130.262 39.5179 129.99 40.0265C129.71 40.5254 129.307 40.9187 128.772 41.2066C128.237 41.4944 127.606 41.6383 126.888 41.6383V41.7247C127.904 41.7247 128.658 41.9646 129.166 42.4443C129.675 42.924 129.929 43.5861 129.929 44.44V46.8866H128.334V44.5263C128.334 43.8643 128.141 43.3558 127.764 43.02C127.387 42.6842 126.8 42.5115 126.011 42.5115H121.041V40.8516H126.011C126.896 40.8516 127.571 40.6405 128.036 40.2279C128.5 39.8154 128.728 39.2589 128.728 38.5777C128.728 37.8964 128.5 37.34 128.036 36.9274C127.571 36.5148 126.896 36.3037 126.011 36.3037H121.296V46.8962H119.7L119.683 46.8866Z" fill="white"/>
<path d="M137.283 47.0593C136.327 47.0593 135.433 46.9442 134.618 46.7043C133.803 46.4741 133.189 46.2054 132.786 45.9176V44.133C133.198 44.4688 133.812 44.7758 134.609 45.0636C135.407 45.3419 136.275 45.4858 137.204 45.4858C137.984 45.4858 138.624 45.3995 139.123 45.2268C139.623 45.0541 139.982 44.8238 140.21 44.5455C140.438 44.2673 140.543 43.9699 140.543 43.6532C140.543 43.2311 140.385 42.8953 140.078 42.6458C139.772 42.3963 139.386 42.2045 138.93 42.0701C138.475 41.9358 137.843 41.7919 137.046 41.6192C135.977 41.4081 135.118 41.197 134.46 40.9763C133.803 40.7557 133.242 40.4007 132.777 39.9305C132.304 39.4508 132.076 38.7984 132.076 37.9732C132.076 37.3592 132.26 36.7835 132.637 36.2462C133.014 35.7089 133.593 35.2867 134.399 34.9605C135.197 34.6343 136.204 34.4712 137.405 34.4712C138.334 34.4712 139.228 34.6055 140.087 34.8646C140.946 35.1236 141.612 35.4115 142.077 35.7281V37.5511C141.63 37.1769 140.972 36.8315 140.122 36.5148C139.263 36.1982 138.361 36.0447 137.414 36.0447C136.555 36.0447 135.845 36.1407 135.302 36.323C134.758 36.5053 134.364 36.7451 134.127 37.0425C133.891 37.3304 133.768 37.647 133.768 37.9732C133.768 38.3858 133.917 38.712 134.215 38.9519C134.513 39.1917 134.89 39.3836 135.337 39.5084C135.784 39.6331 136.415 39.7866 137.221 39.9497C138.29 40.1608 139.149 40.3719 139.816 40.5926C140.482 40.8132 141.051 41.1682 141.525 41.6576C141.998 42.1469 142.235 42.8089 142.235 43.6532C142.235 44.2577 142.051 44.8238 141.691 45.3419C141.332 45.86 140.78 46.2822 140.035 46.5892C139.29 46.9058 138.378 47.0593 137.291 47.0593H137.283Z" fill="white"/>
<path d="M144.557 34.6343V46.8866H146.152V34.6343H144.557Z" fill="white"/>
<path d="M147.607 36.3039V34.644H158.16V36.3039H147.607ZM152.086 46.8964V36.0257H153.681V46.8964H152.086Z" fill="white"/>
<path d="M164.76 46.8866V44.085L159.002 34.6343H160.79L165.505 42.5115H165.601L170.317 34.6343H172.105L166.346 44.085V46.8866H164.751H164.76Z" fill="white"/>
<path d="M48.811 12.96L30.2648 1.23538C28.5644 0.160788 26.4433 1.50403 26.4433 3.65323V56.3468C26.4433 58.496 28.5644 59.8297 30.2648 58.7647L48.811 47.0401C49.8628 46.378 50.5114 45.1499 50.5114 43.8163V30L42.4916 35.066V41.811L34.4719 46.877V13.1135L42.4916 18.1795V24.9245L50.5114 29.9904V16.1838C50.5114 14.8597 49.8628 13.6316 48.811 12.96ZM20.2466 1.23538L1.70037 12.96C0.648595 13.622 0 14.8501 0 16.1838V43.8163C0 45.1403 0.648595 46.3684 1.70037 47.0401L20.2466 58.7647C21.947 59.8393 24.0681 58.496 24.0681 56.3468V38.2898C24.0681 36.2941 23.0952 34.4519 21.5175 33.4637L16.0395 30.0096L21.5175 26.546C23.0952 25.5481 24.0681 23.706 24.0681 21.7199V3.65323C24.0681 1.50403 21.947 0.170382 20.2466 1.23538ZM16.0483 46.877L8.02851 41.811V30.7292L16.0483 35.7952V46.877ZM16.0483 24.1857L8.02851 29.2517V18.1699L16.0483 13.1039V24.1857Z" fill="url(#paint0_linear_3002_29850)"/>
<defs>
<linearGradient id="paint0_linear_3002_29850" x1="48.7584" y1="6.42607" x2="-2.10489" y2="48.9843" gradientUnits="userSpaceOnUse">
<stop stop-color="#765A97"/>
<stop offset="1" stop-color="#643C88"/>
</linearGradient>
</defs>
</svg>
