<svg width="191" height="60" viewBox="0 0 191 60" fill="none" xmlns="http://www.w3.org/2000/svg">
<g clip-path="url(#clip0_3002_29872)">
<path d="M65.3148 29.53V13.1616H75.0073C76.4338 13.1616 77.6121 13.3439 78.5424 13.7277C79.4726 14.1019 80.1548 14.6008 80.5801 15.2245C81.0142 15.8481 81.2268 16.5677 81.2268 17.3737C81.2268 18.5634 80.8281 19.5037 80.013 20.2041C79.2068 20.9045 78.0108 21.2595 76.4249 21.2595V21.4706C77.8336 21.4706 78.9145 21.8064 79.6676 22.4876C80.4118 23.1688 80.7927 24.0611 80.7927 25.1933C80.7927 26.0376 80.5889 26.786 80.1814 27.4384C79.7738 28.0908 79.1271 28.609 78.25 28.9832C77.3729 29.3573 76.2743 29.5492 74.9453 29.5492H65.3148V29.53ZM74.0859 25.9513C74.6352 25.9513 75.0782 25.8841 75.4149 25.7402C75.7515 25.5963 75.9996 25.4044 76.1591 25.1645C76.3186 24.9246 76.3983 24.6272 76.3983 24.2914C76.3983 23.9556 76.3186 23.6773 76.1591 23.4375C75.9996 23.1976 75.7515 23.0057 75.406 22.8618C75.0605 22.7179 74.6175 22.6507 74.0859 22.6507H69.1599V20.1465H74.52C75.3085 20.1465 75.8933 19.993 76.2654 19.6764C76.6375 19.3597 76.8236 18.9376 76.8236 18.3907C76.8236 17.8918 76.6286 17.4888 76.2477 17.1914C75.8667 16.8843 75.282 16.7308 74.5112 16.7308H69.5054V25.9417H74.0859V25.9513Z" fill="white"/>
<path d="M80.3231 29.53L87.6412 13.1616H93.081L100.399 29.53H95.7301L90.4143 17.3737H90.2459L84.9744 29.53H80.3054H80.3231ZM85.3111 26.0184V23.495H95.3935V26.0184H85.3111Z" fill="white"/>
<path d="M100.842 29.53V13.1616H107.558L113.494 25.2988H113.662V13.1616H117.72V29.53H111.004L105.068 17.3928H104.891V29.53H100.833H100.842Z" fill="white"/>
<path d="M118.163 29.53L125.481 13.1616H130.921L138.239 29.53H133.57L128.254 17.3737H128.086L122.814 29.53H118.145H118.163ZM123.151 26.0184V23.495H133.233V26.0184H123.151Z" fill="white"/>
<path d="M138.673 29.53V13.1616H145.389L151.325 25.2988H151.493V13.1616H155.551V29.53H148.835L142.899 17.3928H142.722V29.53H138.664H138.673Z" fill="white"/>
<path d="M155.994 29.53L163.312 13.1616H168.752L176.07 29.53H171.401L166.085 17.3737H165.917L160.645 29.53H155.976H155.994ZM160.982 26.0184V23.495H171.064V26.0184H160.982Z" fill="white"/>
<path d="M63.5872 46.8866L69.4081 34.6343H71.3483L77.1692 46.8866H75.4769L70.4358 36.2078H70.3383L65.2971 46.8866H63.5961H63.5872ZM66.4932 43.7396V42.0797H74.2543V43.7396H66.4932Z" fill="white"/>
<path d="M82.6002 47.0593C81.6345 47.0593 80.7308 46.9442 79.9068 46.7043C79.0829 46.4645 78.4627 46.2054 78.0552 45.9176V44.1329C78.4716 44.4688 79.0917 44.7854 79.8979 45.0636C80.7042 45.3419 81.5813 45.4858 82.5204 45.4858C83.3089 45.4858 83.9557 45.3994 84.4607 45.2267C84.9657 45.054 85.3289 44.8238 85.5593 44.5455C85.7897 44.2673 85.896 43.9698 85.896 43.6532C85.896 43.2311 85.7365 42.8953 85.4264 42.6458C85.1163 42.3963 84.7265 42.2044 84.2658 42.0701C83.8051 41.9358 83.1672 41.7823 82.361 41.6192C81.2801 41.4081 80.4118 41.197 79.7473 40.9763C79.0829 40.7557 78.5159 40.4006 78.0463 39.9305C77.5767 39.4604 77.3375 38.7984 77.3375 37.9732C77.3375 37.3592 77.5235 36.7835 77.9045 36.2462C78.2855 35.7185 78.8702 35.2867 79.6853 34.9605C80.4915 34.6343 81.5104 34.4712 82.7242 34.4712C83.6633 34.4712 84.567 34.6055 85.4353 34.8645C86.3035 35.1236 86.9769 35.4115 87.4464 35.7281V37.5511C86.9946 37.1769 86.3301 36.8314 85.4707 36.5148C84.6025 36.1982 83.6899 36.0447 82.7331 36.0447C81.8648 36.0447 81.1472 36.1406 80.5979 36.3229C80.0486 36.5052 79.6499 36.7451 79.4107 37.0425C79.1715 37.3304 79.0474 37.647 79.0474 37.9732C79.0474 38.3858 79.1981 38.712 79.4993 38.9519C79.8005 39.2013 80.1815 39.3836 80.6333 39.5084C81.0852 39.6331 81.7231 39.7866 82.5382 39.9497C83.619 40.1608 84.4873 40.3719 85.1606 40.6021C85.8339 40.8228 86.4098 41.1778 86.8883 41.6672C87.3667 42.1565 87.6059 42.8185 87.6059 43.6628C87.6059 44.2673 87.4198 44.8334 87.0566 45.3515C86.6933 45.8696 86.1352 46.2917 85.3821 46.5988C84.629 46.9154 83.7076 47.0689 82.609 47.0689L82.6002 47.0593Z" fill="white"/>
<path d="M94.5608 47.0593C93.5951 47.0593 92.6913 46.9442 91.8674 46.7043C91.0434 46.4645 90.4233 46.2054 90.0157 45.9176V44.1329C90.4321 44.4688 91.0523 44.7854 91.8585 45.0636C92.6647 45.3419 93.5419 45.4858 94.481 45.4858C95.2695 45.4858 95.9163 45.3994 96.4213 45.2267C96.9263 45.054 97.2895 44.8238 97.5199 44.5455C97.7502 44.2673 97.8565 43.9698 97.8565 43.6532C97.8565 43.2311 97.6971 42.8953 97.387 42.6458C97.0769 42.3963 96.687 42.2044 96.2263 42.0701C95.7656 41.9358 95.1278 41.7823 94.3215 41.6192C93.2406 41.4081 92.3724 41.197 91.7079 40.9763C91.0434 40.7557 90.4764 40.4006 90.0069 39.9305C89.5373 39.4604 89.2981 38.7984 89.2981 37.9732C89.2981 37.3592 89.4841 36.7835 89.8651 36.2462C90.246 35.7185 90.8308 35.2867 91.6459 34.9605C92.4521 34.6343 93.471 34.4712 94.6848 34.4712C95.6239 34.4712 96.5276 34.6055 97.3958 34.8645C98.2641 35.1236 98.9374 35.4115 99.407 35.7281V37.5511C98.9551 37.1769 98.2907 36.8314 97.4313 36.5148C96.563 36.1982 95.6505 36.0447 94.6936 36.0447C93.8254 36.0447 93.1078 36.1406 92.5585 36.3229C92.0092 36.5052 91.6104 36.7451 91.3712 37.0425C91.132 37.3304 91.008 37.647 91.008 37.9732C91.008 38.3858 91.1586 38.712 91.4599 38.9519C91.7611 39.2013 92.142 39.3836 92.5939 39.5084C93.0457 39.6331 93.6836 39.7866 94.4987 39.9497C95.5796 40.1608 96.4478 40.3719 97.1212 40.6021C97.7945 40.8228 98.3704 41.1778 98.8488 41.6672C99.3272 42.1565 99.5665 42.8185 99.5665 43.6628C99.5665 44.2673 99.3804 44.8334 99.0172 45.3515C98.6539 45.8696 98.0957 46.2917 97.3427 46.5988C96.5896 46.9154 95.6682 47.0689 94.5696 47.0689L94.5608 47.0593Z" fill="white"/>
<path d="M101.905 34.6343V46.8866H103.518V34.6343H101.905Z" fill="white"/>
<path d="M110.606 47.0593C109.64 47.0593 108.736 46.9442 107.912 46.7043C107.088 46.4645 106.468 46.2054 106.061 45.9176V44.1329C106.477 44.4688 107.097 44.7854 107.904 45.0636C108.71 45.3419 109.587 45.4858 110.526 45.4858C111.315 45.4858 111.961 45.3994 112.466 45.2267C112.971 45.054 113.335 44.8238 113.565 44.5455C113.795 44.2673 113.902 43.9698 113.902 43.6532C113.902 43.2311 113.742 42.8953 113.432 42.6458C113.122 42.3963 112.732 42.2044 112.271 42.0701C111.811 41.9358 111.173 41.7823 110.367 41.6192C109.286 41.4081 108.417 41.197 107.753 40.9763C107.088 40.7557 106.521 40.4006 106.052 39.9305C105.582 39.4604 105.343 38.7984 105.343 37.9732C105.343 37.3592 105.529 36.7835 105.91 36.2462C106.291 35.7185 106.876 35.2867 107.691 34.9605C108.497 34.6343 109.516 34.4712 110.73 34.4712C111.669 34.4712 112.573 34.6055 113.441 34.8645C114.309 35.1236 114.982 35.4115 115.452 35.7281V37.5511C115 37.1769 114.336 36.8314 113.476 36.5148C112.608 36.1982 111.696 36.0447 110.739 36.0447C109.87 36.0447 109.153 36.1406 108.604 36.3229C108.054 36.5052 107.655 36.7451 107.416 37.0425C107.177 37.3304 107.053 37.647 107.053 37.9732C107.053 38.3858 107.204 38.712 107.505 38.9519C107.806 39.2013 108.187 39.3836 108.639 39.5084C109.091 39.6331 109.729 39.7866 110.544 39.9497C111.625 40.1608 112.493 40.3719 113.166 40.6021C113.84 40.8228 114.415 41.1778 114.894 41.6672C115.372 42.1565 115.612 42.8185 115.612 43.6628C115.612 44.2673 115.425 44.8334 115.062 45.3515C114.699 45.8696 114.141 46.2917 113.388 46.5988C112.635 46.9154 111.713 47.0689 110.615 47.0689L110.606 47.0593Z" fill="white"/>
<path d="M116.648 36.2942V34.6343H127.315V36.2942H116.648ZM121.175 46.8866V36.0159H122.788V46.8866H121.175Z" fill="white"/>
<path d="M126.022 46.8866L131.842 34.6343H133.783L139.603 46.8866H137.911L132.87 36.2078H132.773L127.732 46.8866H126.03H126.022ZM128.928 43.7396V42.0797H136.689V43.7396H128.928Z" fill="white"/>
<path d="M140.649 46.8866V34.6343H143.236L149.783 45.3131H149.863V34.6343H151.476V46.8866H148.888L142.341 36.2078H142.261V46.8866H140.649Z" fill="white"/>
<path d="M160.53 47.0596C159.104 47.0596 157.881 46.791 156.844 46.2441C155.808 45.6972 155.019 44.9488 154.479 43.999C153.938 43.0395 153.664 41.9649 153.664 40.7656C153.664 39.5663 153.938 38.4725 154.497 37.5226C155.055 36.5727 155.87 35.8244 156.951 35.2775C158.032 34.7306 159.334 34.4619 160.858 34.4619C161.806 34.4619 162.701 34.5962 163.533 34.8649C164.366 35.1335 165.013 35.4406 165.465 35.7764V37.6186C165.031 37.2252 164.402 36.8606 163.569 36.5344C162.736 36.2081 161.832 36.045 160.858 36.045C159.706 36.045 158.714 36.2561 157.89 36.6687C157.066 37.0812 156.437 37.6473 156.003 38.3669C155.569 39.0865 155.356 39.8829 155.356 40.7752C155.356 41.6675 155.56 42.4542 155.976 43.1738C156.393 43.8934 156.995 44.4691 157.775 44.8817C158.563 45.2942 159.476 45.5053 160.521 45.5053C161.425 45.5053 162.284 45.3806 163.082 45.1311C163.879 44.8817 164.508 44.6034 164.96 44.2964V46.081C164.517 46.34 163.897 46.5703 163.082 46.7718C162.275 46.9733 161.416 47.0788 160.512 47.0788L160.53 47.0596Z" fill="white"/>
<path d="M167.556 46.8866V34.6343H176.929V36.2942H169.168V45.2171H177.248V46.877H167.556V46.8866ZM168.911 41.552V39.8921H176.283V41.552H168.911Z" fill="white"/>
<path d="M20.4226 1.23539L1.67551 12.96C0.612346 13.622 -0.0432739 14.8501 -0.0432739 16.1838V43.8163C-0.0432739 45.1403 0.612346 46.3684 1.67551 47.0401L20.4226 58.7647C22.1414 59.8393 24.2855 58.496 24.2855 56.3469V38.2898C24.2855 36.2941 23.302 34.4519 21.7073 33.4637L16.17 30.0096L21.7073 26.546C23.302 25.5481 24.2855 23.706 24.2855 21.7199V3.66282C24.2855 1.51363 22.1414 0.179988 20.4226 1.24499V1.23539ZM16.1788 46.877L8.07219 41.811V30.7292L16.1788 35.7952V46.877ZM16.1788 24.1857L8.07219 29.2517V18.1699L16.1788 13.1039V24.1857ZM49.3053 12.96L30.5581 1.23539C28.8393 0.160789 26.6953 1.50402 26.6953 3.65322V56.3469C26.6953 58.496 28.8393 59.8297 30.5581 58.7647L49.3053 47.0401C50.3685 46.378 51.0241 45.1499 51.0241 43.8163V30L42.9174 35.066V41.811L34.8108 46.877V13.1039L42.9174 18.1699V24.9149L51.0241 29.9808V16.1646C51.0241 14.8405 50.3685 13.6124 49.3053 12.9408V12.96Z" fill="url(#paint0_linear_3002_29872)"/>
</g>
<defs>
<linearGradient id="paint0_linear_3002_29872" x1="58.1207" y1="1.65755" x2="-7.23037" y2="50.0398" gradientUnits="userSpaceOnUse">
<stop stop-color="#297F69"/>
<stop offset="1" stop-color="#004C36"/>
</linearGradient>
<clipPath id="clip0_3002_29872">
<rect width="190.286" height="60" fill="white"/>
</clipPath>
</defs>
</svg>
